<svg width="24" height="24" viewBox="0 0 24 24" fill="none" xmlns="http://www.w3.org/2000/svg">
<path d="M2.58598 1.57922C2.46043 1.51643 2.31978 1.49013 2.18002 1.50332C2.04026 1.51651 1.90701 1.56866 1.79543 1.65383C1.68384 1.739 1.5984 1.85378 1.54882 1.98511C1.49924 2.11645 1.48752 2.25906 1.51498 2.39672L3.61948 9.67172C3.65872 9.80729 3.73542 9.92904 3.84076 10.023C3.9461 10.1169 4.07581 10.1792 4.21498 10.2027L12.75 11.6322C13.152 11.7117 13.152 12.2877 12.75 12.3672L4.21498 13.7967C4.07581 13.8202 3.9461 13.8825 3.84076 13.9765C3.73542 14.0704 3.65872 14.1921 3.61948 14.3277L1.51498 21.6027C1.48752 21.7404 1.49924 21.883 1.54882 22.0143C1.5984 22.1457 1.68384 22.2604 1.79543 22.3456C1.90701 22.4308 2.04026 22.4829 2.18002 22.4961C2.31978 22.5093 2.46043 22.483 2.58598 22.4202L22.086 12.6702C22.2104 12.6079 22.315 12.5121 22.3881 12.3937C22.4612 12.2753 22.4999 12.1389 22.4999 11.9997C22.4999 11.8606 22.4612 11.7241 22.3881 11.6057C22.315 11.4873 22.2104 11.3916 22.086 11.3292L2.58598 1.57922Z" fill="url(#paint0_linear_218_1908)"/>
<defs>
<linearGradient id="paint0_linear_218_1908" x1="2.897" y1="10.031" x2="19.8859" y2="11.4524" gradientUnits="userSpaceOnUse">
<stop stop-color="#68C9FF"/>
<stop offset="0.994746" stop-color="#D1B5FF"/>
</linearGradient>
</defs>
</svg>
