<svg width="18" height="19" viewBox="0 0 18 19" fill="none" xmlns="http://www.w3.org/2000/svg">
<path d="M8.99978 10.0324L6.34478 7.37739C6.20426 7.2377 6.01417 7.1593 5.81603 7.1593C5.61789 7.1593 5.4278 7.2377 5.28728 7.37739C5.21698 7.44711 5.16119 7.53006 5.12311 7.62146C5.08503 7.71285 5.06543 7.81088 5.06543 7.90989C5.06543 8.0089 5.08503 8.10693 5.12311 8.19832C5.16119 8.28972 5.21698 8.37267 5.28728 8.44239L8.46728 11.6224C8.537 11.6927 8.61995 11.7485 8.71135 11.7866C8.80274 11.8246 8.90077 11.8442 8.99978 11.8442C9.09879 11.8442 9.19682 11.8246 9.28821 11.7866C9.37961 11.7485 9.46256 11.6927 9.53228 11.6224L12.7498 8.44239C12.8193 8.37231 12.8743 8.2892 12.9116 8.19782C12.9489 8.10644 12.9679 8.00859 12.9673 7.90989C12.9679 7.81118 12.9489 7.71334 12.9116 7.62196C12.8743 7.53058 12.8193 7.44747 12.7498 7.37739C12.6093 7.2377 12.4192 7.15929 12.221 7.15929C12.0229 7.15929 11.8328 7.2377 11.6923 7.37739L8.99978 10.0324Z" fill="#C8D2DC"/>
</svg>
