<svg width="16" height="20" viewBox="0 0 16 20" fill="none" xmlns="http://www.w3.org/2000/svg">
<g clip-path="url(#clip0_1_395)">
<path d="M0.146774 3.41643C1.21344 6.14976 2.99344 10.0164 4.57344 13.4164C5.40011 15.2081 6.18011 16.8998 6.74011 18.1831C6.85765 18.476 7.03805 18.7223 7.26116 18.8944C7.48426 19.0666 7.74127 19.1577 8.00344 19.1577C8.26561 19.1577 8.52262 19.0666 8.74572 18.8944C8.96883 18.7223 9.14923 18.476 9.26677 18.1831C9.82677 16.8998 10.6001 15.2081 11.4334 13.4248C13.0068 10.0081 14.7668 6.1331 15.8601 3.42476C15.9563 3.18113 16.0065 2.91313 16.0068 2.64143C16.0085 2.40475 15.9728 2.16997 15.9015 1.95067C15.8303 1.73137 15.725 1.53188 15.5917 1.36374C15.4584 1.1956 15.2998 1.06214 15.1251 0.971056C14.9503 0.879976 14.7628 0.833088 14.5734 0.833097L1.42677 0.833096C1.23855 0.834187 1.05233 0.881613 0.878767 0.972663C0.7052 1.06371 0.547681 1.1966 0.415203 1.36375C0.282724 1.5309 0.177881 1.72902 0.106659 1.94682C0.0354362 2.16461 -0.000769104 2.39781 0.000108256 2.6331C0.00039052 2.9048 0.0505671 3.17279 0.146774 3.41643Z" fill="#525960"/>
</g>
<defs>
<clipPath id="clip0_1_395">
<rect width="16" height="20" fill="white" transform="translate(16 20) rotate(-180)"/>
</clipPath>
</defs>
</svg>
