<svg width="48" height="48" viewBox="0 0 48 48" fill="none" xmlns="http://www.w3.org/2000/svg">
<rect width="48" height="48" rx="12" fill="url(#paint0_linear_403_2739)" fill-opacity="0.1"/>
<g clip-path="url(#clip0_403_2739)">
<path d="M30.4869 34.5001C30.3003 34.5008 30.1163 34.4568 29.9502 34.3717L24.0002 31.2567L18.0502 34.3717C17.857 34.4733 17.6392 34.5187 17.4215 34.5026C17.2038 34.4866 16.9949 34.4098 16.8187 34.281C16.6425 34.1521 16.5059 33.9765 16.4246 33.7739C16.3432 33.5713 16.3204 33.35 16.3585 33.1351L17.5252 26.5667L12.7185 21.9001C12.5686 21.7504 12.4622 21.5628 12.4108 21.3572C12.3594 21.1517 12.365 20.936 12.4269 20.7334C12.4945 20.5261 12.6189 20.3418 12.7859 20.2016C12.953 20.0614 13.156 19.9708 13.3719 19.9401L20.0219 18.9717L22.9502 12.9867C23.0457 12.7895 23.1949 12.6231 23.3806 12.5067C23.5663 12.3903 23.781 12.3286 24.0002 12.3286C24.2194 12.3286 24.4341 12.3903 24.6198 12.5067C24.8055 12.6231 24.9547 12.7895 25.0502 12.9867L28.0135 18.9601L34.6635 19.9284C34.8795 19.9591 35.0825 20.0497 35.2495 20.1899C35.4165 20.3302 35.5409 20.5144 35.6085 20.7217C35.6704 20.9244 35.676 21.14 35.6246 21.3456C35.5732 21.5511 35.4668 21.7388 35.3169 21.8884L30.5102 26.5551L31.6769 33.1234C31.7185 33.3421 31.6967 33.5682 31.614 33.7749C31.5313 33.9817 31.3912 34.1604 31.2102 34.2901C30.9989 34.4381 30.7446 34.512 30.4869 34.5001Z" fill="url(#paint1_linear_403_2739)"/>
</g>
<defs>
<linearGradient id="paint0_linear_403_2739" x1="3.19212" y1="19.5" x2="42.025" y2="22.7489" gradientUnits="userSpaceOnUse">
<stop stop-color="#68C9FF"/>
<stop offset="0.994746" stop-color="#D1B5FF"/>
</linearGradient>
<linearGradient id="paint1_linear_403_2739" x1="13.9244" y1="21.3381" x2="32.7478" y2="22.9915" gradientUnits="userSpaceOnUse">
<stop stop-color="#68C9FF"/>
<stop offset="0.994746" stop-color="#D1B5FF"/>
</linearGradient>
<clipPath id="clip0_403_2739">
<rect width="28" height="28" fill="white" transform="translate(10 10)"/>
</clipPath>
</defs>
</svg>
