<svg width="283" height="56" viewBox="0 0 283 56" fill="none" xmlns="http://www.w3.org/2000/svg">
<path opacity="0.2" d="M58.12 55V56H59.12V55H58.12ZM46.68 55H45.68V56H46.68V55ZM46.68 17.64H47.68L45.7523 17.2666L46.68 17.64ZM31.64 55V56H32.3154L32.5677 55.3734L31.64 55ZM26.68 55L25.7523 55.3734L26.0046 56H26.68V55ZM11.64 17.64L12.5677 17.2666L10.64 17.64H11.64ZM11.64 55V56H12.64V55H11.64ZM0.28 55H-0.72V56H0.28V55ZM0.28 1.64V0.639996H-0.72V1.64H0.28ZM16.2 1.64L17.1278 1.26702L16.8758 0.639996H16.2V1.64ZM29.16 33.88L28.2322 34.253L29.16 36.5611L30.0878 34.253L29.16 33.88ZM42.12 1.64V0.639996H41.4442L41.1922 1.26702L42.12 1.64ZM58.12 1.64H59.12V0.639996H58.12V1.64ZM58.12 54H46.68V56H58.12V54ZM47.68 55V17.64H45.68V55H47.68ZM45.7523 17.2666L30.7123 54.6266L32.5677 55.3734L47.6077 18.0134L45.7523 17.2666ZM31.64 54H26.68V56H31.64V54ZM27.6077 54.6266L12.5677 17.2666L10.7123 18.0134L25.7523 55.3734L27.6077 54.6266ZM10.64 17.64V55H12.64V17.64H10.64ZM11.64 54H0.28V56H11.64V54ZM1.28 55V1.64H-0.72V55H1.28ZM0.28 2.64H16.2V0.639996H0.28V2.64ZM15.2722 2.01297L28.2322 34.253L30.0878 33.507L17.1278 1.26702L15.2722 2.01297ZM30.0878 34.253L43.0478 2.01297L41.1922 1.26702L28.2322 33.507L30.0878 34.253ZM42.12 2.64H58.12V0.639996H42.12V2.64ZM57.12 1.64V55H59.12V1.64H57.12ZM73.9975 48.2L73.2904 48.9071L73.2976 48.9143L73.9975 48.2ZM73.9975 8.6L74.701 9.31072L74.701 9.31068L73.9975 8.6ZM113.998 8.52L113.294 9.23073L113.298 9.23428L113.998 8.52ZM113.998 48.2L113.298 47.4857L113.294 47.4893L113.998 48.2ZM82.2375 40.92L81.4894 41.5836L81.4954 41.5903L82.2375 40.92ZM105.758 40.92L106.5 41.5903L105.758 40.92ZM105.758 15.8L105.015 16.4703L105.758 15.8ZM82.2375 15.8L81.4954 15.1297L81.4894 15.1364L82.2375 15.8ZM93.9975 54.96C86.1801 54.96 79.7728 52.4587 74.6974 47.4857L73.2976 48.9143C78.7822 54.288 85.7082 56.96 93.9975 56.96V54.96ZM74.7046 47.4929C69.6819 42.4701 67.1575 36.1189 67.1575 28.36H65.1575C65.1575 36.6011 67.8598 43.4765 73.2904 48.9071L74.7046 47.4929ZM67.1575 28.36C67.1575 20.6011 69.6817 14.2788 74.701 9.31072L73.294 7.88927C67.86 13.2679 65.1575 20.1189 65.1575 28.36H67.1575ZM74.701 9.31068C79.7771 4.28583 86.1833 1.76 93.9975 1.76V-0.240002C85.7051 -0.240002 78.7779 2.46083 73.294 7.88931L74.701 9.31068ZM93.9975 1.76C101.87 1.76 108.275 4.26251 113.294 9.23072L114.701 7.80927C109.267 2.43081 102.338 -0.240002 93.9975 -0.240002V1.76ZM113.298 9.23428C118.367 14.2017 120.918 20.5488 120.918 28.36H122.918C122.918 20.0645 120.188 13.185 114.697 7.80571L113.298 9.23428ZM120.918 28.36C120.918 36.1712 118.367 42.5183 113.298 47.4857L114.697 48.9143C120.188 43.535 122.918 36.6555 122.918 28.36H120.918ZM113.294 47.4893C108.275 52.4575 101.87 54.96 93.9975 54.96V56.96C102.338 56.96 109.267 54.2892 114.701 48.9107L113.294 47.4893ZM81.4954 41.5903C84.6898 45.127 88.8896 46.88 93.9975 46.88V44.88C89.3988 44.88 85.7585 43.3264 82.9796 40.2497L81.4954 41.5903ZM93.9975 46.88C99.1054 46.88 103.305 45.127 106.5 41.5903L105.015 40.2497C102.236 43.3264 98.5962 44.88 93.9975 44.88V46.88ZM106.5 41.5903C109.675 38.0745 111.238 33.6379 111.238 28.36H109.238C109.238 33.2154 107.813 37.1522 105.015 40.2497L106.5 41.5903ZM111.238 28.36C111.238 23.0821 109.675 18.6455 106.5 15.1297L105.015 16.4703C107.813 19.5678 109.238 23.5046 109.238 28.36H111.238ZM106.5 15.1297C103.305 11.593 99.1054 9.84 93.9975 9.84V11.84C98.5962 11.84 102.236 13.3936 105.015 16.4703L106.5 15.1297ZM93.9975 9.84C88.8896 9.84 84.6898 11.593 81.4954 15.1297L82.9796 16.4703C85.7585 13.3936 89.3988 11.84 93.9975 11.84V9.84ZM81.4894 15.1364C78.3702 18.6527 76.8375 23.0869 76.8375 28.36H78.8375C78.8375 23.4998 80.2382 19.5607 82.9856 16.4636L81.4894 15.1364ZM76.8375 28.36C76.8375 33.6331 78.3702 38.0673 81.4894 41.5836L82.9856 40.2564C80.2382 37.1593 78.8375 33.2202 78.8375 28.36H76.8375ZM177.649 55V56H178.649V55H177.649ZM166.689 55L165.882 55.5902L166.182 56H166.689V55ZM141.249 20.2L142.057 19.6098L140.249 17.1376V20.2H141.249ZM141.249 55V56H142.249V55H141.249ZM129.889 55H128.889V56H129.889V55ZM129.889 1.64V0.639996H128.889V1.64H129.889ZM141.569 1.64L142.374 1.04647L142.074 0.639996H141.569V1.64ZM166.289 35.16L165.485 35.7535L167.289 38.2008V35.16H166.289ZM166.289 1.64V0.639996H165.289V1.64H166.289ZM177.649 1.64H178.649V0.639996H177.649V1.64ZM177.649 54H166.689V56H177.649V54ZM167.497 54.4098L142.057 19.6098L140.442 20.7902L165.882 55.5902L167.497 54.4098ZM140.249 20.2V55H142.249V20.2H140.249ZM141.249 54H129.889V56H141.249V54ZM130.889 55V1.64H128.889V55H130.889ZM129.889 2.64H141.569V0.639996H129.889V2.64ZM140.765 2.23352L165.485 35.7535L167.094 34.5665L142.374 1.04647L140.765 2.23352ZM167.289 35.16V1.64H165.289V35.16H167.289ZM166.289 2.64H177.649V0.639996H166.289V2.64ZM176.649 1.64V55H178.649V1.64H176.649ZM211.931 55V56H212.931V55H211.931ZM200.491 55H199.491V56H200.491V55ZM200.491 11.64H201.491V10.64H200.491V11.64ZM184.891 11.64H183.891V12.64H184.891V11.64ZM184.891 1.64V0.639996H183.891V1.64H184.891ZM227.451 1.64H228.451V0.639996H227.451V1.64ZM227.451 11.64V12.64H228.451V11.64H227.451ZM211.931 11.64V10.64H210.931V11.64H211.931ZM211.931 54H200.491V56H211.931V54ZM201.491 55V11.64H199.491V55H201.491ZM200.491 10.64H184.891V12.64H200.491V10.64ZM185.891 11.64V1.64H183.891V11.64H185.891ZM184.891 2.64H227.451V0.639996H184.891V2.64ZM226.451 1.64V11.64H228.451V1.64H226.451ZM227.451 10.64H211.931V12.64H227.451V10.64ZM210.931 11.64V55H212.931V11.64H210.931ZM282.733 55V56H283.733V55H282.733ZM271.293 55H270.293V56H271.293V55ZM271.293 32.6H272.293V31.6H271.293V32.6ZM246.093 32.6V31.6H245.093V32.6H246.093ZM246.093 55V56H247.093V55H246.093ZM234.733 55H233.733V56H234.733V55ZM234.733 1.64V0.639996H233.733V1.64H234.733ZM246.093 1.64H247.093V0.639996H246.093V1.64ZM246.093 22.6H245.093V23.6H246.093V22.6ZM271.293 22.6V23.6H272.293V22.6H271.293ZM271.293 1.64V0.639996H270.293V1.64H271.293ZM282.733 1.64H283.733V0.639996H282.733V1.64ZM282.733 54H271.293V56H282.733V54ZM272.293 55V32.6H270.293V55H272.293ZM271.293 31.6H246.093V33.6H271.293V31.6ZM245.093 32.6V55H247.093V32.6H245.093ZM246.093 54H234.733V56H246.093V54ZM235.733 55V1.64H233.733V55H235.733ZM234.733 2.64H246.093V0.639996H234.733V2.64ZM245.093 1.64V22.6H247.093V1.64H245.093ZM246.093 23.6H271.293V21.6H246.093V23.6ZM272.293 22.6V1.64H270.293V22.6H272.293ZM271.293 2.64H282.733V0.639996H271.293V2.64ZM281.733 1.64V55H283.733V1.64H281.733Z" fill="#FCFFFF"/>
</svg>
