<svg width="529" height="56" viewBox="0 0 529 56" fill="none" xmlns="http://www.w3.org/2000/svg">
<path opacity="0.2" d="M8.56 48.2L7.85286 48.9071L7.86014 48.9143L8.56 48.2ZM8.56 8.6L9.26347 9.31072L9.26351 9.31068L8.56 8.6ZM48.56 8.52L47.8565 9.23073L47.8601 9.23428L48.56 8.52ZM48.56 48.2L47.8601 47.4857L47.8565 47.4893L48.56 48.2ZM16.8 40.92L16.0519 41.5836L16.0579 41.5903L16.8 40.92ZM40.32 40.92L41.0621 41.5903L40.32 40.92ZM40.32 15.8L39.5779 16.4703L40.32 15.8ZM16.8 15.8L16.0579 15.1297L16.0519 15.1364L16.8 15.8ZM28.56 54.96C20.7426 54.96 14.3353 52.4587 9.25986 47.4857L7.86014 48.9143C13.3447 54.288 20.2707 56.96 28.56 56.96V54.96ZM9.26711 47.4929C4.24435 42.4701 1.72 36.1189 1.72 28.36H-0.28C-0.28 36.6011 2.42231 43.4765 7.85289 48.9071L9.26711 47.4929ZM1.72 28.36C1.72 20.6011 4.24421 14.2788 9.26347 9.31072L7.85653 7.88927C2.42246 13.2679 -0.28 20.1189 -0.28 28.36H1.72ZM9.26351 9.31068C14.3396 4.28583 20.7458 1.76 28.56 1.76V-0.240002C20.2676 -0.240002 13.3404 2.46083 7.85649 7.88931L9.26351 9.31068ZM28.56 1.76C36.4328 1.76 42.8371 4.26251 47.8565 9.23072L49.2635 7.80927C43.8296 2.43081 36.9006 -0.240002 28.56 -0.240002V1.76ZM47.8601 9.23428C52.93 14.2017 55.48 20.5488 55.48 28.36H57.48C57.48 20.0645 54.75 13.185 49.2599 7.80571L47.8601 9.23428ZM55.48 28.36C55.48 36.1712 52.93 42.5183 47.8601 47.4857L49.2599 48.9143C54.75 43.535 57.48 36.6555 57.48 28.36H55.48ZM47.8565 47.4893C42.8371 52.4575 36.4328 54.96 28.56 54.96V56.96C36.9006 56.96 43.8296 54.2892 49.2635 48.9107L47.8565 47.4893ZM16.0579 41.5903C19.2523 45.127 23.4521 46.88 28.56 46.88V44.88C23.9613 44.88 20.321 43.3264 17.5421 40.2497L16.0579 41.5903ZM28.56 46.88C33.6679 46.88 37.8677 45.127 41.0621 41.5903L39.5779 40.2497C36.799 43.3264 33.1587 44.88 28.56 44.88V46.88ZM41.0621 41.5903C44.2376 38.0745 45.8 33.6379 45.8 28.36H43.8C43.8 33.2154 42.3757 37.1522 39.5779 40.2497L41.0621 41.5903ZM45.8 28.36C45.8 23.0821 44.2376 18.6455 41.0621 15.1297L39.5779 16.4703C42.3757 19.5678 43.8 23.5046 43.8 28.36H45.8ZM41.0621 15.1297C37.8677 11.593 33.6679 9.84 28.56 9.84V11.84C33.1587 11.84 36.799 13.3936 39.5779 16.4703L41.0621 15.1297ZM28.56 9.84C23.4521 9.84 19.2523 11.593 16.0579 15.1297L17.5421 16.4703C20.321 13.3936 23.9613 11.84 28.56 11.84V9.84ZM16.0519 15.1364C12.9327 18.6527 11.4 23.0869 11.4 28.36H13.4C13.4 23.4998 14.8007 19.5607 17.5481 16.4636L16.0519 15.1364ZM11.4 28.36C11.4 33.6331 12.9327 38.0673 16.0519 41.5836L17.5481 40.2564C14.8007 37.1593 13.4 33.2202 13.4 28.36H11.4ZM75.8119 55V56H76.8119V55H75.8119ZM64.4519 55H63.4519V56H64.4519V55ZM64.4519 1.64V0.639996H63.4519V1.64H64.4519ZM102.212 1.64H103.212V0.639996H102.212V1.64ZM102.212 11.64V12.64H103.212V11.64H102.212ZM75.8119 11.64V10.64H74.8119V11.64H75.8119ZM75.8119 22.92H74.8119V23.92H75.8119V22.92ZM101.652 22.92H102.652V21.92H101.652V22.92ZM101.652 32.92V33.92H102.652V32.92H101.652ZM75.8119 32.92V31.92H74.8119V32.92H75.8119ZM75.8119 54H64.4519V56H75.8119V54ZM65.4519 55V1.64H63.4519V55H65.4519ZM64.4519 2.64H102.212V0.639996H64.4519V2.64ZM101.212 1.64V11.64H103.212V1.64H101.212ZM102.212 10.64H75.8119V12.64H102.212V10.64ZM74.8119 11.64V22.92H76.8119V11.64H74.8119ZM75.8119 23.92H101.652V21.92H75.8119V23.92ZM100.652 22.92V32.92H102.652V22.92H100.652ZM101.652 31.92H75.8119V33.92H101.652V31.92ZM74.8119 32.92V55H76.8119V32.92H74.8119ZM135.904 48.2L135.197 48.9071L135.204 48.9143L135.904 48.2ZM135.904 8.6L136.607 9.31072L136.607 9.31068L135.904 8.6ZM175.904 8.52L175.2 9.23073L175.204 9.23428L175.904 8.52ZM175.904 48.2L175.204 47.4857L175.2 47.4893L175.904 48.2ZM144.144 40.92L143.396 41.5836L143.402 41.5903L144.144 40.92ZM167.664 40.92L168.406 41.5903L167.664 40.92ZM167.664 15.8L166.922 16.4703L167.664 15.8ZM144.144 15.8L143.402 15.1297L143.396 15.1364L144.144 15.8ZM155.904 54.96C148.086 54.96 141.679 52.4587 136.604 47.4857L135.204 48.9143C140.688 54.288 147.614 56.96 155.904 56.96V54.96ZM136.611 47.4929C131.588 42.4701 129.064 36.1189 129.064 28.36H127.064C127.064 36.6011 129.766 43.4765 135.197 48.9071L136.611 47.4929ZM129.064 28.36C129.064 20.6011 131.588 14.2788 136.607 9.31072L135.2 7.88927C129.766 13.2679 127.064 20.1189 127.064 28.36H129.064ZM136.607 9.31068C141.683 4.28583 148.09 1.76 155.904 1.76V-0.240002C147.611 -0.240002 140.684 2.46083 135.2 7.88931L136.607 9.31068ZM155.904 1.76C163.777 1.76 170.181 4.26251 175.2 9.23072L176.607 7.80927C171.173 2.43081 164.244 -0.240002 155.904 -0.240002V1.76ZM175.204 9.23428C180.274 14.2017 182.824 20.5488 182.824 28.36H184.824C184.824 20.0645 182.094 13.185 176.604 7.80571L175.204 9.23428ZM182.824 28.36C182.824 36.1712 180.274 42.5183 175.204 47.4857L176.604 48.9143C182.094 43.535 184.824 36.6555 184.824 28.36H182.824ZM175.2 47.4893C170.181 52.4575 163.777 54.96 155.904 54.96V56.96C164.244 56.96 171.173 54.2892 176.607 48.9107L175.2 47.4893ZM143.402 41.5903C146.596 45.127 150.796 46.88 155.904 46.88V44.88C151.305 44.88 147.665 43.3264 144.886 40.2497L143.402 41.5903ZM155.904 46.88C161.012 46.88 165.211 45.127 168.406 41.5903L166.922 40.2497C164.143 43.3264 160.502 44.88 155.904 44.88V46.88ZM168.406 41.5903C171.581 38.0745 173.144 33.6379 173.144 28.36H171.144C171.144 33.2154 169.719 37.1522 166.922 40.2497L168.406 41.5903ZM173.144 28.36C173.144 23.0821 171.581 18.6455 168.406 15.1297L166.922 16.4703C169.719 19.5678 171.144 23.5046 171.144 28.36H173.144ZM168.406 15.1297C165.211 11.593 161.012 9.84 155.904 9.84V11.84C160.502 11.84 164.143 13.3936 166.922 16.4703L168.406 15.1297ZM155.904 9.84C150.796 9.84 146.596 11.593 143.402 15.1297L144.886 16.4703C147.665 13.3936 151.305 11.84 155.904 11.84V9.84ZM143.396 15.1364C140.276 18.6527 138.744 23.0869 138.744 28.36H140.744C140.744 23.4998 142.144 19.5607 144.892 16.4636L143.396 15.1364ZM138.744 28.36C138.744 33.6331 140.276 38.0673 143.396 41.5836L144.892 40.2564C142.144 37.1593 140.744 33.2202 140.744 28.36H138.744ZM233.796 49.96L233.098 49.2436L233.093 49.2482L233.796 49.96ZM197.876 49.96L197.168 50.6672L197.178 50.6763L197.876 49.96ZM191.796 1.64V0.639996H190.796V1.64H191.796ZM203.316 1.64H204.316V0.639996H203.316V1.64ZM206.596 42.52L205.872 43.2101L205.88 43.2185L206.596 42.52ZM225.076 42.52L224.352 41.8299L224.351 41.8303L225.076 42.52ZM228.356 1.64V0.639996H227.356V1.64H228.356ZM239.956 1.64H240.956V0.639996H239.956V1.64ZM233.093 49.2482C229.289 53.0019 223.609 54.96 215.876 54.96V56.96C223.929 56.96 230.195 54.9181 234.498 50.6718L233.093 49.2482ZM215.876 54.96C208.143 54.96 202.432 53.0023 198.573 49.2437L197.178 50.6763C201.532 54.9177 207.822 56.96 215.876 56.96V54.96ZM198.583 49.2529C194.751 45.4208 192.796 40.2799 192.796 33.72H190.796C190.796 40.7067 192.894 46.3925 197.169 50.6671L198.583 49.2529ZM192.796 33.72V1.64H190.796V33.72H192.796ZM191.796 2.64H203.316V0.639996H191.796V2.64ZM202.316 1.64V33.32H204.316V1.64H202.316ZM202.316 33.32C202.316 37.3593 203.472 40.6928 205.872 43.2101L207.319 41.8299C205.346 39.7605 204.316 36.9607 204.316 33.32H202.316ZM205.88 43.2185C208.304 45.7012 211.685 46.88 215.876 46.88V44.88C212.066 44.88 209.261 43.8188 207.311 41.8215L205.88 43.2185ZM215.876 46.88C220.065 46.88 223.426 45.7016 225.8 43.2097L224.351 41.8303C222.458 43.8184 219.686 44.88 215.876 44.88V46.88ZM225.799 43.2101C228.2 40.6928 229.356 37.3593 229.356 33.32H227.356C227.356 36.9607 226.325 39.7605 224.352 41.8299L225.799 43.2101ZM229.356 33.32V1.64H227.356V33.32H229.356ZM228.356 2.64H239.956V0.639996H228.356V2.64ZM238.956 1.64V33.64H240.956V1.64H238.956ZM238.956 33.64C238.956 40.3082 236.973 45.4688 233.098 49.2437L234.493 50.6763C238.831 46.4511 240.956 40.7318 240.956 33.64H238.956ZM293.668 55V56H295.419L294.529 54.4915L293.668 55ZM280.628 55L279.752 55.4838L280.038 56H280.628V55ZM270.147 36.04L271.023 35.5562L270.737 35.04H270.147V36.04ZM261.828 36.04V35.04H260.828V36.04H261.828ZM261.828 55V56H262.828V55H261.828ZM250.467 55H249.467V56H250.467V55ZM250.467 1.64V0.639996H249.467V1.64H250.467ZM288.467 6.43999L287.76 7.14713L287.766 7.15292L288.467 6.43999ZM289.908 29.48L289.143 28.8354L289.136 28.8443L289.908 29.48ZM281.668 34.68L281.444 33.7053L280.111 34.0112L280.806 35.1885L281.668 34.68ZM279.508 24.12L280.158 24.8793L280.166 24.8727L280.174 24.8659L279.508 24.12ZM279.508 13.64L278.841 14.3859L278.849 14.3927L278.857 14.3993L279.508 13.64ZM261.828 11.64V10.64H260.828V11.64H261.828ZM261.828 26.04H260.828V27.04H261.828V26.04ZM293.668 54H280.628V56H293.668V54ZM281.503 54.5162L271.023 35.5562L269.272 36.5238L279.752 55.4838L281.503 54.5162ZM270.147 35.04H261.828V37.04H270.147V35.04ZM260.828 36.04V55H262.828V36.04H260.828ZM261.828 54H250.467V56H261.828V54ZM251.467 55V1.64H249.467V55H251.467ZM250.467 2.64H275.427V0.639996H250.467V2.64ZM275.427 2.64C280.716 2.64 284.787 4.17347 287.76 7.1471L289.175 5.73289C285.748 2.30652 281.126 0.639996 275.427 0.639996V2.64ZM287.766 7.15292C290.806 10.1433 292.348 14.0089 292.348 18.84H294.348C294.348 13.5377 292.635 9.13668 289.169 5.72707L287.766 7.15292ZM292.348 18.84C292.348 23.0334 291.252 26.3344 289.143 28.8354L290.672 30.1246C293.15 27.1856 294.348 23.3932 294.348 18.84H292.348ZM289.136 28.8443C287.028 31.404 284.47 33.0109 281.444 33.7053L281.891 35.6547C285.372 34.8558 288.307 32.9959 290.679 30.1157L289.136 28.8443ZM280.806 35.1885L292.806 55.5085L294.529 54.4915L282.529 34.1715L280.806 35.1885ZM273.747 27.04C276.285 27.04 278.45 26.3434 280.158 24.8793L278.857 23.3607C277.578 24.4566 275.904 25.04 273.747 25.04V27.04ZM280.174 24.8659C281.9 23.3241 282.747 21.2821 282.747 18.84H280.747C280.747 20.7713 280.101 22.2492 278.841 23.3741L280.174 24.8659ZM282.747 18.84C282.747 16.3981 281.9 14.3734 280.158 12.8807L278.857 14.3993C280.102 15.4666 280.747 16.9086 280.747 18.84H282.747ZM280.174 12.8941C278.466 11.3695 276.295 10.64 273.747 10.64V12.64C275.893 12.64 277.562 13.2438 278.841 14.3859L280.174 12.8941ZM273.747 10.64H261.828V12.64H273.747V10.64ZM260.828 11.64V26.04H262.828V11.64H260.828ZM261.828 27.04H273.747V25.04H261.828V27.04ZM346.103 55V56H347.103V55H346.103ZM334.663 55H333.663V56H334.663V55ZM334.663 11.64H335.663V10.64H334.663V11.64ZM319.062 11.64H318.062V12.64H319.062V11.64ZM319.062 1.64V0.639996H318.062V1.64H319.062ZM361.622 1.64H362.622V0.639996H361.622V1.64ZM361.622 11.64V12.64H362.622V11.64H361.622ZM346.103 11.64V10.64H345.103V11.64H346.103ZM346.103 54H334.663V56H346.103V54ZM335.663 55V11.64H333.663V55H335.663ZM334.663 10.64H319.062V12.64H334.663V10.64ZM320.062 11.64V1.64H318.062V11.64H320.062ZM319.062 2.64H361.622V0.639996H319.062V2.64ZM360.622 1.64V11.64H362.622V1.64H360.622ZM361.622 10.64H346.103V12.64H361.622V10.64ZM345.103 11.64V55H347.103V11.64H345.103ZM406.665 55V56H407.665V55H406.665ZM368.905 55H367.905V56H368.905V55ZM368.905 1.64V0.639996H367.905V1.64H368.905ZM406.665 1.64H407.665V0.639996H406.665V1.64ZM406.665 11.64V12.64H407.665V11.64H406.665ZM380.265 11.64V10.64H379.265V11.64H380.265ZM380.265 22.92H379.265V23.92H380.265V22.92ZM406.105 22.92H407.105V21.92H406.105V22.92ZM406.105 32.92V33.92H407.105V32.92H406.105ZM380.265 32.92V31.92H379.265V32.92H380.265ZM380.265 45H379.265V46H380.265V45ZM406.665 45H407.665V44H406.665V45ZM406.665 54H368.905V56H406.665V54ZM369.905 55V1.64H367.905V55H369.905ZM368.905 2.64H406.665V0.639996H368.905V2.64ZM405.665 1.64V11.64H407.665V1.64H405.665ZM406.665 10.64H380.265V12.64H406.665V10.64ZM379.265 11.64V22.92H381.265V11.64H379.265ZM380.265 23.92H406.105V21.92H380.265V23.92ZM405.105 22.92V32.92H407.105V22.92H405.105ZM406.105 31.92H380.265V33.92H406.105V31.92ZM379.265 32.92V45H381.265V32.92H379.265ZM380.265 46H406.665V44H380.265V46ZM405.665 45V55H407.665V45H405.665ZM465.306 55V56H466.763L466.239 54.6405L465.306 55ZM452.346 55L451.406 55.3411L451.645 56H452.346V55ZM449.066 45.96L450.006 45.6189L449.767 44.96H449.066V45.96ZM426.186 45.96V44.96H425.49L425.248 45.6116L426.186 45.96ZM422.826 55V56H423.521L423.763 55.3484L422.826 55ZM409.866 55L408.933 54.6392L408.407 56H409.866V55ZM430.506 1.64V0.639996H429.82L429.573 1.27924L430.506 1.64ZM444.746 1.64L445.679 1.28045L445.432 0.639996H444.746V1.64ZM445.946 35.96V36.96H447.372L446.886 35.6193L445.946 35.96ZM437.626 13L438.566 12.6593L437.626 10.0648L436.685 12.6593L437.626 13ZM429.306 35.96L428.365 35.6193L427.88 36.96H429.306V35.96ZM465.306 54H452.346V56H465.306V54ZM453.286 54.6589L450.006 45.6189L448.126 46.3011L451.406 55.3411L453.286 54.6589ZM449.066 44.96H426.186V46.96H449.066V44.96ZM425.248 45.6116L421.888 54.6516L423.763 55.3484L427.123 46.3084L425.248 45.6116ZM422.826 54H409.866V56H422.826V54ZM410.798 55.3608L431.438 2.00075L429.573 1.27924L408.933 54.6392L410.798 55.3608ZM430.506 2.64H444.746V0.639996H430.506V2.64ZM443.812 1.99954L464.372 55.3595L466.239 54.6405L445.679 1.28045L443.812 1.99954ZM446.886 35.6193L438.566 12.6593L436.685 13.3407L445.005 36.3007L446.886 35.6193ZM436.685 12.6593L428.365 35.6193L430.246 36.3007L438.566 13.3407L436.685 12.6593ZM429.306 36.96H445.946V34.96H429.306V36.96ZM528.073 55V56H529.073V55H528.073ZM516.633 55H515.633V56H516.633V55ZM516.633 17.64H517.633L515.705 17.2666L516.633 17.64ZM501.593 55V56H502.269L502.521 55.3734L501.593 55ZM496.633 55L495.705 55.3734L495.958 56H496.633V55ZM481.593 17.64L482.521 17.2666L480.593 17.64H481.593ZM481.593 55V56H482.593V55H481.593ZM470.233 55H469.233V56H470.233V55ZM470.233 1.64V0.639996H469.233V1.64H470.233ZM486.153 1.64L487.081 1.26702L486.829 0.639996H486.153V1.64ZM499.113 33.88L498.185 34.253L499.113 36.5611L500.041 34.253L499.113 33.88ZM512.073 1.64V0.639996H511.397L511.145 1.26702L512.073 1.64ZM528.073 1.64H529.073V0.639996H528.073V1.64ZM528.073 54H516.633V56H528.073V54ZM517.633 55V17.64H515.633V55H517.633ZM515.705 17.2666L500.665 54.6266L502.521 55.3734L517.561 18.0134L515.705 17.2666ZM501.593 54H496.633V56H501.593V54ZM497.561 54.6266L482.521 17.2666L480.665 18.0134L495.705 55.3734L497.561 54.6266ZM480.593 17.64V55H482.593V17.64H480.593ZM481.593 54H470.233V56H481.593V54ZM471.233 55V1.64H469.233V55H471.233ZM470.233 2.64H486.153V0.639996H470.233V2.64ZM485.225 2.01297L498.185 34.253L500.041 33.507L487.081 1.26702L485.225 2.01297ZM500.041 34.253L513.001 2.01297L511.145 1.26702L498.185 33.507L500.041 34.253ZM512.073 2.64H528.073V0.639996H512.073V2.64ZM527.073 1.64V55H529.073V1.64H527.073Z" fill="#FCFFFF"/>
</svg>
