<svg width="375" height="35" viewBox="0 0 375 35" fill="none" xmlns="http://www.w3.org/2000/svg">
<path opacity="0.2" d="M-140.25 29.8L-140.943 30.5213L-140.935 30.5282L-140.25 29.8ZM-140.25 4.95L-139.561 5.67482L-139.561 5.67464L-140.25 4.95ZM-113.6 8.25L-113.159 9.14735L-112.209 8.68023L-112.729 7.75847L-113.6 8.25ZM-119.7 11.25L-120.586 11.714L-120.133 12.5776L-119.259 12.1473L-119.7 11.25ZM-122.95 7.8L-123.505 8.63205L-123.493 8.63962L-123.482 8.64689L-122.95 7.8ZM-135.05 9.5L-134.326 10.1894H-134.326L-135.05 9.5ZM-135.05 25.2L-134.326 24.5106H-134.326L-135.05 25.2ZM-122.95 26.95L-123.482 26.1031L-123.491 26.1088L-122.95 26.95ZM-119.7 23.45L-119.265 22.5497L-120.145 22.1241L-120.59 22.9945L-119.7 23.45ZM-113.6 26.4L-112.735 26.9012L-112.195 25.9689L-113.165 25.4997L-113.6 26.4ZM-127.55 33.6C-132.386 33.6 -136.367 32.0816 -139.565 29.0718L-140.935 30.5282C-137.333 33.9184 -132.848 35.6 -127.55 35.6V33.6ZM-139.557 29.0788C-142.71 26.0511 -144.3 22.1703 -144.3 17.35H-146.3C-146.3 22.6631 -144.524 27.0822 -140.943 30.5212L-139.557 29.0788ZM-144.3 17.35C-144.3 12.5297 -142.71 8.66781 -139.561 5.67482L-140.939 4.22518C-144.523 7.63219 -146.3 12.0369 -146.3 17.35H-144.3ZM-139.561 5.67464C-136.362 2.63297 -132.383 1.1 -127.55 1.1V-0.900002C-132.851 -0.900002 -137.338 0.800357 -140.939 4.22535L-139.561 5.67464ZM-127.55 1.1C-121.678 1.1 -117.36 3.622 -114.471 8.74153L-112.729 7.75847C-115.973 2.01133 -120.955 -0.900002 -127.55 -0.900002V1.1ZM-114.041 7.35265L-120.141 10.3526L-119.259 12.1473L-113.159 9.14735L-114.041 7.35265ZM-118.814 10.786C-119.635 9.21818 -120.846 7.94027 -122.418 6.95311L-123.482 8.64689C-122.187 9.45973 -121.231 10.4818 -120.586 11.714L-118.814 10.786ZM-122.395 6.96795C-123.958 5.92622 -125.684 5.4 -127.55 5.4V7.4C-126.083 7.4 -124.742 7.80711 -123.505 8.63205L-122.395 6.96795ZM-127.55 5.4C-130.838 5.4 -133.606 6.53201 -135.774 8.81064L-134.326 10.1894C-132.561 8.33466 -130.329 7.4 -127.55 7.4V5.4ZM-135.774 8.81064C-137.938 11.0843 -139 13.9574 -139 17.35H-137C-137 14.4093 -136.095 12.049 -134.326 10.1894L-135.774 8.81064ZM-139 17.35C-139 20.7426 -137.938 23.6157 -135.774 25.8894L-134.326 24.5106C-136.095 22.651 -137 20.2907 -137 17.35H-139ZM-135.774 25.8894C-133.606 28.168 -130.838 29.3 -127.55 29.3V27.3C-130.329 27.3 -132.561 26.3653 -134.326 24.5106L-135.774 25.8894ZM-127.55 29.3C-125.692 29.3 -123.971 28.795 -122.409 27.7912L-123.491 26.1088C-124.729 26.905 -126.075 27.3 -127.55 27.3V29.3ZM-122.418 27.7969C-120.84 26.8062 -119.629 25.5075 -118.81 23.9055L-120.59 22.9945C-121.237 24.2591 -122.193 25.2938 -123.482 26.1031L-122.418 27.7969ZM-120.135 24.3503L-114.035 27.3003L-113.165 25.4997L-119.265 22.5497L-120.135 24.3503ZM-114.465 25.8988C-117.46 31.0682 -121.786 33.6 -127.55 33.6V35.6C-121.047 35.6 -116.074 32.6652 -112.735 26.9012L-114.465 25.8988ZM-83.1238 30.85L-83.8216 30.1336L-83.8262 30.1382L-83.1238 30.85ZM-105.574 30.85L-106.281 31.5572L-106.272 31.5663L-105.574 30.85ZM-109.374 0.649998V-0.350002H-110.374V0.649998H-109.374ZM-102.174 0.649998H-101.174V-0.350002H-102.174V0.649998ZM-100.124 26.2L-100.848 26.8901L-100.839 26.8985L-100.124 26.2ZM-88.5738 26.2L-89.2976 25.5099L-89.298 25.5103L-88.5738 26.2ZM-86.5238 0.649998V-0.350002H-87.5238V0.649998H-86.5238ZM-79.2738 0.649998H-78.2738V-0.350002H-79.2738V0.649998ZM-83.8262 30.1382C-86.11 32.3919 -89.5502 33.6 -94.3238 33.6V35.6C-89.2308 35.6 -85.2044 34.3081 -82.4214 31.5618L-83.8262 30.1382ZM-94.3238 33.6C-99.0964 33.6 -102.557 32.3923 -104.876 30.1337L-106.272 31.5663C-103.457 34.3077 -99.4179 35.6 -94.3238 35.6V33.6ZM-104.867 30.1429C-107.179 27.8308 -108.374 24.7199 -108.374 20.7H-110.374C-110.374 25.1467 -109.036 28.8025 -106.281 31.5571L-104.867 30.1429ZM-108.374 20.7V0.649998H-110.374V20.7H-108.374ZM-109.374 1.65H-102.174V-0.350002H-109.374V1.65ZM-103.174 0.649998V20.45H-101.174V0.649998H-103.174ZM-103.174 20.45C-103.174 23.0493 -102.428 25.2328 -100.848 26.8901L-99.4001 25.5099C-100.553 24.3005 -101.174 22.6507 -101.174 20.45H-103.174ZM-100.839 26.8985C-99.2359 28.5412 -97.0145 29.3 -94.3238 29.3V27.3C-96.6332 27.3 -98.2785 26.6588 -99.4083 25.5015L-100.839 26.8985ZM-94.3238 29.3C-91.6346 29.3 -89.423 28.5416 -87.8497 26.8897L-89.298 25.5103C-90.3913 26.6584 -92.0131 27.3 -94.3238 27.3V29.3ZM-87.8501 26.8901C-86.2699 25.2328 -85.5238 23.0493 -85.5238 20.45H-87.5238C-87.5238 22.6507 -88.1444 24.3005 -89.2976 25.5099L-87.8501 26.8901ZM-85.5238 20.45V0.649998H-87.5238V20.45H-85.5238ZM-86.5238 1.65H-79.2738V-0.350002H-86.5238V1.65ZM-80.2738 0.649998V20.65H-78.2738V0.649998H-80.2738ZM-80.2738 20.65C-80.2738 24.7382 -81.4861 27.8589 -83.8216 30.1337L-82.4261 31.5663C-79.6282 28.8411 -78.2738 25.1618 -78.2738 20.65H-80.2738ZM-57.8539 34V35H-56.8539V34H-57.8539ZM-65.0039 34H-66.0039V35H-65.0039V34ZM-65.0039 6.9H-64.0039V5.9H-65.0039V6.9ZM-74.7539 6.9H-75.7539V7.9H-74.7539V6.9ZM-74.7539 0.649998V-0.350002H-75.7539V0.649998H-74.7539ZM-48.1539 0.649998H-47.1539V-0.350002H-48.1539V0.649998ZM-48.1539 6.9V7.9H-47.1539V6.9H-48.1539ZM-57.8539 6.9V5.9H-58.8539V6.9H-57.8539ZM-57.8539 33H-65.0039V35H-57.8539V33ZM-64.0039 34V6.9H-66.0039V34H-64.0039ZM-65.0039 5.9H-74.7539V7.9H-65.0039V5.9ZM-73.7539 6.9V0.649998H-75.7539V6.9H-73.7539ZM-74.7539 1.65H-48.1539V-0.350002H-74.7539V1.65ZM-49.1539 0.649998V6.9H-47.1539V0.649998H-49.1539ZM-48.1539 5.9H-57.8539V7.9H-48.1539V5.9ZM-58.8539 6.9V34H-56.8539V6.9H-58.8539ZM-41.523 29.75L-42.2302 30.4571L-42.2229 30.4643L-41.523 29.75ZM-41.523 5L-40.8196 5.71072L-40.8195 5.71069L-41.523 5ZM-16.523 4.95L-17.2265 5.66073L-17.2229 5.66428L-16.523 4.95ZM-16.523 29.75L-17.2229 29.0357L-17.2265 29.0393L-16.523 29.75ZM-36.373 25.2L-37.1211 25.8636L-37.1152 25.8703L-36.373 25.2ZM-21.673 25.2L-20.9309 25.8703L-21.673 25.2ZM-21.673 9.5L-22.4151 10.1703L-21.673 9.5ZM-36.373 9.5L-37.1152 8.82969L-37.1211 8.83638L-36.373 9.5ZM-29.023 33.6C-33.8204 33.6 -37.7277 32.0687 -40.8232 29.0357L-42.2229 30.4643C-38.7184 33.898 -34.2924 35.6 -29.023 35.6V33.6ZM-40.8159 29.0429C-43.8787 25.9801 -45.423 22.1089 -45.423 17.35H-47.423C-47.423 22.5911 -45.7007 26.9865 -42.2302 30.4571L-40.8159 29.0429ZM-45.423 17.35C-45.423 12.5911 -43.8788 8.73877 -40.8196 5.71072L-42.2265 4.28927C-45.7006 7.72789 -47.423 12.1089 -47.423 17.35H-45.423ZM-40.8195 5.71069C-37.7234 2.64583 -33.8173 1.1 -29.023 1.1V-0.900002C-34.2955 -0.900002 -38.7227 0.820833 -42.2266 4.28931L-40.8195 5.71069ZM-29.023 1.1C-24.1903 1.1 -20.2859 2.63251 -17.2265 5.66072L-15.8196 4.23927C-19.2935 0.800815 -23.7225 -0.900002 -29.023 -0.900002V1.1ZM-17.2229 5.66428C-14.1331 8.69171 -12.573 12.5588 -12.573 17.35H-10.573C-10.573 12.0745 -12.313 7.67495 -15.8232 4.23571L-17.2229 5.66428ZM-12.573 17.35C-12.573 22.1412 -14.1331 26.0083 -17.2229 29.0357L-15.8232 30.4643C-12.313 27.025 -10.573 22.6255 -10.573 17.35H-12.573ZM-17.2265 29.0393C-20.2859 32.0675 -24.1903 33.6 -29.023 33.6V35.6C-23.7225 35.6 -19.2935 33.8992 -15.8196 30.4607L-17.2265 29.0393ZM-37.1152 25.8703C-35.0407 28.167 -32.311 29.3 -29.023 29.3V27.3C-31.8018 27.3 -33.972 26.3664 -35.6309 24.5297L-37.1152 25.8703ZM-29.023 29.3C-25.7351 29.3 -23.0054 28.167 -20.9309 25.8703L-22.4151 24.5297C-24.0741 26.3664 -26.2443 27.3 -29.023 27.3V29.3ZM-20.9309 25.8703C-18.8754 23.5945 -17.873 20.7279 -17.873 17.35H-19.873C-19.873 20.3054 -20.7374 22.6722 -22.4151 24.5297L-20.9309 25.8703ZM-17.873 17.35C-17.873 13.9721 -18.8754 11.1055 -20.9309 8.82971L-22.4151 10.1703C-20.7374 12.0278 -19.873 14.3946 -19.873 17.35H-17.873ZM-20.9309 8.82971C-23.0054 6.53303 -25.7351 5.4 -29.023 5.4V7.4C-26.2443 7.4 -24.0741 8.33363 -22.4151 10.1703L-20.9309 8.82971ZM-29.023 5.4C-32.311 5.4 -35.0407 6.53303 -37.1152 8.82971L-35.6309 10.1703C-33.972 8.33363 -31.8018 7.4 -29.023 7.4V5.4ZM-37.1211 8.83638C-39.1404 11.1127 -40.123 13.9769 -40.123 17.35H-38.123C-38.123 14.3898 -37.2724 12.0207 -35.625 10.1636L-37.1211 8.83638ZM-40.123 17.35C-40.123 20.7231 -39.1404 23.5873 -37.1211 25.8636L-35.625 24.5364C-37.2724 22.6793 -38.123 20.3102 -38.123 17.35H-40.123ZM29.5594 34V35H30.5594V34H29.5594ZM22.4094 34H21.4094V35H22.4094V34ZM22.4094 10.65H23.4094L21.4817 10.2766L22.4094 10.65ZM13.0094 34V35H13.6848L13.937 34.3734L13.0094 34ZM9.90938 34L8.98172 34.3734L9.23396 35H9.90938V34ZM0.509369 10.65L1.43703 10.2766L-0.490631 10.65H0.509369ZM0.509369 34V35H1.50937V34H0.509369ZM-6.59062 34H-7.59062V35H-6.59062V34ZM-6.59062 0.649998V-0.350002H-7.59062V0.649998H-6.59062ZM3.35938 0.649998L4.28722 0.27702L4.03516 -0.350002H3.35938V0.649998ZM11.4594 20.8L10.5315 21.173L11.4594 23.4811L12.3872 21.173L11.4594 20.8ZM19.5594 0.649998V-0.350002H18.8836L18.6315 0.27702L19.5594 0.649998ZM29.5594 0.649998H30.5594V-0.350002H29.5594V0.649998ZM29.5594 33H22.4094V35H29.5594V33ZM23.4094 34V10.65H21.4094V34H23.4094ZM21.4817 10.2766L12.0817 33.6266L13.937 34.3734L23.337 11.0234L21.4817 10.2766ZM13.0094 33H9.90938V35H13.0094V33ZM10.837 33.6266L1.43703 10.2766L-0.418274 11.0234L8.98172 34.3734L10.837 33.6266ZM-0.490631 10.65V34H1.50937V10.65H-0.490631ZM0.509369 33H-6.59062V35H0.509369V33ZM-5.59062 34V0.649998H-7.59062V34H-5.59062ZM-6.59062 1.65H3.35938V-0.350002H-6.59062V1.65ZM2.43153 1.02297L10.5315 21.173L12.3872 20.427L4.28722 0.27702L2.43153 1.02297ZM12.3872 21.173L20.4872 1.02297L18.6315 0.27702L10.5315 20.427L12.3872 21.173ZM19.5594 1.65H29.5594V-0.350002H19.5594V1.65ZM28.5594 0.649998V34H30.5594V0.649998H28.5594ZM48.9758 34H47.9758V35H48.9758V34ZM48.9758 0.649998V-0.350002H47.9758V0.649998H48.9758ZM73.5758 3.15L72.8687 3.8571L72.8757 3.86417L72.8829 3.8711L73.5758 3.15ZM70.3758 16.8L70.1758 15.8202L70.2292 17.7892L70.3758 16.8ZM74.9258 19.55L74.14 20.1686L74.9258 19.55ZM67.7758 7.8L67.0687 8.5071L67.0855 8.52393L67.1031 8.53994L67.7758 7.8ZM56.0758 6.75V5.75H55.0758V6.75H56.0758ZM56.0758 14H55.0758V15H56.0758V14ZM68.3758 26.85L69.032 27.6046L69.0411 27.5967L69.05 27.5885L68.3758 26.85ZM68.3758 21.25L67.6687 21.9571L67.6765 21.965L67.6846 21.9726L68.3758 21.25ZM56.0758 20.1V19.1H55.0758V20.1H56.0758ZM56.0758 27.85H55.0758V28.85H56.0758V27.85ZM67.0758 33H48.9758V35H67.0758V33ZM49.9758 34V0.649998H47.9758V34H49.9758ZM48.9758 1.65H66.5258V-0.350002H48.9758V1.65ZM66.5258 1.65C69.3735 1.65 71.4392 2.42762 72.8687 3.8571L74.2829 2.44289C72.379 0.539044 69.7447 -0.350002 66.5258 -0.350002V1.65ZM72.8829 3.8711C74.3858 5.31505 75.1258 7.05429 75.1258 9.15H77.1258C77.1258 6.51238 76.1657 4.25161 74.2686 2.42889L72.8829 3.8711ZM75.1258 9.15C75.1258 10.9933 74.6316 12.4615 73.6968 13.623L75.2548 14.877C76.52 13.3051 77.1258 11.3734 77.1258 9.15H75.1258ZM73.6968 13.623C72.7345 14.8185 71.5683 15.536 70.1758 15.8202L70.5757 17.7798C72.4499 17.3973 74.017 16.4148 75.2548 14.877L73.6968 13.623ZM70.2292 17.7892C71.7515 18.0147 73.0482 18.7816 74.14 20.1686L75.7115 18.9314C74.3367 17.1851 72.6001 16.1186 70.5223 15.8108L70.2292 17.7892ZM74.14 20.1686C75.2292 21.5521 75.7758 23.1489 75.7758 25H77.7758C77.7758 22.7178 77.089 20.6812 75.7115 18.9314L74.14 20.1686ZM75.7758 25C75.7758 27.3586 75.0149 29.2466 73.5187 30.7429L74.9329 32.1571C76.8366 30.2534 77.7758 27.8414 77.7758 25H75.7758ZM73.5187 30.7429C72.0542 32.2073 69.9539 33 67.0758 33V35C70.331 35 72.9973 34.0927 74.9329 32.1571L73.5187 30.7429ZM64.9758 15C66.3674 15 67.5872 14.6082 68.5154 13.7241L67.1361 12.2759C66.6644 12.7251 65.9841 13 64.9758 13V15ZM68.5154 13.7241C69.4352 12.8482 69.8758 11.709 69.8758 10.4H67.8758C67.8758 11.2243 67.6163 11.8185 67.1361 12.2759L68.5154 13.7241ZM69.8758 10.4C69.8758 9.07571 69.4075 7.93189 68.4485 7.06006L67.1031 8.53994C67.6108 9.00144 67.8758 9.59095 67.8758 10.4H69.8758ZM68.4829 7.09289C67.5621 6.17216 66.3567 5.75 64.9758 5.75V7.75C65.9282 7.75 66.5894 8.02784 67.0687 8.5071L68.4829 7.09289ZM64.9758 5.75H56.0758V7.75H64.9758V5.75ZM55.0758 6.75V14H57.0758V6.75H55.0758ZM56.0758 15H64.9758V13H56.0758V15ZM65.2258 28.85C66.7236 28.85 68.0328 28.4735 69.032 27.6046L67.7196 26.0954C67.1855 26.5599 66.3946 26.85 65.2258 26.85V28.85ZM69.05 27.5885C70.0573 26.6688 70.5258 25.4329 70.5258 24H68.5258C68.5258 24.9671 68.2276 25.6312 67.7015 26.1115L69.05 27.5885ZM70.5258 24C70.5258 22.6384 70.0389 21.457 69.067 20.5274L67.6846 21.9726C68.246 22.5096 68.5258 23.1616 68.5258 24H70.5258ZM69.0829 20.5429C68.0874 19.5474 66.7596 19.1 65.2258 19.1V21.1C66.3586 21.1 67.1308 21.4193 67.6687 21.9571L69.0829 20.5429ZM65.2258 19.1H56.0758V21.1H65.2258V19.1ZM55.0758 20.1V27.85H57.0758V20.1H55.0758ZM56.0758 28.85H65.2258V26.85H56.0758V28.85ZM97.0164 34V35H98.0164V34H97.0164ZM89.9164 34H88.9164V35H89.9164V34ZM89.9164 20.35H90.9164V20.0527L90.754 19.8037L89.9164 20.35ZM77.0664 0.649998V-0.350002H75.2202L76.2288 1.19633L77.0664 0.649998ZM85.1664 0.649998L86.0165 0.123425L85.7233 -0.350002H85.1664V0.649998ZM93.4664 14.05L92.6163 14.5766L93.4716 15.9574L94.3194 14.572L93.4664 14.05ZM101.666 0.649998V-0.350002H101.106L100.813 0.128033L101.666 0.649998ZM109.766 0.649998L110.606 1.19334L111.605 -0.350002H109.766V0.649998ZM97.0164 20.35L96.1769 19.8067L96.0164 20.0546V20.35H97.0164ZM97.0164 33H89.9164V35H97.0164V33ZM90.9164 34V20.35H88.9164V34H90.9164ZM90.754 19.8037L77.904 0.103664L76.2288 1.19633L89.0788 20.8963L90.754 19.8037ZM77.0664 1.65H85.1664V-0.350002H77.0664V1.65ZM84.3163 1.17657L92.6163 14.5766L94.3165 13.5234L86.0165 0.123425L84.3163 1.17657ZM94.3194 14.572L102.519 1.17196L100.813 0.128033L92.6134 13.528L94.3194 14.572ZM101.666 1.65H109.766V-0.350002H101.666V1.65ZM108.927 0.106658L96.1769 19.8067L97.8559 20.8933L110.606 1.19334L108.927 0.106658ZM96.0164 20.35V34H98.0164V20.35H96.0164ZM142.036 34V35H143.036V34H142.036ZM134.936 34H133.936V35H134.936V34ZM134.936 20.35H135.936V20.0527L135.773 19.8037L134.936 20.35ZM122.086 0.649998V-0.350002H120.24L121.248 1.19633L122.086 0.649998ZM130.186 0.649998L131.036 0.123425L130.743 -0.350002H130.186V0.649998ZM138.486 14.05L137.636 14.5766L138.491 15.9574L139.339 14.572L138.486 14.05ZM146.686 0.649998V-0.350002H146.125L145.833 0.128033L146.686 0.649998ZM154.786 0.649998L155.625 1.19334L156.624 -0.350002H154.786V0.649998ZM142.036 20.35L141.196 19.8067L141.036 20.0546V20.35H142.036ZM142.036 33H134.936V35H142.036V33ZM135.936 34V20.35H133.936V34H135.936ZM135.773 19.8037L122.923 0.103664L121.248 1.19633L134.098 20.8963L135.773 19.8037ZM122.086 1.65H130.186V-0.350002H122.086V1.65ZM129.336 1.17657L137.636 14.5766L139.336 13.5234L131.036 0.123425L129.336 1.17657ZM139.339 14.572L147.539 1.17196L145.833 0.128033L137.633 13.528L139.339 14.572ZM146.686 1.65H154.786V-0.350002H146.686V1.65ZM153.946 0.106658L141.196 19.8067L142.875 20.8933L155.625 1.19334L153.946 0.106658ZM141.036 20.35V34H143.036V20.35H141.036ZM159.161 29.75L158.453 30.4571L158.461 30.4643L159.161 29.75ZM159.161 5L159.864 5.71072L159.864 5.71069L159.161 5ZM184.161 4.95L183.457 5.66073L183.461 5.66428L184.161 4.95ZM184.161 29.75L183.461 29.0357L183.457 29.0393L184.161 29.75ZM164.311 25.2L163.562 25.8636L163.568 25.8703L164.311 25.2ZM179.011 25.2L179.753 25.8703L179.011 25.2ZM179.011 9.5L178.268 10.1703L179.011 9.5ZM164.311 9.5L163.568 8.82969L163.562 8.83638L164.311 9.5ZM171.661 33.6C166.863 33.6 162.956 32.0687 159.86 29.0357L158.461 30.4643C161.965 33.898 166.391 35.6 171.661 35.6V33.6ZM159.868 29.0429C156.805 25.9801 155.261 22.1089 155.261 17.35H153.261C153.261 22.5911 154.983 26.9865 158.453 30.4571L159.868 29.0429ZM155.261 17.35C155.261 12.5911 156.805 8.73877 159.864 5.71072L158.457 4.28927C154.983 7.72789 153.261 12.1089 153.261 17.35H155.261ZM159.864 5.71069C162.96 2.64583 166.866 1.1 171.661 1.1V-0.900002C166.388 -0.900002 161.961 0.820833 158.457 4.28931L159.864 5.71069ZM171.661 1.1C176.493 1.1 180.398 2.63251 183.457 5.66072L184.864 4.23927C181.39 0.800815 176.961 -0.900002 171.661 -0.900002V1.1ZM183.461 5.66428C186.551 8.69171 188.111 12.5588 188.111 17.35H190.111C190.111 12.0745 188.371 7.67495 184.86 4.23571L183.461 5.66428ZM188.111 17.35C188.111 22.1412 186.551 26.0083 183.461 29.0357L184.86 30.4643C188.371 27.025 190.111 22.6255 190.111 17.35H188.111ZM183.457 29.0393C180.398 32.0675 176.493 33.6 171.661 33.6V35.6C176.961 35.6 181.39 33.8992 184.864 30.4607L183.457 29.0393ZM163.568 25.8703C165.643 28.167 168.373 29.3 171.661 29.3V27.3C168.882 27.3 166.712 26.3664 165.053 24.5297L163.568 25.8703ZM171.661 29.3C174.948 29.3 177.678 28.167 179.753 25.8703L178.268 24.5297C176.61 26.3664 174.439 27.3 171.661 27.3V29.3ZM179.753 25.8703C181.808 23.5945 182.811 20.7279 182.811 17.35H180.811C180.811 20.3054 179.946 22.6722 178.268 24.5297L179.753 25.8703ZM182.811 17.35C182.811 13.9721 181.808 11.1055 179.753 8.82971L178.268 10.1703C179.946 12.0278 180.811 14.3946 180.811 17.35H182.811ZM179.753 8.82971C177.678 6.53303 174.948 5.4 171.661 5.4V7.4C174.439 7.4 176.61 8.33363 178.268 10.1703L179.753 8.82971ZM171.661 5.4C168.373 5.4 165.643 6.53303 163.568 8.82971L165.053 10.1703C166.712 8.33363 168.882 7.4 171.661 7.4V5.4ZM163.562 8.83638C161.543 11.1127 160.561 13.9769 160.561 17.35H162.561C162.561 14.3898 163.411 12.0207 165.059 10.1636L163.562 8.83638ZM160.561 17.35C160.561 20.7231 161.543 23.5873 163.562 25.8636L165.059 24.5364C163.411 22.6793 162.561 20.3102 162.561 17.35H160.561ZM220.343 30.85L219.645 30.1336L219.641 30.1382L220.343 30.85ZM197.893 30.85L197.186 31.5572L197.195 31.5663L197.893 30.85ZM194.093 0.649998V-0.350002H193.093V0.649998H194.093ZM201.293 0.649998H202.293V-0.350002H201.293V0.649998ZM203.343 26.2L202.619 26.8901L202.627 26.8985L203.343 26.2ZM214.893 26.2L214.169 25.5099L214.169 25.5103L214.893 26.2ZM216.943 0.649998V-0.350002H215.943V0.649998H216.943ZM224.193 0.649998H225.193V-0.350002H224.193V0.649998ZM219.641 30.1382C217.357 32.3919 213.917 33.6 209.143 33.6V35.6C214.236 35.6 218.262 34.3081 221.045 31.5618L219.641 30.1382ZM209.143 33.6C204.37 33.6 200.91 32.3923 198.591 30.1337L197.195 31.5663C200.01 34.3077 204.049 35.6 209.143 35.6V33.6ZM198.6 30.1429C196.288 27.8308 195.093 24.7199 195.093 20.7H193.093C193.093 25.1467 194.431 28.8025 197.186 31.5571L198.6 30.1429ZM195.093 20.7V0.649998H193.093V20.7H195.093ZM194.093 1.65H201.293V-0.350002H194.093V1.65ZM200.293 0.649998V20.45H202.293V0.649998H200.293ZM200.293 20.45C200.293 23.0493 201.039 25.2328 202.619 26.8901L204.067 25.5099C202.914 24.3005 202.293 22.6507 202.293 20.45H200.293ZM202.627 26.8985C204.231 28.5412 206.452 29.3 209.143 29.3V27.3C206.834 27.3 205.188 26.6588 204.059 25.5015L202.627 26.8985ZM209.143 29.3C211.832 29.3 214.044 28.5416 215.617 26.8897L214.169 25.5103C213.075 26.6584 211.454 27.3 209.143 27.3V29.3ZM215.617 26.8901C217.197 25.2328 217.943 23.0493 217.943 20.45H215.943C215.943 22.6507 215.322 24.3005 214.169 25.5099L215.617 26.8901ZM217.943 20.45V0.649998H215.943V20.45H217.943ZM216.943 1.65H224.193V-0.350002H216.943V1.65ZM223.193 0.649998V20.65H225.193V0.649998H223.193ZM223.193 20.65C223.193 24.7382 221.981 27.8589 219.645 30.1337L221.041 31.5663C223.839 28.8411 225.193 25.1618 225.193 20.65H223.193ZM257.763 34V35H259.515L258.624 33.4915L257.763 34ZM249.613 34L248.738 34.4838L249.023 35H249.613V34ZM243.063 22.15L243.938 21.6662L243.653 21.15H243.063V22.15ZM237.863 22.15V21.15H236.863V22.15H237.863ZM237.863 34V35H238.863V34H237.863ZM230.763 34H229.763V35H230.763V34ZM230.763 0.649998V-0.350002H229.763V0.649998H230.763ZM254.513 3.65L253.806 4.35713L253.812 4.36292L254.513 3.65ZM255.413 18.05L254.648 17.4054L254.641 17.4143L255.413 18.05ZM250.263 21.3L250.039 20.3253L248.707 20.6312L249.402 21.8085L250.263 21.3ZM248.913 14.7L249.564 15.4593L249.571 15.4527L249.579 15.4459L248.913 14.7ZM248.913 8.15L248.247 8.89594L248.254 8.90267L248.262 8.90926L248.913 8.15ZM237.863 6.9V5.9H236.863V6.9H237.863ZM237.863 15.9H236.863V16.9H237.863V15.9ZM257.763 33H249.613V35H257.763V33ZM250.488 33.5162L243.938 21.6662L242.188 22.6338L248.738 34.4838L250.488 33.5162ZM243.063 21.15H237.863V23.15H243.063V21.15ZM236.863 22.15V34H238.863V22.15H236.863ZM237.863 33H230.763V35H237.863V33ZM231.763 34V0.649998H229.763V34H231.763ZM230.763 1.65H246.363V-0.350002H230.763V1.65ZM246.363 1.65C249.591 1.65 252.032 2.58347 253.806 4.3571L255.22 2.94289C252.994 0.716522 250.001 -0.350002 246.363 -0.350002V1.65ZM253.812 4.36292C255.632 6.15332 256.563 8.46893 256.563 11.4H258.563C258.563 7.99773 257.461 5.14668 255.214 2.93707L253.812 4.36292ZM256.563 11.4C256.563 13.9534 255.897 15.9244 254.648 17.4054L256.177 18.6946C257.795 16.7756 258.563 14.3132 258.563 11.4H256.563ZM254.641 17.4143C253.373 18.9541 251.845 19.9109 250.039 20.3253L250.487 22.2747C252.748 21.7558 254.653 20.546 256.185 18.6857L254.641 17.4143ZM249.402 21.8085L256.902 34.5085L258.624 33.4915L251.124 20.7915L249.402 21.8085ZM245.313 16.9C246.97 16.9 248.415 16.4434 249.564 15.4593L248.262 13.9407C247.544 14.5566 246.589 14.9 245.313 14.9V16.9ZM249.579 15.4459C250.746 14.4041 251.313 13.0221 251.313 11.4H249.313C249.313 12.5113 248.947 13.3292 248.247 13.9541L249.579 15.4459ZM251.313 11.4C251.313 9.77807 250.745 8.40335 249.564 7.39074L248.262 8.90926C248.947 9.49664 249.313 10.2886 249.313 11.4H251.313ZM249.579 7.40406C248.431 6.37951 246.98 5.9 245.313 5.9V7.9C246.579 7.9 247.528 8.25381 248.247 8.89594L249.579 7.40406ZM245.313 5.9H237.863V7.9H245.313V5.9ZM236.863 6.9V15.9H238.863V6.9H236.863ZM237.863 16.9H245.313V14.9H237.863V16.9ZM278.985 29.75L278.278 30.4571L278.285 30.4643L278.985 29.75ZM278.985 5L279.688 5.71072L279.688 5.71069L278.985 5ZM303.985 4.95L303.281 5.66073L303.285 5.66428L303.985 4.95ZM303.985 29.75L303.285 29.0357L303.281 29.0393L303.985 29.75ZM284.135 25.2L283.387 25.8636L283.393 25.8703L284.135 25.2ZM298.835 25.2L299.577 25.8703L298.835 25.2ZM298.835 9.5L298.093 10.1703L298.835 9.5ZM284.135 9.5L283.393 8.82969L283.387 8.83638L284.135 9.5ZM291.485 33.6C286.687 33.6 282.78 32.0687 279.685 29.0357L278.285 30.4643C281.789 33.898 286.215 35.6 291.485 35.6V33.6ZM279.692 29.0429C276.629 25.9801 275.085 22.1089 275.085 17.35H273.085C273.085 22.5911 274.807 26.9865 278.278 30.4571L279.692 29.0429ZM275.085 17.35C275.085 12.5911 276.629 8.73877 279.688 5.71072L278.281 4.28927C274.807 7.72789 273.085 12.1089 273.085 17.35H275.085ZM279.688 5.71069C282.784 2.64583 286.691 1.1 291.485 1.1V-0.900002C286.212 -0.900002 281.785 0.820833 278.281 4.28931L279.688 5.71069ZM291.485 1.1C296.318 1.1 300.222 2.63251 303.281 5.66072L304.688 4.23927C301.214 0.800815 296.785 -0.900002 291.485 -0.900002V1.1ZM303.285 5.66428C306.375 8.69171 307.935 12.5588 307.935 17.35H309.935C309.935 12.0745 308.195 7.67495 304.685 4.23571L303.285 5.66428ZM307.935 17.35C307.935 22.1412 306.375 26.0083 303.285 29.0357L304.685 30.4643C308.195 27.025 309.935 22.6255 309.935 17.35H307.935ZM303.281 29.0393C300.222 32.0675 296.318 33.6 291.485 33.6V35.6C296.785 35.6 301.214 33.8992 304.688 30.4607L303.281 29.0393ZM283.393 25.8703C285.467 28.167 288.197 29.3 291.485 29.3V27.3C288.706 27.3 286.536 26.3664 284.877 24.5297L283.393 25.8703ZM291.485 29.3C294.773 29.3 297.502 28.167 299.577 25.8703L298.093 24.5297C296.434 26.3664 294.263 27.3 291.485 27.3V29.3ZM299.577 25.8703C301.632 23.5945 302.635 20.7279 302.635 17.35H300.635C300.635 20.3054 299.77 22.6722 298.093 24.5297L299.577 25.8703ZM302.635 17.35C302.635 13.9721 301.632 11.1055 299.577 8.82971L298.093 10.1703C299.77 12.0278 300.635 14.3946 300.635 17.35H302.635ZM299.577 8.82971C297.502 6.53303 294.773 5.4 291.485 5.4V7.4C294.263 7.4 296.434 8.33363 298.093 10.1703L299.577 8.82971ZM291.485 5.4C288.197 5.4 285.467 6.53303 283.393 8.82971L284.877 10.1703C286.536 8.33363 288.706 7.4 291.485 7.4V5.4ZM283.387 8.83638C281.367 11.1127 280.385 13.9769 280.385 17.35H282.385C282.385 14.3898 283.235 12.0207 284.883 10.1636L283.387 8.83638ZM280.385 17.35C280.385 20.7231 281.367 23.5873 283.387 25.8636L284.883 24.5364C283.235 22.6793 282.385 20.3102 282.385 17.35H280.385ZM345.991 34V35H346.746L346.952 34.274L345.991 34ZM338.441 34L337.472 34.2475L337.664 35H338.441V34ZM332.591 11.1L333.56 10.8525L331.621 10.8545L332.591 11.1ZM326.791 34V35H327.569L327.76 34.2455L326.791 34ZM319.241 34L318.279 34.2753L318.487 35H319.241V34ZM309.691 0.649998V-0.350002H308.364L308.729 0.925289L309.691 0.649998ZM317.641 0.649998L318.612 0.414108L318.427 -0.350002H317.641V0.649998ZM323.491 24.75L322.519 24.9859L324.458 25.0048L323.491 24.75ZM329.841 0.649998V-0.350002H329.07L328.874 0.395207L329.841 0.649998ZM335.391 0.649998L336.358 0.397085L336.163 -0.350002H335.391V0.649998ZM341.691 24.75L340.723 25.0029L342.663 24.984L341.691 24.75ZM347.491 0.649998V-0.350002H346.703L346.518 0.416014L347.491 0.649998ZM355.491 0.649998L356.452 0.923957L356.815 -0.350002H355.491V0.649998ZM345.991 33H338.441V35H345.991V33ZM339.41 33.7525L333.56 10.8525L331.622 11.3475L337.472 34.2475L339.41 33.7525ZM331.621 10.8545L325.821 33.7545L327.76 34.2455L333.56 11.3455L331.621 10.8545ZM326.791 33H319.241V35H326.791V33ZM320.202 33.7247L310.652 0.374705L308.729 0.925289L318.279 34.2753L320.202 33.7247ZM309.691 1.65H317.641V-0.350002H309.691V1.65ZM316.669 0.885886L322.519 24.9859L324.462 24.5141L318.612 0.414108L316.669 0.885886ZM324.458 25.0048L330.808 0.904787L328.874 0.395207L322.524 24.4952L324.458 25.0048ZM329.841 1.65H335.391V-0.350002H329.841V1.65ZM334.423 0.902909L340.723 25.0029L342.658 24.4971L336.358 0.397085L334.423 0.902909ZM342.663 24.984L348.463 0.883981L346.518 0.416014L340.718 24.516L342.663 24.984ZM347.491 1.65H355.491V-0.350002H347.491V1.65ZM354.529 0.376038L345.029 33.726L346.952 34.274L356.452 0.923957L354.529 0.376038ZM388.689 34V35H389.689V34H388.689ZM381.839 34L381.032 34.5902L381.331 35H381.839V34ZM365.939 12.25L366.746 11.6598L364.939 9.18761V12.25H365.939ZM365.939 34V35H366.939V34H365.939ZM358.839 34H357.839V35H358.839V34ZM358.839 0.649998V-0.350002H357.839V0.649998H358.839ZM366.139 0.649998L366.944 0.0564709L366.644 -0.350002H366.139V0.649998ZM381.589 21.6L380.784 22.1935L382.589 24.6408V21.6H381.589ZM381.589 0.649998V-0.350002H380.589V0.649998H381.589ZM388.689 0.649998H389.689V-0.350002H388.689V0.649998ZM388.689 33H381.839V35H388.689V33ZM382.646 33.4098L366.746 11.6598L365.132 12.8402L381.032 34.5902L382.646 33.4098ZM364.939 12.25V34H366.939V12.25H364.939ZM365.939 33H358.839V35H365.939V33ZM359.839 34V0.649998H357.839V34H359.839ZM358.839 1.65H366.139V-0.350002H358.839V1.65ZM365.334 1.24352L380.784 22.1935L382.394 21.0065L366.944 0.0564709L365.334 1.24352ZM382.589 21.6V0.649998H380.589V21.6H382.589ZM381.589 1.65H388.689V-0.350002H381.589V1.65ZM387.689 0.649998V34H389.689V0.649998H387.689Z" fill="#FCFFFF"/>
</svg>
