<svg width="33" height="32" viewBox="0 0 33 32" fill="none" xmlns="http://www.w3.org/2000/svg">
<rect x="0.723633" width="32" height="32" rx="9" fill="url(#paint0_linear_2043_1965)" fill-opacity="0.1"/>
<path d="M11.8143 21.7006C11.8143 21.8653 11.9463 22 12.1143 22H21.3359C21.5009 22 21.6359 21.8653 21.6359 21.7006V20.6049H11.8143V21.7006ZM24.0958 12.1032C23.9848 12.0284 23.8408 12.0343 23.7358 12.1152L19.77 15.2624L16.9861 10.1448C16.8841 9.9502 16.5661 9.95325 16.4611 10.1448L13.6772 15.2624L9.71142 12.1152C9.60643 12.0314 9.46243 12.0284 9.35444 12.1032C9.24345 12.1781 9.19844 12.3159 9.23745 12.4416L11.7013 20.006H21.7488L24.2098 12.4416C24.2488 12.3159 24.2038 12.1781 24.0958 12.1032Z" fill="url(#paint1_linear_2043_1965)"/>
<defs>
<linearGradient id="paint0_linear_2043_1965" x1="2.85171" y1="13" x2="28.7403" y2="15.1659" gradientUnits="userSpaceOnUse">
<stop stop-color="#68C9FF"/>
<stop offset="0.994746" stop-color="#D1B5FF"/>
</linearGradient>
<linearGradient id="paint1_linear_2043_1965" x1="10.2212" y1="14.875" x2="22.3092" y2="16.1392" gradientUnits="userSpaceOnUse">
<stop stop-color="#68C9FF"/>
<stop offset="0.994746" stop-color="#D1B5FF"/>
</linearGradient>
</defs>
</svg>
