<svg width="145" height="30" viewBox="0 0 145 30" fill="none" xmlns="http://www.w3.org/2000/svg">
<path d="M12.6831 3.68955C6.92445 5.62887 7.38554 12.984 7.41307 13.1289C6.23631 6.1456 6.1933 2.43644 10.5445 0.372261C13.7122 -1.13051 16.7754 2.31139 12.6831 3.68955Z" fill="url(#paint0_linear_1965_1334)"/>
<path d="M2.06266 5.01708C2.60575 3.59149 3.5654 3.30169 4.46982 3.46246C5.57322 3.65861 5.79805 4.9906 5.46021 6.05917C3.99302 10.6999 5.99299 14.9244 7.52038 16.6699C3.53776 15.4899 0.882625 8.11468 2.06266 5.01708Z" fill="url(#paint1_linear_1965_1334)"/>
<path fill-rule="evenodd" clip-rule="evenodd" d="M14.0636 29.7979H8.77518V22.0376C7.37584 21.8162 5.9931 21.5103 4.71782 21.0951C0.985784 19.88 0.00397955 18.3245 1.39638e-05 17.2149C-0.00245681 16.5236 0.322963 15.7279 0.97205 15.4899C1.73616 15.2098 3.20218 15.477 5.75035 17.4075C7.43875 18.6866 9.74275 19.217 12.0155 19.3113C15.0863 19.4239 17.6785 19.1913 18.9856 18.6606C18.9927 18.6584 18.9998 18.6562 19.0068 18.6539C19.0187 18.6485 19.0304 18.643 19.042 18.6375C19.0432 18.637 19.0445 18.6378 19.0445 18.6391C19.0445 18.6403 19.0457 18.6412 19.0468 18.6408C19.335 18.5434 19.5906 18.3984 19.8136 18.2058C20.2851 17.8164 20.7971 16.7921 20.7971 16.1157C20.7971 15.4187 20.5613 14.8755 20.0899 14.4861C19.639 14.0966 19.0548 13.9019 18.3373 13.9019H14.0636V18.1446C11.7715 18.0043 9.80618 17.7103 8.77518 17.4284V9.28993H19.0445C21.2583 9.28993 23.0006 9.94586 24.2714 11.2577C25.5423 12.5491 26.1777 14.1684 26.1777 16.1157C26.1777 18.0424 25.5423 19.6618 24.2714 20.9736C23.0006 22.265 21.2583 22.9106 19.0445 22.9106H14.0636V29.7979Z" fill="url(#paint2_linear_1965_1334)"/>
<path d="M39.0784 24.0524C37.7823 24.0524 36.7211 23.5254 35.895 22.4714V27.7272H33.1816V13.4766H35.895V14.7799C36.7069 13.7401 37.768 13.2202 39.0784 13.2202C40.4316 13.2202 41.5283 13.7045 42.3687 14.6731C43.2233 15.6274 43.6506 16.9449 43.6506 18.6256C43.6506 20.3064 43.2233 21.631 42.3687 22.5996C41.5283 23.5681 40.4316 24.0524 39.0784 24.0524ZM38.2238 21.6381C39.0072 21.6381 39.6339 21.3604 40.104 20.8049C40.5883 20.2494 40.8304 19.523 40.8304 18.6256C40.8304 17.7425 40.5883 17.0232 40.104 16.4677C39.6339 15.9123 39.0072 15.6345 38.2238 15.6345C37.7823 15.6345 37.3407 15.7485 36.8992 15.9763C36.4576 16.2042 36.1229 16.482 35.895 16.8096V20.463C36.1229 20.7906 36.4576 21.0684 36.8992 21.2963C37.355 21.5242 37.7965 21.6381 38.2238 21.6381Z" fill="white"/>
<path d="M50.4876 24.0524C48.8924 24.0524 47.5749 23.5539 46.5351 22.5568C45.4953 21.5598 44.9754 20.2494 44.9754 18.6256C44.9754 17.1016 45.4739 15.8197 46.471 14.7799C47.4823 13.7401 48.7642 13.2202 50.3167 13.2202C51.855 13.2202 53.1013 13.7472 54.0556 14.8013C55.01 15.841 55.4871 17.2084 55.4871 18.9034V19.5016H47.817C47.9025 20.1853 48.2087 20.755 48.7357 21.2108C49.2627 21.6666 49.9464 21.8945 50.7868 21.8945C51.2426 21.8945 51.734 21.8019 52.261 21.6168C52.8022 21.4316 53.2295 21.1823 53.5429 20.869L54.7393 22.6209C53.6996 23.5753 52.2823 24.0524 50.4876 24.0524ZM52.8592 17.6642C52.8165 17.0802 52.5814 16.5532 52.1541 16.0832C51.7411 15.6131 51.1286 15.3781 50.3167 15.3781C49.5476 15.3781 48.9494 15.6131 48.522 16.0832C48.0947 16.539 47.8455 17.066 47.7743 17.6642H52.8592Z" fill="white"/>
<path d="M62.2542 24.0524C60.6589 24.0524 59.3485 23.5468 58.323 22.5355C57.2975 21.5242 56.7847 20.2209 56.7847 18.6256C56.7847 17.0446 57.2975 15.7485 58.323 14.7372C59.3485 13.7259 60.6589 13.2202 62.2542 13.2202C64.0774 13.2202 65.4376 13.8398 66.335 15.079L64.5617 16.7455C64.0631 16.0048 63.3367 15.6345 62.3824 15.6345C61.5563 15.6345 60.8797 15.9123 60.3527 16.4677C59.8399 17.009 59.5836 17.7283 59.5836 18.6256C59.5836 19.523 59.8399 20.2494 60.3527 20.8049C60.8797 21.3604 61.5563 21.6381 62.3824 21.6381C63.3082 21.6381 64.0347 21.2678 64.5617 20.5271L66.335 22.1723C65.4376 23.4257 64.0774 24.0524 62.2542 24.0524Z" fill="white"/>
<path d="M77.8086 23.796H75.0952V17.5146C75.0952 16.831 74.9314 16.3467 74.6038 16.0618C74.2762 15.7769 73.7991 15.6345 73.1724 15.6345C72.218 15.6345 71.4347 16.0404 70.8222 16.8523V23.796H68.1088V9.54541H70.8222V14.8226C71.1925 14.3811 71.691 14.0036 72.3177 13.6903C72.9587 13.3769 73.6709 13.2202 74.4543 13.2202C75.5653 13.2202 76.3985 13.5051 76.954 14.0748C77.5237 14.6446 77.8086 15.4422 77.8086 16.4677V23.796Z" fill="white"/>
<path d="M85.3522 24.0524C83.7569 24.0524 82.4394 23.5539 81.3996 22.5568C80.3599 21.5598 79.84 20.2494 79.84 18.6256C79.84 17.1016 80.3385 15.8197 81.3355 14.7799C82.3468 13.7401 83.6287 13.2202 85.1813 13.2202C86.7196 13.2202 87.9659 13.7472 88.9202 14.8013C89.8745 15.841 90.3517 17.2084 90.3517 18.9034V19.5016H82.6816C82.767 20.1853 83.0732 20.755 83.6003 21.2108C84.1273 21.6666 84.811 21.8945 85.6513 21.8945C86.1071 21.8945 86.5985 21.8019 87.1255 21.6168C87.6668 21.4316 88.0941 21.1823 88.4074 20.869L89.6039 22.6209C88.5641 23.5753 87.1469 24.0524 85.3522 24.0524ZM87.7238 17.6642C87.681 17.0802 87.446 16.5532 87.0187 16.0832C86.6056 15.6131 85.9932 15.3781 85.1813 15.3781C84.4121 15.3781 83.8139 15.6131 83.3866 16.0832C82.9593 16.539 82.71 17.066 82.6388 17.6642H87.7238Z" fill="white"/>
<path d="M101.99 23.796H99.2767V17.5574C99.2767 16.2755 98.6428 15.6345 97.3752 15.6345C96.3924 15.6345 95.609 16.0404 95.025 16.8523V23.796H92.3116V13.4766H95.025V14.8226C95.9223 13.7544 97.1259 13.2202 98.6357 13.2202C99.7467 13.2202 100.58 13.5122 101.135 14.0962C101.705 14.6802 101.99 15.4849 101.99 16.5105V23.796Z" fill="white"/>
<path d="M107.291 23.5183C106.949 23.8601 106.543 24.031 106.073 24.031C105.603 24.031 105.197 23.8601 104.855 23.5183C104.513 23.1764 104.342 22.7705 104.342 22.3005C104.342 21.8304 104.513 21.4245 104.855 21.0826C105.197 20.7408 105.603 20.5699 106.073 20.5699C106.543 20.5699 106.949 20.7408 107.291 21.0826C107.633 21.4245 107.804 21.8304 107.804 22.3005C107.804 22.7705 107.633 23.1764 107.291 23.5183Z" fill="white"/>
<path d="M119.06 23.796H116.347V22.7278C115.606 23.6109 114.516 24.0524 113.078 24.0524C112.152 24.0524 111.319 23.7533 110.578 23.1551C109.852 22.5426 109.488 21.7022 109.488 20.634C109.488 19.523 109.845 18.6897 110.557 18.1342C111.283 17.5787 112.123 17.301 113.078 17.301C114.545 17.301 115.634 17.7212 116.347 18.5615V17.1728C116.347 16.6458 116.14 16.2256 115.727 15.9123C115.314 15.5989 114.766 15.4422 114.082 15.4422C112.957 15.4422 111.953 15.8482 111.069 16.66L110.044 14.844C111.269 13.7615 112.772 13.2202 114.552 13.2202C115.877 13.2202 116.959 13.5265 117.799 14.1389C118.64 14.7514 119.06 15.7485 119.06 17.1301V23.796ZM114.167 22.215C115.179 22.215 115.905 21.9159 116.347 21.3177V20.0357C115.905 19.4375 115.179 19.1384 114.167 19.1384C113.612 19.1384 113.149 19.2808 112.779 19.5657C112.408 19.8363 112.223 20.2138 112.223 20.6981C112.223 21.1681 112.408 21.5384 112.779 21.8091C113.149 22.0797 113.612 22.215 114.167 22.215Z" fill="white"/>
<path d="M124.465 23.796H121.751V13.4766H124.465V14.8867C124.849 14.4024 125.341 14.0036 125.939 13.6903C126.537 13.3769 127.143 13.2202 127.755 13.2202V15.8695C127.57 15.8268 127.321 15.8054 127.007 15.8054C126.551 15.8054 126.067 15.9194 125.554 16.1473C125.042 16.3752 124.678 16.6529 124.465 16.9805V23.796Z" fill="white"/>
<path d="M132.912 24.0524C131.957 24.0524 131.231 23.8103 130.732 23.326C130.234 22.8417 129.985 22.1438 129.985 21.2322V15.8482H128.275V13.4766H129.985V10.6564H132.719V13.4766H134.813V15.8482H132.719V20.5058C132.719 20.8334 132.805 21.104 132.976 21.3177C133.147 21.5313 133.374 21.6381 133.659 21.6381C134.087 21.6381 134.4 21.5384 134.599 21.339L135.176 23.3901C134.678 23.8316 133.923 24.0524 132.912 24.0524Z" fill="white"/>
<path d="M140.387 24.0524C139.49 24.0524 138.628 23.91 137.802 23.6251C136.99 23.3402 136.313 22.9485 135.772 22.45L136.947 20.5485C137.346 20.9188 137.887 21.2464 138.571 21.5313C139.255 21.8162 139.903 21.9586 140.515 21.9586C141.085 21.9586 141.512 21.8589 141.797 21.6595C142.096 21.4601 142.246 21.1895 142.246 20.8476C142.246 20.5912 142.089 20.3847 141.776 20.228C141.477 20.0571 141.099 19.936 140.643 19.8648C140.202 19.7936 139.71 19.6868 139.169 19.5443C138.642 19.4019 138.151 19.231 137.695 19.0316C137.253 18.8322 136.876 18.5188 136.563 18.0915C136.264 17.65 136.114 17.1087 136.114 16.4677C136.114 15.5562 136.491 14.787 137.246 14.1603C138.001 13.5336 139.034 13.2202 140.344 13.2202C141.94 13.2202 143.328 13.6903 144.511 14.6303L143.421 16.4891C143.093 16.1473 142.652 15.8624 142.096 15.6345C141.555 15.4066 140.978 15.2927 140.366 15.2927C139.881 15.2927 139.49 15.3924 139.191 15.5918C138.891 15.7769 138.742 16.0191 138.742 16.3182C138.742 16.5461 138.891 16.7384 139.191 16.8951C139.49 17.0375 139.867 17.1443 140.323 17.2155C140.779 17.2867 141.27 17.4007 141.797 17.5574C142.324 17.6998 142.816 17.8779 143.271 18.0915C143.727 18.2909 144.105 18.6185 144.404 19.0743C144.703 19.5301 144.852 20.0856 144.852 20.7408C144.852 21.7094 144.454 22.507 143.656 23.1337C142.873 23.7462 141.783 24.0524 140.387 24.0524Z" fill="white"/>
<defs>
<linearGradient id="paint0_linear_1965_1334" x1="4" y1="12.5" x2="24.995" y2="19.1491" gradientUnits="userSpaceOnUse">
<stop stop-color="#51EAFF"/>
<stop offset="1" stop-color="#2B59FF"/>
</linearGradient>
<linearGradient id="paint1_linear_1965_1334" x1="4" y1="12.5" x2="24.995" y2="19.1491" gradientUnits="userSpaceOnUse">
<stop stop-color="#51EAFF"/>
<stop offset="1" stop-color="#2B59FF"/>
</linearGradient>
<linearGradient id="paint2_linear_1965_1334" x1="4" y1="12.5" x2="24.995" y2="19.1491" gradientUnits="userSpaceOnUse">
<stop stop-color="#51EAFF"/>
<stop offset="1" stop-color="#2B59FF"/>
</linearGradient>
</defs>
</svg>
