<svg width="81" height="24" viewBox="0 0 81 24" fill="none" xmlns="http://www.w3.org/2000/svg">
<path d="M1.12 17.5V7.42H2.149V16.513H6.937V17.5H1.12ZM11.2874 17.71C10.5361 17.71 9.89439 17.5397 9.36239 17.199C8.83039 16.8583 8.42206 16.387 8.13739 15.785C7.85272 15.183 7.71039 14.4923 7.71039 13.713C7.71039 12.9197 7.85506 12.2243 8.14439 11.627C8.43372 11.0297 8.84439 10.5653 9.37639 10.234C9.91306 9.898 10.5501 9.73 11.2874 9.73C12.0434 9.73 12.6874 9.90033 13.2194 10.241C13.7561 10.577 14.1644 11.046 14.4444 11.648C14.7291 12.2453 14.8714 12.9337 14.8714 13.713C14.8714 14.5063 14.7291 15.204 14.4444 15.806C14.1597 16.4033 13.7491 16.87 13.2124 17.206C12.6757 17.542 12.0341 17.71 11.2874 17.71ZM11.2874 16.723C12.1274 16.723 12.7527 16.4453 13.1634 15.89C13.5741 15.33 13.7794 14.6043 13.7794 13.713C13.7794 12.7983 13.5717 12.0703 13.1564 11.529C12.7457 10.9877 12.1227 10.717 11.2874 10.717C10.7227 10.717 10.2561 10.8453 9.88739 11.102C9.52339 11.354 9.25039 11.7063 9.06839 12.159C8.89106 12.607 8.80239 13.125 8.80239 13.713C8.80239 14.623 9.01239 15.3533 9.43239 15.904C9.85239 16.45 10.4707 16.723 11.2874 16.723ZM19.4185 21.07C19.0312 21.07 18.6485 21.0117 18.2705 20.895C17.8972 20.783 17.5519 20.6033 17.2345 20.356C16.9172 20.1133 16.6512 19.796 16.4365 19.404L17.3675 18.886C17.5775 19.306 17.8715 19.607 18.2495 19.789C18.6322 19.9757 19.0219 20.069 19.4185 20.069C19.9645 20.069 20.4055 19.9663 20.7415 19.761C21.0822 19.5603 21.3295 19.2617 21.4835 18.865C21.6375 18.4683 21.7122 17.9737 21.7075 17.381V15.365H21.8265V9.94H22.7435V17.395C22.7435 17.6097 22.7365 17.815 22.7225 18.011C22.7132 18.2117 22.6922 18.4077 22.6595 18.599C22.5709 19.1637 22.3865 19.628 22.1065 19.992C21.8312 20.356 21.4672 20.6267 21.0145 20.804C20.5665 20.9813 20.0345 21.07 19.4185 21.07ZM19.3485 17.71C18.6439 17.71 18.0419 17.535 17.5425 17.185C17.0432 16.8303 16.6605 16.352 16.3945 15.75C16.1285 15.148 15.9955 14.469 15.9955 13.713C15.9955 12.9617 16.1262 12.285 16.3875 11.683C16.6535 11.081 17.0339 10.605 17.5285 10.255C18.0232 9.905 18.6159 9.73 19.3065 9.73C20.0159 9.73 20.6132 9.90267 21.0985 10.248C21.5839 10.5933 21.9502 11.067 22.1975 11.669C22.4495 12.2663 22.5755 12.9477 22.5755 13.713C22.5755 14.4643 22.4519 15.1433 22.2045 15.75C21.9572 16.352 21.5932 16.8303 21.1125 17.185C20.6319 17.535 20.0439 17.71 19.3485 17.71ZM19.4535 16.751C19.9902 16.751 20.4335 16.6203 20.7835 16.359C21.1335 16.0977 21.3949 15.7383 21.5675 15.281C21.7402 14.819 21.8265 14.2963 21.8265 13.713C21.8265 13.1203 21.7402 12.5977 21.5675 12.145C21.3949 11.6877 21.1335 11.3307 20.7835 11.074C20.4382 10.8173 20.0019 10.689 19.4745 10.689C18.9332 10.689 18.4852 10.822 18.1305 11.088C17.7759 11.354 17.5122 11.7157 17.3395 12.173C17.1715 12.6303 17.0875 13.1437 17.0875 13.713C17.0875 14.287 17.1739 14.805 17.3465 15.267C17.5239 15.7243 17.7875 16.086 18.1375 16.352C18.4875 16.618 18.9262 16.751 19.4535 16.751ZM30.6604 17.71C29.9091 17.71 29.2674 17.5397 28.7354 17.199C28.2034 16.8583 27.7951 16.387 27.5104 15.785C27.2258 15.183 27.0834 14.4923 27.0834 13.713C27.0834 12.9197 27.2281 12.2243 27.5174 11.627C27.8068 11.0297 28.2174 10.5653 28.7494 10.234C29.2861 9.898 29.9231 9.73 30.6604 9.73C31.4164 9.73 32.0604 9.90033 32.5924 10.241C33.1291 10.577 33.5374 11.046 33.8174 11.648C34.1021 12.2453 34.2444 12.9337 34.2444 13.713C34.2444 14.5063 34.1021 15.204 33.8174 15.806C33.5328 16.4033 33.1221 16.87 32.5854 17.206C32.0488 17.542 31.4071 17.71 30.6604 17.71ZM30.6604 16.723C31.5004 16.723 32.1258 16.4453 32.5364 15.89C32.9471 15.33 33.1524 14.6043 33.1524 13.713C33.1524 12.7983 32.9448 12.0703 32.5294 11.529C32.1188 10.9877 31.4958 10.717 30.6604 10.717C30.0958 10.717 29.6291 10.8453 29.2604 11.102C28.8964 11.354 28.6234 11.7063 28.4414 12.159C28.2641 12.607 28.1754 13.125 28.1754 13.713C28.1754 14.623 28.3854 15.3533 28.8054 15.904C29.2254 16.45 29.8438 16.723 30.6604 16.723ZM38.6796 17.689C38.2269 17.689 37.8303 17.619 37.4896 17.479C37.1536 17.339 36.8666 17.15 36.6286 16.912C36.3953 16.674 36.2063 16.4033 36.0616 16.1C35.9169 15.792 35.8119 15.4677 35.7466 15.127C35.6813 14.7817 35.6486 14.4387 35.6486 14.098V9.94H36.6846V13.797C36.6846 14.2123 36.7243 14.5973 36.8036 14.952C36.8829 15.3067 37.0089 15.617 37.1816 15.883C37.3589 16.1443 37.5853 16.3473 37.8606 16.492C38.1406 16.6367 38.4789 16.709 38.8756 16.709C39.2396 16.709 39.5593 16.646 39.8346 16.52C40.1146 16.394 40.3479 16.2143 40.5346 15.981C40.7259 15.743 40.8706 15.456 40.9686 15.12C41.0666 14.7793 41.1156 14.3967 41.1156 13.972L41.8436 14.133C41.8436 14.9077 41.7083 15.5587 41.4376 16.086C41.1669 16.6133 40.7936 17.0123 40.3176 17.283C39.8416 17.5537 39.2956 17.689 38.6796 17.689ZM41.2206 17.5V15.638H41.1156V9.94H42.1446V17.5H41.2206ZM48.2171 17.5C47.7924 17.5887 47.3724 17.6237 46.9571 17.605C46.5464 17.5863 46.1778 17.4977 45.8511 17.339C45.5291 17.1803 45.2841 16.933 45.1161 16.597C44.9808 16.317 44.9061 16.0347 44.8921 15.75C44.8828 15.4607 44.8781 15.1317 44.8781 14.763V7.84H45.9001V14.721C45.9001 15.0383 45.9024 15.3043 45.9071 15.519C45.9164 15.729 45.9654 15.9157 46.0541 16.079C46.2221 16.3917 46.4881 16.5783 46.8521 16.639C47.2208 16.6997 47.6758 16.6857 48.2171 16.597V17.5ZM43.2611 10.822V9.94H48.2171V10.822H43.2611Z" fill="#C8D2DC"/>
<path d="M66 21H62C61.4696 21 60.9609 20.7893 60.5858 20.4142C60.2107 20.0391 60 19.5304 60 19V5C60 4.46957 60.2107 3.96086 60.5858 3.58579C60.9609 3.21071 61.4696 3 62 3H66" stroke="#C8D2DC" stroke-width="2" stroke-linecap="round" stroke-linejoin="round"/>
<path d="M73 17L78 12L73 7" stroke="#C8D2DC" stroke-width="2" stroke-linecap="round" stroke-linejoin="round"/>
<path d="M78 12H66" stroke="#C8D2DC" stroke-width="2" stroke-linecap="round" stroke-linejoin="round"/>
</svg>
