<svg width="221" height="35" viewBox="0 0 221 35" fill="none" xmlns="http://www.w3.org/2000/svg">
<path opacity="0.2" d="M29.943 34V35H30.943V34H29.943ZM23.093 34L22.2857 34.5902L22.5853 35H23.093V34ZM7.19297 12.25L8.00026 11.6598L6.19297 9.18761V12.25H7.19297ZM7.19297 34V35H8.19297V34H7.19297ZM0.092968 34H-0.907031V35H0.092968V34ZM0.092968 0.649998V-0.350002H-0.907031V0.649998H0.092968ZM7.39297 0.649998L8.19778 0.0564709L7.89802 -0.350002H7.39297V0.649998ZM22.843 21.6L22.0382 22.1935L23.843 24.6408V21.6H22.843ZM22.843 0.649998V-0.350002H21.843V0.649998H22.843ZM29.943 0.649998H30.943V-0.350002H29.943V0.649998ZM29.943 33H23.093V35H29.943V33ZM23.9003 33.4098L8.00026 11.6598L6.38568 12.8402L22.2857 34.5902L23.9003 33.4098ZM6.19297 12.25V34H8.19297V12.25H6.19297ZM7.19297 33H0.092968V35H7.19297V33ZM1.09297 34V0.649998H-0.907031V34H1.09297ZM0.092968 1.65H7.39297V-0.350002H0.092968V1.65ZM6.58816 1.24352L22.0382 22.1935L23.6478 21.0065L8.19778 0.0564709L6.58816 1.24352ZM23.843 21.6V0.649998H21.843V21.6H23.843ZM22.843 1.65H29.943V-0.350002H22.843V1.65ZM28.943 0.649998V34H30.943V0.649998H28.943ZM39.8187 29.75L39.1116 30.4571L39.1189 30.4643L39.8187 29.75ZM39.8187 5L40.5222 5.71072L40.5223 5.71069L39.8187 5ZM64.8187 4.95L64.1153 5.66073L64.1189 5.66428L64.8187 4.95ZM64.8187 29.75L64.1189 29.0357L64.1153 29.0393L64.8187 29.75ZM44.9688 25.2L44.2206 25.8636L44.2266 25.8703L44.9688 25.2ZM59.6688 25.2L60.4109 25.8703L59.6688 25.2ZM59.6688 9.5L58.9267 10.1703L59.6688 9.5ZM44.9688 9.5L44.2266 8.82969L44.2207 8.83638L44.9688 9.5ZM52.3187 33.6C47.5214 33.6 43.6141 32.0687 40.5186 29.0357L39.1189 30.4643C42.6234 33.898 47.0494 35.6 52.3187 35.6V33.6ZM40.5259 29.0429C37.4631 25.9801 35.9188 22.1089 35.9188 17.35H33.9188C33.9188 22.5911 35.6411 26.9865 39.1116 30.4571L40.5259 29.0429ZM35.9188 17.35C35.9188 12.5911 37.463 8.73877 40.5222 5.71072L39.1153 4.28927C35.6412 7.72789 33.9188 12.1089 33.9188 17.35H35.9188ZM40.5223 5.71069C43.6184 2.64583 47.5245 1.1 52.3187 1.1V-0.900002C47.0463 -0.900002 42.6191 0.820833 39.1152 4.28931L40.5223 5.71069ZM52.3187 1.1C57.1515 1.1 61.0559 2.63251 64.1153 5.66072L65.5222 4.23927C62.0483 0.800815 57.6193 -0.900002 52.3187 -0.900002V1.1ZM64.1189 5.66428C67.2087 8.69171 68.7688 12.5588 68.7688 17.35H70.7688C70.7688 12.0745 69.0288 7.67495 65.5186 4.23571L64.1189 5.66428ZM68.7688 17.35C68.7688 22.1412 67.2087 26.0083 64.1189 29.0357L65.5186 30.4643C69.0288 27.025 70.7688 22.6255 70.7688 17.35H68.7688ZM64.1153 29.0393C61.0559 32.0675 57.1515 33.6 52.3187 33.6V35.6C57.6193 35.6 62.0483 33.8992 65.5222 30.4607L64.1153 29.0393ZM44.2266 25.8703C46.3011 28.167 49.0308 29.3 52.3187 29.3V27.3C49.54 27.3 47.3698 26.3664 45.7109 24.5297L44.2266 25.8703ZM52.3187 29.3C55.6067 29.3 58.3364 28.167 60.4109 25.8703L58.9267 24.5297C57.2677 26.3664 55.0975 27.3 52.3187 27.3V29.3ZM60.4109 25.8703C62.4664 23.5945 63.4688 20.7279 63.4688 17.35H61.4688C61.4688 20.3054 60.6044 22.6722 58.9267 24.5297L60.4109 25.8703ZM63.4688 17.35C63.4688 13.9721 62.4664 11.1055 60.4109 8.82971L58.9267 10.1703C60.6044 12.0278 61.4688 14.3946 61.4688 17.35H63.4688ZM60.4109 8.82971C58.3364 6.53303 55.6067 5.4 52.3187 5.4V7.4C55.0975 7.4 57.2677 8.33363 58.9267 10.1703L60.4109 8.82971ZM52.3187 5.4C49.0308 5.4 46.3011 6.53303 44.2266 8.82971L45.7109 10.1703C47.3698 8.33363 49.54 7.4 52.3187 7.4V5.4ZM44.2207 8.83638C42.2014 11.1127 41.2188 13.9769 41.2188 17.35H43.2188C43.2188 14.3898 44.0694 12.0207 45.7168 10.1636L44.2207 8.83638ZM41.2188 17.35C41.2188 20.7231 42.2014 23.5873 44.2207 25.8636L45.7168 24.5364C44.0694 22.6793 43.2188 20.3102 43.2188 17.35H41.2188ZM88.3805 34V35H89.3805V34H88.3805ZM81.2305 34H80.2305V35H81.2305V34ZM81.2305 6.9H82.2305V5.9H81.2305V6.9ZM71.4805 6.9H70.4805V7.9H71.4805V6.9ZM71.4805 0.649998V-0.350002H70.4805V0.649998H71.4805ZM98.0805 0.649998H99.0805V-0.350002H98.0805V0.649998ZM98.0805 6.9V7.9H99.0805V6.9H98.0805ZM88.3805 6.9V5.9H87.3805V6.9H88.3805ZM88.3805 33H81.2305V35H88.3805V33ZM82.2305 34V6.9H80.2305V34H82.2305ZM81.2305 5.9H71.4805V7.9H81.2305V5.9ZM72.4805 6.9V0.649998H70.4805V6.9H72.4805ZM71.4805 1.65H98.0805V-0.350002H71.4805V1.65ZM97.0805 0.649998V6.9H99.0805V0.649998H97.0805ZM98.0805 5.9H88.3805V7.9H98.0805V5.9ZM87.3805 6.9V34H89.3805V6.9H87.3805ZM148.475 34V35H149.23L149.437 34.274L148.475 34ZM140.925 34L139.956 34.2475L140.148 35H140.925V34ZM135.075 11.1L136.044 10.8525L134.106 10.8545L135.075 11.1ZM129.275 34V35H130.053L130.244 34.2455L129.275 34ZM121.725 34L120.764 34.2753L120.971 35H121.725V34ZM112.175 0.649998V-0.350002H110.848L111.214 0.925289L112.175 0.649998ZM120.125 0.649998L121.097 0.414108L120.911 -0.350002H120.125V0.649998ZM125.975 24.75L125.003 24.9859L126.942 25.0048L125.975 24.75ZM132.325 0.649998V-0.350002H131.554L131.358 0.395207L132.325 0.649998ZM137.875 0.649998L138.842 0.397085L138.647 -0.350002H137.875V0.649998ZM144.175 24.75L143.208 25.0029L145.147 24.984L144.175 24.75ZM149.975 0.649998V-0.350002H149.187L149.003 0.416014L149.975 0.649998ZM157.975 0.649998L158.937 0.923957L159.3 -0.350002H157.975V0.649998ZM148.475 33H140.925V35H148.475V33ZM141.894 33.7525L136.044 10.8525L134.106 11.3475L139.956 34.2475L141.894 33.7525ZM134.106 10.8545L128.306 33.7545L130.244 34.2455L136.044 11.3455L134.106 10.8545ZM129.275 33H121.725V35H129.275V33ZM122.686 33.7247L113.136 0.374705L111.214 0.925289L120.764 34.2753L122.686 33.7247ZM112.175 1.65H120.125V-0.350002H112.175V1.65ZM119.153 0.885886L125.003 24.9859L126.947 24.5141L121.097 0.414108L119.153 0.885886ZM126.942 25.0048L133.292 0.904787L131.358 0.395207L125.008 24.4952L126.942 25.0048ZM132.325 1.65H137.875V-0.350002H132.325V1.65ZM136.908 0.902909L143.208 25.0029L145.142 24.4971L138.842 0.397085L136.908 0.902909ZM145.147 24.984L150.947 0.883981L149.003 0.416014L143.203 24.516L145.147 24.984ZM149.975 1.65H157.975V-0.350002H149.975V1.65ZM157.013 0.376038L147.513 33.726L149.437 34.274L158.937 0.923957L157.013 0.376038ZM190.226 34V35H191.683L191.159 33.6405L190.226 34ZM182.126 34L181.186 34.3411L181.425 35H182.126V34ZM180.076 28.35L181.016 28.0089L180.777 27.35H180.076V28.35ZM165.776 28.35V27.35H165.081L164.839 28.0016L165.776 28.35ZM163.676 34V35H164.371L164.614 34.3484L163.676 34ZM155.576 34L154.644 33.6392L154.117 35H155.576V34ZM168.476 0.649998V-0.350002H167.791L167.544 0.289239L168.476 0.649998ZM177.376 0.649998L178.309 0.290456L178.063 -0.350002H177.376V0.649998ZM178.126 22.1V23.1H179.552L179.066 21.7593L178.126 22.1ZM172.926 7.75L173.866 7.40931L172.926 4.81479L171.986 7.40931L172.926 7.75ZM167.726 22.1L166.786 21.7593L166.3 23.1H167.726V22.1ZM190.226 33H182.126V35H190.226V33ZM183.066 33.6589L181.016 28.0089L179.136 28.6911L181.186 34.3411L183.066 33.6589ZM180.076 27.35H165.776V29.35H180.076V27.35ZM164.839 28.0016L162.739 33.6516L164.614 34.3484L166.714 28.6984L164.839 28.0016ZM163.676 33H155.576V35H163.676V33ZM156.509 34.3608L169.409 1.01076L167.544 0.289239L154.644 33.6392L156.509 34.3608ZM168.476 1.65H177.376V-0.350002H168.476V1.65ZM176.443 1.00954L189.293 34.3595L191.159 33.6405L178.309 0.290456L176.443 1.00954ZM179.066 21.7593L173.866 7.40931L171.986 8.09069L177.186 22.4407L179.066 21.7593ZM171.986 7.40931L166.786 21.7593L168.666 22.4407L173.866 8.09069L171.986 7.40931ZM167.726 23.1H178.126V21.1H167.726V23.1ZM220.306 34V35H222.058L221.167 33.4915L220.306 34ZM212.156 34L211.281 34.4838L211.566 35H212.156V34ZM205.606 22.15L206.481 21.6662L206.196 21.15H205.606V22.15ZM200.406 22.15V21.15H199.406V22.15H200.406ZM200.406 34V35H201.406V34H200.406ZM193.306 34H192.306V35H193.306V34ZM193.306 0.649998V-0.350002H192.306V0.649998H193.306ZM217.056 3.65L216.349 4.35713L216.355 4.36292L217.056 3.65ZM217.956 18.05L217.191 17.4054L217.184 17.4143L217.956 18.05ZM212.806 21.3L212.582 20.3253L211.25 20.6312L211.945 21.8085L212.806 21.3ZM211.456 14.7L212.107 15.4593L212.114 15.4527L212.122 15.4459L211.456 14.7ZM211.456 8.15L210.79 8.89594L210.797 8.90267L210.805 8.90926L211.456 8.15ZM200.406 6.9V5.9H199.406V6.9H200.406ZM200.406 15.9H199.406V16.9H200.406V15.9ZM220.306 33H212.156V35H220.306V33ZM213.031 33.5162L206.481 21.6662L204.731 22.6338L211.281 34.4838L213.031 33.5162ZM205.606 21.15H200.406V23.15H205.606V21.15ZM199.406 22.15V34H201.406V22.15H199.406ZM200.406 33H193.306V35H200.406V33ZM194.306 34V0.649998H192.306V34H194.306ZM193.306 1.65H208.906V-0.350002H193.306V1.65ZM208.906 1.65C212.134 1.65 214.575 2.58347 216.349 4.3571L217.763 2.94289C215.537 0.716522 212.544 -0.350002 208.906 -0.350002V1.65ZM216.355 4.36292C218.175 6.15332 219.106 8.46893 219.106 11.4H221.106C221.106 7.99773 220.004 5.14668 217.757 2.93707L216.355 4.36292ZM219.106 11.4C219.106 13.9534 218.44 15.9244 217.191 17.4054L218.72 18.6946C220.338 16.7756 221.106 14.3132 221.106 11.4H219.106ZM217.184 17.4143C215.916 18.9541 214.388 19.9109 212.582 20.3253L213.03 22.2747C215.291 21.7558 217.196 20.546 218.728 18.6857L217.184 17.4143ZM211.945 21.8085L219.445 34.5085L221.167 33.4915L213.667 20.7915L211.945 21.8085ZM207.856 16.9C209.513 16.9 210.958 16.4434 212.107 15.4593L210.805 13.9407C210.087 14.5566 209.132 14.9 207.856 14.9V16.9ZM212.122 15.4459C213.289 14.4041 213.856 13.0221 213.856 11.4H211.856C211.856 12.5113 211.49 13.3292 210.79 13.9541L212.122 15.4459ZM213.856 11.4C213.856 9.77807 213.288 8.40335 212.107 7.39074L210.805 8.90926C211.49 9.49664 211.856 10.2886 211.856 11.4H213.856ZM212.122 7.40406C210.974 6.37951 209.523 5.9 207.856 5.9V7.9C209.122 7.9 210.071 8.25381 210.79 8.89594L212.122 7.40406ZM207.856 5.9H200.406V7.9H207.856V5.9ZM199.406 6.9V15.9H201.406V6.9H199.406ZM200.406 16.9H207.856V14.9H200.406V16.9Z" fill="#FCFFFF"/>
</svg>
