<svg width="68" height="17" viewBox="0 0 68 17" fill="none" xmlns="http://www.w3.org/2000/svg">
<path d="M15.3779 14.3726L12.75 11.7659C13.7701 10.494 14.2641 8.87965 14.1304 7.25474C13.9967 5.62982 13.2456 4.11787 12.0314 3.02977C10.8172 1.94167 9.23227 1.36013 7.60248 1.40473C5.97269 1.44933 4.42192 2.11667 3.26905 3.26954C2.11618 4.42241 1.44884 5.97318 1.40424 7.60297C1.35965 9.23276 1.94119 10.8177 3.02928 12.0319C4.11738 13.2461 5.62933 13.9972 7.25425 14.1309C8.87916 14.2645 10.4935 13.7706 11.7654 12.7505L14.3721 15.3571C14.4379 15.4235 14.5163 15.4762 14.6026 15.5122C14.6889 15.5482 14.7815 15.5667 14.875 15.5667C14.9685 15.5667 15.0611 15.5482 15.1474 15.5122C15.2337 15.4762 15.3121 15.4235 15.3779 15.3571C15.5056 15.2251 15.5769 15.0486 15.5769 14.8649C15.5769 14.6812 15.5056 14.5046 15.3779 14.3726ZM7.79166 12.7505C6.81099 12.7505 5.85235 12.4597 5.03696 11.9149C4.22156 11.37 3.58604 10.5956 3.21076 9.68962C2.83547 8.7836 2.73728 7.78665 2.9286 6.82483C3.11992 5.863 3.59215 4.97951 4.28559 4.28608C4.97902 3.59264 5.86251 3.12041 6.82434 2.92909C7.78616 2.73777 8.78312 2.83596 9.68913 3.21125C10.5951 3.58653 11.3695 4.22205 11.9144 5.03745C12.4592 5.85284 12.75 6.81148 12.75 7.79215C12.75 9.10718 12.2276 10.3684 11.2977 11.2982C10.3679 12.2281 9.10669 12.7505 7.79166 12.7505Z" fill="#C8D2DC"/>
<path d="M29.116 13.168C27.604 13.168 26.4093 12.6733 25.532 11.684L26.218 10.802C27.0113 11.6887 27.9913 12.132 29.158 12.132C29.914 12.132 30.4693 11.9733 30.824 11.656C31.1787 11.3293 31.356 10.9513 31.356 10.522C31.356 10.1953 31.2533 9.92 31.048 9.696C30.8427 9.472 30.5767 9.29933 30.25 9.178C29.9327 9.04733 29.5733 8.93067 29.172 8.828C28.78 8.72533 28.388 8.61333 27.996 8.492C27.604 8.36133 27.2447 8.20733 26.918 8.03C26.6007 7.85267 26.3393 7.60067 26.134 7.274C25.9287 6.94733 25.826 6.56 25.826 6.112C25.826 5.34667 26.1293 4.726 26.736 4.25C27.3427 3.76467 28.108 3.522 29.032 3.522C30.4227 3.522 31.5287 3.956 32.35 4.824L31.65 5.678C30.9687 4.93133 30.068 4.558 28.948 4.558C28.388 4.558 27.926 4.698 27.562 4.978C27.2073 5.24867 27.03 5.60333 27.03 6.042C27.03 6.36867 27.1653 6.63933 27.436 6.854C27.716 7.06867 28.0567 7.22733 28.458 7.33C28.8687 7.43267 29.312 7.56333 29.788 7.722C30.2733 7.87133 30.7167 8.03467 31.118 8.212C31.5287 8.38 31.8693 8.65533 32.14 9.038C32.42 9.42067 32.56 9.88267 32.56 10.424C32.56 11.1893 32.2753 11.838 31.706 12.37C31.146 12.902 30.2827 13.168 29.116 13.168ZM37.3051 13.168C36.2971 13.168 35.4711 12.8413 34.8271 12.188C34.1831 11.5253 33.8611 10.6667 33.8611 9.612C33.8611 8.62267 34.1785 7.78733 34.8131 7.106C35.4478 6.41533 36.2411 6.07 37.1931 6.07C38.1918 6.07 38.9805 6.41533 39.5591 7.106C40.1471 7.78733 40.4411 8.65067 40.4411 9.696V9.962H34.9671C35.0138 10.6247 35.2565 11.18 35.6951 11.628C36.1338 12.076 36.7031 12.3 37.4031 12.3C38.2431 12.3 38.9385 12.0153 39.4891 11.446L39.9931 12.132C39.3025 12.8227 38.4065 13.168 37.3051 13.168ZM39.4051 9.192C39.3958 8.61333 39.1998 8.09533 38.8171 7.638C38.4345 7.17133 37.8885 6.938 37.1791 6.938C36.5071 6.938 35.9751 7.16667 35.5831 7.624C35.2005 8.08133 34.9951 8.604 34.9671 9.192H39.4051ZM47.4198 13H46.3698V12.23C45.8005 12.8553 45.0538 13.168 44.1298 13.168C43.5045 13.168 42.9538 12.9673 42.4778 12.566C42.0018 12.1647 41.7638 11.6187 41.7638 10.928C41.7638 10.2187 41.9971 9.67267 42.4638 9.29C42.9398 8.898 43.4951 8.702 44.1298 8.702C45.0911 8.702 45.8378 9.01 46.3698 9.626V8.408C46.3698 7.96 46.2111 7.61 45.8938 7.358C45.5765 7.106 45.1658 6.98 44.6618 6.98C43.8685 6.98 43.1778 7.29267 42.5898 7.918L42.0998 7.19C42.8185 6.44333 43.7191 6.07 44.8018 6.07C45.5765 6.07 46.2065 6.25667 46.6918 6.63C47.1771 7.00333 47.4198 7.57733 47.4198 8.352V13ZM44.5078 12.412C45.3478 12.412 45.9685 12.132 46.3698 11.572V10.298C45.9685 9.738 45.3478 9.458 44.5078 9.458C44.0225 9.458 43.6211 9.598 43.3038 9.878C42.9958 10.1487 42.8418 10.5033 42.8418 10.942C42.8418 11.3713 42.9958 11.726 43.3038 12.006C43.6211 12.2767 44.0225 12.412 44.5078 12.412ZM50.5746 13H49.5246V6.238H50.5746V7.33C51.1999 6.50867 51.9513 6.098 52.8286 6.098V7.176C52.6979 7.148 52.5579 7.134 52.4086 7.134C52.0913 7.134 51.7459 7.246 51.3726 7.47C50.9993 7.694 50.7333 7.94133 50.5746 8.212V13ZM57.1277 13.168C56.129 13.168 55.317 12.832 54.6917 12.16C54.0664 11.4787 53.7537 10.6293 53.7537 9.612C53.7537 8.59467 54.0664 7.75 54.6917 7.078C55.317 6.406 56.129 6.07 57.1277 6.07C58.173 6.07 58.999 6.462 59.6057 7.246L58.9057 7.89C58.4764 7.302 57.9024 7.008 57.1837 7.008C56.4744 7.008 55.905 7.25067 55.4757 7.736C55.0557 8.22133 54.8457 8.84667 54.8457 9.612C54.8457 10.3773 55.0557 11.0073 55.4757 11.502C55.905 11.9873 56.4744 12.23 57.1837 12.23C57.893 12.23 58.467 11.936 58.9057 11.348L59.6057 11.992C58.999 12.776 58.173 13.168 57.1277 13.168ZM66.7053 13H65.6553V8.548C65.6553 7.988 65.5247 7.59133 65.2633 7.358C65.002 7.12467 64.624 7.008 64.1293 7.008C63.7467 7.008 63.3687 7.11067 62.9953 7.316C62.6313 7.52133 62.342 7.76867 62.1273 8.058V13H61.0773V3.662H62.1273V7.218C62.3887 6.91 62.7387 6.644 63.1773 6.42C63.616 6.18667 64.0733 6.07 64.5493 6.07C65.9867 6.07 66.7053 6.78867 66.7053 8.226V13Z" fill="#C8D2DC"/>
</svg>
