<svg width="673" height="59" viewBox="0 0 673 59" fill="none" xmlns="http://www.w3.org/2000/svg">
<path opacity="0.2" d="M42.28 49.96L41.5822 49.2436L41.5776 49.2482L42.28 49.96ZM6.36 49.96L5.65283 50.6672L5.66226 50.6763L6.36 49.96ZM0.28 1.64V0.639996H-0.72V1.64H0.28ZM11.8 1.64H12.8V0.639996H11.8V1.64ZM15.08 42.52L14.3562 43.2101L14.3644 43.2185L15.08 42.52ZM33.56 42.52L32.8363 41.8299L32.8359 41.8303L33.56 42.52ZM36.84 1.64V0.639996H35.84V1.64H36.84ZM48.44 1.64H49.44V0.639996H48.44V1.64ZM41.5776 49.2482C37.7739 53.0019 32.0936 54.96 24.36 54.96V56.96C32.4131 56.96 38.6795 54.9181 42.9824 50.6718L41.5776 49.2482ZM24.36 54.96C16.6274 54.96 10.9166 53.0023 7.05774 49.2437L5.66226 50.6763C10.0167 54.9177 16.3059 56.96 24.36 56.96V54.96ZM7.06711 49.2529C3.23501 45.4208 1.28 40.2799 1.28 33.72H-0.72C-0.72 40.7067 1.37832 46.3925 5.65289 50.6671L7.06711 49.2529ZM1.28 33.72V1.64H-0.72V33.72H1.28ZM0.28 2.64H11.8V0.639996H0.28V2.64ZM10.8 1.64V33.32H12.8V1.64H10.8ZM10.8 33.32C10.8 37.3593 11.9561 40.6928 14.3563 43.2101L15.8037 41.8299C13.8306 39.7605 12.8 36.9607 12.8 33.32H10.8ZM14.3644 43.2185C16.788 45.7012 20.1694 46.88 24.36 46.88V44.88C20.5506 44.88 17.7454 43.8188 15.7956 41.8215L14.3644 43.2185ZM24.36 46.88C28.5493 46.88 31.9108 45.7016 34.2841 43.2097L32.8359 41.8303C30.9425 43.8184 28.1707 44.88 24.36 44.88V46.88ZM34.2837 43.2101C36.6839 40.6928 37.84 37.3593 37.84 33.32H35.84C35.84 36.9607 34.8094 39.7605 32.8363 41.8299L34.2837 43.2101ZM37.84 33.32V1.64H35.84V33.32H37.84ZM36.84 2.64H48.44V0.639996H36.84V2.64ZM47.44 1.64V33.64H49.44V1.64H47.44ZM47.44 33.64C47.44 40.3082 45.4577 45.4688 41.5823 49.2437L42.9777 50.6763C47.3156 46.4511 49.44 40.7318 49.44 33.64H47.44ZM106.712 55V56H107.712V55H106.712ZM95.7519 55L94.9446 55.5902L95.2442 56H95.7519V55ZM70.3119 20.2L71.1192 19.6098L69.3119 17.1376V20.2H70.3119ZM70.3119 55V56H71.3119V55H70.3119ZM58.9519 55H57.9519V56H58.9519V55ZM58.9519 1.64V0.639996H57.9519V1.64H58.9519ZM70.6319 1.64L71.4367 1.04647L71.1369 0.639996H70.6319V1.64ZM95.3519 35.16L94.5471 35.7535L96.3519 38.2008V35.16H95.3519ZM95.3519 1.64V0.639996H94.3519V1.64H95.3519ZM106.712 1.64H107.712V0.639996H106.712V1.64ZM106.712 54H95.7519V56H106.712V54ZM96.5592 54.4098L71.1192 19.6098L69.5046 20.7902L94.9446 55.5902L96.5592 54.4098ZM69.3119 20.2V55H71.3119V20.2H69.3119ZM70.3119 54H58.9519V56H70.3119V54ZM59.9519 55V1.64H57.9519V55H59.9519ZM58.9519 2.64H70.6319V0.639996H58.9519V2.64ZM69.8271 2.23352L94.5471 35.7535L96.1567 34.5665L71.4367 1.04647L69.8271 2.23352ZM96.3519 35.16V1.64H94.3519V35.16H96.3519ZM95.3519 2.64H106.712V0.639996H95.3519V2.64ZM105.712 1.64V55H107.712V1.64H105.712ZM128.593 55V56H129.593V55H128.593ZM117.233 55H116.233V56H117.233V55ZM117.233 1.64V0.639996H116.233V1.64H117.233ZM128.593 1.64H129.593V0.639996H128.593V1.64ZM128.593 54H117.233V56H128.593V54ZM118.233 55V1.64H116.233V55H118.233ZM117.233 2.64H128.593V0.639996H117.233V2.64ZM127.593 1.64V55H129.593V1.64H127.593ZM144.466 48.2L143.759 48.9071L143.766 48.9143L144.466 48.2ZM144.466 8.6L145.17 9.31072L145.17 9.31068L144.466 8.6ZM184.466 8.52L183.763 9.23073L183.766 9.23428L184.466 8.52ZM185.426 47.24L184.689 46.5646L184.09 47.219L184.668 47.8919L185.426 47.24ZM189.346 51.8L189.979 52.574L190.773 51.9251L190.105 51.1481L189.346 51.8ZM181.426 58.28L180.672 58.9368L181.309 59.668L182.059 59.054L181.426 58.28ZM177.106 53.32L177.86 52.6632L177.375 52.1054L176.699 52.4067L177.106 53.32ZM170.066 45L170.366 45.954L171.804 45.502L170.829 44.3529L170.066 45ZM164.226 38.12L163.589 37.3492L162.808 37.9947L163.464 38.7671L164.226 38.12ZM172.066 31.64L172.828 30.9921L172.189 30.2411L171.429 30.8692L172.066 31.64ZM177.986 38.6L177.225 39.2479L178.122 40.3031L178.841 39.119L177.986 38.6ZM176.226 15.8L175.484 16.4703L176.226 15.8ZM152.706 15.8L151.964 15.1297L151.958 15.1364L152.706 15.8ZM152.706 40.92L151.958 41.5836L151.964 41.5903L152.706 40.92ZM164.466 54.96C156.649 54.96 150.242 52.4587 145.166 47.4857L143.766 48.9143C149.251 54.288 156.177 56.96 164.466 56.96V54.96ZM145.173 47.4929C140.151 42.4701 137.626 36.1189 137.626 28.36H135.626C135.626 36.6011 138.329 43.4765 143.759 48.9071L145.173 47.4929ZM137.626 28.36C137.626 20.6011 140.15 14.2788 145.17 9.31072L143.763 7.88927C138.329 13.2679 135.626 20.1189 135.626 28.36H137.626ZM145.17 9.31068C150.246 4.28583 156.652 1.76 164.466 1.76V-0.240002C156.174 -0.240002 149.247 2.46083 143.763 7.88931L145.17 9.31068ZM164.466 1.76C172.339 1.76 178.743 4.26251 183.763 9.23072L185.17 7.80927C179.736 2.43081 172.807 -0.240002 164.466 -0.240002V1.76ZM183.766 9.23428C188.836 14.2017 191.386 20.5488 191.386 28.36H193.386C193.386 20.0645 190.656 13.185 185.166 7.80571L183.766 9.23428ZM191.386 28.36C191.386 35.6556 189.143 41.7004 184.689 46.5646L186.164 47.9154C190.989 42.6462 193.386 36.1044 193.386 28.36H191.386ZM184.668 47.8919L188.588 52.4519L190.105 51.1481L186.185 46.5881L184.668 47.8919ZM188.713 51.026L180.793 57.506L182.059 59.054L189.979 52.574L188.713 51.026ZM182.18 57.6232L177.86 52.6632L176.352 53.9768L180.672 58.9368L182.18 57.6232ZM176.699 52.4067C172.885 54.1074 168.811 54.96 164.466 54.96V56.96C169.081 56.96 173.434 56.0526 177.514 54.2333L176.699 52.4067ZM164.466 46.88C166.439 46.88 168.407 46.5697 170.366 45.954L169.766 44.046C167.992 44.6037 166.226 44.88 164.466 44.88V46.88ZM170.829 44.3529L164.989 37.4729L163.464 38.7671L169.304 45.6471L170.829 44.3529ZM164.863 38.8908L172.703 32.4108L171.429 30.8692L163.589 37.3492L164.863 38.8908ZM171.305 32.2879L177.225 39.2479L178.748 37.9521L172.828 30.9921L171.305 32.2879ZM178.841 39.119C180.759 35.9606 181.706 32.3643 181.706 28.36H179.706C179.706 32.0357 178.841 35.266 177.131 38.081L178.841 39.119ZM181.706 28.36C181.706 23.0821 180.144 18.6455 176.968 15.1297L175.484 16.4703C178.282 19.5678 179.706 23.5046 179.706 28.36H181.706ZM176.968 15.1297C173.774 11.593 169.574 9.84 164.466 9.84V11.84C169.065 11.84 172.705 13.3936 175.484 16.4703L176.968 15.1297ZM164.466 9.84C159.358 9.84 155.159 11.593 151.964 15.1297L153.448 16.4703C156.227 13.3936 159.868 11.84 164.466 11.84V9.84ZM151.958 15.1364C148.839 18.6527 147.306 23.0869 147.306 28.36H149.306C149.306 23.4998 150.707 19.5607 153.454 16.4636L151.958 15.1364ZM147.306 28.36C147.306 33.6331 148.839 38.0673 151.958 41.5836L153.454 40.2564C150.707 37.1593 149.306 33.2202 149.306 28.36H147.306ZM151.964 41.5903C155.159 45.127 159.358 46.88 164.466 46.88V44.88C159.868 44.88 156.227 43.3264 153.448 40.2497L151.964 41.5903ZM242.358 49.96L241.66 49.2436L241.656 49.2482L242.358 49.96ZM206.438 49.96L205.731 50.6672L205.74 50.6763L206.438 49.96ZM200.358 1.64V0.639996H199.358V1.64H200.358ZM211.878 1.64H212.878V0.639996H211.878V1.64ZM215.158 42.52L214.434 43.2101L214.443 43.2185L215.158 42.52ZM233.638 42.52L232.914 41.8299L232.914 41.8303L233.638 42.52ZM236.918 1.64V0.639996H235.918V1.64H236.918ZM248.518 1.64H249.518V0.639996H248.518V1.64ZM241.656 49.2482C237.852 53.0019 232.172 54.96 224.438 54.96V56.96C232.491 56.96 238.758 54.9181 243.061 50.6718L241.656 49.2482ZM224.438 54.96C216.706 54.96 210.995 53.0023 207.136 49.2437L205.74 50.6763C210.095 54.9177 216.384 56.96 224.438 56.96V54.96ZM207.145 49.2529C203.313 45.4208 201.358 40.2799 201.358 33.72H199.358C199.358 40.7067 201.456 46.3925 205.731 50.6671L207.145 49.2529ZM201.358 33.72V1.64H199.358V33.72H201.358ZM200.358 2.64H211.878V0.639996H200.358V2.64ZM210.878 1.64V33.32H212.878V1.64H210.878ZM210.878 33.32C210.878 37.3593 212.034 40.6928 214.434 43.2101L215.882 41.8299C213.909 39.7605 212.878 36.9607 212.878 33.32H210.878ZM214.443 43.2185C216.866 45.7012 220.247 46.88 224.438 46.88V44.88C220.629 44.88 217.823 43.8188 215.874 41.8215L214.443 43.2185ZM224.438 46.88C228.627 46.88 231.989 45.7016 234.362 43.2097L232.914 41.8303C231.021 43.8184 228.249 44.88 224.438 44.88V46.88ZM234.362 43.2101C236.762 40.6928 237.918 37.3593 237.918 33.32H235.918C235.918 36.9607 234.888 39.7605 232.914 41.8299L234.362 43.2101ZM237.918 33.32V1.64H235.918V33.32H237.918ZM236.918 2.64H248.518V0.639996H236.918V2.64ZM247.518 1.64V33.64H249.518V1.64H247.518ZM247.518 33.64C247.518 40.3082 245.536 45.4688 241.66 49.2437L243.056 50.6763C247.394 46.4511 249.518 40.7318 249.518 33.64H247.518ZM296.79 55V56H297.79V55H296.79ZM259.03 55H258.03V56H259.03V55ZM259.03 1.64V0.639996H258.03V1.64H259.03ZM296.79 1.64H297.79V0.639996H296.79V1.64ZM296.79 11.64V12.64H297.79V11.64H296.79ZM270.39 11.64V10.64H269.39V11.64H270.39ZM270.39 22.92H269.39V23.92H270.39V22.92ZM296.23 22.92H297.23V21.92H296.23V22.92ZM296.23 32.92V33.92H297.23V32.92H296.23ZM270.39 32.92V31.92H269.39V32.92H270.39ZM270.39 45H269.39V46H270.39V45ZM296.79 45H297.79V44H296.79V45ZM296.79 54H259.03V56H296.79V54ZM260.03 55V1.64H258.03V55H260.03ZM259.03 2.64H296.79V0.639996H259.03V2.64ZM295.79 1.64V11.64H297.79V1.64H295.79ZM296.79 10.64H270.39V12.64H296.79V10.64ZM269.39 11.64V22.92H271.39V11.64H269.39ZM270.39 23.92H296.23V21.92H270.39V23.92ZM295.23 22.92V32.92H297.23V22.92H295.23ZM296.23 31.92H270.39V33.92H296.23V31.92ZM269.39 32.92V45H271.39V32.92H269.39ZM270.39 46H296.79V44H270.39V46ZM295.79 45V55H297.79V45H295.79ZM331.659 48.28L330.967 49.0013L330.974 49.0082L331.659 48.28ZM331.659 8.52L332.348 9.24482L332.349 9.24464L331.659 8.52ZM374.299 13.8L374.741 14.6973L375.69 14.2302L375.17 13.3085L374.299 13.8ZM364.539 18.6L363.654 19.064L364.106 19.9276L364.981 19.4973L364.539 18.6ZM359.339 13.08L358.785 13.912L358.796 13.9196L358.808 13.9269L359.339 13.08ZM339.979 15.8L340.704 16.4894V16.4894L339.979 15.8ZM339.979 40.92L340.704 40.2306L339.979 40.92ZM359.339 43.72L358.808 42.8731L358.799 42.8788L359.339 43.72ZM364.539 38.12L364.975 37.2197L364.094 36.794L363.649 37.6645L364.539 38.12ZM374.299 42.84L375.165 43.3412L375.705 42.4089L374.735 41.9397L374.299 42.84ZM351.979 54.96C344.104 54.96 337.583 52.4816 332.345 47.5518L330.974 49.0082C336.616 54.3184 343.642 56.96 351.979 56.96V54.96ZM332.352 47.5588C327.18 42.5911 324.579 36.2203 324.579 28.36H322.579C322.579 36.7131 325.366 43.6222 330.967 49.0012L332.352 47.5588ZM324.579 28.36C324.579 20.4997 327.179 14.1578 332.348 9.24482L330.97 7.79518C325.366 13.1222 322.579 20.0069 322.579 28.36H324.579ZM332.349 9.24464C337.587 4.26297 344.107 1.76 351.979 1.76V-0.240002C343.639 -0.240002 336.612 2.43036 330.97 7.79535L332.349 9.24464ZM351.979 1.76C361.592 1.76 368.699 5.912 373.429 14.2915L375.17 13.3085C370.086 4.30133 362.314 -0.240002 351.979 -0.240002V1.76ZM373.858 12.9026L364.098 17.7026L364.981 19.4973L374.741 14.6973L373.858 12.9026ZM365.425 18.136C364.164 15.7282 362.303 13.7603 359.871 12.2331L358.808 13.9269C360.962 15.2797 362.568 16.9918 363.654 19.064L365.425 18.136ZM359.894 12.2479C357.491 10.6462 354.845 9.84 351.979 9.84V11.84C354.447 11.84 356.707 12.5271 358.785 13.912L359.894 12.2479ZM351.979 9.84C346.872 9.84 342.603 11.592 339.255 15.1106L340.704 16.4894C343.649 13.3947 347.38 11.84 351.979 11.84V9.84ZM339.255 15.1106C335.911 18.6243 334.259 23.0674 334.259 28.36H336.259C336.259 23.5193 337.754 19.589 340.704 16.4894L339.255 15.1106ZM334.259 28.36C334.259 33.6526 335.911 38.0957 339.255 41.6094L340.704 40.2306C337.754 37.131 336.259 33.2007 336.259 28.36H334.259ZM339.255 41.6094C342.603 45.128 346.872 46.88 351.979 46.88V44.88C347.38 44.88 343.649 43.3253 340.704 40.2306L339.255 41.6094ZM351.979 46.88C354.837 46.88 357.479 46.105 359.88 44.5612L358.799 42.8788C356.72 44.215 354.455 44.88 351.979 44.88V46.88ZM359.871 44.5669C362.309 43.0362 364.17 41.0375 365.43 38.5755L363.649 37.6645C362.562 39.7891 360.957 41.5238 358.808 42.8731L359.871 44.5669ZM364.104 39.0203L373.864 43.7403L374.735 41.9397L364.975 37.2197L364.104 39.0203ZM373.434 42.3388C368.54 50.7882 361.423 54.96 351.979 54.96V56.96C362.163 56.96 369.926 52.3852 375.165 43.3412L373.434 42.3388ZM414.981 55V56H415.981V55H414.981ZM381.061 55H380.061V56H381.061V55ZM381.061 1.64V0.639996H380.061V1.64H381.061ZM392.421 1.64H393.421V0.639996H392.421V1.64ZM392.421 45H391.421V46H392.421V45ZM414.981 45H415.981V44H414.981V45ZM414.981 54H381.061V56H414.981V54ZM382.061 55V1.64H380.061V55H382.061ZM381.061 2.64H392.421V0.639996H381.061V2.64ZM391.421 1.64V45H393.421V1.64H391.421ZM392.421 46H414.981V44H392.421V46ZM413.981 45V55H415.981V45H413.981ZM426.029 48.2L425.322 48.9071L425.329 48.9143L426.029 48.2ZM426.029 8.6L426.732 9.31072L426.732 9.31068L426.029 8.6ZM466.029 8.52L465.325 9.23073L465.329 9.23428L466.029 8.52ZM466.029 48.2L465.329 47.4857L465.325 47.4893L466.029 48.2ZM434.269 40.92L433.521 41.5836L433.527 41.5903L434.269 40.92ZM457.789 40.92L458.531 41.5903L457.789 40.92ZM457.789 15.8L457.047 16.4703L457.789 15.8ZM434.269 15.8L433.527 15.1297L433.521 15.1364L434.269 15.8ZM446.029 54.96C438.211 54.96 431.804 52.4587 426.729 47.4857L425.329 48.9143C430.813 54.288 437.739 56.96 446.029 56.96V54.96ZM426.736 47.4929C421.713 42.4701 419.189 36.1189 419.189 28.36H417.189C417.189 36.6011 419.891 43.4765 425.322 48.9071L426.736 47.4929ZM419.189 28.36C419.189 20.6011 421.713 14.2788 426.732 9.31072L425.325 7.88927C419.891 13.2679 417.189 20.1189 417.189 28.36H419.189ZM426.732 9.31068C431.808 4.28583 438.215 1.76 446.029 1.76V-0.240002C437.736 -0.240002 430.809 2.46083 425.325 7.88931L426.732 9.31068ZM446.029 1.76C453.902 1.76 460.306 4.26251 465.325 9.23072L466.732 7.80927C461.298 2.43081 454.369 -0.240002 446.029 -0.240002V1.76ZM465.329 9.23428C470.399 14.2017 472.949 20.5488 472.949 28.36H474.949C474.949 20.0645 472.219 13.185 466.729 7.80571L465.329 9.23428ZM472.949 28.36C472.949 36.1712 470.399 42.5183 465.329 47.4857L466.729 48.9143C472.219 43.535 474.949 36.6555 474.949 28.36H472.949ZM465.325 47.4893C460.306 52.4575 453.902 54.96 446.029 54.96V56.96C454.369 56.96 461.298 54.2892 466.732 48.9107L465.325 47.4893ZM433.527 41.5903C436.721 45.127 440.921 46.88 446.029 46.88V44.88C441.43 44.88 437.79 43.3264 435.011 40.2497L433.527 41.5903ZM446.029 46.88C451.137 46.88 455.336 45.127 458.531 41.5903L457.047 40.2497C454.268 43.3264 450.627 44.88 446.029 44.88V46.88ZM458.531 41.5903C461.706 38.0745 463.269 33.6379 463.269 28.36H461.269C461.269 33.2154 459.844 37.1522 457.047 40.2497L458.531 41.5903ZM463.269 28.36C463.269 23.0821 461.706 18.6455 458.531 15.1297L457.047 16.4703C459.844 19.5678 461.269 23.5046 461.269 28.36H463.269ZM458.531 15.1297C455.336 11.593 451.137 9.84 446.029 9.84V11.84C450.627 11.84 454.268 13.3936 457.047 16.4703L458.531 15.1297ZM446.029 9.84C440.921 9.84 436.721 11.593 433.527 15.1297L435.011 16.4703C437.79 13.3936 441.43 11.84 446.029 11.84V9.84ZM433.521 15.1364C430.401 18.6527 428.869 23.0869 428.869 28.36H430.869C430.869 23.4998 432.269 19.5607 435.017 16.4636L433.521 15.1364ZM428.869 28.36C428.869 33.6331 430.401 38.0673 433.521 41.5836L435.017 40.2564C432.269 37.1593 430.869 33.2202 430.869 28.36H428.869ZM503.728 55V56H504.728V55H503.728ZM492.288 55H491.288V56H492.288V55ZM492.288 11.64H493.288V10.64H492.288V11.64ZM476.688 11.64H475.688V12.64H476.688V11.64ZM476.688 1.64V0.639996H475.688V1.64H476.688ZM519.247 1.64H520.247V0.639996H519.247V1.64ZM519.247 11.64V12.64H520.247V11.64H519.247ZM503.728 11.64V10.64H502.728V11.64H503.728ZM503.728 54H492.288V56H503.728V54ZM493.288 55V11.64H491.288V55H493.288ZM492.288 10.64H476.688V12.64H492.288V10.64ZM477.688 11.64V1.64H475.688V11.64H477.688ZM476.688 2.64H519.247V0.639996H476.688V2.64ZM518.247 1.64V11.64H520.247V1.64H518.247ZM519.247 10.64H503.728V12.64H519.247V10.64ZM502.728 11.64V55H504.728V11.64H502.728ZM574.53 55V56H575.53V55H574.53ZM563.09 55H562.09V56H563.09V55ZM563.09 32.6H564.09V31.6H563.09V32.6ZM537.89 32.6V31.6H536.89V32.6H537.89ZM537.89 55V56H538.89V55H537.89ZM526.53 55H525.53V56H526.53V55ZM526.53 1.64V0.639996H525.53V1.64H526.53ZM537.89 1.64H538.89V0.639996H537.89V1.64ZM537.89 22.6H536.89V23.6H537.89V22.6ZM563.09 22.6V23.6H564.09V22.6H563.09ZM563.09 1.64V0.639996H562.09V1.64H563.09ZM574.53 1.64H575.53V0.639996H574.53V1.64ZM574.53 54H563.09V56H574.53V54ZM564.09 55V32.6H562.09V55H564.09ZM563.09 31.6H537.89V33.6H563.09V31.6ZM536.89 32.6V55H538.89V32.6H536.89ZM537.89 54H526.53V56H537.89V54ZM527.53 55V1.64H525.53V55H527.53ZM526.53 2.64H537.89V0.639996H526.53V2.64ZM536.89 1.64V22.6H538.89V1.64H536.89ZM537.89 23.6H563.09V21.6H537.89V23.6ZM564.09 22.6V1.64H562.09V22.6H564.09ZM563.09 2.64H574.53V0.639996H563.09V2.64ZM573.53 1.64V55H575.53V1.64H573.53ZM622.806 55V56H623.806V55H622.806ZM585.046 55H584.046V56H585.046V55ZM585.046 1.64V0.639996H584.046V1.64H585.046ZM622.806 1.64H623.806V0.639996H622.806V1.64ZM622.806 11.64V12.64H623.806V11.64H622.806ZM596.406 11.64V10.64H595.406V11.64H596.406ZM596.406 22.92H595.406V23.92H596.406V22.92ZM622.246 22.92H623.246V21.92H622.246V22.92ZM622.246 32.92V33.92H623.246V32.92H622.246ZM596.406 32.92V31.92H595.406V32.92H596.406ZM596.406 45H595.406V46H596.406V45ZM622.806 45H623.806V44H622.806V45ZM622.806 54H585.046V56H622.806V54ZM586.046 55V1.64H584.046V55H586.046ZM585.046 2.64H622.806V0.639996H585.046V2.64ZM621.806 1.64V11.64H623.806V1.64H621.806ZM622.806 10.64H596.406V12.64H622.806V10.64ZM595.406 11.64V22.92H597.406V11.64H595.406ZM596.406 23.92H622.246V21.92H596.406V23.92ZM621.246 22.92V32.92H623.246V22.92H621.246ZM622.246 31.92H596.406V33.92H622.246V31.92ZM595.406 32.92V45H597.406V32.92H595.406ZM596.406 46H622.806V44H596.406V46ZM621.806 45V55H623.806V45H621.806ZM628.086 47.48L627.272 46.8995L626.785 47.582L627.372 48.1803L628.086 47.48ZM634.246 38.84L634.969 38.1491L634.134 37.275L633.432 38.2595L634.246 38.84ZM658.006 44.36L658.58 45.1792L658.585 45.1755L658.006 44.36ZM658.166 36.52L657.625 37.3612L657.632 37.3655L657.639 37.3696L658.166 36.52ZM652.486 34.44L652.299 35.4223L652.303 35.4231L652.486 34.44ZM645.126 32.6L644.839 33.5578L645.126 32.6ZM637.686 29.88L637.274 30.7911L637.282 30.7947L637.686 29.88ZM632.006 25.08L631.18 25.644L631.185 25.6507L631.19 25.6575L632.006 25.08ZM635.286 5.56L635.93 6.32551L635.936 6.32003L635.286 5.56ZM670.806 8.27999L671.603 8.88489L672.153 8.16052L671.484 7.54436L670.806 8.27999ZM664.486 16.6L663.808 17.3344L664.616 18.0818L665.283 17.2049L664.486 16.6ZM643.606 19.4L643.087 20.2548L643.105 20.2656L643.123 20.2756L643.606 19.4ZM649.286 21.32L649.099 22.3023L649.103 22.3031L649.286 21.32ZM656.646 23.24L656.336 24.1906L656.347 24.1944L656.359 24.1978L656.646 23.24ZM664.006 26.04L663.576 26.9429L663.589 26.949L663.602 26.9547L664.006 26.04ZM669.686 30.92L668.854 31.4747L668.862 31.4862L668.87 31.4975L669.686 30.92ZM666.486 51.24L665.836 50.4799L665.831 50.4847L666.486 51.24ZM650.646 54.96C641.364 54.96 634.122 52.204 628.8 46.7797L627.372 48.1803C633.144 54.0627 640.942 56.96 650.646 56.96V54.96ZM628.901 48.0605L635.06 39.4205L633.432 38.2595L627.272 46.8995L628.901 48.0605ZM633.523 39.5309C638.301 44.531 644.217 47.04 651.206 47.04V45.04C644.756 45.04 639.365 42.749 634.969 38.1491L633.523 39.5309ZM651.206 47.04C654.248 47.04 656.747 46.4624 658.58 45.1792L657.433 43.5408C656.066 44.4976 654.031 45.04 651.206 45.04V47.04ZM658.585 45.1755C660.435 43.8625 661.486 42.172 661.486 40.12H659.486C659.486 41.3746 658.884 42.5108 657.427 43.5445L658.585 45.1755ZM661.486 40.12C661.486 38.2411 660.445 36.7576 658.694 35.6704L657.639 37.3696C658.981 38.2024 659.486 39.1189 659.486 40.12H661.486ZM658.707 35.6788C657.076 34.6306 655.052 33.9002 652.669 33.4569L652.303 35.4231C654.507 35.8332 656.269 36.4894 657.625 37.3612L658.707 35.6788ZM652.673 33.4577C650.474 33.0387 648.054 32.4344 645.414 31.6422L644.839 33.5578C647.532 34.3656 650.019 34.988 652.299 35.4223L652.673 33.4577ZM645.414 31.6422C642.782 30.8528 640.342 29.9601 638.09 28.9653L637.282 30.7947C639.617 31.8265 642.137 32.7472 644.839 33.5578L645.414 31.6422ZM638.098 28.9689C636.035 28.0353 634.276 26.5574 632.823 24.5025L631.19 25.6575C632.83 27.9759 634.858 29.698 637.274 30.7911L638.098 28.9689ZM632.832 24.516C631.472 22.5249 630.766 20.0641 630.766 17.08H628.766C628.766 20.3892 629.554 23.2618 631.18 25.644L632.832 24.516ZM630.766 17.08C630.766 12.8045 632.463 9.23929 635.93 6.32548L634.643 4.79451C630.749 8.06737 628.766 12.1821 628.766 17.08H630.766ZM635.936 6.32003C639.391 3.36597 644.046 1.84 650.006 1.84V-0.160004C643.7 -0.160004 638.542 1.46069 634.636 4.79996L635.936 6.32003ZM650.006 1.84C658.278 1.84 664.956 4.25232 670.129 9.01564L671.484 7.54436C665.883 2.38767 658.695 -0.160004 650.006 -0.160004V1.84ZM670.01 7.67511L663.69 15.9951L665.283 17.2049L671.603 8.88489L670.01 7.67511ZM665.165 15.8656C660.753 11.789 655.332 9.76 648.966 9.76V11.76C654.867 11.76 659.793 13.6243 663.808 17.3344L665.165 15.8656ZM648.966 9.76C646.449 9.76 644.348 10.2612 642.782 11.3885L643.951 13.0115C645.052 12.2188 646.684 11.76 648.966 11.76V9.76ZM642.782 11.3885C641.186 12.5378 640.366 14.1475 640.366 16.12H642.366C642.366 14.7859 642.88 13.7822 643.951 13.0115L642.782 11.3885ZM640.366 16.12C640.366 17.8715 641.417 19.2408 643.087 20.2548L644.125 18.5452C642.809 17.7459 642.366 16.9285 642.366 16.12H640.366ZM643.123 20.2756C644.785 21.1922 646.784 21.8614 649.099 22.3023L649.473 20.3377C647.309 19.9253 645.521 19.3144 644.089 18.5244L643.123 20.2756ZM649.103 22.3031C651.347 22.7205 653.757 23.3486 656.336 24.1906L656.957 22.2894C654.309 21.4248 651.812 20.7728 649.469 20.3369L649.103 22.3031ZM656.359 24.1978C658.983 24.9849 661.388 25.9006 663.576 26.9429L664.436 25.1371C662.145 24.0461 659.643 23.0951 656.934 22.2822L656.359 24.1978ZM663.602 26.9547C665.709 27.8854 667.458 29.3808 668.854 31.4747L670.518 30.3653C668.928 27.9792 666.891 26.2212 664.41 25.1253L663.602 26.9547ZM668.87 31.4975C670.279 33.4901 671.006 35.9204 671.006 38.84H673.006C673.006 35.5729 672.187 32.7232 670.503 30.3425L668.87 31.4975ZM671.006 38.84C671.006 43.6868 669.28 47.5354 665.836 50.48L667.136 52C671.052 48.6513 673.006 44.2332 673.006 38.84H671.006ZM665.831 50.4847C662.452 53.4162 657.444 54.96 650.646 54.96V56.96C657.715 56.96 663.267 55.3572 667.142 51.9953L665.831 50.4847Z" fill="#FCFFFF"/>
</svg>
