<svg width="346" height="37" viewBox="0 0 346 37" fill="none" xmlns="http://www.w3.org/2000/svg">
<path opacity="0.2" d="M26.55 30.85L25.8522 30.1336L25.8476 30.1382L26.55 30.85ZM4.1 30.85L3.39283 31.5572L3.40226 31.5663L4.1 30.85ZM0.3 0.649998V-0.350002H-0.7V0.649998H0.3ZM7.5 0.649998H8.5V-0.350002H7.5V0.649998ZM9.55 26.2L8.82621 26.8901L8.83443 26.8985L9.55 26.2ZM21.1 26.2L20.3763 25.5099L20.3759 25.5103L21.1 26.2ZM23.15 0.649998V-0.350002H22.15V0.649998H23.15ZM30.4 0.649998H31.4V-0.350002H30.4V0.649998ZM25.8476 30.1382C23.5639 32.3919 20.1236 33.6 15.35 33.6V35.6C20.4431 35.6 24.4695 34.3081 27.2524 31.5618L25.8476 30.1382ZM15.35 33.6C10.5774 33.6 7.11662 32.3923 4.79774 30.1337L3.40226 31.5663C6.21672 34.3077 10.2559 35.6 15.35 35.6V33.6ZM4.80711 30.1429C2.49501 27.8308 1.3 24.7199 1.3 20.7H-0.7C-0.7 25.1467 0.638319 28.8025 3.39289 31.5571L4.80711 30.1429ZM1.3 20.7V0.649998H-0.7V20.7H1.3ZM0.3 1.65H7.5V-0.350002H0.3V1.65ZM6.5 0.649998V20.45H8.5V0.649998H6.5ZM6.5 20.45C6.5 23.0493 7.24611 25.2328 8.82626 26.8901L10.2737 25.5099C9.12056 24.3005 8.5 22.6507 8.5 20.45H6.5ZM8.83443 26.8985C10.438 28.5412 12.6594 29.3 15.35 29.3V27.3C13.0406 27.3 11.3954 26.6588 10.2656 25.5015L8.83443 26.8985ZM15.35 29.3C18.0393 29.3 20.2508 28.5416 21.8241 26.8897L20.3759 25.5103C19.2825 26.6584 17.6607 27.3 15.35 27.3V29.3ZM21.8237 26.8901C23.4039 25.2328 24.15 23.0493 24.15 20.45H22.15C22.15 22.6507 21.5294 24.3005 20.3763 25.5099L21.8237 26.8901ZM24.15 20.45V0.649998H22.15V20.45H24.15ZM23.15 1.65H30.4V-0.350002H23.15V1.65ZM29.4 0.649998V20.65H31.4V0.649998H29.4ZM29.4 20.65C29.4 24.7382 28.1877 27.8589 25.8523 30.1337L27.2477 31.5663C30.0456 28.8411 31.4 25.1618 31.4 20.65H29.4ZM66.8199 34V35H67.8199V34H66.8199ZM59.9699 34L59.1626 34.5902L59.4622 35H59.9699V34ZM44.0699 12.25L44.8772 11.6598L43.0699 9.18761V12.25H44.0699ZM44.0699 34V35H45.0699V34H44.0699ZM36.9699 34H35.9699V35H36.9699V34ZM36.9699 0.649998V-0.350002H35.9699V0.649998H36.9699ZM44.2699 0.649998L45.0747 0.0564709L44.775 -0.350002H44.2699V0.649998ZM59.7199 21.6L58.9151 22.1935L60.7199 24.6408V21.6H59.7199ZM59.7199 0.649998V-0.350002H58.7199V0.649998H59.7199ZM66.8199 0.649998H67.8199V-0.350002H66.8199V0.649998ZM66.8199 33H59.9699V35H66.8199V33ZM60.7772 33.4098L44.8772 11.6598L43.2626 12.8402L59.1626 34.5902L60.7772 33.4098ZM43.0699 12.25V34H45.0699V12.25H43.0699ZM44.0699 33H36.9699V35H44.0699V33ZM37.9699 34V0.649998H35.9699V34H37.9699ZM36.9699 1.65H44.2699V-0.350002H36.9699V1.65ZM43.4651 1.24352L58.9151 22.1935L60.5247 21.0065L45.0747 0.0564709L43.4651 1.24352ZM60.7199 21.6V0.649998H58.7199V21.6H60.7199ZM59.7199 1.65H66.8199V-0.350002H59.7199V1.65ZM65.8199 0.649998V34H67.8199V0.649998H65.8199ZM80.4957 34V35H81.4957V34H80.4957ZM73.3957 34H72.3957V35H73.3957V34ZM73.3957 0.649998V-0.350002H72.3957V0.649998H73.3957ZM80.4957 0.649998H81.4957V-0.350002H80.4957V0.649998ZM80.4957 33H73.3957V35H80.4957V33ZM74.3957 34V0.649998H72.3957V34H74.3957ZM73.3957 1.65H80.4957V-0.350002H73.3957V1.65ZM79.4957 0.649998V34H81.4957V0.649998H79.4957ZM90.4164 29.75L89.7093 30.4571L89.7166 30.4643L90.4164 29.75ZM90.4164 5L91.1199 5.71072L91.1199 5.71069L90.4164 5ZM115.416 4.95L114.713 5.66073L114.717 5.66428L115.416 4.95ZM116.016 29.15L115.279 28.4746L114.68 29.129L115.258 29.8019L116.016 29.15ZM118.466 32L119.1 32.774L119.893 32.1251L119.225 31.3481L118.466 32ZM113.516 36.05L112.762 36.7068L113.399 37.438L114.15 36.824L113.516 36.05ZM110.816 32.95L111.57 32.2932L111.085 31.7354L110.409 32.0367L110.816 32.95ZM106.416 27.75L106.716 28.704L108.154 28.252L107.179 27.1029L106.416 27.75ZM102.766 23.45L102.129 22.6792L101.348 23.3247L102.004 24.0971L102.766 23.45ZM107.666 19.4L108.428 18.7521L107.789 18.0011L107.029 18.6292L107.666 19.4ZM111.366 23.75L110.605 24.3979L111.502 25.4531L112.221 24.269L111.366 23.75ZM110.266 9.5L109.524 10.1703L110.266 9.5ZM95.5664 9.5L94.8243 8.82969L94.8183 8.83638L95.5664 9.5ZM95.5664 25.2L94.8183 25.8636L94.8243 25.8703L95.5664 25.2ZM102.916 33.6C98.119 33.6 94.2118 32.0687 91.1163 29.0357L89.7166 30.4643C93.2211 33.898 97.6471 35.6 102.916 35.6V33.6ZM91.1235 29.0429C88.0608 25.9801 86.5164 22.1089 86.5164 17.35H84.5164C84.5164 22.5911 86.2387 26.9865 89.7093 30.4571L91.1235 29.0429ZM86.5164 17.35C86.5164 12.5911 88.0606 8.73877 91.1199 5.71072L89.7129 4.28927C86.2389 7.72789 84.5164 12.1089 84.5164 17.35H86.5164ZM91.1199 5.71069C94.216 2.64583 98.1222 1.1 102.916 1.1V-0.900002C97.644 -0.900002 93.2168 0.820833 89.7129 4.28931L91.1199 5.71069ZM102.916 1.1C107.749 1.1 111.654 2.63251 114.713 5.66072L116.12 4.23927C112.646 0.800815 108.217 -0.900002 102.916 -0.900002V1.1ZM114.717 5.66428C117.806 8.69171 119.366 12.5588 119.366 17.35H121.366C121.366 12.0745 119.626 7.67495 116.116 4.23571L114.717 5.66428ZM119.366 17.35C119.366 21.8256 117.993 25.5104 115.279 28.4746L116.754 29.8254C119.839 26.4562 121.366 22.2744 121.366 17.35H119.366ZM115.258 29.8019L117.708 32.6519L119.225 31.3481L116.775 28.4981L115.258 29.8019ZM117.833 31.226L112.883 35.276L114.15 36.824L119.1 32.774L117.833 31.226ZM114.27 35.3932L111.57 32.2932L110.062 33.6068L112.762 36.7068L114.27 35.3932ZM110.409 32.0367C108.075 33.0774 105.581 33.6 102.916 33.6V35.6C105.851 35.6 108.624 35.0226 111.224 33.8633L110.409 32.0367ZM102.916 29.3C104.19 29.3 105.457 29.0997 106.716 28.704L106.117 26.796C105.042 27.1337 103.977 27.3 102.916 27.3V29.3ZM107.179 27.1029L103.529 22.8029L102.004 24.0971L105.654 28.3971L107.179 27.1029ZM103.403 24.2208L108.303 20.1708L107.029 18.6292L102.129 22.6792L103.403 24.2208ZM106.905 20.0479L110.605 24.3979L112.128 23.1021L108.428 18.7521L106.905 20.0479ZM112.221 24.269C113.459 22.2306 114.066 19.9143 114.066 17.35H112.066C112.066 19.5857 111.541 21.536 110.512 23.231L112.221 24.269ZM114.066 17.35C114.066 13.9721 113.064 11.1055 111.009 8.82971L109.524 10.1703C111.202 12.0278 112.066 14.3946 112.066 17.35H114.066ZM111.009 8.82971C108.934 6.53303 106.204 5.4 102.916 5.4V7.4C105.695 7.4 107.865 8.33363 109.524 10.1703L111.009 8.82971ZM102.916 5.4C99.6285 5.4 96.8987 6.53303 94.8243 8.82971L96.3085 10.1703C97.9674 8.33363 100.138 7.4 102.916 7.4V5.4ZM94.8183 8.83638C92.7991 11.1127 91.8164 13.9769 91.8164 17.35H93.8164C93.8164 14.3898 94.6671 12.0207 96.3145 10.1636L94.8183 8.83638ZM91.8164 17.35C91.8164 20.7231 92.7991 23.5873 94.8183 25.8636L96.3145 24.5364C94.6671 22.6793 93.8164 20.3102 93.8164 17.35H91.8164ZM94.8243 25.8703C96.8987 28.167 99.6285 29.3 102.916 29.3V27.3C100.138 27.3 97.9674 26.3664 96.3085 24.5297L94.8243 25.8703ZM151.599 30.85L150.901 30.1336L150.896 30.1382L151.599 30.85ZM129.149 30.85L128.442 31.5572L128.451 31.5663L129.149 30.85ZM125.349 0.649998V-0.350002H124.349V0.649998H125.349ZM132.549 0.649998H133.549V-0.350002H132.549V0.649998ZM134.599 26.2L133.875 26.8901L133.883 26.8985L134.599 26.2ZM146.149 26.2L145.425 25.5099L145.425 25.5103L146.149 26.2ZM148.199 0.649998V-0.350002H147.199V0.649998H148.199ZM155.449 0.649998H156.449V-0.350002H155.449V0.649998ZM150.896 30.1382C148.613 32.3919 145.172 33.6 140.399 33.6V35.6C145.492 35.6 149.518 34.3081 152.301 31.5618L150.896 30.1382ZM140.399 33.6C135.626 33.6 132.165 32.3923 129.847 30.1337L128.451 31.5663C131.266 34.3077 135.305 35.6 140.399 35.6V33.6ZM129.856 30.1429C127.544 27.8308 126.349 24.7199 126.349 20.7H124.349C124.349 25.1467 125.687 28.8025 128.442 31.5571L129.856 30.1429ZM126.349 20.7V0.649998H124.349V20.7H126.349ZM125.349 1.65H132.549V-0.350002H125.349V1.65ZM131.549 0.649998V20.45H133.549V0.649998H131.549ZM131.549 20.45C131.549 23.0493 132.295 25.2328 133.875 26.8901L135.323 25.5099C134.169 24.3005 133.549 22.6507 133.549 20.45H131.549ZM133.883 26.8985C135.487 28.5412 137.708 29.3 140.399 29.3V27.3C138.089 27.3 136.444 26.6588 135.314 25.5015L133.883 26.8985ZM140.399 29.3C143.088 29.3 145.3 28.5416 146.873 26.8897L145.425 25.5103C144.331 26.6584 142.71 27.3 140.399 27.3V29.3ZM146.873 26.8901C148.453 25.2328 149.199 23.0493 149.199 20.45H147.199C147.199 22.6507 146.578 24.3005 145.425 25.5099L146.873 26.8901ZM149.199 20.45V0.649998H147.199V20.45H149.199ZM148.199 1.65H155.449V-0.350002H148.199V1.65ZM154.449 0.649998V20.65H156.449V0.649998H154.449ZM154.449 20.65C154.449 24.7382 153.237 27.8589 150.901 30.1337L152.297 31.5663C155.094 28.8411 156.449 25.1618 156.449 20.65H154.449ZM185.619 34V35H186.619V34H185.619ZM162.019 34H161.019V35H162.019V34ZM162.019 0.649998V-0.350002H161.019V0.649998H162.019ZM185.619 0.649998H186.619V-0.350002H185.619V0.649998ZM185.619 6.9V7.9H186.619V6.9H185.619ZM169.119 6.9V5.9H168.119V6.9H169.119ZM169.119 13.95H168.119V14.95H169.119V13.95ZM185.269 13.95H186.269V12.95H185.269V13.95ZM185.269 20.2V21.2H186.269V20.2H185.269ZM169.119 20.2V19.2H168.119V20.2H169.119ZM169.119 27.75H168.119V28.75H169.119V27.75ZM185.619 27.75H186.619V26.75H185.619V27.75ZM185.619 33H162.019V35H185.619V33ZM163.019 34V0.649998H161.019V34H163.019ZM162.019 1.65H185.619V-0.350002H162.019V1.65ZM184.619 0.649998V6.9H186.619V0.649998H184.619ZM185.619 5.9H169.119V7.9H185.619V5.9ZM168.119 6.9V13.95H170.119V6.9H168.119ZM169.119 14.95H185.269V12.95H169.119V14.95ZM184.269 13.95V20.2H186.269V13.95H184.269ZM185.269 19.2H169.119V21.2H185.269V19.2ZM168.119 20.2V27.75H170.119V20.2H168.119ZM169.119 28.75H185.619V26.75H169.119V28.75ZM184.619 27.75V34H186.619V27.75H184.619ZM207.412 29.8L206.719 30.5213L206.727 30.5282L207.412 29.8ZM207.412 4.95L208.101 5.67482L208.101 5.67464L207.412 4.95ZM234.062 8.25L234.503 9.14735L235.453 8.68023L234.933 7.75847L234.062 8.25ZM227.962 11.25L227.076 11.714L227.529 12.5776L228.403 12.1473L227.962 11.25ZM224.712 7.8L224.157 8.63205L224.169 8.63962L224.18 8.64689L224.712 7.8ZM212.612 9.5L213.337 10.1894L212.612 9.5ZM212.612 25.2L213.337 24.5106L212.612 25.2ZM224.712 26.95L224.18 26.1031L224.171 26.1088L224.712 26.95ZM227.962 23.45L228.397 22.5497L227.517 22.1241L227.072 22.9945L227.962 23.45ZM234.062 26.4L234.927 26.9012L235.468 25.9689L234.497 25.4997L234.062 26.4ZM220.112 33.6C215.276 33.6 211.295 32.0816 208.097 29.0718L206.727 30.5282C210.329 33.9184 214.814 35.6 220.112 35.6V33.6ZM208.105 29.0788C204.952 26.0511 203.362 22.1703 203.362 17.35H201.362C201.362 22.6631 203.139 27.0822 206.719 30.5212L208.105 29.0788ZM203.362 17.35C203.362 12.5297 204.952 8.66781 208.101 5.67482L206.723 4.22518C203.139 7.63219 201.362 12.0369 201.362 17.35H203.362ZM208.101 5.67464C211.3 2.63297 215.28 1.1 220.112 1.1V-0.900002C214.811 -0.900002 210.325 0.800357 206.723 4.22535L208.101 5.67464ZM220.112 1.1C225.984 1.1 230.302 3.622 233.191 8.74153L234.933 7.75847C231.689 2.01133 226.707 -0.900002 220.112 -0.900002V1.1ZM233.621 7.35265L227.521 10.3526L228.403 12.1473L234.503 9.14735L233.621 7.35265ZM228.848 10.786C228.027 9.21818 226.816 7.94027 225.244 6.95311L224.18 8.64689C225.475 9.45973 226.431 10.4818 227.076 11.714L228.848 10.786ZM225.267 6.96795C223.704 5.92622 221.978 5.4 220.112 5.4V7.4C221.579 7.4 222.92 7.80711 224.157 8.63205L225.267 6.96795ZM220.112 5.4C216.824 5.4 214.056 6.53201 211.888 8.81064L213.337 10.1894C215.101 8.33466 217.333 7.4 220.112 7.4V5.4ZM211.888 8.81064C209.724 11.0843 208.662 13.9574 208.662 17.35H210.662C210.662 14.4093 211.567 12.049 213.337 10.1894L211.888 8.81064ZM208.662 17.35C208.662 20.7426 209.724 23.6157 211.888 25.8894L213.337 24.5106C211.567 22.651 210.662 20.2907 210.662 17.35H208.662ZM211.888 25.8894C214.056 28.168 216.824 29.3 220.112 29.3V27.3C217.333 27.3 215.101 26.3653 213.337 24.5106L211.888 25.8894ZM220.112 29.3C221.97 29.3 223.691 28.795 225.253 27.7912L224.171 26.1088C222.933 26.905 221.587 27.3 220.112 27.3V29.3ZM225.244 27.7969C226.822 26.8062 228.033 25.5075 228.852 23.9055L227.072 22.9945C226.425 24.2591 225.469 25.2938 224.18 26.1031L225.244 27.7969ZM227.527 24.3503L233.627 27.3003L234.497 25.4997L228.397 22.5497L227.527 24.3503ZM233.197 25.8988C230.202 31.0682 225.876 33.6 220.112 33.6V35.6C226.615 35.6 231.589 32.6652 234.927 26.9012L233.197 25.8988ZM259.488 34V35H260.488V34H259.488ZM238.288 34H237.288V35H238.288V34ZM238.288 0.649998V-0.350002H237.288V0.649998H238.288ZM245.388 0.649998H246.388V-0.350002H245.388V0.649998ZM245.388 27.75H244.388V28.75H245.388V27.75ZM259.488 27.75H260.488V26.75H259.488V27.75ZM259.488 33H238.288V35H259.488V33ZM239.288 34V0.649998H237.288V34H239.288ZM238.288 1.65H245.388V-0.350002H238.288V1.65ZM244.388 0.649998V27.75H246.388V0.649998H244.388ZM245.388 28.75H259.488V26.75H245.388V28.75ZM258.488 27.75V34H260.488V27.75H258.488ZM266.393 29.75L265.686 30.4571L265.693 30.4643L266.393 29.75ZM266.393 5L267.096 5.71072L267.096 5.71069L266.393 5ZM291.393 4.95L290.689 5.66073L290.693 5.66428L291.393 4.95ZM291.393 29.75L290.693 29.0357L290.689 29.0393L291.393 29.75ZM271.543 25.2L270.795 25.8636L270.801 25.8703L271.543 25.2ZM286.243 25.2L286.985 25.8703L286.243 25.2ZM286.243 9.5L285.501 10.1703L286.243 9.5ZM271.543 9.5L270.801 8.82969L270.795 8.83638L271.543 9.5ZM278.893 33.6C274.096 33.6 270.188 32.0687 267.093 29.0357L265.693 30.4643C269.198 33.898 273.624 35.6 278.893 35.6V33.6ZM267.1 29.0429C264.037 25.9801 262.493 22.1089 262.493 17.35H260.493C260.493 22.5911 262.215 26.9865 265.686 30.4571L267.1 29.0429ZM262.493 17.35C262.493 12.5911 264.037 8.73877 267.096 5.71072L265.689 4.28927C262.215 7.72789 260.493 12.1089 260.493 17.35H262.493ZM267.096 5.71069C270.193 2.64583 274.099 1.1 278.893 1.1V-0.900002C273.621 -0.900002 269.193 0.820833 265.689 4.28931L267.096 5.71069ZM278.893 1.1C283.726 1.1 287.63 2.63251 290.689 5.66072L292.096 4.23927C288.623 0.800815 284.194 -0.900002 278.893 -0.900002V1.1ZM290.693 5.66428C293.783 8.69171 295.343 12.5588 295.343 17.35H297.343C297.343 12.0745 295.603 7.67495 292.093 4.23571L290.693 5.66428ZM295.343 17.35C295.343 22.1412 293.783 26.0083 290.693 29.0357L292.093 30.4643C295.603 27.025 297.343 22.6255 297.343 17.35H295.343ZM290.689 29.0393C287.63 32.0675 283.726 33.6 278.893 33.6V35.6C284.194 35.6 288.623 33.8992 292.096 30.4607L290.689 29.0393ZM270.801 25.8703C272.875 28.167 275.605 29.3 278.893 29.3V27.3C276.114 27.3 273.944 26.3664 272.285 24.5297L270.801 25.8703ZM278.893 29.3C282.181 29.3 284.911 28.167 286.985 25.8703L285.501 24.5297C283.842 26.3664 281.672 27.3 278.893 27.3V29.3ZM286.985 25.8703C289.041 23.5945 290.043 20.7279 290.043 17.35H288.043C288.043 20.3054 287.179 22.6722 285.501 24.5297L286.985 25.8703ZM290.043 17.35C290.043 13.9721 289.041 11.1055 286.985 8.82971L285.501 10.1703C287.179 12.0278 288.043 14.3946 288.043 17.35H290.043ZM286.985 8.82971C284.911 6.53303 282.181 5.4 278.893 5.4V7.4C281.672 7.4 283.842 8.33363 285.501 10.1703L286.985 8.82971ZM278.893 5.4C275.605 5.4 272.875 6.53303 270.801 8.82971L272.285 10.1703C273.944 8.33363 276.114 7.4 278.893 7.4V5.4ZM270.795 8.83638C268.776 11.1127 267.793 13.9769 267.793 17.35H269.793C269.793 14.3898 270.644 12.0207 272.291 10.1636L270.795 8.83638ZM267.793 17.35C267.793 20.7231 268.776 23.5873 270.795 25.8636L272.291 24.5364C270.644 22.6793 269.793 20.3102 269.793 17.35H267.793ZM314.955 34V35H315.955V34H314.955ZM307.805 34H306.805V35H307.805V34ZM307.805 6.9H308.805V5.9H307.805V6.9ZM298.055 6.9H297.055V7.9H298.055V6.9ZM298.055 0.649998V-0.350002H297.055V0.649998H298.055ZM324.655 0.649998H325.655V-0.350002H324.655V0.649998ZM324.655 6.9V7.9H325.655V6.9H324.655ZM314.955 6.9V5.9H313.955V6.9H314.955ZM314.955 33H307.805V35H314.955V33ZM308.805 34V6.9H306.805V34H308.805ZM307.805 5.9H298.055V7.9H307.805V5.9ZM299.055 6.9V0.649998H297.055V6.9H299.055ZM298.055 1.65H324.655V-0.350002H298.055V1.65ZM323.655 0.649998V6.9H325.655V0.649998H323.655ZM324.655 5.9H314.955V7.9H324.655V5.9ZM313.955 6.9V34H315.955V6.9H313.955ZM359.206 34V35H360.206V34H359.206ZM352.056 34H351.056V35H352.056V34ZM352.056 20H353.056V19H352.056V20ZM336.306 20V19H335.306V20H336.306ZM336.306 34V35H337.306V34H336.306ZM329.206 34H328.206V35H329.206V34ZM329.206 0.649998V-0.350002H328.206V0.649998H329.206ZM336.306 0.649998H337.306V-0.350002H336.306V0.649998ZM336.306 13.75H335.306V14.75H336.306V13.75ZM352.056 13.75V14.75H353.056V13.75H352.056ZM352.056 0.649998V-0.350002H351.056V0.649998H352.056ZM359.206 0.649998H360.206V-0.350002H359.206V0.649998ZM359.206 33H352.056V35H359.206V33ZM353.056 34V20H351.056V34H353.056ZM352.056 19H336.306V21H352.056V19ZM335.306 20V34H337.306V20H335.306ZM336.306 33H329.206V35H336.306V33ZM330.206 34V0.649998H328.206V34H330.206ZM329.206 1.65H336.306V-0.350002H329.206V1.65ZM335.306 0.649998V13.75H337.306V0.649998H335.306ZM336.306 14.75H352.056V12.75H336.306V14.75ZM353.056 13.75V0.649998H351.056V13.75H353.056ZM352.056 1.65H359.206V-0.350002H352.056V1.65ZM358.206 0.649998V34H360.206V0.649998H358.206ZM389.379 34V35H390.379V34H389.379ZM365.779 34H364.779V35H365.779V34ZM365.779 0.649998V-0.350002H364.779V0.649998H365.779ZM389.379 0.649998H390.379V-0.350002H389.379V0.649998ZM389.379 6.9V7.9H390.379V6.9H389.379ZM372.879 6.9V5.9H371.879V6.9H372.879ZM372.879 13.95H371.879V14.95H372.879V13.95ZM389.029 13.95H390.029V12.95H389.029V13.95ZM389.029 20.2V21.2H390.029V20.2H389.029ZM372.879 20.2V19.2H371.879V20.2H372.879ZM372.879 27.75H371.879V28.75H372.879V27.75ZM389.379 27.75H390.379V26.75H389.379V27.75ZM389.379 33H365.779V35H389.379V33ZM366.779 34V0.649998H364.779V34H366.779ZM365.779 1.65H389.379V-0.350002H365.779V1.65ZM388.379 0.649998V6.9H390.379V0.649998H388.379ZM389.379 5.9H372.879V7.9H389.379V5.9ZM371.879 6.9V13.95H373.879V6.9H371.879ZM372.879 14.95H389.029V12.95H372.879V14.95ZM388.029 13.95V20.2H390.029V13.95H388.029ZM389.029 19.2H372.879V21.2H389.029V19.2ZM371.879 20.2V27.75H373.879V20.2H371.879ZM372.879 28.75H389.379V26.75H372.879V28.75ZM388.379 27.75V34H390.379V27.75H388.379ZM392.679 29.3L391.865 28.7195L391.378 29.402L391.965 30.0003L392.679 29.3ZM396.529 23.9L397.252 23.2091L396.417 22.335L395.715 23.3195L396.529 23.9ZM411.379 27.35L411.952 28.1693L411.958 28.1655L411.379 27.35ZM411.479 22.45L410.938 23.2912L410.945 23.2955L410.952 23.2996L411.479 22.45ZM407.929 21.15L407.742 22.1323L407.746 22.1331L407.929 21.15ZM403.329 20L403.042 20.9578L403.329 20ZM398.679 18.3L398.267 19.2111L398.275 19.2147L398.679 18.3ZM395.129 15.3L394.303 15.864L394.308 15.8708L394.312 15.8775L395.129 15.3ZM397.179 3.1L397.822 3.86551L397.829 3.86003L397.179 3.1ZM419.379 4.8L420.175 5.40489L420.725 4.68053L420.056 4.06436L419.379 4.8ZM415.429 10L414.75 10.7344L415.559 11.4818L416.225 10.6049L415.429 10ZM402.379 11.75L401.86 12.6048L401.878 12.6156L401.896 12.6256L402.379 11.75ZM405.929 12.95L405.742 13.9323L405.746 13.9331L405.929 12.95ZM410.529 14.15L410.219 15.1006L410.23 15.1044L410.242 15.1078L410.529 14.15ZM415.129 15.9L414.699 16.8029L414.712 16.809L414.725 16.8147L415.129 15.9ZM418.679 18.95L417.847 19.5047L417.855 19.5162L417.862 19.5275L418.679 18.95ZM416.679 31.65L416.029 30.8899L416.024 30.8947L416.679 31.65ZM406.779 33.6C401.057 33.6 396.635 31.904 393.393 28.5997L391.965 30.0003C395.656 33.7627 400.634 35.6 406.779 35.6V33.6ZM393.493 29.8805L397.343 24.4805L395.715 23.3195L391.865 28.7195L393.493 29.8805ZM395.806 24.5909C398.864 27.791 402.66 29.4 407.129 29.4V27.4C403.198 27.4 399.927 26.009 397.252 23.2091L395.806 24.5909ZM407.129 29.4C409.07 29.4 410.719 29.0324 411.952 28.1692L410.805 26.5308C410.039 27.0676 408.854 27.4 407.129 27.4V29.4ZM411.958 28.1655C413.188 27.2925 413.929 26.132 413.929 24.7H411.929C411.929 25.3346 411.637 25.9408 410.8 26.5345L411.958 28.1655ZM413.929 24.7C413.929 23.361 413.178 22.3276 412.006 21.6004L410.952 23.2996C411.713 23.7724 411.929 24.2389 411.929 24.7H413.929ZM412.02 21.6088C410.949 20.9206 409.635 20.4502 408.112 20.1669L407.746 22.1331C409.09 22.3832 410.142 22.7794 410.938 23.2912L412.02 21.6088ZM408.116 20.1677C406.756 19.9087 405.257 19.5344 403.616 19.0422L403.042 20.9578C404.734 21.4656 406.302 21.858 407.742 22.1323L408.116 20.1677ZM403.616 19.0422C401.985 18.5528 400.475 18.0001 399.083 17.3853L398.275 19.2147C399.75 19.8665 401.339 20.4472 403.042 20.9578L403.616 19.0422ZM399.091 17.3889C397.867 16.8353 396.819 15.9574 395.945 14.7225L394.312 15.8775C395.372 17.3759 396.69 18.498 398.267 19.2111L399.091 17.3889ZM395.955 14.736C395.155 13.5649 394.729 12.1041 394.729 10.3H392.729C392.729 12.4292 393.236 14.3018 394.303 15.864L395.955 14.736ZM394.729 10.3C394.729 7.74453 395.736 5.61929 397.822 3.86548L396.535 2.33451C394.022 4.44737 392.729 7.12214 392.729 10.3H394.729ZM397.829 3.86003C399.904 2.08597 402.719 1.15 406.379 1.15V-0.850002C402.373 -0.850002 399.054 0.180693 396.529 2.33996L397.829 3.86003ZM406.379 1.15C411.47 1.15 415.548 2.63233 418.702 5.53564L420.056 4.06436C416.476 0.76767 411.887 -0.850002 406.379 -0.850002V1.15ZM418.583 4.19511L414.633 9.39511L416.225 10.6049L420.175 5.40489L418.583 4.19511ZM416.108 9.26555C413.276 6.649 409.795 5.35 405.729 5.35V7.35C409.33 7.35 412.315 8.48433 414.75 10.7344L416.108 9.26555ZM405.729 5.35C404.112 5.35 402.71 5.6712 401.645 6.43847L402.813 8.06153C403.414 7.6288 404.346 7.35 405.729 7.35V5.35ZM401.645 6.43847C400.548 7.22779 399.979 8.34746 399.979 9.7H401.979C401.979 8.98587 402.243 8.4722 402.813 8.06153L401.645 6.43847ZM399.979 9.7C399.979 10.9715 400.75 11.9308 401.86 12.6048L402.898 10.8952C402.141 10.4359 401.979 10.0285 401.979 9.7H399.979ZM401.896 12.6256C402.977 13.2222 404.267 13.6514 405.742 13.9323L406.116 11.9677C404.791 11.7153 403.714 11.3444 402.862 10.8744L401.896 12.6256ZM405.746 13.9331C407.129 14.1905 408.62 14.5786 410.219 15.1006L410.839 13.1994C409.171 12.6548 407.595 12.2428 406.112 11.9669L405.746 13.9331ZM410.242 15.1078C411.865 15.5949 413.35 16.1606 414.699 16.8029L415.559 14.9971C414.108 14.3061 412.526 13.7051 410.816 13.1922L410.242 15.1078ZM414.725 16.8147C415.971 17.3654 417.011 18.2508 417.847 19.5047L419.511 18.3953C418.48 16.8492 417.153 15.7012 415.533 14.9853L414.725 16.8147ZM417.862 19.5275C418.692 20.7001 419.129 22.1404 419.129 23.9H421.129C421.129 21.7929 420.599 19.9332 419.495 18.3725L417.862 19.5275ZM419.129 23.9C419.129 26.8268 418.093 29.1254 416.029 30.89L417.329 32.41C419.865 30.2413 421.129 27.3732 421.129 23.9H419.129ZM416.024 30.8947C414.005 32.6462 410.977 33.6 406.779 33.6V35.6C411.248 35.6 414.82 34.5872 417.334 32.4053L416.024 30.8947Z" fill="#FCFFFF"/>
</svg>
