<svg width="616" height="56" viewBox="0 0 616 56" fill="none" xmlns="http://www.w3.org/2000/svg">
<path opacity="0.2" d="M0.28 55H-0.72V56H0.28V55ZM0.28 1.64V0.639996H-0.72V1.64H0.28ZM39.64 5.64L38.9329 6.3471L38.94 6.35417L38.9472 6.3611L39.64 5.64ZM34.52 27.48L34.32 26.5002L34.3735 28.4692L34.52 27.48ZM41.8 31.88L41.0143 32.4986H41.0143L41.8 31.88ZM30.36 13.08L29.6529 13.7871L29.6697 13.8039L29.6873 13.8199L30.36 13.08ZM11.64 11.4V10.4H10.64V11.4H11.64ZM11.64 23H10.64V24H11.64V23ZM31.32 43.56L31.9762 44.3146L31.9853 44.3067L31.9943 44.2985L31.32 43.56ZM31.32 34.6L30.6129 35.3071L30.6208 35.315L30.6288 35.3226L31.32 34.6ZM11.64 32.76V31.76H10.64V32.76H11.64ZM11.64 45.16H10.64V46.16H11.64V45.16ZM29.24 54H0.28V56H29.24V54ZM1.28 55V1.64H-0.72V55H1.28ZM0.28 2.64H28.36V0.639996H0.28V2.64ZM28.36 2.64C33.0277 2.64 36.5034 3.91762 38.9329 6.3471L40.3471 4.93289C37.4433 2.02904 33.399 0.639996 28.36 0.639996V2.64ZM38.9472 6.3611C41.4701 8.78505 42.72 11.7243 42.72 15.24H44.72C44.72 11.1824 43.2499 7.72161 40.3328 4.91889L38.9472 6.3611ZM42.72 15.24C42.72 18.3033 41.8958 20.7915 40.301 22.773L41.859 24.027C43.7842 21.6351 44.72 18.6834 44.72 15.24H42.72ZM40.301 22.773C38.6788 24.7885 36.6926 26.016 34.32 26.5002L34.72 28.4598C37.5741 27.8773 39.9613 26.3848 41.859 24.027L40.301 22.773ZM34.3735 28.4692C36.9757 28.8547 39.1824 30.1716 41.0143 32.4986L42.5857 31.2614C40.471 28.5751 37.8243 26.9586 34.6665 26.4908L34.3735 28.4692ZM41.0143 32.4986C42.8434 34.8221 43.76 37.5089 43.76 40.6H45.76C45.76 37.0778 44.7032 33.9512 42.5857 31.2614L41.0143 32.4986ZM43.76 40.6C43.76 44.5186 42.4891 47.6966 39.9729 50.2129L41.3871 51.6271C44.3109 48.7034 45.76 45.0014 45.76 40.6H43.76ZM39.9729 50.2129C37.4885 52.6973 33.9581 54 29.24 54V56C34.3352 56 38.4315 54.5827 41.3871 51.6271L39.9729 50.2129ZM25.88 24C27.9916 24 29.7814 23.4082 31.1297 22.1241L29.7503 20.6759C28.8586 21.5251 27.6084 22 25.88 22V24ZM31.1297 22.1241C32.4694 20.8482 33.12 19.189 33.12 17.24H31.12C31.12 18.7043 30.6506 19.8185 29.7503 20.6759L31.1297 22.1241ZM33.12 17.24C33.12 15.2757 32.4317 13.6119 31.0327 12.3401L29.6873 13.8199C30.635 14.6814 31.12 15.791 31.12 17.24H33.12ZM31.0671 12.3729C29.7264 11.0322 27.9609 10.4 25.88 10.4V12.4C27.5324 12.4 28.7536 12.8878 29.6529 13.7871L31.0671 12.3729ZM25.88 10.4H11.64V12.4H25.88V10.4ZM10.64 11.4V23H12.64V11.4H10.64ZM11.64 24H25.88V22H11.64V24ZM26.28 46.16C28.5778 46.16 30.517 45.5835 31.9762 44.3146L30.6638 42.8054C29.6697 43.6699 28.2488 44.16 26.28 44.16V46.16ZM31.9943 44.2985C33.4615 42.9588 34.16 41.1529 34.16 39H32.16C32.16 40.6871 31.6318 41.9212 30.6457 42.8215L31.9943 44.2985ZM34.16 39C34.16 36.9784 33.4431 35.247 32.0112 33.8774L30.6288 35.3226C31.6502 36.2996 32.16 37.5016 32.16 39H34.16ZM32.0271 33.8929C30.5716 32.4374 28.6138 31.76 26.28 31.76V33.76C28.2128 33.76 29.615 34.3092 30.6129 35.3071L32.0271 33.8929ZM26.28 31.76H11.64V33.76H26.28V31.76ZM10.64 32.76V45.16H12.64V32.76H10.64ZM11.64 46.16H26.28V44.16H11.64V46.16ZM91.0869 55V56H92.0869V55H91.0869ZM53.3269 55H52.3269V56H53.3269V55ZM53.3269 1.64V0.639996H52.3269V1.64H53.3269ZM91.0869 1.64H92.0869V0.639996H91.0869V1.64ZM91.0869 11.64V12.64H92.0869V11.64H91.0869ZM64.6869 11.64V10.64H63.6869V11.64H64.6869ZM64.6869 22.92H63.6869V23.92H64.6869V22.92ZM90.5269 22.92H91.5269V21.92H90.5269V22.92ZM90.5269 32.92V33.92H91.5269V32.92H90.5269ZM64.6869 32.92V31.92H63.6869V32.92H64.6869ZM64.6869 45H63.6869V46H64.6869V45ZM91.0869 45H92.0869V44H91.0869V45ZM91.0869 54H53.3269V56H91.0869V54ZM54.3269 55V1.64H52.3269V55H54.3269ZM53.3269 2.64H91.0869V0.639996H53.3269V2.64ZM90.0869 1.64V11.64H92.0869V1.64H90.0869ZM91.0869 10.64H64.6869V12.64H91.0869V10.64ZM63.6869 11.64V22.92H65.6869V11.64H63.6869ZM64.6869 23.92H90.5269V21.92H64.6869V23.92ZM89.5269 22.92V32.92H91.5269V22.92H89.5269ZM90.5269 31.92H64.6869V33.92H90.5269V31.92ZM63.6869 32.92V45H65.6869V32.92H63.6869ZM64.6869 46H91.0869V44H64.6869V46ZM90.0869 45V55H92.0869V45H90.0869ZM105.488 48.28L104.795 49.0013L104.802 49.0082L105.488 48.28ZM105.488 8.52L106.176 9.24482L106.177 9.24464L105.488 8.52ZM148.128 13.8L148.569 14.6973L149.519 14.2302L148.998 13.3085L148.128 13.8ZM138.367 18.6L137.482 19.064L137.934 19.9276L138.809 19.4973L138.367 18.6ZM133.167 13.08L132.613 13.912L132.624 13.9196L132.636 13.9269L133.167 13.08ZM113.808 15.8L114.532 16.4894V16.4894L113.808 15.8ZM113.808 40.92L114.532 40.2306L113.808 40.92ZM133.167 43.72L132.636 42.8731L132.627 42.8788L133.167 43.72ZM138.367 38.12L138.803 37.2197L137.923 36.794L137.477 37.6645L138.367 38.12ZM148.128 42.84L148.993 43.3412L149.533 42.4089L148.563 41.9397L148.128 42.84ZM125.807 54.96C117.932 54.96 111.411 52.4816 106.173 47.5518L104.802 49.0082C110.444 54.3184 117.47 56.96 125.807 56.96V54.96ZM106.18 47.5588C101.008 42.5911 98.4075 36.2203 98.4075 28.36H96.4075C96.4075 36.7131 99.1939 43.6222 104.795 49.0012L106.18 47.5588ZM98.4075 28.36C98.4075 20.4997 101.008 14.1578 106.176 9.24482L104.799 7.79518C99.1941 13.1222 96.4075 20.0069 96.4075 28.36H98.4075ZM106.177 9.24464C111.415 4.26297 117.935 1.76 125.807 1.76V-0.240002C117.467 -0.240002 110.44 2.43036 104.798 7.79535L106.177 9.24464ZM125.807 1.76C135.42 1.76 142.527 5.912 147.257 14.2915L148.998 13.3085C143.915 4.30133 136.142 -0.240002 125.807 -0.240002V1.76ZM147.686 12.9026L137.926 17.7026L138.809 19.4973L148.569 14.6973L147.686 12.9026ZM139.253 18.136C137.992 15.7282 136.131 13.7603 133.699 12.2331L132.636 13.9269C134.79 15.2797 136.396 16.9918 137.482 19.064L139.253 18.136ZM133.722 12.2479C131.32 10.6462 128.674 9.84 125.807 9.84V11.84C128.275 11.84 130.535 12.5271 132.613 13.912L133.722 12.2479ZM125.807 9.84C120.7 9.84 116.431 11.592 113.083 15.1106L114.532 16.4894C117.477 13.3947 121.209 11.84 125.807 11.84V9.84ZM113.083 15.1106C109.739 18.6243 108.088 23.0674 108.088 28.36H110.088C110.088 23.5193 111.582 19.589 114.532 16.4894L113.083 15.1106ZM108.088 28.36C108.088 33.6526 109.739 38.0957 113.083 41.6094L114.532 40.2306C111.582 37.131 110.088 33.2007 110.088 28.36H108.088ZM113.083 41.6094C116.431 45.128 120.7 46.88 125.807 46.88V44.88C121.209 44.88 117.477 43.3253 114.532 40.2306L113.083 41.6094ZM125.807 46.88C128.666 46.88 131.307 46.105 133.708 44.5612L132.627 42.8788C130.548 44.215 128.283 44.88 125.807 44.88V46.88ZM133.699 44.5669C136.137 43.0362 137.998 41.0375 139.258 38.5755L137.477 37.6645C136.39 39.7891 134.785 41.5238 132.636 42.8731L133.699 44.5669ZM137.932 39.0203L147.692 43.7403L148.563 41.9397L138.803 37.2197L137.932 39.0203ZM147.262 42.3388C142.368 50.7882 135.251 54.96 125.807 54.96V56.96C135.991 56.96 143.754 52.3852 148.993 43.3412L147.262 42.3388ZM160.169 48.2L159.462 48.9071L159.47 48.9143L160.169 48.2ZM160.169 8.6L160.873 9.31072L160.873 9.31068L160.169 8.6ZM200.169 8.52L199.466 9.23073L199.47 9.23428L200.169 8.52ZM200.169 48.2L199.47 47.4857L199.466 47.4893L200.169 48.2ZM168.409 40.92L167.661 41.5836L167.667 41.5903L168.409 40.92ZM191.929 40.92L192.671 41.5903L191.929 40.92ZM191.929 15.8L191.187 16.4703L191.929 15.8ZM168.409 15.8L167.667 15.1297L167.661 15.1364L168.409 15.8ZM180.169 54.96C172.352 54.96 165.945 52.4587 160.869 47.4857L159.47 48.9143C164.954 54.288 171.88 56.96 180.169 56.96V54.96ZM160.876 47.4929C155.854 42.4701 153.329 36.1189 153.329 28.36H151.329C151.329 36.6011 154.032 43.4765 159.462 48.9071L160.876 47.4929ZM153.329 28.36C153.329 20.6011 155.854 14.2788 160.873 9.31072L159.466 7.88927C154.032 13.2679 151.329 20.1189 151.329 28.36H153.329ZM160.873 9.31068C165.949 4.28583 172.355 1.76 180.169 1.76V-0.240002C171.877 -0.240002 164.95 2.46083 159.466 7.88931L160.873 9.31068ZM180.169 1.76C188.042 1.76 194.446 4.26251 199.466 9.23072L200.873 7.80927C195.439 2.43081 188.51 -0.240002 180.169 -0.240002V1.76ZM199.47 9.23428C204.539 14.2017 207.089 20.5488 207.089 28.36H209.089C209.089 20.0645 206.359 13.185 200.869 7.80571L199.47 9.23428ZM207.089 28.36C207.089 36.1712 204.539 42.5183 199.47 47.4857L200.869 48.9143C206.359 43.535 209.089 36.6555 209.089 28.36H207.089ZM199.466 47.4893C194.446 52.4575 188.042 54.96 180.169 54.96V56.96C188.51 56.96 195.439 54.2892 200.873 48.9107L199.466 47.4893ZM167.667 41.5903C170.862 45.127 175.061 46.88 180.169 46.88V44.88C175.571 44.88 171.93 43.3264 169.151 40.2497L167.667 41.5903ZM180.169 46.88C185.277 46.88 189.477 45.127 192.671 41.5903L191.187 40.2497C188.408 43.3264 184.768 44.88 180.169 44.88V46.88ZM192.671 41.5903C195.847 38.0745 197.409 33.6379 197.409 28.36H195.409C195.409 33.2154 193.985 37.1522 191.187 40.2497L192.671 41.5903ZM197.409 28.36C197.409 23.0821 195.847 18.6455 192.671 15.1297L191.187 16.4703C193.985 19.5678 195.409 23.5046 195.409 28.36H197.409ZM192.671 15.1297C189.477 11.593 185.277 9.84 180.169 9.84V11.84C184.768 11.84 188.408 13.3936 191.187 16.4703L192.671 15.1297ZM180.169 9.84C175.061 9.84 170.862 11.593 167.667 15.1297L169.151 16.4703C171.93 13.3936 175.571 11.84 180.169 11.84V9.84ZM167.661 15.1364C164.542 18.6527 163.009 23.0869 163.009 28.36H165.009C165.009 23.4998 166.41 19.5607 169.157 16.4636L167.661 15.1364ZM163.009 28.36C163.009 33.6331 164.542 38.0673 167.661 41.5836L169.157 40.2564C166.41 37.1593 165.009 33.2202 165.009 28.36H163.009ZM273.901 55V56H274.901V55H273.901ZM262.461 55H261.461V56H262.461V55ZM262.461 17.64H263.461L261.534 17.2666L262.461 17.64ZM247.421 55V56H248.097L248.349 55.3734L247.421 55ZM242.461 55L241.534 55.3734L241.786 56H242.461V55ZM227.421 17.64L228.349 17.2666L226.421 17.64H227.421ZM227.421 55V56H228.421V55H227.421ZM216.061 55H215.061V56H216.061V55ZM216.061 1.64V0.639996H215.061V1.64H216.061ZM231.981 1.64L232.909 1.26702L232.657 0.639996H231.981V1.64ZM244.941 33.88L244.013 34.253L244.941 36.5611L245.869 34.253L244.941 33.88ZM257.901 1.64V0.639996H257.225L256.973 1.26702L257.901 1.64ZM273.901 1.64H274.901V0.639996H273.901V1.64ZM273.901 54H262.461V56H273.901V54ZM263.461 55V17.64H261.461V55H263.461ZM261.534 17.2666L246.494 54.6266L248.349 55.3734L263.389 18.0134L261.534 17.2666ZM247.421 54H242.461V56H247.421V54ZM243.389 54.6266L228.349 17.2666L226.494 18.0134L241.534 55.3734L243.389 54.6266ZM226.421 17.64V55H228.421V17.64H226.421ZM227.421 54H216.061V56H227.421V54ZM217.061 55V1.64H215.061V55H217.061ZM216.061 2.64H231.981V0.639996H216.061V2.64ZM231.053 2.01297L244.013 34.253L245.869 33.507L232.909 1.26702L231.053 2.01297ZM245.869 34.253L258.829 2.01297L256.973 1.26702L244.013 33.507L245.869 34.253ZM257.901 2.64H273.901V0.639996H257.901V2.64ZM272.901 1.64V55H274.901V1.64H272.901ZM322.259 55V56H323.259V55H322.259ZM284.499 55H283.499V56H284.499V55ZM284.499 1.64V0.639996H283.499V1.64H284.499ZM322.259 1.64H323.259V0.639996H322.259V1.64ZM322.259 11.64V12.64H323.259V11.64H322.259ZM295.859 11.64V10.64H294.859V11.64H295.859ZM295.859 22.92H294.859V23.92H295.859V22.92ZM321.699 22.92H322.699V21.92H321.699V22.92ZM321.699 32.92V33.92H322.699V32.92H321.699ZM295.859 32.92V31.92H294.859V32.92H295.859ZM295.859 45H294.859V46H295.859V45ZM322.259 45H323.259V44H322.259V45ZM322.259 54H284.499V56H322.259V54ZM285.499 55V1.64H283.499V55H285.499ZM284.499 2.64H322.259V0.639996H284.499V2.64ZM321.259 1.64V11.64H323.259V1.64H321.259ZM322.259 10.64H295.859V12.64H322.259V10.64ZM294.859 11.64V22.92H296.859V11.64H294.859ZM295.859 23.92H321.699V21.92H295.859V23.92ZM320.699 22.92V32.92H322.699V22.92H320.699ZM321.699 31.92H295.859V33.92H321.699V31.92ZM294.859 32.92V45H296.859V32.92H294.859ZM295.859 46H322.259V44H295.859V46ZM321.259 45V55H323.259V45H321.259ZM401.368 55V56H402.825L402.301 54.6405L401.368 55ZM388.408 55L387.468 55.3411L387.707 56H388.408V55ZM385.128 45.96L386.068 45.6189L385.829 44.96H385.128V45.96ZM362.248 45.96V44.96H361.553L361.311 45.6116L362.248 45.96ZM358.888 55V56H359.583L359.825 55.3484L358.888 55ZM345.928 55L344.995 54.6392L344.469 56H345.928V55ZM366.568 1.64V0.639996H365.883L365.635 1.27924L366.568 1.64ZM380.808 1.64L381.741 1.28045L381.494 0.639996H380.808V1.64ZM382.008 35.96V36.96H383.434L382.948 35.6193L382.008 35.96ZM373.688 13L374.628 12.6593L373.688 10.0648L372.748 12.6593L373.688 13ZM365.368 35.96L364.428 35.6193L363.942 36.96H365.368V35.96ZM401.368 54H388.408V56H401.368V54ZM389.348 54.6589L386.068 45.6189L384.188 46.3011L387.468 55.3411L389.348 54.6589ZM385.128 44.96H362.248V46.96H385.128V44.96ZM361.311 45.6116L357.951 54.6516L359.825 55.3484L363.185 46.3084L361.311 45.6116ZM358.888 54H345.928V56H358.888V54ZM346.861 55.3608L367.501 2.00075L365.635 1.27924L344.995 54.6392L346.861 55.3608ZM366.568 2.64H380.808V0.639996H366.568V2.64ZM379.875 1.99954L400.435 55.3595L402.301 54.6405L381.741 1.28045L379.875 1.99954ZM382.948 35.6193L374.628 12.6593L372.748 13.3407L381.068 36.3007L382.948 35.6193ZM372.748 12.6593L364.428 35.6193L366.308 36.3007L374.628 13.3407L372.748 12.6593ZM365.368 36.96H382.008V34.96H365.368V36.96ZM438.124 55V56H439.124V55H438.124ZM426.764 55H425.764V56H426.764V55ZM426.764 1.64V0.639996H425.764V1.64H426.764ZM464.844 6.6L464.12 7.28936L464.126 7.29535L464.131 7.30124L464.844 6.6ZM464.844 31.08L465.563 31.7754L464.844 31.08ZM438.124 36.04V35.04H437.124V36.04H438.124ZM455.804 24.12L456.469 24.8674L456.47 24.8659L455.804 24.12ZM455.804 13.64L455.125 14.3738L455.139 14.3868L455.154 14.3993L455.804 13.64ZM438.124 11.64V10.64H437.124V11.64H438.124ZM438.124 26.04H437.124V27.04H438.124V26.04ZM438.124 54H426.764V56H438.124V54ZM427.764 55V1.64H425.764V55H427.764ZM426.764 2.64H451.724V0.639996H426.764V2.64ZM451.724 2.64C457.117 2.64 461.203 4.22458 464.12 7.28936L465.569 5.91063C462.192 2.36208 457.532 0.639996 451.724 0.639996V2.64ZM464.131 7.30124C467.133 10.3526 468.644 14.1739 468.644 18.84H470.644C470.644 13.6927 468.956 9.3541 465.557 5.89876L464.131 7.30124ZM468.644 18.84C468.644 23.4495 467.135 27.2754 464.126 30.3846L465.563 31.7754C468.954 28.2713 470.644 23.9372 470.644 18.84H468.644ZM464.126 30.3846C461.152 33.4574 457.06 35.04 451.724 35.04V37.04C457.482 37.04 462.137 35.3159 465.563 31.7754L464.126 30.3846ZM451.724 35.04H438.124V37.04H451.724V35.04ZM437.124 36.04V55H439.124V36.04H437.124ZM450.204 27.04C452.693 27.04 454.812 26.34 456.469 24.8674L455.14 23.3726C453.917 24.4599 452.302 25.04 450.204 25.04V27.04ZM456.47 24.8659C458.197 23.3241 459.044 21.2821 459.044 18.84H457.044C457.044 20.7713 456.398 22.2492 455.138 23.3741L456.47 24.8659ZM459.044 18.84C459.044 16.3981 458.197 14.3734 456.455 12.8807L455.154 14.3993C456.399 15.4666 457.044 16.9086 457.044 18.84H459.044ZM456.484 12.9062C454.828 11.3733 452.704 10.64 450.204 10.64V12.64C452.291 12.64 453.901 13.2401 455.125 14.3738L456.484 12.9062ZM450.204 10.64H438.124V12.64H450.204V10.64ZM437.124 11.64V26.04H439.124V11.64H437.124ZM438.124 27.04H450.204V25.04H438.124V27.04ZM520.509 55V56H521.966L521.442 54.6405L520.509 55ZM507.549 55L506.609 55.3411L506.848 56H507.549V55ZM504.269 45.96L505.209 45.6189L504.97 44.96H504.269V45.96ZM481.389 45.96V44.96H480.694L480.451 45.6116L481.389 45.96ZM478.029 55V56H478.724L478.966 55.3484L478.029 55ZM465.069 55L464.136 54.6392L463.61 56H465.069V55ZM485.709 1.64V0.639996H485.023L484.776 1.27924L485.709 1.64ZM499.949 1.64L500.882 1.28045L500.635 0.639996H499.949V1.64ZM501.149 35.96V36.96H502.575L502.089 35.6193L501.149 35.96ZM492.829 13L493.769 12.6593L492.829 10.0648L491.889 12.6593L492.829 13ZM484.509 35.96L483.569 35.6193L483.083 36.96H484.509V35.96ZM520.509 54H507.549V56H520.509V54ZM508.489 54.6589L505.209 45.6189L503.329 46.3011L506.609 55.3411L508.489 54.6589ZM504.269 44.96H481.389V46.96H504.269V44.96ZM480.451 45.6116L477.091 54.6516L478.966 55.3484L482.326 46.3084L480.451 45.6116ZM478.029 54H465.069V56H478.029V54ZM466.001 55.3608L486.641 2.00075L484.776 1.27924L464.136 54.6392L466.001 55.3608ZM485.709 2.64H499.949V0.639996H485.709V2.64ZM499.016 1.99954L519.576 55.3595L521.442 54.6405L500.882 1.28045L499.016 1.99954ZM502.089 35.6193L493.769 12.6593L491.889 13.3407L500.209 36.3007L502.089 35.6193ZM491.889 12.6593L483.569 35.6193L485.449 36.3007L493.769 13.3407L491.889 12.6593ZM484.509 36.96H501.149V34.96H484.509V36.96ZM568.636 55V56H570.388L569.497 54.4915L568.636 55ZM555.596 55L554.721 55.4838L555.006 56H555.596V55ZM545.116 36.04L545.991 35.5562L545.706 35.04H545.116V36.04ZM536.796 36.04V35.04H535.796V36.04H536.796ZM536.796 55V56H537.796V55H536.796ZM525.436 55H524.436V56H525.436V55ZM525.436 1.64V0.639996H524.436V1.64H525.436ZM563.436 6.43999L562.729 7.14713L562.735 7.15292L563.436 6.43999ZM564.876 29.48L564.112 28.8354L564.104 28.8443L564.876 29.48ZM556.636 34.68L556.413 33.7053L555.08 34.0112L555.775 35.1885L556.636 34.68ZM554.476 24.12L555.127 24.8793L555.135 24.8727L555.142 24.8659L554.476 24.12ZM554.476 13.64L553.81 14.3859L553.818 14.3927L553.825 14.3993L554.476 13.64ZM536.796 11.64V10.64H535.796V11.64H536.796ZM536.796 26.04H535.796V27.04H536.796V26.04ZM568.636 54H555.596V56H568.636V54ZM556.471 54.5162L545.991 35.5562L544.241 36.5238L554.721 55.4838L556.471 54.5162ZM545.116 35.04H536.796V37.04H545.116V35.04ZM535.796 36.04V55H537.796V36.04H535.796ZM536.796 54H525.436V56H536.796V54ZM526.436 55V1.64H524.436V55H526.436ZM525.436 2.64H550.396V0.639996H525.436V2.64ZM550.396 2.64C555.685 2.64 559.755 4.17347 562.729 7.1471L564.143 5.73289C560.717 2.30652 556.094 0.639996 550.396 0.639996V2.64ZM562.735 7.15292C565.775 10.1433 567.316 14.0089 567.316 18.84H569.316C569.316 13.5377 567.604 9.13668 564.138 5.72707L562.735 7.15292ZM567.316 18.84C567.316 23.0334 566.22 26.3344 564.112 28.8354L565.641 30.1246C568.119 27.1856 569.316 23.3932 569.316 18.84H567.316ZM564.104 28.8443C561.996 31.404 559.438 33.0109 556.413 33.7053L556.86 35.6547C560.341 34.8558 563.276 32.9959 565.648 30.1157L564.104 28.8443ZM555.775 35.1885L567.775 55.5085L569.497 54.4915L557.497 34.1715L555.775 35.1885ZM548.716 27.04C551.253 27.04 553.419 26.3434 555.127 24.8793L553.825 23.3607C552.547 24.4566 550.873 25.04 548.716 25.04V27.04ZM555.142 24.8659C556.869 23.3241 557.716 21.2821 557.716 18.84H555.716C555.716 20.7713 555.07 22.2492 553.81 23.3741L555.142 24.8659ZM557.716 18.84C557.716 16.3981 556.868 14.3734 555.127 12.8807L553.825 14.3993C555.071 15.4666 555.716 16.9086 555.716 18.84H557.716ZM555.142 12.8941C553.435 11.3695 551.264 10.64 548.716 10.64V12.64C550.862 12.64 552.531 13.2438 553.81 14.3859L555.142 12.8941ZM548.716 10.64H536.796V12.64H548.716V10.64ZM535.796 11.64V26.04H537.796V11.64H535.796ZM536.796 27.04H548.716V25.04H536.796V27.04ZM599.821 55V56H600.821V55H599.821ZM588.381 55H587.381V56H588.381V55ZM588.381 11.64H589.381V10.64H588.381V11.64ZM572.781 11.64H571.781V12.64H572.781V11.64ZM572.781 1.64V0.639996H571.781V1.64H572.781ZM615.341 1.64H616.341V0.639996H615.341V1.64ZM615.341 11.64V12.64H616.341V11.64H615.341ZM599.821 11.64V10.64H598.821V11.64H599.821ZM599.821 54H588.381V56H599.821V54ZM589.381 55V11.64H587.381V55H589.381ZM588.381 10.64H572.781V12.64H588.381V10.64ZM573.781 11.64V1.64H571.781V11.64H573.781ZM572.781 2.64H615.341V0.639996H572.781V2.64ZM614.341 1.64V11.64H616.341V1.64H614.341ZM615.341 10.64H599.821V12.64H615.341V10.64ZM598.821 11.64V55H600.821V11.64H598.821Z" fill="#FCFFFF"/>
</svg>
