<svg width="16" height="20" viewBox="0 0 16 20" fill="none" xmlns="http://www.w3.org/2000/svg">
<g clip-path="url(#clip0_1_393)">
<path d="M15.8532 16.5836C14.7866 13.8502 13.0066 9.98357 11.4266 6.58357C10.5999 4.7919 9.81989 3.10023 9.25989 1.8169C9.14235 1.52397 8.96195 1.27767 8.73884 1.10556C8.51574 0.933439 8.25873 0.842285 7.99656 0.842285C7.73439 0.842285 7.47738 0.933439 7.25428 1.10556C7.03117 1.27767 6.85077 1.52397 6.73323 1.8169C6.17323 3.10023 5.39989 4.7919 4.56656 6.57523C2.99323 9.9919 1.23323 13.8669 0.139893 16.5752C0.0436859 16.8189 -0.0064917 17.0869 -0.00677392 17.3586C-0.00853536 17.5953 0.0272386 17.83 0.0984813 18.0493C0.169724 18.2686 0.275023 18.4681 0.408296 18.6363C0.541569 18.8044 0.700174 18.9379 0.874949 19.0289C1.04972 19.12 1.2372 19.1669 1.42656 19.1669H14.5732C14.7615 19.1658 14.9477 19.1184 15.1212 19.0273C15.2948 18.9363 15.4523 18.8034 15.5848 18.6362C15.7173 18.4691 15.8221 18.271 15.8933 18.0532C15.9646 17.8354 16.0008 17.6022 15.9999 17.3669C15.9996 17.0952 15.9494 16.8272 15.8532 16.5836Z" fill="#86A8FF"/>
</g>
<defs>
<clipPath id="clip0_1_393">
<rect width="16" height="20" fill="white"/>
</clipPath>
</defs>
</svg>
