<svg width="344" height="56" viewBox="0 0 344 56" fill="none" xmlns="http://www.w3.org/2000/svg">
<path opacity="0.2" d="M11.64 55V56H12.64V55H11.64ZM0.28 55H-0.72V56H0.28V55ZM0.28 1.64V0.639996H-0.72V1.64H0.28ZM11.64 1.64H12.64V0.639996H11.64V1.64ZM11.64 54H0.28V56H11.64V54ZM1.28 55V1.64H-0.72V55H1.28ZM0.28 2.64H11.64V0.639996H0.28V2.64ZM10.64 1.64V55H12.64V1.64H10.64ZM58.2331 55V56H59.2331V55H58.2331ZM48.0731 55H47.0731V56H48.0731V55ZM32.1531 29L31.3413 28.4161L31.1531 28.6777V29H32.1531ZM32.1531 55V56H33.1531V55H32.1531ZM21.9931 55H20.9931V56H21.9931V55ZM21.9931 16.36V15.36H20.9931V16.36H21.9931ZM32.1531 16.36H33.1531V15.36H32.1531V16.36ZM32.1531 21.4H31.1531V24.1452L32.9188 22.0432L32.1531 21.4ZM55.0331 18.68L54.3085 19.3693L54.3173 19.3783L55.0331 18.68ZM58.2331 54H48.0731V56H58.2331V54ZM49.0731 55V31.64H47.0731V55H49.0731ZM49.0731 31.64C49.0731 29.0886 48.4421 26.9909 47.0042 25.5369C45.5642 24.0807 43.4834 23.44 40.9531 23.44V25.44C43.1695 25.44 44.6487 25.9993 45.5821 26.9431C46.5175 27.8891 47.0731 29.3913 47.0731 31.64H49.0731ZM40.9531 23.44C36.9447 23.44 33.712 25.1203 31.3413 28.4161L32.9649 29.5839C34.9676 26.7997 37.6016 25.44 40.9531 25.44V23.44ZM31.1531 29V55H33.1531V29H31.1531ZM32.1531 54H21.9931V56H32.1531V54ZM22.9931 55V16.36H20.9931V55H22.9931ZM21.9931 17.36H32.1531V15.36H21.9931V17.36ZM31.1531 16.36V21.4H33.1531V16.36H31.1531ZM32.9188 22.0432C36.0718 18.2897 40.2876 16.4 45.6731 16.4V14.4C39.752 14.4 34.9545 16.5103 31.3874 20.7568L32.9188 22.0432ZM45.6731 16.4C49.6659 16.4 52.48 17.4469 54.3086 19.3692L55.7577 17.9908C53.4262 15.5398 50.0004 14.4 45.6731 14.4V16.4ZM54.3173 19.3783C56.2246 21.3332 57.2331 24.0705 57.2331 27.72H59.2331C59.2331 23.6895 58.1084 20.4001 55.7489 17.9817L54.3173 19.3783ZM57.2331 27.72V55H59.2331V27.72H57.2331ZM105.121 55V56H106.121V55H105.121ZM94.8812 55H93.8812V56H94.8812V55ZM94.8812 50.04H95.8812V47.1817L94.0993 49.4166L94.8812 50.04ZM70.6413 50.6L69.8914 51.2616L69.8963 51.2671L70.6413 50.6ZM70.6413 20.92L71.3959 21.5762L70.6413 20.92ZM94.8812 21.32L94.089 21.9302L95.8812 24.257V21.32H94.8812ZM94.8812 1.64V0.639996H93.8812V1.64H94.8812ZM105.121 1.64H106.121V0.639996H105.121V1.64ZM91.1213 45.72L91.5568 46.6202L91.5684 46.6145L91.5799 46.6086L91.1213 45.72ZM94.8812 42.52L95.7133 43.0747L95.8812 42.8228V42.52H94.8812ZM94.8812 28.84H95.8812V28.5372L95.7133 28.2853L94.8812 28.84ZM91.1213 25.72L90.6626 26.6086L90.6741 26.6145L90.6857 26.6202L91.1213 25.72ZM79.0413 27.56L79.795 28.2171L79.0413 27.56ZM79.0413 43.8L79.795 43.1429L79.0413 43.8ZM105.121 54H94.8812V56H105.121V54ZM95.8812 55V50.04H93.8812V55H95.8812ZM94.0993 49.4166C91.1311 53.1395 87.4392 54.96 82.9613 54.96V56.96C88.0833 56.96 92.3381 54.8339 95.6631 50.6634L94.0993 49.4166ZM82.9613 54.96C78.2177 54.96 74.387 53.2838 71.3862 49.9329L69.8963 51.2671C73.2955 55.0629 77.6781 56.96 82.9613 56.96V54.96ZM71.3911 49.9384C68.3959 46.5438 66.8412 41.8447 66.8412 35.72H64.8412C64.8412 42.1819 66.4866 47.4029 69.8914 51.2616L71.3911 49.9384ZM66.8412 35.72C66.8412 29.7078 68.393 25.0295 71.3959 21.5762L69.8866 20.2638C66.4895 24.1705 64.8412 29.3589 64.8412 35.72H66.8412ZM71.3959 21.5762C74.3999 18.1215 78.2281 16.4 82.9613 16.4V14.4C77.6678 14.4 73.2826 16.3585 69.8866 20.2638L71.3959 21.5762ZM82.9613 16.4C87.5521 16.4 91.2349 18.2249 94.089 21.9302L95.6735 20.7098C92.4476 16.5217 88.1837 14.4 82.9613 14.4V16.4ZM95.8812 21.32V1.64H93.8812V21.32H95.8812ZM94.8812 2.64H105.121V0.639996H94.8812V2.64ZM104.121 1.64V55H106.121V1.64H104.121ZM86.0813 47.92C87.9501 47.92 89.7782 47.4808 91.5568 46.6202L90.6857 44.8198C89.1576 45.5592 87.6258 45.92 86.0813 45.92V47.92ZM91.5799 46.6086C93.3526 45.6937 94.748 44.5226 95.7133 43.0747L94.0492 41.9653C93.3078 43.0774 92.1966 44.0396 90.6626 44.8314L91.5799 46.6086ZM95.8812 42.52V28.84H93.8812V42.52H95.8812ZM95.7133 28.2853C94.7433 26.8304 93.3395 25.6824 91.5568 24.8198L90.6857 26.6202C92.2097 27.3576 93.3125 28.2896 94.0492 29.3947L95.7133 28.2853ZM91.5799 24.8314C89.7978 23.9116 87.9616 23.44 86.0813 23.44V25.44C87.6143 25.44 89.138 25.8217 90.6626 26.6086L91.5799 24.8314ZM86.0813 23.44C82.9267 23.44 80.3 24.5944 78.2875 26.9029L79.795 28.2171C81.4092 26.3656 83.4759 25.44 86.0813 25.44V23.44ZM78.2875 26.9029C76.2827 29.2025 75.3213 32.1733 75.3213 35.72H77.3213C77.3213 32.5467 78.1731 30.0775 79.795 28.2171L78.2875 26.9029ZM75.3213 35.72C75.3213 39.218 76.2852 42.1604 78.2875 44.4571L79.795 43.1429C78.1706 41.2796 77.3213 38.8353 77.3213 35.72H75.3213ZM78.2875 44.4571C80.3 46.7656 82.9267 47.92 86.0813 47.92V45.92C83.4759 45.92 81.4092 44.9944 79.795 43.1429L78.2875 44.4571ZM115.916 10.44L115.194 11.1312L115.209 11.1473L115.225 11.1626L115.916 10.44ZM115.916 1.88L115.225 1.15736L115.217 1.16504L115.209 1.17289L115.916 1.88ZM124.556 10.44L125.263 11.1471L125.271 11.1392L125.279 11.1312L124.556 10.44ZM125.356 55V56H126.356V55H125.356ZM115.196 55H114.196V56H115.196V55ZM115.196 16.36V15.36H114.196V16.36H115.196ZM125.356 16.36H126.356V15.36H125.356V16.36ZM120.236 11.2C118.848 11.2 117.654 10.718 116.607 9.71736L115.225 11.1626C116.632 12.5087 118.318 13.2 120.236 13.2V11.2ZM116.639 9.74877C115.638 8.70268 115.156 7.50826 115.156 6.12H113.156C113.156 8.0384 113.848 9.72398 115.194 11.1312L116.639 9.74877ZM115.156 6.12C115.156 4.73297 115.637 3.57367 116.623 2.5871L115.209 1.17289C113.849 2.53299 113.156 4.20037 113.156 6.12H115.156ZM116.607 2.60264C117.654 1.60203 118.848 1.12 120.236 1.12V-0.880005C118.318 -0.880005 116.632 -0.188702 115.225 1.15736L116.607 2.60264ZM120.236 1.12C121.686 1.12 122.869 1.60721 123.849 2.5871L125.263 1.17289C123.897 -0.19388 122.2 -0.880005 120.236 -0.880005V1.12ZM123.849 2.5871C124.836 3.57367 125.316 4.73297 125.316 6.12H127.316C127.316 4.20037 126.623 2.53299 125.263 1.17289L123.849 2.5871ZM125.316 6.12C125.316 7.50826 124.834 8.70268 123.834 9.74877L125.279 11.1312C126.625 9.72398 127.316 8.0384 127.316 6.12H125.316ZM123.849 9.73289C122.869 10.7128 121.686 11.2 120.236 11.2V13.2C122.2 13.2 123.897 12.5139 125.263 11.1471L123.849 9.73289ZM125.356 54H115.196V56H125.356V54ZM116.196 55V16.36H114.196V55H116.196ZM115.196 17.36H125.356V15.36H115.196V17.36ZM124.356 16.36V55H126.356V16.36H124.356ZM156.391 55V56H157.067L157.319 55.3727L156.391 55ZM145.431 55L144.503 55.3727L144.755 56H145.431V55ZM129.911 16.36V15.36H128.431L128.983 16.7327L129.911 16.36ZM140.791 16.36L141.727 16.0089L141.484 15.36H140.791V16.36ZM150.871 43.24L149.934 43.5911L150.871 46.088L151.807 43.5911L150.871 43.24ZM160.951 16.36V15.36H160.258L160.014 16.0089L160.951 16.36ZM171.911 16.36L172.839 16.7327L173.39 15.36H171.911V16.36ZM156.391 54H145.431V56H156.391V54ZM146.359 54.6273L130.839 15.9873L128.983 16.7327L144.503 55.3727L146.359 54.6273ZM129.911 17.36H140.791V15.36H129.911V17.36ZM139.854 16.7111L149.934 43.5911L151.807 42.8889L141.727 16.0089L139.854 16.7111ZM151.807 43.5911L161.887 16.7111L160.014 16.0089L149.934 42.8889L151.807 43.5911ZM160.951 17.36H171.911V15.36H160.951V17.36ZM170.983 15.9873L155.463 54.6273L157.319 55.3727L172.839 16.7327L170.983 15.9873ZM177.166 10.44L176.444 11.1312L176.459 11.1473L176.475 11.1626L177.166 10.44ZM177.166 1.88L176.475 1.15736L176.467 1.16504L176.459 1.17289L177.166 1.88ZM185.806 10.44L186.513 11.1471L186.521 11.1392L186.529 11.1312L185.806 10.44ZM186.606 55V56H187.606V55H186.606ZM176.446 55H175.446V56H176.446V55ZM176.446 16.36V15.36H175.446V16.36H176.446ZM186.606 16.36H187.606V15.36H186.606V16.36ZM181.486 11.2C180.098 11.2 178.904 10.718 177.857 9.71736L176.475 11.1626C177.882 12.5087 179.568 13.2 181.486 13.2V11.2ZM177.889 9.74877C176.888 8.70268 176.406 7.50826 176.406 6.12H174.406C174.406 8.0384 175.098 9.72398 176.444 11.1312L177.889 9.74877ZM176.406 6.12C176.406 4.73297 176.887 3.57367 177.873 2.5871L176.459 1.17289C175.099 2.53299 174.406 4.20037 174.406 6.12H176.406ZM177.857 2.60264C178.904 1.60203 180.098 1.12 181.486 1.12V-0.880005C179.568 -0.880005 177.882 -0.188702 176.475 1.15736L177.857 2.60264ZM181.486 1.12C182.936 1.12 184.119 1.60721 185.099 2.5871L186.513 1.17289C185.147 -0.19388 183.45 -0.880005 181.486 -0.880005V1.12ZM185.099 2.5871C186.086 3.57367 186.566 4.73297 186.566 6.12H188.566C188.566 4.20037 187.873 2.53299 186.513 1.17289L185.099 2.5871ZM186.566 6.12C186.566 7.50826 186.084 8.70268 185.084 9.74877L186.529 11.1312C187.875 9.72398 188.566 8.0384 188.566 6.12H186.566ZM185.099 9.73289C184.119 10.7128 182.936 11.2 181.486 11.2V13.2C183.45 13.2 185.147 12.5139 186.513 11.1471L185.099 9.73289ZM186.606 54H176.446V56H186.606V54ZM177.446 55V16.36H175.446V55H177.446ZM176.446 17.36H186.606V15.36H176.446V17.36ZM185.606 16.36V55H187.606V16.36H185.606ZM233.481 55V56H234.481V55H233.481ZM223.241 55H222.241V56H223.241V55ZM223.241 50.04H224.241V47.1817L222.459 49.4166L223.241 50.04ZM199.001 50.6L198.251 51.2616L198.256 51.2671L199.001 50.6ZM199.001 20.92L199.755 21.5762L199.001 20.92ZM223.241 21.32L222.448 21.9302L224.241 24.257V21.32H223.241ZM223.241 1.64V0.639996H222.241V1.64H223.241ZM233.481 1.64H234.481V0.639996H233.481V1.64ZM219.481 45.72L219.916 46.6202L219.928 46.6145L219.939 46.6086L219.481 45.72ZM223.241 42.52L224.073 43.0747L224.241 42.8228V42.52H223.241ZM223.241 28.84H224.241V28.5372L224.073 28.2853L223.241 28.84ZM219.481 25.72L219.022 26.6086L219.033 26.6145L219.045 26.6202L219.481 25.72ZM207.401 27.56L208.154 28.2171L207.401 27.56ZM207.401 43.8L208.154 43.1429L207.401 43.8ZM233.481 54H223.241V56H233.481V54ZM224.241 55V50.04H222.241V55H224.241ZM222.459 49.4166C219.49 53.1395 215.799 54.96 211.321 54.96V56.96C216.443 56.96 220.697 54.8339 224.023 50.6634L222.459 49.4166ZM211.321 54.96C206.577 54.96 202.746 53.2838 199.746 49.9329L198.256 51.2671C201.655 55.0629 206.038 56.96 211.321 56.96V54.96ZM199.75 49.9384C196.755 46.5438 195.201 41.8447 195.201 35.72H193.201C193.201 42.1819 194.846 47.4029 198.251 51.2616L199.75 49.9384ZM195.201 35.72C195.201 29.7078 196.752 25.0295 199.755 21.5762L198.246 20.2638C194.849 24.1705 193.201 29.3589 193.201 35.72H195.201ZM199.755 21.5762C202.759 18.1215 206.587 16.4 211.321 16.4V14.4C206.027 14.4 201.642 16.3585 198.246 20.2638L199.755 21.5762ZM211.321 16.4C215.912 16.4 219.594 18.2249 222.448 21.9302L224.033 20.7098C220.807 16.5217 216.543 14.4 211.321 14.4V16.4ZM224.241 21.32V1.64H222.241V21.32H224.241ZM223.241 2.64H233.481V0.639996H223.241V2.64ZM232.481 1.64V55H234.481V1.64H232.481ZM214.441 47.92C216.309 47.92 218.138 47.4808 219.916 46.6202L219.045 44.8198C217.517 45.5592 215.985 45.92 214.441 45.92V47.92ZM219.939 46.6086C221.712 45.6937 223.107 44.5226 224.073 43.0747L222.409 41.9653C221.667 43.0774 220.556 44.0396 219.022 44.8314L219.939 46.6086ZM224.241 42.52V28.84H222.241V42.52H224.241ZM224.073 28.2853C223.103 26.8304 221.699 25.6824 219.916 24.8198L219.045 26.6202C220.569 27.3576 221.672 28.2896 222.409 29.3947L224.073 28.2853ZM219.939 24.8314C218.157 23.9116 216.321 23.44 214.441 23.44V25.44C215.974 25.44 217.497 25.8217 219.022 26.6086L219.939 24.8314ZM214.441 23.44C211.286 23.44 208.659 24.5944 206.647 26.9029L208.154 28.2171C209.769 26.3656 211.835 25.44 214.441 25.44V23.44ZM206.647 26.9029C204.642 29.2025 203.681 32.1733 203.681 35.72H205.681C205.681 32.5467 206.533 30.0775 208.154 28.2171L206.647 26.9029ZM203.681 35.72C203.681 39.218 204.645 42.1604 206.647 44.4571L208.154 43.1429C206.53 41.2796 205.681 38.8353 205.681 35.72H203.681ZM206.647 44.4571C208.659 46.7656 211.286 47.92 214.441 47.92V45.92C211.835 45.92 209.769 44.9944 208.154 43.1429L206.647 44.4571ZM279.796 55V56H280.796V55H279.796ZM269.636 55H268.636V56H269.636V55ZM269.636 50.12H270.636V47.4932L268.889 49.455L269.636 50.12ZM246.676 52.76L247.392 52.0619L246.676 52.76ZM243.556 16.36V15.36H242.556V16.36H243.556ZM253.716 16.36H254.716V15.36H253.716V16.36ZM269.636 42.52L270.423 43.1359L270.636 42.8645V42.52H269.636ZM269.636 16.36V15.36H268.636V16.36H269.636ZM279.796 16.36H280.796V15.36H279.796V16.36ZM279.796 54H269.636V56H279.796V54ZM270.636 55V50.12H268.636V55H270.636ZM268.889 49.455C265.627 53.118 261.374 54.96 256.036 54.96V56.96C261.897 56.96 266.711 54.9086 270.382 50.785L268.889 49.455ZM256.036 54.96C252.036 54.96 249.219 53.9361 247.392 52.0619L245.96 53.4581C248.292 55.8506 251.715 56.96 256.036 56.96V54.96ZM247.392 52.0619C245.542 50.1648 244.556 47.4576 244.556 43.8H242.556C242.556 47.8224 243.649 51.0885 245.96 53.4581L247.392 52.0619ZM244.556 43.8V16.36H242.556V43.8H244.556ZM243.556 17.36H253.716V15.36H243.556V17.36ZM252.716 16.36V39.8H254.716V16.36H252.716ZM252.716 39.8C252.716 42.3275 253.348 44.4068 254.789 45.8471C256.229 47.2875 258.308 47.92 260.836 47.92V45.92C258.616 45.92 257.136 45.3659 256.203 44.4329C255.27 43.4999 254.716 42.0192 254.716 39.8H252.716ZM260.836 47.92C264.731 47.92 267.95 46.2998 270.423 43.1359L268.848 41.9041C266.735 44.6068 264.087 45.92 260.836 45.92V47.92ZM270.636 42.52V16.36H268.636V42.52H270.636ZM269.636 17.36H279.796V15.36H269.636V17.36ZM278.796 16.36V55H280.796V16.36H278.796ZM323.244 55V56H324.244V55H323.244ZM313.084 55H312.084V56H313.084V55ZM313.084 51H314.084V48.2515L312.318 50.3574L313.084 51ZM291.484 52.6L290.839 53.3645L290.847 53.3713L290.855 53.3779L291.484 52.6ZM291.404 33.8L290.796 33.0056L290.789 33.0115L291.404 33.8ZM313.084 35.4L312.321 36.0465L314.084 38.1267V35.4H313.084ZM310.764 25.48L310.159 26.2767V26.2767L310.764 25.48ZM293.324 28.28L292.453 28.7717L293.073 29.8692L294.001 29.0162L293.324 28.28ZM289.484 21.48L288.822 20.7307L288.215 21.2668L288.613 21.9717L289.484 21.48ZM318.524 18.84L319.113 18.0319L318.524 18.84ZM313.084 45.72L313.888 46.3139L314.084 46.0491V45.72H313.084ZM313.084 40.92H314.084V40.5909L313.888 40.3261L313.084 40.92ZM299.724 39.16L300.314 39.9674L300.324 39.9601L300.333 39.9526L299.724 39.16ZM299.724 47.56L299.134 48.3674L299.724 47.56ZM323.244 54H313.084V56H323.244V54ZM314.084 55V51H312.084V55H314.084ZM312.318 50.3574C309.78 53.3827 306.015 54.96 300.844 54.96V56.96C306.446 56.96 310.841 55.2306 313.85 51.6426L312.318 50.3574ZM300.844 54.96C297.613 54.96 294.713 53.9228 292.112 51.8221L290.855 53.3779C293.801 55.7572 297.141 56.96 300.844 56.96V54.96ZM292.128 51.8355C289.663 49.7572 288.404 46.9064 288.404 43.16H286.404C286.404 47.4136 287.864 50.8562 290.839 53.3645L292.128 51.8355ZM288.404 43.16C288.404 39.2296 289.651 36.4355 292.019 34.5885L290.789 33.0115C287.823 35.3245 286.404 38.7704 286.404 43.16H288.404ZM292.011 34.5944C294.549 32.6538 297.48 31.68 300.844 31.68V29.68C297.061 29.68 293.699 30.7862 290.796 33.0056L292.011 34.5944ZM300.844 31.68C306.147 31.68 309.902 33.1926 312.321 36.0465L313.847 34.7535C310.932 31.3141 306.527 29.68 300.844 29.68V31.68ZM314.084 35.4V30.2H312.084V35.4H314.084ZM314.084 30.2C314.084 27.9199 313.169 26.0493 311.368 24.6833L310.159 26.2767C311.452 27.2573 312.084 28.5334 312.084 30.2H314.084ZM311.368 24.6833C309.599 23.3415 307.313 22.72 304.604 22.72V24.72C307.015 24.72 308.835 25.2718 310.159 26.2767L311.368 24.6833ZM304.604 22.72C300.122 22.72 296.125 24.3464 292.647 27.5438L294.001 29.0162C297.136 26.1336 300.659 24.72 304.604 24.72V22.72ZM294.195 27.7883L290.354 20.9883L288.613 21.9717L292.453 28.7717L294.195 27.7883ZM290.146 22.2293C294.533 18.3524 299.917 16.4 306.364 16.4V14.4C299.477 14.4 293.608 16.5009 288.822 20.7307L290.146 22.2293ZM306.364 16.4C311.17 16.4 315.001 17.5099 317.935 19.6481L319.113 18.0319C315.753 15.5834 311.477 14.4 306.364 14.4V16.4ZM317.935 19.6481C320.743 21.6946 322.244 25.0716 322.244 30.04H324.244C324.244 24.6617 322.598 20.572 319.113 18.0319L317.935 19.6481ZM322.244 30.04V55H324.244V30.04H322.244ZM304.924 50.08C308.904 50.08 311.984 48.8945 313.888 46.3139L312.279 45.1261C310.877 47.0255 308.516 48.08 304.924 48.08V50.08ZM314.084 45.72V40.92H312.084V45.72H314.084ZM313.888 40.3261C311.984 37.7455 308.904 36.56 304.924 36.56V38.56C308.516 38.56 310.877 39.6145 312.279 41.5139L313.888 40.3261ZM304.924 36.56C302.666 36.56 300.707 37.1421 299.114 38.3674L300.333 39.9526C301.514 39.0445 303.021 38.56 304.924 38.56V36.56ZM299.134 38.3526C297.473 39.5662 296.644 41.2884 296.644 43.4H298.644C298.644 41.8849 299.201 40.7804 300.314 39.9674L299.134 38.3526ZM296.644 43.4C296.644 45.4698 297.482 47.1603 299.134 48.3674L300.314 46.7526C299.192 45.933 298.644 44.8502 298.644 43.4H296.644ZM299.134 48.3674C300.725 49.5304 302.677 50.08 304.924 50.08V48.08C303.01 48.08 301.496 47.6162 300.314 46.7526L299.134 48.3674ZM343.481 55V56H344.481V55H343.481ZM333.321 55H332.321V56H333.321V55ZM333.321 1.64V0.639996H332.321V1.64H333.321ZM343.481 1.64H344.481V0.639996H343.481V1.64ZM343.481 54H333.321V56H343.481V54ZM334.321 55V1.64H332.321V55H334.321ZM333.321 2.64H343.481V0.639996H333.321V2.64ZM342.481 1.64V55H344.481V1.64H342.481Z" fill="#FCFFFF"/>
</svg>
