<svg width="228" height="34" viewBox="0 0 228 34" fill="none" xmlns="http://www.w3.org/2000/svg">
<path opacity="0.2" d="M22.45 34V35H23.45V34H22.45ZM15.3 34H14.3V35H15.3V34ZM15.3 10.65H16.3L14.3723 10.2766L15.3 10.65ZM5.9 34V35H6.57542L6.82765 34.3734L5.9 34ZM2.8 34L1.87235 34.3734L2.12458 35H2.8V34ZM-6.6 10.65L-5.67235 10.2766L-7.6 10.65H-6.6ZM-6.6 34V35H-5.6V34H-6.6ZM-13.7 34H-14.7V35H-13.7V34ZM-13.7 0.649998V-0.350002H-14.7V0.649998H-13.7ZM-3.75 0.649998L-2.82216 0.27702L-3.07421 -0.350002H-3.75V0.649998ZM4.35 20.8L3.42216 21.173L4.35 23.4811L5.27784 21.173L4.35 20.8ZM12.45 0.649998V-0.350002H11.7742L11.5222 0.27702L12.45 0.649998ZM22.45 0.649998H23.45V-0.350002H22.45V0.649998ZM22.45 33H15.3V35H22.45V33ZM16.3 34V10.65H14.3V34H16.3ZM14.3723 10.2766L4.97235 33.6266L6.82765 34.3734L16.2277 11.0234L14.3723 10.2766ZM5.9 33H2.8V35H5.9V33ZM3.72765 33.6266L-5.67235 10.2766L-7.52765 11.0234L1.87235 34.3734L3.72765 33.6266ZM-7.6 10.65V34H-5.6V10.65H-7.6ZM-6.6 33H-13.7V35H-6.6V33ZM-12.7 34V0.649998H-14.7V34H-12.7ZM-13.7 1.65H-3.75V-0.350002H-13.7V1.65ZM-4.67784 1.02297L3.42216 21.173L5.27784 20.427L-2.82216 0.27702L-4.67784 1.02297ZM5.27784 21.173L13.3778 1.02297L11.5222 0.27702L3.42216 20.427L5.27784 21.173ZM12.45 1.65H22.45V-0.350002H12.45V1.65ZM21.45 0.649998V34H23.45V0.649998H21.45ZM60.1734 34V35H61.6304L61.1066 33.6405L60.1734 34ZM52.0734 34L51.1334 34.3411L51.3725 35H52.0734V34ZM50.0234 28.35L50.9635 28.0089L50.7244 27.35H50.0234V28.35ZM35.7234 28.35V27.35H35.0283L34.7861 28.0016L35.7234 28.35ZM33.6234 34V35H34.3186L34.5608 34.3484L33.6234 34ZM25.5234 34L24.5908 33.6392L24.0644 35H25.5234V34ZM38.4234 0.649998V-0.350002H37.738L37.4908 0.289239L38.4234 0.649998ZM47.3234 0.649998L48.2566 0.290456L48.0098 -0.350002H47.3234V0.649998ZM48.0734 22.1V23.1H49.4994L49.0136 21.7593L48.0734 22.1ZM42.8734 7.75L43.8136 7.40931L42.8734 4.81479L41.9333 7.40931L42.8734 7.75ZM37.6734 22.1L36.7333 21.7593L36.2474 23.1H37.6734V22.1ZM60.1734 33H52.0734V35H60.1734V33ZM53.0135 33.6589L50.9635 28.0089L49.0834 28.6911L51.1334 34.3411L53.0135 33.6589ZM50.0234 27.35H35.7234V29.35H50.0234V27.35ZM34.7861 28.0016L32.6861 33.6516L34.5608 34.3484L36.6608 28.6984L34.7861 28.0016ZM33.6234 33H25.5234V35H33.6234V33ZM26.4561 34.3608L39.3561 1.01076L37.4908 0.289239L24.5908 33.6392L26.4561 34.3608ZM38.4234 1.65H47.3234V-0.350002H38.4234V1.65ZM46.3903 1.00954L59.2403 34.3595L61.1066 33.6405L48.2566 0.290456L46.3903 1.00954ZM49.0136 21.7593L43.8136 7.40931L41.9333 8.09069L47.1333 22.4407L49.0136 21.7593ZM41.9333 7.40931L36.7333 21.7593L38.6136 22.4407L43.8136 8.09069L41.9333 7.40931ZM37.6734 23.1H48.0734V21.1H37.6734V23.1ZM91.8031 34V35H93.8828L92.5842 33.3756L91.8031 34ZM83.0531 34L82.2556 34.6033L82.5557 35H83.0531V34ZM72.9531 20.65L73.7506 20.0467L72.9934 19.0458L72.1869 20.0074L72.9531 20.65ZM70.3531 23.75L69.5869 23.1074L69.3531 23.3862V23.75H70.3531ZM70.3531 34V35H71.3531V34H70.3531ZM63.2531 34H62.2531V35H63.2531V34ZM63.2531 0.649998V-0.350002H62.2531V0.649998H63.2531ZM70.3531 0.649998H71.3531V-0.350002H70.3531V0.649998ZM70.3531 15.55H69.3531V18.4234L71.1371 16.1708L70.3531 15.55ZM82.1531 0.649998V-0.350002H81.6695L81.3692 0.0291595L82.1531 0.649998ZM90.9031 0.649998L91.6663 1.29616L93.06 -0.350002H90.9031V0.649998ZM77.6531 16.3L76.8899 15.6538L76.3583 16.2818L76.872 16.9244L77.6531 16.3ZM91.8031 33H83.0531V35H91.8031V33ZM83.8506 33.3967L73.7506 20.0467L72.1556 21.2533L82.2556 34.6033L83.8506 33.3967ZM72.1869 20.0074L69.5869 23.1074L71.1193 24.3926L73.7193 21.2926L72.1869 20.0074ZM69.3531 23.75V34H71.3531V23.75H69.3531ZM70.3531 33H63.2531V35H70.3531V33ZM64.2531 34V0.649998H62.2531V34H64.2531ZM63.2531 1.65H70.3531V-0.350002H63.2531V1.65ZM69.3531 0.649998V15.55H71.3531V0.649998H69.3531ZM71.1371 16.1708L82.9371 1.27083L81.3692 0.0291595L69.5692 14.9292L71.1371 16.1708ZM82.1531 1.65H90.9031V-0.350002H82.1531V1.65ZM90.1399 0.00383663L76.8899 15.6538L78.4163 16.9462L91.6663 1.29616L90.1399 0.00383663ZM76.872 16.9244L91.022 34.6244L92.5842 33.3756L78.4342 15.6756L76.872 16.9244ZM118.64 34V35H119.64V34H118.64ZM95.0402 34H94.0402V35H95.0402V34ZM95.0402 0.649998V-0.350002H94.0402V0.649998H95.0402ZM118.64 0.649998H119.64V-0.350002H118.64V0.649998ZM118.64 6.9V7.9H119.64V6.9H118.64ZM102.14 6.9V5.9H101.14V6.9H102.14ZM102.14 13.95H101.14V14.95H102.14V13.95ZM118.29 13.95H119.29V12.95H118.29V13.95ZM118.29 20.2V21.2H119.29V20.2H118.29ZM102.14 20.2V19.2H101.14V20.2H102.14ZM102.14 27.75H101.14V28.75H102.14V27.75ZM118.64 27.75H119.64V26.75H118.64V27.75ZM118.64 33H95.0402V35H118.64V33ZM96.0402 34V0.649998H94.0402V34H96.0402ZM95.0402 1.65H118.64V-0.350002H95.0402V1.65ZM117.64 0.649998V6.9H119.64V0.649998H117.64ZM118.64 5.9H102.14V7.9H118.64V5.9ZM101.14 6.9V13.95H103.14V6.9H101.14ZM102.14 14.95H118.29V12.95H102.14V14.95ZM117.29 13.95V20.2H119.29V13.95H117.29ZM118.29 19.2H102.14V21.2H118.29V19.2ZM101.14 20.2V27.75H103.14V20.2H101.14ZM102.14 28.75H118.64V26.75H102.14V28.75ZM117.64 27.75V34H119.64V27.75H117.64ZM168.084 34V35H169.541L169.017 33.6405L168.084 34ZM159.984 34L159.044 34.3411L159.283 35H159.984V34ZM157.934 28.35L158.874 28.0089L158.635 27.35H157.934V28.35ZM143.634 28.35V27.35H142.938L142.696 28.0016L143.634 28.35ZM141.534 34V35H142.229L142.471 34.3484L141.534 34ZM133.434 34L132.501 33.6392L131.975 35H133.434V34ZM146.334 0.649998V-0.350002H145.648L145.401 0.289239L146.334 0.649998ZM155.234 0.649998L156.167 0.290456L155.92 -0.350002H155.234V0.649998ZM155.984 22.1V23.1H157.41L156.924 21.7593L155.984 22.1ZM150.784 7.75L151.724 7.40931L150.784 4.81479L149.843 7.40931L150.784 7.75ZM145.584 22.1L144.643 21.7593L144.158 23.1H145.584V22.1ZM168.084 33H159.984V35H168.084V33ZM160.924 33.6589L158.874 28.0089L156.994 28.6911L159.044 34.3411L160.924 33.6589ZM157.934 27.35H143.634V29.35H157.934V27.35ZM142.696 28.0016L140.596 33.6516L142.471 34.3484L144.571 28.6984L142.696 28.0016ZM141.534 33H133.434V35H141.534V33ZM134.366 34.3608L147.266 1.01076L145.401 0.289239L132.501 33.6392L134.366 34.3608ZM146.334 1.65H155.234V-0.350002H146.334V1.65ZM154.3 1.00954L167.15 34.3595L169.017 33.6405L156.167 0.290456L154.3 1.00954ZM156.924 21.7593L151.724 7.40931L149.843 8.09069L155.043 22.4407L156.924 21.7593ZM149.843 7.40931L144.643 21.7593L146.524 22.4407L151.724 8.09069L149.843 7.40931ZM145.584 23.1H155.984V21.1H145.584V23.1ZM198.163 34V35H199.915L199.024 33.4915L198.163 34ZM190.013 34L189.138 34.4838L189.423 35H190.013V34ZM183.463 22.15L184.338 21.6662L184.053 21.15H183.463V22.15ZM178.263 22.15V21.15H177.263V22.15H178.263ZM178.263 34V35H179.263V34H178.263ZM171.163 34H170.163V35H171.163V34ZM171.163 0.649998V-0.350002H170.163V0.649998H171.163ZM194.913 3.65L194.206 4.35713L194.212 4.36292L194.913 3.65ZM195.813 18.05L195.049 17.4054L195.041 17.4143L195.813 18.05ZM190.663 21.3L190.44 20.3253L189.107 20.6312L189.802 21.8085L190.663 21.3ZM189.313 14.7L189.964 15.4593L189.972 15.4527L189.979 15.4459L189.313 14.7ZM189.313 8.15L188.647 8.89594L188.655 8.90267L188.662 8.90926L189.313 8.15ZM178.263 6.9V5.9H177.263V6.9H178.263ZM178.263 15.9H177.263V16.9H178.263V15.9ZM198.163 33H190.013V35H198.163V33ZM190.888 33.5162L184.338 21.6662L182.588 22.6338L189.138 34.4838L190.888 33.5162ZM183.463 21.15H178.263V23.15H183.463V21.15ZM177.263 22.15V34H179.263V22.15H177.263ZM178.263 33H171.163V35H178.263V33ZM172.163 34V0.649998H170.163V34H172.163ZM171.163 1.65H186.763V-0.350002H171.163V1.65ZM186.763 1.65C189.992 1.65 192.433 2.58347 194.206 4.3571L195.62 2.94289C193.394 0.716522 190.401 -0.350002 186.763 -0.350002V1.65ZM194.212 4.36292C196.032 6.15332 196.963 8.46893 196.963 11.4H198.963C198.963 7.99773 197.861 5.14668 195.615 2.93707L194.212 4.36292ZM196.963 11.4C196.963 13.9534 196.297 15.9244 195.049 17.4054L196.578 18.6946C198.196 16.7756 198.963 14.3132 198.963 11.4H196.963ZM195.041 17.4143C193.773 18.9541 192.245 19.9109 190.44 20.3253L190.887 22.2747C193.148 21.7558 195.053 20.546 196.585 18.6857L195.041 17.4143ZM189.802 21.8085L197.302 34.5085L199.024 33.4915L191.524 20.7915L189.802 21.8085ZM185.713 16.9C187.37 16.9 188.816 16.4434 189.964 15.4593L188.662 13.9407C187.944 14.5566 186.99 14.9 185.713 14.9V16.9ZM189.979 15.4459C191.146 14.4041 191.713 13.0221 191.713 11.4H189.713C189.713 12.5113 189.347 13.3292 188.647 13.9541L189.979 15.4459ZM191.713 11.4C191.713 9.77807 191.145 8.40335 189.964 7.39074L188.662 8.90926C189.348 9.49664 189.713 10.2886 189.713 11.4H191.713ZM189.979 7.40406C188.832 6.37951 187.381 5.9 185.713 5.9V7.9C186.979 7.9 187.928 8.25381 188.647 8.89594L189.979 7.40406ZM185.713 5.9H178.263V7.9H185.713V5.9ZM177.263 6.9V15.9H179.263V6.9H177.263ZM178.263 16.9H185.713V14.9H178.263V16.9ZM217.654 34V35H218.654V34H217.654ZM210.504 34H209.504V35H210.504V34ZM210.504 6.9H211.504V5.9H210.504V6.9ZM200.754 6.9H199.754V7.9H200.754V6.9ZM200.754 0.649998V-0.350002H199.754V0.649998H200.754ZM227.354 0.649998H228.354V-0.350002H227.354V0.649998ZM227.354 6.9V7.9H228.354V6.9H227.354ZM217.654 6.9V5.9H216.654V6.9H217.654ZM217.654 33H210.504V35H217.654V33ZM211.504 34V6.9H209.504V34H211.504ZM210.504 5.9H200.754V7.9H210.504V5.9ZM201.754 6.9V0.649998H199.754V6.9H201.754ZM200.754 1.65H227.354V-0.350002H200.754V1.65ZM226.354 0.649998V6.9H228.354V0.649998H226.354ZM227.354 5.9H217.654V7.9H227.354V5.9ZM216.654 6.9V34H218.654V6.9H216.654Z" fill="#FCFFFF"/>
</svg>
