<svg width="353" height="54" viewBox="0 0 353 54" fill="none" xmlns="http://www.w3.org/2000/svg">
<path opacity="0.2" d="M25.12 54V55H26.12V54H25.12ZM13.68 54H12.68V55H13.68V54ZM13.68 16.64H14.68L12.7523 16.2666L13.68 16.64ZM-1.36 54V55H-0.684578L-0.432346 54.3734L-1.36 54ZM-6.32 54L-7.24765 54.3734L-6.99542 55H-6.32V54ZM-21.36 16.64L-20.4323 16.2666L-22.36 16.64H-21.36ZM-21.36 54V55H-20.36V54H-21.36ZM-32.72 54H-33.72V55H-32.72V54ZM-32.72 0.639996V-0.360004H-33.72V0.639996H-32.72ZM-16.8 0.639996L-15.8722 0.267017L-16.1242 -0.360004H-16.8V0.639996ZM-3.84 32.88L-4.76784 33.253L-3.84 35.5611L-2.91216 33.253L-3.84 32.88ZM9.12 0.639996V-0.360004H8.44422L8.19217 0.267017L9.12 0.639996ZM25.12 0.639996H26.12V-0.360004H25.12V0.639996ZM25.12 53H13.68V55H25.12V53ZM14.68 54V16.64H12.68V54H14.68ZM12.7523 16.2666L-2.28765 53.6266L-0.432346 54.3734L14.6077 17.0134L12.7523 16.2666ZM-1.36 53H-6.32V55H-1.36V53ZM-5.39235 53.6266L-20.4323 16.2666L-22.2877 17.0134L-7.24765 54.3734L-5.39235 53.6266ZM-22.36 16.64V54H-20.36V16.64H-22.36ZM-21.36 53H-32.72V55H-21.36V53ZM-31.72 54V0.639996H-33.72V54H-31.72ZM-32.72 1.64H-16.8V-0.360004H-32.72V1.64ZM-17.7278 1.01297L-4.76784 33.253L-2.91216 32.507L-15.8722 0.267017L-17.7278 1.01297ZM-2.91216 33.253L10.0478 1.01297L8.19217 0.267017L-4.76784 32.507L-2.91216 33.253ZM9.12 1.64H25.12V-0.360004H9.12V1.64ZM24.12 0.639996V54H26.12V0.639996H24.12ZM85.4775 54V55H86.9345L86.4106 53.6405L85.4775 54ZM72.5175 54L71.5775 54.3411L71.8165 55H72.5175V54ZM69.2375 44.96L70.1775 44.6189L69.9385 43.96H69.2375V44.96ZM46.3575 44.96V43.96H45.6623L45.4202 44.6116L46.3575 44.96ZM42.9975 54V55H43.6927L43.9348 54.3484L42.9975 54ZM30.0375 54L29.1048 53.6392L28.5785 55H30.0375V54ZM50.6775 0.639996V-0.360004H49.9921L49.7448 0.279238L50.6775 0.639996ZM64.9175 0.639996L65.8506 0.280455L65.6039 -0.360004H64.9175V0.639996ZM66.1175 34.96V35.96H67.5435L67.0577 34.6193L66.1175 34.96ZM57.7975 12L58.7377 11.6593L57.7975 9.06478L56.8573 11.6593L57.7975 12ZM49.4775 34.96L48.5373 34.6193L48.0515 35.96H49.4775V34.96ZM85.4775 53H72.5175V55H85.4775V53ZM73.4575 53.6589L70.1775 44.6189L68.2975 45.3011L71.5775 54.3411L73.4575 53.6589ZM69.2375 43.96H46.3575V45.96H69.2375V43.96ZM45.4202 44.6116L42.0602 53.6516L43.9348 54.3484L47.2948 45.3084L45.4202 44.6116ZM42.9975 53H30.0375V55H42.9975V53ZM30.9702 54.3608L51.6102 1.00075L49.7448 0.279238L29.1048 53.6392L30.9702 54.3608ZM50.6775 1.64H64.9175V-0.360004H50.6775V1.64ZM63.9844 0.999537L84.5444 54.3595L86.4106 53.6405L65.8506 0.280455L63.9844 0.999537ZM67.0577 34.6193L58.7377 11.6593L56.8573 12.3407L65.1773 35.3007L67.0577 34.6193ZM56.8573 11.6593L48.5373 34.6193L50.4177 35.3007L58.7377 12.3407L56.8573 11.6593ZM49.4775 35.96H66.1175V33.96H49.4775V35.96ZM136.085 54V55H138.165L136.866 53.3756L136.085 54ZM122.085 54L121.288 54.6033L121.588 55H122.085V54ZM105.925 32.64L106.722 32.0367L105.965 31.0358L105.159 31.9974L105.925 32.64ZM101.765 37.6L100.999 36.9574L100.765 37.2362V37.6H101.765ZM101.765 54V55H102.765V54H101.765ZM90.405 54H89.405V55H90.405V54ZM90.405 0.639996V-0.360004H89.405V0.639996H90.405ZM101.765 0.639996H102.765V-0.360004H101.765V0.639996ZM101.765 24.48H100.765V27.3534L102.549 25.1008L101.765 24.48ZM120.645 0.639996V-0.360004H120.161L119.861 0.0191574L120.645 0.639996ZM134.645 0.639996L135.408 1.28616L136.802 -0.360004H134.645V0.639996ZM113.445 25.68L112.682 25.0338L112.15 25.6618L112.664 26.3044L113.445 25.68ZM136.085 53H122.085V55H136.085V53ZM122.882 53.3967L106.722 32.0367L105.128 33.2433L121.288 54.6033L122.882 53.3967ZM105.159 31.9974L100.999 36.9574L102.531 38.2426L106.691 33.2826L105.159 31.9974ZM100.765 37.6V54H102.765V37.6H100.765ZM101.765 53H90.405V55H101.765V53ZM91.405 54V0.639996H89.405V54H91.405ZM90.405 1.64H101.765V-0.360004H90.405V1.64ZM100.765 0.639996V24.48H102.765V0.639996H100.765ZM102.549 25.1008L121.429 1.26083L119.861 0.0191574L100.981 23.8592L102.549 25.1008ZM120.645 1.64H134.645V-0.360004H120.645V1.64ZM133.882 -0.00616455L112.682 25.0338L114.208 26.3262L135.408 1.28616L133.882 -0.00616455ZM112.664 26.3044L135.304 54.6244L136.866 53.3756L114.226 25.0556L112.664 26.3044ZM179.024 54V55H180.024V54H179.024ZM141.264 54H140.264V55H141.264V54ZM141.264 0.639996V-0.360004H140.264V0.639996H141.264ZM179.024 0.639996H180.024V-0.360004H179.024V0.639996ZM179.024 10.64V11.64H180.024V10.64H179.024ZM152.624 10.64V9.64H151.624V10.64H152.624ZM152.624 21.92H151.624V22.92H152.624V21.92ZM178.464 21.92H179.464V20.92H178.464V21.92ZM178.464 31.92V32.92H179.464V31.92H178.464ZM152.624 31.92V30.92H151.624V31.92H152.624ZM152.624 44H151.624V45H152.624V44ZM179.024 44H180.024V43H179.024V44ZM179.024 53H141.264V55H179.024V53ZM142.264 54V0.639996H140.264V54H142.264ZM141.264 1.64H179.024V-0.360004H141.264V1.64ZM178.024 0.639996V10.64H180.024V0.639996H178.024ZM179.024 9.64H152.624V11.64H179.024V9.64ZM151.624 10.64V21.92H153.624V10.64H151.624ZM152.624 22.92H178.464V20.92H152.624V22.92ZM177.464 21.92V31.92H179.464V21.92H177.464ZM178.464 30.92H152.624V32.92H178.464V30.92ZM151.624 31.92V44H153.624V31.92H151.624ZM152.624 45H179.024V43H152.624V45ZM178.024 44V54H180.024V44H178.024ZM258.134 54V55H259.591L259.067 53.6405L258.134 54ZM245.174 54L244.234 54.3411L244.473 55H245.174V54ZM241.894 44.96L242.834 44.6189L242.595 43.96H241.894V44.96ZM219.014 44.96V43.96H218.319L218.076 44.6116L219.014 44.96ZM215.654 54V55H216.349L216.591 54.3484L215.654 54ZM202.694 54L201.761 53.6392L201.235 55H202.694V54ZM223.334 0.639996V-0.360004H222.648L222.401 0.279238L223.334 0.639996ZM237.574 0.639996L238.507 0.280455L238.26 -0.360004H237.574V0.639996ZM238.774 34.96V35.96H240.2L239.714 34.6193L238.774 34.96ZM230.454 12L231.394 11.6593L230.454 9.06478L229.514 11.6593L230.454 12ZM222.134 34.96L221.194 34.6193L220.708 35.96H222.134V34.96ZM258.134 53H245.174V55H258.134V53ZM246.114 53.6589L242.834 44.6189L240.954 45.3011L244.234 54.3411L246.114 53.6589ZM241.894 43.96H219.014V45.96H241.894V43.96ZM218.076 44.6116L214.716 53.6516L216.591 54.3484L219.951 45.3084L218.076 44.6116ZM215.654 53H202.694V55H215.654V53ZM203.626 54.3608L224.266 1.00075L222.401 0.279238L201.761 53.6392L203.626 54.3608ZM223.334 1.64H237.574V-0.360004H223.334V1.64ZM236.641 0.999537L257.201 54.3595L259.067 53.6405L238.507 0.280455L236.641 0.999537ZM239.714 34.6193L231.394 11.6593L229.514 12.3407L237.834 35.3007L239.714 34.6193ZM229.514 11.6593L221.194 34.6193L223.074 35.3007L231.394 12.3407L229.514 11.6593ZM222.134 35.96H238.774V33.96H222.134V35.96ZM306.261 54V55H308.013L307.122 53.4915L306.261 54ZM293.221 54L292.346 54.4838L292.631 55H293.221V54ZM282.741 35.04L283.616 34.5562L283.331 34.04H282.741V35.04ZM274.421 35.04V34.04H273.421V35.04H274.421ZM274.421 54V55H275.421V54H274.421ZM263.061 54H262.061V55H263.061V54ZM263.061 0.639996V-0.360004H262.061V0.639996H263.061ZM301.061 5.43999L300.354 6.14713L300.36 6.15292L301.061 5.43999ZM302.501 28.48L301.737 27.8354L301.729 27.8443L302.501 28.48ZM294.261 33.68L294.038 32.7053L292.705 33.0112L293.4 34.1885L294.261 33.68ZM292.101 23.12L292.752 23.8793L292.76 23.8727L292.767 23.8659L292.101 23.12ZM292.101 12.64L291.435 13.3859L291.443 13.3927L291.45 13.3993L292.101 12.64ZM274.421 10.64V9.64H273.421V10.64H274.421ZM274.421 25.04H273.421V26.04H274.421V25.04ZM306.261 53H293.221V55H306.261V53ZM294.096 53.5162L283.616 34.5562L281.866 35.5238L292.346 54.4838L294.096 53.5162ZM282.741 34.04H274.421V36.04H282.741V34.04ZM273.421 35.04V54H275.421V35.04H273.421ZM274.421 53H263.061V55H274.421V53ZM264.061 54V0.639996H262.061V54H264.061ZM263.061 1.64H288.021V-0.360004H263.061V1.64ZM288.021 1.64C293.31 1.64 297.381 3.17347 300.354 6.1471L301.768 4.73289C298.342 1.30652 293.719 -0.360004 288.021 -0.360004V1.64ZM300.36 6.15292C303.4 9.14331 304.941 13.0089 304.941 17.84H306.941C306.941 12.5377 305.229 8.13668 301.762 4.72707L300.36 6.15292ZM304.941 17.84C304.941 22.0334 303.845 25.3344 301.737 27.8354L303.266 29.1246C305.744 26.1856 306.941 22.3932 306.941 17.84H304.941ZM301.729 27.8443C299.621 30.404 297.063 32.0109 294.038 32.7053L294.485 34.6547C297.966 33.8558 300.901 31.9959 303.273 29.1157L301.729 27.8443ZM293.4 34.1885L305.4 54.5085L307.122 53.4915L295.122 33.1715L293.4 34.1885ZM286.341 26.04C288.878 26.04 291.044 25.3434 292.752 23.8793L291.45 22.3607C290.172 23.4566 288.498 24.04 286.341 24.04V26.04ZM292.767 23.8659C294.494 22.3241 295.341 20.2821 295.341 17.84H293.341C293.341 19.7713 292.695 21.2492 291.435 22.3741L292.767 23.8659ZM295.341 17.84C295.341 15.3981 294.493 13.3734 292.752 11.8807L291.45 13.3993C292.696 14.4666 293.341 15.9086 293.341 17.84H295.341ZM292.767 11.8941C291.06 10.3695 288.889 9.64 286.341 9.64V11.64C288.487 11.64 290.156 12.2438 291.435 13.3859L292.767 11.8941ZM286.341 9.64H274.421V11.64H286.341V9.64ZM273.421 10.64V25.04H275.421V10.64H273.421ZM274.421 26.04H286.341V24.04H274.421V26.04ZM337.446 54V55H338.446V54H337.446ZM326.006 54H325.006V55H326.006V54ZM326.006 10.64H327.006V9.64H326.006V10.64ZM310.406 10.64H309.406V11.64H310.406V10.64ZM310.406 0.639996V-0.360004H309.406V0.639996H310.406ZM352.966 0.639996H353.966V-0.360004H352.966V0.639996ZM352.966 10.64V11.64H353.966V10.64H352.966ZM337.446 10.64V9.64H336.446V10.64H337.446ZM337.446 53H326.006V55H337.446V53ZM327.006 54V10.64H325.006V54H327.006ZM326.006 9.64H310.406V11.64H326.006V9.64ZM311.406 10.64V0.639996H309.406V10.64H311.406ZM310.406 1.64H352.966V-0.360004H310.406V1.64ZM351.966 0.639996V10.64H353.966V0.639996H351.966ZM352.966 9.64H337.446V11.64H352.966V9.64ZM336.446 10.64V54H338.446V10.64H336.446Z" fill="#FCFFFF"/>
</svg>
