<svg width="24" height="24" viewBox="0 0 24 24" fill="none" xmlns="http://www.w3.org/2000/svg">
<path d="M12.24 2.3999C6.96001 2.3999 4.20001 5.7599 4.20001 9.4799C4.20001 11.2799 5.16001 13.0799 6.72001 14.0399C7.20001 14.2799 7.08001 14.0399 7.44001 12.5999C7.44001 12.4799 7.44001 12.3599 7.32001 12.2399C5.16001 9.5999 6.96001 4.4399 12 4.4399C19.32 4.4399 17.88 14.5199 13.32 14.5199C12.36 14.6399 11.52 13.9199 11.52 12.9599V12.4799C12 11.1599 12.36 9.9599 12.48 8.6399C12.48 6.1199 8.76001 6.4799 8.76001 9.8399C8.76001 10.4399 8.88001 11.0399 9.12001 11.5199C9.12001 11.5199 7.92001 16.4399 7.68001 17.2799C7.44001 18.7199 7.56001 20.1599 7.80001 21.4799C7.68001 21.5999 7.80001 21.5999 7.80001 21.5999H7.92001C8.76001 20.3999 9.48001 19.1999 9.96001 17.8799C10.08 17.2799 10.68 15.1199 10.68 15.1199C11.28 15.9599 12.36 16.4399 13.44 16.4399C17.16 16.4399 19.8 13.1999 19.8 9.2399C19.8 5.2799 16.44 2.3999 12.24 2.3999Z" fill="#FCFFFF"/>
</svg>
