<svg width="191" height="38" viewBox="0 0 191 38" fill="none" xmlns="http://www.w3.org/2000/svg">
<rect width="191" height="38" rx="12" fill="url(#paint0_linear_437_2607)"/>
<path d="M28.2878 24.192C26.4744 24.192 25.0398 23.6747 23.9838 22.64L25.4878 20.72C26.2451 21.4133 27.1678 21.76 28.2558 21.76C28.8104 21.76 29.2371 21.6427 29.5358 21.408C29.8451 21.1733 29.9998 20.88 29.9998 20.528C29.9998 20.1547 29.8558 19.856 29.5678 19.632C29.2798 19.408 28.8691 19.296 28.3358 19.296C27.4931 19.296 26.7891 19.5627 26.2238 20.096L24.3198 19.632V13.328H32.0638V15.728H27.0718V17.792C27.6584 17.2267 28.4211 16.944 29.3598 16.944C30.2984 16.944 31.1038 17.264 31.7758 17.904C32.4584 18.544 32.7998 19.3813 32.7998 20.416C32.7998 21.568 32.3944 22.4853 31.5838 23.168C30.7731 23.8507 29.6744 24.192 28.2878 24.192ZM34.9628 24.32H33.2188L37.0108 13.008H38.7548L34.9628 24.32ZM44.942 24H42.19V16.848L40.398 18.656L38.83 17.008L42.558 13.328H44.942V24ZM52.9143 23.728C52.3276 24.0373 51.6556 24.192 50.8983 24.192C50.1409 24.192 49.4636 24.0373 48.8663 23.728C48.2796 23.4187 47.7996 23.0027 47.4263 22.48C47.0636 21.9573 46.7863 21.376 46.5943 20.736C46.4129 20.0853 46.3223 19.3973 46.3223 18.672C46.3223 17.6907 46.4823 16.7947 46.8023 15.984C47.1223 15.1733 47.6343 14.5013 48.3383 13.968C49.0529 13.4347 49.9063 13.168 50.8983 13.168C51.8903 13.168 52.7383 13.4347 53.4423 13.968C54.1569 14.5013 54.6743 15.1733 54.9943 15.984C55.3143 16.7947 55.4743 17.6907 55.4743 18.672C55.4743 19.3973 55.3783 20.0853 55.1863 20.736C55.0049 21.376 54.7276 21.9573 54.3542 22.48C53.9916 23.0027 53.5116 23.4187 52.9143 23.728ZM49.1063 18.672C49.1063 20.7307 49.7036 21.76 50.8983 21.76C52.0929 21.76 52.6903 20.7307 52.6903 18.672C52.6903 16.624 52.0929 15.6 50.8983 15.6C49.7036 15.6 49.1063 16.624 49.1063 18.672ZM67.2476 24H66.0476V23.12C65.397 23.8347 64.5436 24.192 63.4876 24.192C62.773 24.192 62.1436 23.9627 61.5996 23.504C61.0556 23.0453 60.7836 22.4213 60.7836 21.632C60.7836 20.8213 61.0503 20.1973 61.5836 19.76C62.1276 19.312 62.7623 19.088 63.4876 19.088C64.5863 19.088 65.4396 19.44 66.0476 20.144V18.752C66.0476 18.24 65.8663 17.84 65.5036 17.552C65.141 17.264 64.6716 17.12 64.0956 17.12C63.189 17.12 62.3996 17.4773 61.7276 18.192L61.1676 17.36C61.989 16.5067 63.0183 16.08 64.2556 16.08C65.141 16.08 65.861 16.2933 66.4156 16.72C66.9703 17.1467 67.2476 17.8027 67.2476 18.688V24ZM63.9196 23.328C64.8796 23.328 65.589 23.008 66.0476 22.368V20.912C65.589 20.272 64.8796 19.952 63.9196 19.952C63.365 19.952 62.9063 20.112 62.5436 20.432C62.1916 20.7413 62.0156 21.1467 62.0156 21.648C62.0156 22.1387 62.1916 22.544 62.5436 22.864C62.9063 23.1733 63.365 23.328 63.9196 23.328ZM70.8531 24H69.6531V13.328H70.8531V24ZM74.4469 24H73.2469V16.272H74.4469V17.52C75.1615 16.5813 76.0202 16.112 77.0229 16.112V17.344C76.8735 17.312 76.7135 17.296 76.5429 17.296C76.1802 17.296 75.7855 17.424 75.3589 17.68C74.9322 17.936 74.6282 18.2187 74.4469 18.528V24ZM82.0161 24.192C80.8641 24.192 79.9201 23.8187 79.1841 23.072C78.4481 22.3147 78.0801 21.3333 78.0801 20.128C78.0801 18.9973 78.4428 18.0427 79.1681 17.264C79.8935 16.4747 80.8001 16.08 81.8881 16.08C83.0295 16.08 83.9308 16.4747 84.5921 17.264C85.2641 18.0427 85.6001 19.0293 85.6001 20.224V20.528H79.3441C79.3975 21.2853 79.6748 21.92 80.1761 22.432C80.6775 22.944 81.3281 23.2 82.1281 23.2C83.0881 23.2 83.8828 22.8747 84.5121 22.224L85.0881 23.008C84.2988 23.7973 83.2748 24.192 82.0161 24.192ZM84.4161 19.648C84.4055 18.9867 84.1815 18.3947 83.7441 17.872C83.3068 17.3387 82.6828 17.072 81.8721 17.072C81.1041 17.072 80.4961 17.3333 80.0481 17.856C79.6108 18.3787 79.3761 18.976 79.3441 19.648H84.4161ZM93.5758 24H92.3758V23.12C91.7251 23.8347 90.8718 24.192 89.8158 24.192C89.1011 24.192 88.4718 23.9627 87.9278 23.504C87.3838 23.0453 87.1118 22.4213 87.1118 21.632C87.1118 20.8213 87.3784 20.1973 87.9118 19.76C88.4558 19.312 89.0904 19.088 89.8158 19.088C90.9144 19.088 91.7678 19.44 92.3758 20.144V18.752C92.3758 18.24 92.1944 17.84 91.8318 17.552C91.4691 17.264 90.9998 17.12 90.4238 17.12C89.5171 17.12 88.7278 17.4773 88.0558 18.192L87.4958 17.36C88.3171 16.5067 89.3464 16.08 90.5838 16.08C91.4691 16.08 92.1891 16.2933 92.7438 16.72C93.2984 17.1467 93.5758 17.8027 93.5758 18.688V24ZM90.2478 23.328C91.2078 23.328 91.9171 23.008 92.3758 22.368V20.912C91.9171 20.272 91.2078 19.952 90.2478 19.952C89.6931 19.952 89.2344 20.112 88.8718 20.432C88.5198 20.7413 88.3438 21.1467 88.3438 21.648C88.3438 22.1387 88.5198 22.544 88.8718 22.864C89.2344 23.1733 89.6931 23.328 90.2478 23.328ZM102.781 24H101.581V22.848C100.92 23.744 100.051 24.192 98.9733 24.192C97.9493 24.192 97.1173 23.8293 96.4773 23.104C95.8479 22.368 95.5333 21.3813 95.5333 20.144C95.5333 18.9173 95.8479 17.936 96.4773 17.2C97.1173 16.4533 97.9493 16.08 98.9733 16.08C100.04 16.08 100.909 16.5333 101.581 17.44V13.328H102.781V24ZM99.2613 23.12C99.7306 23.12 100.179 23.0027 100.605 22.768C101.032 22.5333 101.357 22.2453 101.581 21.904V18.4C101.357 18.048 101.027 17.7547 100.589 17.52C100.163 17.2747 99.7199 17.152 99.2613 17.152C98.5039 17.152 97.9013 17.4347 97.4533 18C97.0053 18.5547 96.7812 19.2693 96.7812 20.144C96.7812 21.0187 97.0053 21.7333 97.4533 22.288C97.9013 22.8427 98.5039 23.12 99.2613 23.12ZM104.752 27.024L104.944 25.936C105.136 26.0213 105.355 26.064 105.6 26.064C105.878 26.064 106.107 26.0053 106.288 25.888C106.47 25.7707 106.624 25.5573 106.752 25.248L107.264 24.08L104.032 16.272H105.328L107.904 22.608L110.464 16.272H111.776L107.904 25.568C107.478 26.592 106.72 27.1147 105.632 27.136C105.312 27.136 105.019 27.0987 104.752 27.024ZM119.105 24.192C118.54 24.192 118.113 24.0373 117.825 23.728C117.537 23.4187 117.393 22.9707 117.393 22.384V17.328H116.113V16.272H117.393V14.16H118.593V16.272H120.161V17.328H118.593V22.128C118.593 22.4267 118.657 22.6667 118.785 22.848C118.924 23.0293 119.121 23.12 119.377 23.12C119.729 23.12 120.001 23.0133 120.193 22.8L120.545 23.696C120.193 24.0267 119.713 24.192 119.105 24.192ZM128 23.024C127.307 23.8027 126.384 24.192 125.232 24.192C124.08 24.192 123.152 23.8027 122.448 23.024C121.755 22.2453 121.408 21.28 121.408 20.128C121.408 18.976 121.755 18.016 122.448 17.248C123.152 16.4693 124.08 16.08 125.232 16.08C126.384 16.08 127.307 16.4693 128 17.248C128.704 18.016 129.056 18.976 129.056 20.128C129.056 21.28 128.704 22.2453 128 23.024ZM123.344 22.256C123.814 22.832 124.443 23.12 125.232 23.12C126.022 23.12 126.646 22.832 127.104 22.256C127.563 21.6693 127.792 20.96 127.792 20.128C127.792 19.296 127.563 18.592 127.104 18.016C126.646 17.44 126.022 17.152 125.232 17.152C124.443 17.152 123.814 17.4453 123.344 18.032C122.886 18.608 122.656 19.3067 122.656 20.128C122.656 20.96 122.886 21.6693 123.344 22.256ZM137.157 23.024C136.463 23.8027 135.541 24.192 134.389 24.192C133.237 24.192 132.309 23.8027 131.605 23.024C130.911 22.2453 130.565 21.28 130.565 20.128C130.565 18.976 130.911 18.016 131.605 17.248C132.309 16.4693 133.237 16.08 134.389 16.08C135.541 16.08 136.463 16.4693 137.157 17.248C137.861 18.016 138.213 18.976 138.213 20.128C138.213 21.28 137.861 22.2453 137.157 23.024ZM132.501 22.256C132.97 22.832 133.599 23.12 134.389 23.12C135.178 23.12 135.802 22.832 136.261 22.256C136.719 21.6693 136.949 20.96 136.949 20.128C136.949 19.296 136.719 18.592 136.261 18.016C135.802 17.44 135.178 17.152 134.389 17.152C133.599 17.152 132.97 17.4453 132.501 18.032C132.042 18.608 131.812 19.3067 131.812 20.128C131.812 20.96 132.042 21.6693 132.501 22.256ZM146.969 24H145.433L142.649 20.528L141.369 21.792V24H140.169V13.328H141.369V20.384L145.433 16.272H146.953L143.529 19.776L146.969 24ZM151.829 24.192C150.677 24.192 149.733 23.8187 148.997 23.072C148.261 22.3147 147.893 21.3333 147.893 20.128C147.893 18.9973 148.255 18.0427 148.981 17.264C149.706 16.4747 150.613 16.08 151.701 16.08C152.842 16.08 153.743 16.4747 154.405 17.264C155.077 18.0427 155.413 19.0293 155.413 20.224V20.528H149.157C149.21 21.2853 149.487 21.92 149.989 22.432C150.49 22.944 151.141 23.2 151.941 23.2C152.901 23.2 153.695 22.8747 154.325 22.224L154.901 23.008C154.111 23.7973 153.087 24.192 151.829 24.192ZM154.229 19.648C154.218 18.9867 153.994 18.3947 153.557 17.872C153.119 17.3387 152.495 17.072 151.685 17.072C150.917 17.072 150.309 17.3333 149.861 17.856C149.423 18.3787 149.189 18.976 149.157 19.648H154.229ZM163.772 24H162.572V18.944C162.572 18.2933 162.423 17.8347 162.124 17.568C161.826 17.2907 161.399 17.152 160.844 17.152C160.396 17.152 159.959 17.2693 159.532 17.504C159.116 17.7387 158.791 18.0213 158.556 18.352V24H157.356V16.272H158.556V17.392C158.855 17.04 159.255 16.736 159.756 16.48C160.258 16.2133 160.775 16.08 161.308 16.08C162.951 16.08 163.772 16.912 163.772 18.576V24ZM167.305 21.008H166.313L166.057 13.328H167.561L167.305 21.008ZM167.417 23.904C167.246 24.0747 167.043 24.16 166.809 24.16C166.574 24.16 166.366 24.0747 166.185 23.904C166.014 23.7227 165.929 23.5147 165.929 23.28C165.929 23.0347 166.014 22.8267 166.185 22.656C166.355 22.4853 166.563 22.4 166.809 22.4C167.054 22.4 167.262 22.4853 167.433 22.656C167.603 22.8267 167.689 23.0347 167.689 23.28C167.689 23.5147 167.598 23.7227 167.417 23.904Z" fill="#1D1F21"/>
<defs>
<linearGradient id="paint0_linear_437_2607" x1="12.702" y1="15.4375" x2="144.924" y2="71.0398" gradientUnits="userSpaceOnUse">
<stop stop-color="#68C9FF"/>
<stop offset="0.994746" stop-color="#D1B5FF"/>
</linearGradient>
</defs>
</svg>
