<svg width="28" height="28" viewBox="0 0 28 28" fill="none" xmlns="http://www.w3.org/2000/svg">
<path fill-rule="evenodd" clip-rule="evenodd" d="M8.55232 2.33398H19.4478C23.4157 2.33398 25.6557 4.58448 25.6673 8.55232V19.449C25.6673 23.4157 23.4157 25.6673 19.4478 25.6673H8.55232C4.58448 25.6673 2.33398 23.4157 2.33398 19.449V8.55232C2.33398 4.58448 4.58448 2.33398 8.55232 2.33398ZM14.0584 20.8373C14.5613 20.8373 14.9801 20.464 15.0268 19.9623V8.07396C15.0734 7.71229 14.8996 7.34946 14.5846 7.15229C14.2568 6.95396 13.8601 6.95396 13.5463 7.15229C13.2301 7.34946 13.0563 7.71229 13.0901 8.07396V19.9623C13.1496 20.464 13.5684 20.8373 14.0584 20.8373ZM19.4251 20.8373C19.9151 20.8373 20.3339 20.464 20.3934 19.9623V16.1357C20.4272 15.7612 20.2534 15.4123 19.9372 15.214C19.6234 15.0157 19.2267 15.0157 18.9001 15.214C18.5839 15.4123 18.4101 15.7612 18.4567 16.1357V19.9623C18.5034 20.464 18.9222 20.8373 19.4251 20.8373ZM9.59033 19.9623C9.54366 20.464 9.12483 20.8373 8.622 20.8373C8.12033 20.8373 7.70033 20.464 7.65483 19.9623V11.9007C7.61983 11.5378 7.79366 11.1773 8.10983 10.979C8.42366 10.7807 8.8215 10.7807 9.1365 10.979C9.45033 11.1773 9.6265 11.5378 9.59033 11.9007V19.9623Z" fill="url(#paint0_linear_1_523)"/>
<defs>
<linearGradient id="paint0_linear_1_523" x1="3.88571" y1="11.8131" x2="22.7628" y2="13.3925" gradientUnits="userSpaceOnUse">
<stop stop-color="#68C9FF"/>
<stop offset="0.994746" stop-color="#D1B5FF"/>
</linearGradient>
</defs>
</svg>
