<svg width="24" height="25" viewBox="0 0 24 25" fill="none" xmlns="http://www.w3.org/2000/svg">
<path d="M7.0001 13.4998L14.5901 13.4998L11.2901 16.7898C11.1018 16.9781 10.996 17.2335 10.996 17.4998C10.996 17.7661 11.1018 18.0215 11.2901 18.2098C11.4784 18.3981 11.7338 18.5039 12.0001 18.5039C12.2664 18.5039 12.5218 18.3981 12.7101 18.2098L17.7101 13.2098C17.8011 13.1147 17.8725 13.0026 17.9201 12.8798C18.0201 12.6364 18.0201 12.3633 17.9201 12.1198C17.8725 11.9971 17.8011 11.8849 17.7101 11.7898L12.7101 6.78982C12.6171 6.69609 12.5065 6.62169 12.3847 6.57092C12.2628 6.52015 12.1321 6.49402 12.0001 6.49402C11.8681 6.49402 11.7374 6.52015 11.6155 6.57092C11.4937 6.62169 11.3831 6.69609 11.2901 6.78982C11.1964 6.88278 11.122 6.99338 11.0712 7.11524C11.0204 7.2371 10.9943 7.3678 10.9943 7.49981C10.9943 7.63183 11.0204 7.76253 11.0712 7.88439C11.122 8.00625 11.1964 8.11685 11.2901 8.20981L14.5901 11.4998L7.0001 11.4998C6.73489 11.4998 6.48053 11.6052 6.293 11.7927C6.10546 11.9802 6.0001 12.2346 6.0001 12.4998C6.0001 12.765 6.10546 13.0194 6.293 13.2069C6.48053 13.3945 6.73489 13.4998 7.0001 13.4998Z" fill="url(#paint0_linear_1_1163)"/>
<defs>
<linearGradient id="paint0_linear_1_1163" x1="17.1974" y1="13.6249" x2="7.49307" y2="12.814" gradientUnits="userSpaceOnUse">
<stop stop-color="#68C9FF"/>
<stop offset="0.994746" stop-color="#D1B5FF"/>
</linearGradient>
</defs>
</svg>
