<svg width="272" height="54" viewBox="0 0 272 54" fill="none" xmlns="http://www.w3.org/2000/svg">
<path opacity="0.2" d="M27.6 54V55H28.6V54H27.6ZM16.24 54H15.24V55H16.24V54ZM16.24 15.28H17.24V12.835L15.5266 14.5792L16.24 15.28ZM7.36 24.32L6.63607 25.0099L7.3491 25.7581L8.07339 25.0208L7.36 24.32ZM0.88 17.52L0.171216 16.8146L-0.515782 17.5048L0.156065 18.2099L0.88 17.52ZM17.68 0.639996V-0.360004H17.2644L16.9712 -0.0654297L17.68 0.639996ZM27.6 0.639996H28.6V-0.360004H27.6V0.639996ZM27.6 53H16.24V55H27.6V53ZM17.24 54V15.28H15.24V54H17.24ZM15.5266 14.5792L6.64661 23.6192L8.07339 25.0208L16.9534 15.9808L15.5266 14.5792ZM8.08394 23.6301L1.60394 16.8301L0.156065 18.2099L6.63607 25.0099L8.08394 23.6301ZM1.58878 18.2254L18.3888 1.34542L16.9712 -0.0654297L0.171216 16.8146L1.58878 18.2254ZM17.68 1.64H27.6V-0.360004H17.68V1.64ZM26.6 0.639996V54H28.6V0.639996H26.6ZM111.519 54V55H112.274L112.481 54.274L111.519 54ZM99.4394 54L98.4705 54.2475L98.6627 55H99.4394V54ZM90.0794 17.36L91.0483 17.1125L89.11 17.1145L90.0794 17.36ZM80.7994 54V55H81.5777L81.7688 54.2455L80.7994 54ZM68.7194 54L67.758 54.2753L67.9655 55H68.7194V54ZM53.4394 0.639996V-0.360004H52.1128L52.478 0.915287L53.4394 0.639996ZM66.1594 0.639996L67.1312 0.404106L66.9457 -0.360004H66.1594V0.639996ZM75.5194 39.2L74.5476 39.4359L76.4864 39.4548L75.5194 39.2ZM85.6794 0.639996V-0.360004H84.9087L84.7124 0.385206L85.6794 0.639996ZM94.5594 0.639996L95.5269 0.387083L95.3316 -0.360004H94.5594V0.639996ZM104.639 39.2L103.672 39.4529L105.612 39.434L104.639 39.2ZM113.919 0.639996V-0.360004H113.131L112.947 0.406012L113.919 0.639996ZM126.719 0.639996L127.681 0.913956L128.044 -0.360004H126.719V0.639996ZM111.519 53H99.4394V55H111.519V53ZM100.408 53.7525L91.0483 17.1125L89.1105 17.6075L98.4705 54.2475L100.408 53.7525ZM89.11 17.1145L79.83 53.7545L81.7688 54.2455L91.0488 17.6055L89.11 17.1145ZM80.7994 53H68.7194V55H80.7994V53ZM69.6807 53.7247L54.4007 0.364704L52.478 0.915287L67.758 54.2753L69.6807 53.7247ZM53.4394 1.64H66.1594V-0.360004H53.4394V1.64ZM65.1876 0.875885L74.5476 39.4359L76.4912 38.9641L67.1312 0.404106L65.1876 0.875885ZM76.4864 39.4548L86.6464 0.894785L84.7124 0.385206L74.5524 38.9452L76.4864 39.4548ZM85.6794 1.64H94.5594V-0.360004H85.6794V1.64ZM93.5919 0.892908L103.672 39.4529L105.607 38.9471L95.5269 0.387083L93.5919 0.892908ZM105.612 39.434L114.892 0.87398L112.947 0.406012L103.667 38.966L105.612 39.434ZM113.919 1.64H126.719V-0.360004H113.919V1.64ZM125.758 0.366035L110.558 53.726L112.481 54.274L127.681 0.913956L125.758 0.366035ZM169.837 54V55H170.837V54H169.837ZM132.077 54H131.077V55H132.077V54ZM132.077 0.639996V-0.360004H131.077V0.639996H132.077ZM169.837 0.639996H170.837V-0.360004H169.837V0.639996ZM169.837 10.64V11.64H170.837V10.64H169.837ZM143.437 10.64V9.64H142.437V10.64H143.437ZM143.437 21.92H142.437V22.92H143.437V21.92ZM169.277 21.92H170.277V20.92H169.277V21.92ZM169.277 31.92V32.92H170.277V31.92H169.277ZM143.437 31.92V30.92H142.437V31.92H143.437ZM143.437 44H142.437V45H143.437V44ZM169.837 44H170.837V43H169.837V44ZM169.837 53H132.077V55H169.837V53ZM133.077 54V0.639996H131.077V54H133.077ZM132.077 1.64H169.837V-0.360004H132.077V1.64ZM168.837 0.639996V10.64H170.837V0.639996H168.837ZM169.837 9.64H143.437V11.64H169.837V9.64ZM142.437 10.64V21.92H144.437V10.64H142.437ZM143.437 22.92H169.277V20.92H143.437V22.92ZM168.277 21.92V31.92H170.277V21.92H168.277ZM169.277 30.92H143.437V32.92H169.277V30.92ZM142.437 31.92V44H144.437V31.92H142.437ZM143.437 45H169.837V43H143.437V45ZM168.837 44V54H170.837V44H168.837ZM216.478 54V55H217.478V54H216.478ZM178.717 54H177.717V55H178.717V54ZM178.717 0.639996V-0.360004H177.717V0.639996H178.717ZM216.478 0.639996H217.478V-0.360004H216.478V0.639996ZM216.478 10.64V11.64H217.478V10.64H216.478ZM190.077 10.64V9.64H189.077V10.64H190.077ZM190.077 21.92H189.077V22.92H190.077V21.92ZM215.917 21.92H216.917V20.92H215.917V21.92ZM215.917 31.92V32.92H216.917V31.92H215.917ZM190.077 31.92V30.92H189.077V31.92H190.077ZM190.077 44H189.077V45H190.077V44ZM216.478 44H217.478V43H216.478V44ZM216.478 53H178.717V55H216.478V53ZM179.717 54V0.639996H177.717V54H179.717ZM178.717 1.64H216.478V-0.360004H178.717V1.64ZM215.478 0.639996V10.64H217.478V0.639996H215.478ZM216.478 9.64H190.077V11.64H216.478V9.64ZM189.077 10.64V21.92H191.077V10.64H189.077ZM190.077 22.92H215.917V20.92H190.077V22.92ZM214.917 21.92V31.92H216.917V21.92H214.917ZM215.917 30.92H190.077V32.92H215.917V30.92ZM189.077 31.92V44H191.077V31.92H189.077ZM190.077 45H216.478V43H190.077V45ZM215.478 44V54H217.478V44H215.478ZM271.038 54V55H273.118L271.819 53.3756L271.038 54ZM257.038 54L256.241 54.6033L256.541 55H257.038V54ZM240.878 32.64L241.676 32.0367L240.918 31.0358L240.112 31.9974L240.878 32.64ZM236.718 37.6L235.952 36.9574L235.718 37.2362V37.6H236.718ZM236.718 54V55H237.718V54H236.718ZM225.358 54H224.358V55H225.358V54ZM225.358 0.639996V-0.360004H224.358V0.639996H225.358ZM236.718 0.639996H237.718V-0.360004H236.718V0.639996ZM236.718 24.48H235.718V27.3534L237.502 25.1008L236.718 24.48ZM255.598 0.639996V-0.360004H255.114L254.814 0.0191574L255.598 0.639996ZM269.598 0.639996L270.361 1.28616L271.755 -0.360004H269.598V0.639996ZM248.398 25.68L247.635 25.0338L247.103 25.6618L247.617 26.3044L248.398 25.68ZM271.038 53H257.038V55H271.038V53ZM257.836 53.3967L241.676 32.0367L240.081 33.2433L256.241 54.6033L257.836 53.3967ZM240.112 31.9974L235.952 36.9574L237.484 38.2426L241.644 33.2826L240.112 31.9974ZM235.718 37.6V54H237.718V37.6H235.718ZM236.718 53H225.358V55H236.718V53ZM226.358 54V0.639996H224.358V54H226.358ZM225.358 1.64H236.718V-0.360004H225.358V1.64ZM235.718 0.639996V24.48H237.718V0.639996H235.718ZM237.502 25.1008L256.382 1.26083L254.814 0.0191574L235.934 23.8592L237.502 25.1008ZM255.598 1.64H269.598V-0.360004H255.598V1.64ZM268.835 -0.00616455L247.635 25.0338L249.161 26.3262L270.361 1.28616L268.835 -0.00616455ZM247.617 26.3044L270.257 54.6244L271.819 53.3756L249.179 25.0556L247.617 26.3044Z" fill="#FCFFFF"/>
</svg>
