<svg width="275" height="80" viewBox="0 0 275 80" fill="none" xmlns="http://www.w3.org/2000/svg">
<path d="M0 8C0 3.58172 3.58172 0 8 0H275V80H7.99999C3.58171 80 0 76.4183 0 72V8Z" fill="url(#paint0_linear_405_2921)"/>
<path d="M34.932 39.312C32.3147 39.312 30.148 38.4713 28.432 36.79C26.7333 35.0913 25.884 32.942 25.884 30.342C25.884 27.742 26.7333 25.6013 28.432 23.92C30.148 22.2213 32.3147 21.372 34.932 21.372C37.5667 21.372 39.7333 22.2127 41.432 23.894C43.148 25.5753 44.006 27.7247 44.006 30.342C44.006 32.9593 43.148 35.1087 41.432 36.79C39.7333 38.4713 37.5667 39.312 34.932 39.312ZM31.11 34.424C32.0807 35.4987 33.3547 36.036 34.932 36.036C36.5093 36.036 37.7833 35.4987 38.754 34.424C39.7247 33.3493 40.21 31.9887 40.21 30.342C40.21 28.6953 39.7247 27.3347 38.754 26.26C37.7833 25.1853 36.5093 24.648 34.932 24.648C33.3547 24.648 32.0807 25.1853 31.11 26.26C30.1567 27.3347 29.68 28.6953 29.68 30.342C29.68 31.9887 30.1567 33.3493 31.11 34.424ZM58.2969 39H54.9949V31.408C54.9949 29.848 54.2235 29.068 52.6809 29.068C51.4849 29.068 50.5315 29.562 49.8209 30.55V39H46.5189V26.442H49.8209V28.08C50.9129 26.78 52.3775 26.13 54.2149 26.13C55.5669 26.13 56.5809 26.4853 57.2569 27.196C57.9502 27.9067 58.2969 28.886 58.2969 30.134V39ZM67.4775 39.312C65.5362 39.312 63.9328 38.7053 62.6675 37.492C61.4022 36.2787 60.7695 34.684 60.7695 32.708C60.7695 30.8533 61.3762 29.2933 62.5895 28.028C63.8202 26.7627 65.3802 26.13 67.2695 26.13C69.1415 26.13 70.6582 26.7713 71.8195 28.054C72.9808 29.3193 73.5615 30.9833 73.5615 33.046V33.774H64.2275C64.3315 34.606 64.7042 35.2993 65.3455 35.854C65.9868 36.4087 66.8188 36.686 67.8415 36.686C68.3962 36.686 68.9942 36.5733 69.6355 36.348C70.2942 36.1227 70.8142 35.8193 71.1955 35.438L72.6515 37.57C71.3862 38.7313 69.6615 39.312 67.4775 39.312ZM70.3635 31.538C70.3115 30.8273 70.0255 30.186 69.5055 29.614C69.0028 29.042 68.2575 28.756 67.2695 28.756C66.3335 28.756 65.6055 29.042 65.0855 29.614C64.5655 30.1687 64.2622 30.81 64.1755 31.538H70.3635ZM97.1329 39H93.6229L90.9709 30.446L88.3189 39H84.7829L80.9609 26.442H84.3929L86.7329 34.892L89.4889 26.442H92.4269L95.1829 34.892L97.5229 26.442H100.955L97.1329 39ZM108.483 39.312C106.542 39.312 104.939 38.7053 103.673 37.492C102.408 36.2787 101.775 34.684 101.775 32.708C101.775 30.8533 102.382 29.2933 103.595 28.028C104.826 26.7627 106.386 26.13 108.275 26.13C110.147 26.13 111.664 26.7713 112.825 28.054C113.987 29.3193 114.567 30.9833 114.567 33.046V33.774H105.233C105.337 34.606 105.71 35.2993 106.351 35.854C106.993 36.4087 107.825 36.686 108.847 36.686C109.402 36.686 110 36.5733 110.641 36.348C111.3 36.1227 111.82 35.8193 112.201 35.438L113.657 37.57C112.392 38.7313 110.667 39.312 108.483 39.312ZM111.369 31.538C111.317 30.8273 111.031 30.186 110.511 29.614C110.009 29.042 109.263 28.756 108.275 28.756C107.339 28.756 106.611 29.042 106.091 29.614C105.571 30.1687 105.268 30.81 105.181 31.538H111.369ZM122.854 39.312C120.913 39.312 119.31 38.7053 118.044 37.492C116.779 36.2787 116.146 34.684 116.146 32.708C116.146 30.8533 116.753 29.2933 117.966 28.028C119.197 26.7627 120.757 26.13 122.646 26.13C124.518 26.13 126.035 26.7713 127.196 28.054C128.358 29.3193 128.938 30.9833 128.938 33.046V33.774H119.604C119.708 34.606 120.081 35.2993 120.722 35.854C121.364 36.4087 122.196 36.686 123.218 36.686C123.773 36.686 124.371 36.5733 125.012 36.348C125.671 36.1227 126.191 35.8193 126.572 35.438L128.028 37.57C126.763 38.7313 125.038 39.312 122.854 39.312ZM125.74 31.538C125.688 30.8273 125.402 30.186 124.882 29.614C124.38 29.042 123.634 28.756 122.646 28.756C121.71 28.756 120.982 29.042 120.462 29.614C119.942 30.1687 119.639 30.81 119.552 31.538H125.74ZM143.596 39H139.462L136.134 34.164L134.626 35.776V39H131.324V21.658H134.626V32.032L139.384 26.442H143.44L138.474 32.136L143.596 39ZM162.732 39H159.43V37.7C158.529 38.7747 157.203 39.312 155.452 39.312C154.325 39.312 153.311 38.948 152.41 38.22C151.526 37.4747 151.084 36.452 151.084 35.152C151.084 33.8 151.517 32.786 152.384 32.11C153.268 31.434 154.291 31.096 155.452 31.096C157.237 31.096 158.563 31.6073 159.43 32.63V30.94C159.43 30.2987 159.179 29.7873 158.676 29.406C158.173 29.0247 157.506 28.834 156.674 28.834C155.305 28.834 154.083 29.328 153.008 30.316L151.76 28.106C153.251 26.7887 155.079 26.13 157.246 26.13C158.858 26.13 160.175 26.5027 161.198 27.248C162.221 27.9933 162.732 29.2067 162.732 30.888V39ZM156.778 37.076C158.009 37.076 158.893 36.712 159.43 35.984V34.424C158.893 33.696 158.009 33.332 156.778 33.332C156.102 33.332 155.539 33.5053 155.088 33.852C154.637 34.1813 154.412 34.6407 154.412 35.23C154.412 35.802 154.637 36.2527 155.088 36.582C155.539 36.9113 156.102 37.076 156.778 37.076ZM171.857 39.312C169.916 39.312 168.321 38.6967 167.073 37.466C165.825 36.2353 165.201 34.6493 165.201 32.708C165.201 30.784 165.825 29.2067 167.073 27.976C168.321 26.7453 169.916 26.13 171.857 26.13C174.076 26.13 175.731 26.884 176.823 28.392L174.665 30.42C174.058 29.5187 173.174 29.068 172.013 29.068C171.008 29.068 170.184 29.406 169.543 30.082C168.919 30.7407 168.607 31.616 168.607 32.708C168.607 33.8 168.919 34.684 169.543 35.36C170.184 36.036 171.008 36.374 172.013 36.374C173.14 36.374 174.024 35.9233 174.665 35.022L176.823 37.024C175.731 38.5493 174.076 39.312 171.857 39.312ZM184.832 39.312C182.89 39.312 181.296 38.6967 180.048 37.466C178.8 36.2353 178.176 34.6493 178.176 32.708C178.176 30.784 178.8 29.2067 180.048 27.976C181.296 26.7453 182.89 26.13 184.832 26.13C187.05 26.13 188.706 26.884 189.798 28.392L187.64 30.42C187.033 29.5187 186.149 29.068 184.988 29.068C183.982 29.068 183.159 29.406 182.518 30.082C181.894 30.7407 181.582 31.616 181.582 32.708C181.582 33.8 181.894 34.684 182.518 35.36C183.159 36.036 183.982 36.374 184.988 36.374C186.114 36.374 186.998 35.9233 187.64 35.022L189.798 37.024C188.706 38.5493 187.05 39.312 184.832 39.312ZM197.858 39.312C195.917 39.312 194.314 38.7053 193.048 37.492C191.783 36.2787 191.15 34.684 191.15 32.708C191.15 30.8533 191.757 29.2933 192.97 28.028C194.201 26.7627 195.761 26.13 197.65 26.13C199.522 26.13 201.039 26.7713 202.2 28.054C203.362 29.3193 203.942 30.9833 203.942 33.046V33.774H194.608C194.712 34.606 195.085 35.2993 195.726 35.854C196.368 36.4087 197.2 36.686 198.222 36.686C198.777 36.686 199.375 36.5733 200.016 36.348C200.675 36.1227 201.195 35.8193 201.576 35.438L203.032 37.57C201.767 38.7313 200.042 39.312 197.858 39.312ZM200.744 31.538C200.692 30.8273 200.406 30.186 199.886 29.614C199.384 29.042 198.638 28.756 197.65 28.756C196.714 28.756 195.986 29.042 195.466 29.614C194.946 30.1687 194.643 30.81 194.556 31.538H200.744ZM210.851 39.312C209.759 39.312 208.711 39.1387 207.705 38.792C206.717 38.4453 205.894 37.9687 205.235 37.362L206.665 35.048C207.151 35.4987 207.809 35.8973 208.641 36.244C209.473 36.5907 210.262 36.764 211.007 36.764C211.701 36.764 212.221 36.6427 212.567 36.4C212.931 36.1573 213.113 35.828 213.113 35.412C213.113 35.1 212.923 34.8487 212.541 34.658C212.177 34.45 211.718 34.3027 211.163 34.216C210.626 34.1293 210.028 33.9993 209.369 33.826C208.728 33.6527 208.13 33.4447 207.575 33.202C207.038 32.9593 206.579 32.578 206.197 32.058C205.833 31.5207 205.651 30.862 205.651 30.082C205.651 28.9727 206.111 28.0367 207.029 27.274C207.948 26.5113 209.205 26.13 210.799 26.13C212.741 26.13 214.431 26.702 215.869 27.846L214.543 30.108C214.145 29.692 213.607 29.3453 212.931 29.068C212.273 28.7907 211.571 28.652 210.825 28.652C210.236 28.652 209.759 28.7733 209.395 29.016C209.031 29.2413 208.849 29.536 208.849 29.9C208.849 30.1773 209.031 30.4113 209.395 30.602C209.759 30.7753 210.219 30.9053 210.773 30.992C211.328 31.0787 211.926 31.2173 212.567 31.408C213.209 31.5813 213.807 31.798 214.361 32.058C214.916 32.3007 215.375 32.6993 215.739 33.254C216.103 33.8087 216.285 34.4847 216.285 35.282C216.285 36.4607 215.8 37.4313 214.829 38.194C213.876 38.9393 212.55 39.312 210.851 39.312ZM223.242 39.312C222.15 39.312 221.101 39.1387 220.096 38.792C219.108 38.4453 218.285 37.9687 217.626 37.362L219.056 35.048C219.541 35.4987 220.2 35.8973 221.032 36.244C221.864 36.5907 222.653 36.764 223.398 36.764C224.091 36.764 224.611 36.6427 224.958 36.4C225.322 36.1573 225.504 35.828 225.504 35.412C225.504 35.1 225.313 34.8487 224.932 34.658C224.568 34.45 224.109 34.3027 223.554 34.216C223.017 34.1293 222.419 33.9993 221.76 33.826C221.119 33.6527 220.521 33.4447 219.966 33.202C219.429 32.9593 218.969 32.578 218.588 32.058C218.224 31.5207 218.042 30.862 218.042 30.082C218.042 28.9727 218.501 28.0367 219.42 27.274C220.339 26.5113 221.595 26.13 223.19 26.13C225.131 26.13 226.821 26.702 228.26 27.846L226.934 30.108C226.535 29.692 225.998 29.3453 225.322 29.068C224.663 28.7907 223.961 28.652 223.216 28.652C222.627 28.652 222.15 28.7733 221.786 29.016C221.422 29.2413 221.24 29.536 221.24 29.9C221.24 30.1773 221.422 30.4113 221.786 30.602C222.15 30.7753 222.609 30.9053 223.164 30.992C223.719 31.0787 224.317 31.2173 224.958 31.408C225.599 31.5813 226.197 31.798 226.752 32.058C227.307 32.3007 227.766 32.6993 228.13 33.254C228.494 33.8087 228.676 34.4847 228.676 35.282C228.676 36.4607 228.191 37.4313 227.22 38.194C226.267 38.9393 224.941 39.312 223.242 39.312Z" fill="#1D1F21"/>
<path opacity="0.7" d="M27.4044 59H26.2424V49.662H29.9944C30.8997 49.662 31.6137 49.9327 32.1364 50.474C32.6591 51.0153 32.9204 51.6827 32.9204 52.476C32.9204 53.2693 32.6544 53.9367 32.1224 54.478C31.5997 55.0193 30.8904 55.29 29.9944 55.29H27.4044V59ZM29.8544 54.254C30.4051 54.254 30.8531 54.0907 31.1984 53.764C31.5437 53.428 31.7164 52.9987 31.7164 52.476C31.7164 51.9533 31.5437 51.5287 31.1984 51.202C30.8531 50.866 30.4051 50.698 29.8544 50.698H27.4044V54.254H29.8544ZM40.0312 59H38.9812V58.048C38.7012 58.3653 38.3465 58.6313 37.9172 58.846C37.4972 59.0607 37.0492 59.168 36.5732 59.168C35.1359 59.168 34.4172 58.4493 34.4172 57.012V52.238H35.4672V56.69C35.4672 57.25 35.5932 57.6467 35.8452 57.88C36.1065 58.1133 36.4845 58.23 36.9792 58.23C37.3712 58.23 37.7492 58.132 38.1132 57.936C38.4865 57.74 38.7759 57.4973 38.9812 57.208V52.238H40.0312V59ZM43.1781 59H42.1281V52.238H43.1781V53.33C43.8035 52.5087 44.5548 52.098 45.4321 52.098V53.176C45.3015 53.148 45.1615 53.134 45.0121 53.134C44.6948 53.134 44.3495 53.246 43.9761 53.47C43.6028 53.694 43.3368 53.9413 43.1781 54.212V59ZM49.7312 59.168C48.7326 59.168 47.9206 58.832 47.2952 58.16C46.6699 57.4787 46.3572 56.6293 46.3572 55.612C46.3572 54.5947 46.6699 53.75 47.2952 53.078C47.9206 52.406 48.7326 52.07 49.7312 52.07C50.7766 52.07 51.6026 52.462 52.2092 53.246L51.5092 53.89C51.0799 53.302 50.5059 53.008 49.7872 53.008C49.0779 53.008 48.5086 53.2507 48.0792 53.736C47.6592 54.2213 47.4492 54.8467 47.4492 55.612C47.4492 56.3773 47.6592 57.0073 48.0792 57.502C48.5086 57.9873 49.0779 58.23 49.7872 58.23C50.4966 58.23 51.0706 57.936 51.5092 57.348L52.2092 57.992C51.6026 58.776 50.7766 59.168 49.7312 59.168ZM59.3089 59H58.2589V54.548C58.2589 53.988 58.1282 53.5913 57.8669 53.358C57.6055 53.1247 57.2275 53.008 56.7329 53.008C56.3502 53.008 55.9722 53.1107 55.5989 53.316C55.2349 53.5213 54.9455 53.7687 54.7309 54.058V59H53.6809V49.662H54.7309V53.218C54.9922 52.91 55.3422 52.644 55.7809 52.42C56.2195 52.1867 56.6769 52.07 57.1529 52.07C58.5902 52.07 59.3089 52.7887 59.3089 54.226V59ZM66.6835 59H65.6335V58.23C65.0641 58.8553 64.3175 59.168 63.3935 59.168C62.7681 59.168 62.2175 58.9673 61.7415 58.566C61.2655 58.1647 61.0275 57.6187 61.0275 56.928C61.0275 56.2187 61.2608 55.6727 61.7275 55.29C62.2035 54.898 62.7588 54.702 63.3935 54.702C64.3548 54.702 65.1015 55.01 65.6335 55.626V54.408C65.6335 53.96 65.4748 53.61 65.1575 53.358C64.8401 53.106 64.4295 52.98 63.9255 52.98C63.1321 52.98 62.4415 53.2927 61.8535 53.918L61.3635 53.19C62.0821 52.4433 62.9828 52.07 64.0655 52.07C64.8401 52.07 65.4701 52.2567 65.9555 52.63C66.4408 53.0033 66.6835 53.5773 66.6835 54.352V59ZM63.7715 58.412C64.6115 58.412 65.2321 58.132 65.6335 57.572V56.298C65.2321 55.738 64.6115 55.458 63.7715 55.458C63.2861 55.458 62.8848 55.598 62.5675 55.878C62.2595 56.1487 62.1055 56.5033 62.1055 56.942C62.1055 57.3713 62.2595 57.726 62.5675 58.006C62.8848 58.2767 63.2861 58.412 63.7715 58.412ZM70.9303 59.168C69.7823 59.168 68.8723 58.8133 68.2003 58.104L68.7463 57.348C68.9796 57.6187 69.2969 57.8473 69.6983 58.034C70.1089 58.2207 70.5336 58.314 70.9723 58.314C71.4763 58.314 71.8683 58.2067 72.1483 57.992C72.4283 57.7773 72.5683 57.4973 72.5683 57.152C72.5683 56.8533 72.4236 56.62 72.1343 56.452C71.8449 56.2747 71.4949 56.144 71.0843 56.06C70.6829 55.9667 70.2769 55.864 69.8663 55.752C69.4556 55.6307 69.1056 55.43 68.8163 55.15C68.5269 54.8607 68.3823 54.4827 68.3823 54.016C68.3823 53.4653 68.6063 53.0033 69.0543 52.63C69.5116 52.2567 70.1276 52.07 70.9023 52.07C71.9196 52.07 72.7549 52.3967 73.4083 53.05L72.9183 53.778C72.4423 53.2087 71.7703 52.924 70.9023 52.924C70.4449 52.924 70.0809 53.0267 69.8103 53.232C69.5396 53.428 69.4043 53.68 69.4043 53.988C69.4043 54.2587 69.5489 54.4733 69.8383 54.632C70.1276 54.7813 70.4729 54.9027 70.8743 54.996C71.2849 55.08 71.6956 55.1827 72.1063 55.304C72.5169 55.4253 72.8669 55.64 73.1563 55.948C73.4456 56.2467 73.5903 56.6387 73.5903 57.124C73.5903 57.7213 73.3569 58.2113 72.8903 58.594C72.4236 58.9767 71.7703 59.168 70.9303 59.168ZM75.8141 51.272C75.6274 51.272 75.4641 51.2067 75.3241 51.076C75.1841 50.936 75.1141 50.768 75.1141 50.572C75.1141 50.376 75.1841 50.208 75.3241 50.068C75.4641 49.928 75.6274 49.858 75.8141 49.858C76.0101 49.858 76.1781 49.928 76.3181 50.068C76.4581 50.208 76.5281 50.376 76.5281 50.572C76.5281 50.768 76.4581 50.936 76.3181 51.076C76.1781 51.2067 76.0101 51.272 75.8141 51.272ZM76.3461 59H75.2961V52.238H76.3461V59ZM84.0546 59H83.0046V54.576C83.0046 54.0067 82.874 53.6053 82.6126 53.372C82.3513 53.1293 81.978 53.008 81.4926 53.008C81.1006 53.008 80.718 53.1107 80.3446 53.316C79.9806 53.5213 79.696 53.7687 79.4906 54.058V59H78.4406V52.238H79.4906V53.218C79.752 52.91 80.102 52.644 80.5406 52.42C80.9793 52.1867 81.432 52.07 81.8986 52.07C83.336 52.07 84.0546 52.798 84.0546 54.254V59ZM88.8676 61.744C88.2702 61.744 87.7616 61.6693 87.3416 61.52C86.9216 61.38 86.5202 61.1187 86.1376 60.736L86.6696 59.952C87.1829 60.568 87.9156 60.876 88.8676 60.876C89.4929 60.876 90.0109 60.708 90.4216 60.372C90.8322 60.0453 91.0376 59.5367 91.0376 58.846V57.88C90.7856 58.2347 90.4589 58.524 90.0576 58.748C89.6562 58.972 89.2269 59.084 88.7696 59.084C87.8736 59.084 87.1456 58.7713 86.5856 58.146C86.0349 57.5113 85.7596 56.6573 85.7596 55.584C85.7596 54.5107 86.0349 53.6567 86.5856 53.022C87.1456 52.3873 87.8736 52.07 88.7696 52.07C89.6936 52.07 90.4496 52.4667 91.0376 53.26V52.238H92.0876V58.804C92.0876 59.84 91.7842 60.5867 91.1776 61.044C90.5709 61.5107 89.8009 61.744 88.8676 61.744ZM89.0216 58.16C89.4229 58.16 89.8102 58.0527 90.1836 57.838C90.5662 57.6233 90.8509 57.362 91.0376 57.054V54.1C90.8509 53.792 90.5709 53.5353 90.1976 53.33C89.8242 53.1153 89.4322 53.008 89.0216 53.008C88.3496 53.008 87.8176 53.246 87.4256 53.722C87.0429 54.198 86.8516 54.8187 86.8516 55.584C86.8516 56.34 87.0476 56.9607 87.4396 57.446C87.8316 57.922 88.3589 58.16 89.0216 58.16ZM99.508 59.168C99.0133 59.168 98.64 59.0327 98.388 58.762C98.136 58.4913 98.01 58.0993 98.01 57.586V53.162H96.89V52.238H98.01V50.39H99.06V52.238H100.432V53.162H99.06V57.362C99.06 57.6233 99.116 57.8333 99.228 57.992C99.3493 58.1507 99.522 58.23 99.746 58.23C100.054 58.23 100.292 58.1367 100.46 57.95L100.768 58.734C100.46 59.0233 100.04 59.168 99.508 59.168ZM107.543 59H106.493V54.548C106.493 53.988 106.363 53.5913 106.101 53.358C105.84 53.1247 105.462 53.008 104.967 53.008C104.585 53.008 104.207 53.1107 103.833 53.316C103.469 53.5213 103.18 53.7687 102.965 54.058V59H101.915V49.662H102.965V53.218C103.227 52.91 103.577 52.644 104.015 52.42C104.454 52.1867 104.911 52.07 105.387 52.07C106.825 52.07 107.543 52.7887 107.543 54.226V59ZM110.158 51.272C109.971 51.272 109.808 51.2067 109.668 51.076C109.528 50.936 109.458 50.768 109.458 50.572C109.458 50.376 109.528 50.208 109.668 50.068C109.808 49.928 109.971 49.858 110.158 49.858C110.354 49.858 110.522 49.928 110.662 50.068C110.802 50.208 110.872 50.376 110.872 50.572C110.872 50.768 110.802 50.936 110.662 51.076C110.522 51.2067 110.354 51.272 110.158 51.272ZM110.69 59H109.64V52.238H110.69V59ZM114.926 59.168C113.778 59.168 112.868 58.8133 112.196 58.104L112.742 57.348C112.976 57.6187 113.293 57.8473 113.694 58.034C114.105 58.2207 114.53 58.314 114.968 58.314C115.472 58.314 115.864 58.2067 116.144 57.992C116.424 57.7773 116.564 57.4973 116.564 57.152C116.564 56.8533 116.42 56.62 116.13 56.452C115.841 56.2747 115.491 56.144 115.08 56.06C114.679 55.9667 114.273 55.864 113.862 55.752C113.452 55.6307 113.102 55.43 112.812 55.15C112.523 54.8607 112.378 54.4827 112.378 54.016C112.378 53.4653 112.602 53.0033 113.05 52.63C113.508 52.2567 114.124 52.07 114.898 52.07C115.916 52.07 116.751 52.3967 117.404 53.05L116.914 53.778C116.438 53.2087 115.766 52.924 114.898 52.924C114.441 52.924 114.077 53.0267 113.806 53.232C113.536 53.428 113.4 53.68 113.4 53.988C113.4 54.2587 113.545 54.4733 113.834 54.632C114.124 54.7813 114.469 54.9027 114.87 54.996C115.281 55.08 115.692 55.1827 116.102 55.304C116.513 55.4253 116.863 55.64 117.152 55.948C117.442 56.2467 117.586 56.6387 117.586 57.124C117.586 57.7213 117.353 58.2113 116.886 58.594C116.42 58.9767 115.766 59.168 114.926 59.168ZM128.18 59H127.13V58.23C126.56 58.8553 125.814 59.168 124.89 59.168C124.264 59.168 123.714 58.9673 123.238 58.566C122.762 58.1647 122.524 57.6187 122.524 56.928C122.524 56.2187 122.757 55.6727 123.224 55.29C123.7 54.898 124.255 54.702 124.89 54.702C125.851 54.702 126.598 55.01 127.13 55.626V54.408C127.13 53.96 126.971 53.61 126.654 53.358C126.336 53.106 125.926 52.98 125.422 52.98C124.628 52.98 123.938 53.2927 123.35 53.918L122.86 53.19C123.578 52.4433 124.479 52.07 125.562 52.07C126.336 52.07 126.966 52.2567 127.452 52.63C127.937 53.0033 128.18 53.5773 128.18 54.352V59ZM125.268 58.412C126.108 58.412 126.728 58.132 127.13 57.572V56.298C126.728 55.738 126.108 55.458 125.268 55.458C124.782 55.458 124.381 55.598 124.064 55.878C123.756 56.1487 123.602 56.5033 123.602 56.942C123.602 57.3713 123.756 57.726 124.064 58.006C124.381 58.2767 124.782 58.412 125.268 58.412ZM133.266 59.168C132.268 59.168 131.456 58.832 130.83 58.16C130.205 57.4787 129.892 56.6293 129.892 55.612C129.892 54.5947 130.205 53.75 130.83 53.078C131.456 52.406 132.268 52.07 133.266 52.07C134.312 52.07 135.138 52.462 135.744 53.246L135.044 53.89C134.615 53.302 134.041 53.008 133.322 53.008C132.613 53.008 132.044 53.2507 131.614 53.736C131.194 54.2213 130.984 54.8467 130.984 55.612C130.984 56.3773 131.194 57.0073 131.614 57.502C132.044 57.9873 132.613 58.23 133.322 58.23C134.032 58.23 134.606 57.936 135.044 57.348L135.744 57.992C135.138 58.776 134.312 59.168 133.266 59.168ZM140.198 59.168C139.199 59.168 138.387 58.832 137.762 58.16C137.137 57.4787 136.824 56.6293 136.824 55.612C136.824 54.5947 137.137 53.75 137.762 53.078C138.387 52.406 139.199 52.07 140.198 52.07C141.243 52.07 142.069 52.462 142.676 53.246L141.976 53.89C141.547 53.302 140.973 53.008 140.254 53.008C139.545 53.008 138.975 53.2507 138.546 53.736C138.126 54.2213 137.916 54.8467 137.916 55.612C137.916 56.3773 138.126 57.0073 138.546 57.502C138.975 57.9873 139.545 58.23 140.254 58.23C140.963 58.23 141.537 57.936 141.976 57.348L142.676 57.992C142.069 58.776 141.243 59.168 140.198 59.168ZM147.2 59.168C146.192 59.168 145.366 58.8413 144.722 58.188C144.078 57.5253 143.756 56.6667 143.756 55.612C143.756 54.6227 144.073 53.7873 144.708 53.106C145.342 52.4153 146.136 52.07 147.088 52.07C148.086 52.07 148.875 52.4153 149.454 53.106C150.042 53.7873 150.336 54.6507 150.336 55.696V55.962H144.862C144.908 56.6247 145.151 57.18 145.59 57.628C146.028 58.076 146.598 58.3 147.298 58.3C148.138 58.3 148.833 58.0153 149.384 57.446L149.888 58.132C149.197 58.8227 148.301 59.168 147.2 59.168ZM149.3 55.192C149.29 54.6133 149.094 54.0953 148.712 53.638C148.329 53.1713 147.783 52.938 147.074 52.938C146.402 52.938 145.87 53.1667 145.478 53.624C145.095 54.0813 144.89 54.604 144.862 55.192H149.3ZM154.178 59.168C153.03 59.168 152.12 58.8133 151.448 58.104L151.994 57.348C152.228 57.6187 152.545 57.8473 152.946 58.034C153.357 58.2207 153.782 58.314 154.22 58.314C154.724 58.314 155.116 58.2067 155.396 57.992C155.676 57.7773 155.816 57.4973 155.816 57.152C155.816 56.8533 155.672 56.62 155.382 56.452C155.093 56.2747 154.743 56.144 154.332 56.06C153.931 55.9667 153.525 55.864 153.114 55.752C152.704 55.6307 152.354 55.43 152.064 55.15C151.775 54.8607 151.63 54.4827 151.63 54.016C151.63 53.4653 151.854 53.0033 152.302 52.63C152.76 52.2567 153.376 52.07 154.15 52.07C155.168 52.07 156.003 52.3967 156.656 53.05L156.166 53.778C155.69 53.2087 155.018 52.924 154.15 52.924C153.693 52.924 153.329 53.0267 153.058 53.232C152.788 53.428 152.652 53.68 152.652 53.988C152.652 54.2587 152.797 54.4733 153.086 54.632C153.376 54.7813 153.721 54.9027 154.122 54.996C154.533 55.08 154.944 55.1827 155.354 55.304C155.765 55.4253 156.115 55.64 156.404 55.948C156.694 56.2467 156.838 56.6387 156.838 57.124C156.838 57.7213 156.605 58.2113 156.138 58.594C155.672 58.9767 155.018 59.168 154.178 59.168ZM160.686 59.168C159.538 59.168 158.628 58.8133 157.956 58.104L158.502 57.348C158.735 57.6187 159.053 57.8473 159.454 58.034C159.865 58.2207 160.289 58.314 160.728 58.314C161.232 58.314 161.624 58.2067 161.904 57.992C162.184 57.7773 162.324 57.4973 162.324 57.152C162.324 56.8533 162.179 56.62 161.89 56.452C161.601 56.2747 161.251 56.144 160.84 56.06C160.439 55.9667 160.033 55.864 159.622 55.752C159.211 55.6307 158.861 55.43 158.572 55.15C158.283 54.8607 158.138 54.4827 158.138 54.016C158.138 53.4653 158.362 53.0033 158.81 52.63C159.267 52.2567 159.883 52.07 160.658 52.07C161.675 52.07 162.511 52.3967 163.164 53.05L162.674 53.778C162.198 53.2087 161.526 52.924 160.658 52.924C160.201 52.924 159.837 53.0267 159.566 53.232C159.295 53.428 159.16 53.68 159.16 53.988C159.16 54.2587 159.305 54.4733 159.594 54.632C159.883 54.7813 160.229 54.9027 160.63 54.996C161.041 55.08 161.451 55.1827 161.862 55.304C162.273 55.4253 162.623 55.64 162.912 55.948C163.201 56.2467 163.346 56.6387 163.346 57.124C163.346 57.7213 163.113 58.2113 162.646 58.594C162.179 58.9767 161.526 59.168 160.686 59.168ZM168.283 61.646L168.451 60.694C168.619 60.7687 168.811 60.806 169.025 60.806C169.268 60.806 169.469 60.7547 169.627 60.652C169.786 60.5493 169.921 60.3627 170.033 60.092L170.481 59.07L167.653 52.238H168.787L171.041 57.782L173.281 52.238H174.429L171.041 60.372C170.668 61.268 170.005 61.7253 169.053 61.744C168.773 61.744 168.517 61.7113 168.283 61.646ZM180.901 58.146C180.294 58.8273 179.487 59.168 178.479 59.168C177.471 59.168 176.659 58.8273 176.043 58.146C175.436 57.4647 175.133 56.62 175.133 55.612C175.133 54.604 175.436 53.764 176.043 53.092C176.659 52.4107 177.471 52.07 178.479 52.07C179.487 52.07 180.294 52.4107 180.901 53.092C181.517 53.764 181.825 54.604 181.825 55.612C181.825 56.62 181.517 57.4647 180.901 58.146ZM176.827 57.474C177.237 57.978 177.788 58.23 178.479 58.23C179.169 58.23 179.715 57.978 180.117 57.474C180.518 56.9607 180.719 56.34 180.719 55.612C180.719 54.884 180.518 54.268 180.117 53.764C179.715 53.26 179.169 53.008 178.479 53.008C177.788 53.008 177.237 53.2647 176.827 53.778C176.425 54.282 176.225 54.8933 176.225 55.612C176.225 56.34 176.425 56.9607 176.827 57.474ZM189.15 59H188.1V58.048C187.82 58.3653 187.466 58.6313 187.036 58.846C186.616 59.0607 186.168 59.168 185.692 59.168C184.255 59.168 183.536 58.4493 183.536 57.012V52.238H184.586V56.69C184.586 57.25 184.712 57.6467 184.964 57.88C185.226 58.1133 185.604 58.23 186.098 58.23C186.49 58.23 186.868 58.132 187.232 57.936C187.606 57.74 187.895 57.4973 188.1 57.208V52.238H189.15V59ZM197.573 61.744C196.975 61.744 196.467 61.6693 196.047 61.52C195.627 61.38 195.225 61.1187 194.843 60.736L195.375 59.952C195.888 60.568 196.621 60.876 197.573 60.876C198.198 60.876 198.716 60.708 199.127 60.372C199.537 60.0453 199.743 59.5367 199.743 58.846V57.88C199.491 58.2347 199.164 58.524 198.763 58.748C198.361 58.972 197.932 59.084 197.475 59.084C196.579 59.084 195.851 58.7713 195.291 58.146C194.74 57.5113 194.465 56.6573 194.465 55.584C194.465 54.5107 194.74 53.6567 195.291 53.022C195.851 52.3873 196.579 52.07 197.475 52.07C198.399 52.07 199.155 52.4667 199.743 53.26V52.238H200.793V58.804C200.793 59.84 200.489 60.5867 199.883 61.044C199.276 61.5107 198.506 61.744 197.573 61.744ZM197.727 58.16C198.128 58.16 198.515 58.0527 198.889 57.838C199.271 57.6233 199.556 57.362 199.743 57.054V54.1C199.556 53.792 199.276 53.5353 198.903 53.33C198.529 53.1153 198.137 53.008 197.727 53.008C197.055 53.008 196.523 53.246 196.131 53.722C195.748 54.198 195.557 54.8187 195.557 55.584C195.557 56.34 195.753 56.9607 196.145 57.446C196.537 57.922 197.064 58.16 197.727 58.16ZM205.948 59.168C204.94 59.168 204.114 58.8413 203.47 58.188C202.826 57.5253 202.504 56.6667 202.504 55.612C202.504 54.6227 202.821 53.7873 203.456 53.106C204.09 52.4153 204.884 52.07 205.836 52.07C206.834 52.07 207.623 52.4153 208.202 53.106C208.79 53.7873 209.084 54.6507 209.084 55.696V55.962H203.61C203.656 56.6247 203.899 57.18 204.338 57.628C204.776 58.076 205.346 58.3 206.046 58.3C206.886 58.3 207.581 58.0153 208.132 57.446L208.636 58.132C207.945 58.8227 207.049 59.168 205.948 59.168ZM208.048 55.192C208.038 54.6133 207.842 54.0953 207.46 53.638C207.077 53.1713 206.531 52.938 205.822 52.938C205.15 52.938 204.618 53.1667 204.226 53.624C203.843 54.0813 203.638 54.604 203.61 55.192H208.048ZM212.492 59.168C211.998 59.168 211.624 59.0327 211.372 58.762C211.12 58.4913 210.994 58.0993 210.994 57.586V53.162H209.874V52.238H210.994V50.39H212.044V52.238H213.416V53.162H212.044V57.362C212.044 57.6233 212.1 57.8333 212.212 57.992C212.334 58.1507 212.506 58.23 212.73 58.23C213.038 58.23 213.276 58.1367 213.444 57.95L213.752 58.734C213.444 59.0233 213.024 59.168 212.492 59.168Z" fill="#1D1F21"/>
<defs>
<linearGradient id="paint0_linear_405_2921" x1="18.2882" y1="32.5" x2="225.211" y2="92.01" gradientUnits="userSpaceOnUse">
<stop stop-color="#68C9FF"/>
<stop offset="0.994746" stop-color="#D1B5FF"/>
</linearGradient>
</defs>
</svg>
