<svg width="856" height="56" viewBox="0 0 856 56" fill="none" xmlns="http://www.w3.org/2000/svg">
<path opacity="0.2" d="M8.8 48.28L8.10728 49.0013L8.11464 49.0082L8.8 48.28ZM8.8 8.52L9.48894 9.24482L9.48912 9.24464L8.8 8.52ZM51.44 13.8L51.8813 14.6973L52.8311 14.2302L52.3109 13.3085L51.44 13.8ZM41.68 18.6L40.7942 19.064L41.2465 19.9276L42.1213 19.4973L41.68 18.6ZM36.48 13.08L35.9253 13.912L35.9367 13.9196L35.9482 13.9269L36.48 13.08ZM17.12 15.8L17.8444 16.4894V16.4894L17.12 15.8ZM17.12 40.92L17.8444 40.2306L17.12 40.92ZM36.48 43.72L35.9482 42.8731L35.9392 42.8788L36.48 43.72ZM41.68 38.12L42.1154 37.2197L41.2351 36.794L40.7898 37.6645L41.68 38.12ZM51.44 42.84L52.3053 43.3412L52.8454 42.4089L51.8754 41.9397L51.44 42.84ZM29.12 54.96C21.2444 54.96 14.7233 52.4816 9.48536 47.5518L8.11464 49.0082C13.7567 54.3184 20.7823 56.96 29.12 56.96V54.96ZM9.49268 47.5588C4.32022 42.5911 1.72 36.2203 1.72 28.36H-0.28C-0.28 36.7131 2.50644 43.6222 8.10732 49.0012L9.49268 47.5588ZM1.72 28.36C1.72 20.4997 4.32006 14.1578 9.48894 9.24482L8.11106 7.79518C2.5066 13.1222 -0.28 20.0069 -0.28 28.36H1.72ZM9.48912 9.24464C14.7276 4.26297 21.2474 1.76 29.12 1.76V-0.240002C20.7793 -0.240002 13.7524 2.43036 8.11088 7.79535L9.48912 9.24464ZM29.12 1.76C38.7322 1.76 45.8396 5.912 50.5691 14.2915L52.3109 13.3085C47.2271 4.30133 39.4545 -0.240002 29.12 -0.240002V1.76ZM50.9987 12.9026L41.2387 17.7026L42.1213 19.4973L51.8813 14.6973L50.9987 12.9026ZM42.5658 18.136C41.3046 15.7282 39.4439 13.7603 37.0118 12.2331L35.9482 13.9269C38.1028 15.2797 39.7087 16.9918 40.7942 19.064L42.5658 18.136ZM37.0347 12.2479C34.6321 10.6462 31.9861 9.84 29.12 9.84V11.84C31.5872 11.84 33.8479 12.5271 35.9253 13.912L37.0347 12.2479ZM29.12 9.84C24.0122 9.84 19.744 11.592 16.3956 15.1106L17.8444 16.4894C20.7894 13.3947 24.5211 11.84 29.12 11.84V9.84ZM16.3956 15.1106C13.0519 18.6243 11.4 23.0674 11.4 28.36H13.4C13.4 23.5193 14.8948 19.589 17.8444 16.4894L16.3956 15.1106ZM11.4 28.36C11.4 33.6526 13.0519 38.0957 16.3956 41.6094L17.8444 40.2306C14.8948 37.131 13.4 33.2007 13.4 28.36H11.4ZM16.3956 41.6094C19.744 45.128 24.0122 46.88 29.12 46.88V44.88C24.5211 44.88 20.7894 43.3253 17.8444 40.2306L16.3956 41.6094ZM29.12 46.88C31.9781 46.88 34.6192 46.105 37.0208 44.5612L35.9392 42.8788C33.8608 44.215 31.5952 44.88 29.12 44.88V46.88ZM37.0118 44.5669C39.4495 43.0362 41.3106 41.0375 42.5702 38.5755L40.7898 37.6645C39.7027 39.7891 38.0971 41.5238 35.9482 42.8731L37.0118 44.5669ZM41.2446 39.0203L51.0046 43.7403L51.8754 41.9397L42.1154 37.2197L41.2446 39.0203ZM50.5747 42.3388C45.6802 50.7882 38.5636 54.96 29.12 54.96V56.96C39.3031 56.96 47.0665 52.3852 52.3053 43.3412L50.5747 42.3388ZM100.202 49.96L99.5041 49.2436L99.4995 49.2482L100.202 49.96ZM64.2819 49.96L63.5747 50.6672L63.5841 50.6763L64.2819 49.96ZM58.2019 1.64V0.639996H57.2019V1.64H58.2019ZM69.7219 1.64H70.7219V0.639996H69.7219V1.64ZM73.0019 42.52L72.2781 43.2101L72.2863 43.2185L73.0019 42.52ZM91.4819 42.52L90.7581 41.8299L90.7577 41.8303L91.4819 42.52ZM94.7619 1.64V0.639996H93.7619V1.64H94.7619ZM106.362 1.64H107.362V0.639996H106.362V1.64ZM99.4995 49.2482C95.6957 53.0019 90.0155 54.96 82.2819 54.96V56.96C90.3349 56.96 96.6013 54.9181 100.904 50.6718L99.4995 49.2482ZM82.2819 54.96C74.5493 54.96 68.8385 53.0023 64.9796 49.2437L63.5841 50.6763C67.9386 54.9177 74.2278 56.96 82.2819 56.96V54.96ZM64.989 49.2529C61.1569 45.4208 59.2019 40.2799 59.2019 33.72H57.2019C57.2019 40.7067 59.3002 46.3925 63.5748 50.6671L64.989 49.2529ZM59.2019 33.72V1.64H57.2019V33.72H59.2019ZM58.2019 2.64H69.7219V0.639996H58.2019V2.64ZM68.7219 1.64V33.32H70.7219V1.64H68.7219ZM68.7219 33.32C68.7219 37.3593 69.878 40.6928 72.2781 43.2101L73.7256 41.8299C71.7524 39.7605 70.7219 36.9607 70.7219 33.32H68.7219ZM72.2863 43.2185C74.7099 45.7012 78.0912 46.88 82.2819 46.88V44.88C78.4725 44.88 75.6672 43.8188 73.7175 41.8215L72.2863 43.2185ZM82.2819 46.88C86.4711 46.88 89.8327 45.7016 92.206 43.2097L90.7577 41.8303C88.8644 43.8184 86.0926 44.88 82.2819 44.88V46.88ZM92.2056 43.2101C94.6058 40.6928 95.7619 37.3593 95.7619 33.32H93.7619C93.7619 36.9607 92.7313 39.7605 90.7581 41.8299L92.2056 43.2101ZM95.7619 33.32V1.64H93.7619V33.32H95.7619ZM94.7619 2.64H106.362V0.639996H94.7619V2.64ZM105.362 1.64V33.64H107.362V1.64H105.362ZM105.362 33.64C105.362 40.3082 103.38 45.4688 99.5041 49.2437L100.9 50.6763C105.237 46.4511 107.362 40.7318 107.362 33.64H105.362ZM140.634 55V56H141.634V55H140.634ZM129.194 55H128.194V56H129.194V55ZM129.194 11.64H130.194V10.64H129.194V11.64ZM113.594 11.64H112.594V12.64H113.594V11.64ZM113.594 1.64V0.639996H112.594V1.64H113.594ZM156.154 1.64H157.154V0.639996H156.154V1.64ZM156.154 11.64V12.64H157.154V11.64H156.154ZM140.634 11.64V10.64H139.634V11.64H140.634ZM140.634 54H129.194V56H140.634V54ZM130.194 55V11.64H128.194V55H130.194ZM129.194 10.64H113.594V12.64H129.194V10.64ZM114.594 11.64V1.64H112.594V11.64H114.594ZM113.594 2.64H156.154V0.639996H113.594V2.64ZM155.154 1.64V11.64H157.154V1.64H155.154ZM156.154 10.64H140.634V12.64H156.154V10.64ZM139.634 11.64V55H141.634V11.64H139.634ZM166.763 48.2L166.056 48.9071L166.063 48.9143L166.763 48.2ZM166.763 8.6L167.467 9.31072L167.467 9.31068L166.763 8.6ZM206.763 8.52L206.06 9.23073L206.063 9.23428L206.763 8.52ZM206.763 48.2L206.063 47.4857L206.06 47.4893L206.763 48.2ZM175.003 40.92L174.255 41.5836L174.261 41.5903L175.003 40.92ZM198.523 40.92L199.265 41.5903L198.523 40.92ZM198.523 15.8L197.781 16.4703L198.523 15.8ZM175.003 15.8L174.261 15.1297L174.255 15.1364L175.003 15.8ZM186.763 54.96C178.946 54.96 172.538 52.4587 167.463 47.4857L166.063 48.9143C171.548 54.288 178.474 56.96 186.763 56.96V54.96ZM167.47 47.4929C162.447 42.4701 159.923 36.1189 159.923 28.36H157.923C157.923 36.6011 160.625 43.4765 166.056 48.9071L167.47 47.4929ZM159.923 28.36C159.923 20.6011 162.447 14.2788 167.467 9.31072L166.06 7.88927C160.626 13.2679 157.923 20.1189 157.923 28.36H159.923ZM167.467 9.31068C172.543 4.28583 178.949 1.76 186.763 1.76V-0.240002C178.471 -0.240002 171.543 2.46083 166.06 7.88931L167.467 9.31068ZM186.763 1.76C194.636 1.76 201.04 4.26251 206.06 9.23072L207.467 7.80927C202.033 2.43081 195.104 -0.240002 186.763 -0.240002V1.76ZM206.063 9.23428C211.133 14.2017 213.683 20.5488 213.683 28.36H215.683C215.683 20.0645 212.953 13.185 207.463 7.80571L206.063 9.23428ZM213.683 28.36C213.683 36.1712 211.133 42.5183 206.063 47.4857L207.463 48.9143C212.953 43.535 215.683 36.6555 215.683 28.36H213.683ZM206.06 47.4893C201.04 52.4575 194.636 54.96 186.763 54.96V56.96C195.104 56.96 202.033 54.2892 207.467 48.9107L206.06 47.4893ZM174.261 41.5903C177.455 45.127 181.655 46.88 186.763 46.88V44.88C182.164 44.88 178.524 43.3264 175.745 40.2497L174.261 41.5903ZM186.763 46.88C191.871 46.88 196.071 45.127 199.265 41.5903L197.781 40.2497C195.002 43.3264 191.362 44.88 186.763 44.88V46.88ZM199.265 41.5903C202.441 38.0745 204.003 33.6379 204.003 28.36H202.003C202.003 33.2154 200.579 37.1522 197.781 40.2497L199.265 41.5903ZM204.003 28.36C204.003 23.0821 202.441 18.6455 199.265 15.1297L197.781 16.4703C200.579 19.5678 202.003 23.5046 202.003 28.36H204.003ZM199.265 15.1297C196.071 11.593 191.871 9.84 186.763 9.84V11.84C191.362 11.84 195.002 13.3936 197.781 16.4703L199.265 15.1297ZM186.763 9.84C181.655 9.84 177.455 11.593 174.261 15.1297L175.745 16.4703C178.524 13.3936 182.164 11.84 186.763 11.84V9.84ZM174.255 15.1364C171.136 18.6527 169.603 23.0869 169.603 28.36H171.603C171.603 23.4998 173.004 19.5607 175.751 16.4636L174.255 15.1364ZM169.603 28.36C169.603 33.6331 171.136 38.0673 174.255 41.5836L175.751 40.2564C173.004 37.1593 171.603 33.2202 171.603 28.36H169.603ZM280.495 55V56H281.495V55H280.495ZM269.055 55H268.055V56H269.055V55ZM269.055 17.64H270.055L268.127 17.2666L269.055 17.64ZM254.015 55V56H254.69L254.943 55.3734L254.015 55ZM249.055 55L248.127 55.3734L248.38 56H249.055V55ZM234.015 17.64L234.943 17.2666L233.015 17.64H234.015ZM234.015 55V56H235.015V55H234.015ZM222.655 55H221.655V56H222.655V55ZM222.655 1.64V0.639996H221.655V1.64H222.655ZM238.575 1.64L239.503 1.26702L239.251 0.639996H238.575V1.64ZM251.535 33.88L250.607 34.253L251.535 36.5611L252.463 34.253L251.535 33.88ZM264.495 1.64V0.639996H263.819L263.567 1.26702L264.495 1.64ZM280.495 1.64H281.495V0.639996H280.495V1.64ZM280.495 54H269.055V56H280.495V54ZM270.055 55V17.64H268.055V55H270.055ZM268.127 17.2666L253.087 54.6266L254.943 55.3734L269.983 18.0134L268.127 17.2666ZM254.015 54H249.055V56H254.015V54ZM249.983 54.6266L234.943 17.2666L233.087 18.0134L248.127 55.3734L249.983 54.6266ZM233.015 17.64V55H235.015V17.64H233.015ZM234.015 54H222.655V56H234.015V54ZM223.655 55V1.64H221.655V55H223.655ZM222.655 2.64H238.575V0.639996H222.655V2.64ZM237.647 2.01297L250.607 34.253L252.463 33.507L239.503 1.26702L237.647 2.01297ZM252.463 34.253L265.423 2.01297L263.567 1.26702L250.607 33.507L252.463 34.253ZM264.495 2.64H280.495V0.639996H264.495V2.64ZM279.495 1.64V55H281.495V1.64H279.495ZM311.561 55H310.561V56H311.561V55ZM311.561 1.64V0.639996H310.561V1.64H311.561ZM350.921 5.64L350.214 6.3471L350.221 6.35417L350.228 6.3611L350.921 5.64ZM345.801 27.48L345.601 26.5002L345.655 28.4692L345.801 27.48ZM353.081 31.88L352.296 32.4986L353.081 31.88ZM341.641 13.08L340.934 13.7871L340.951 13.8039L340.969 13.8199L341.641 13.08ZM322.921 11.4V10.4H321.921V11.4H322.921ZM322.921 23H321.921V24H322.921V23ZM342.601 43.56L343.257 44.3146L343.267 44.3067L343.276 44.2985L342.601 43.56ZM342.601 34.6L341.894 35.3071L341.902 35.315L341.91 35.3226L342.601 34.6ZM322.921 32.76V31.76H321.921V32.76H322.921ZM322.921 45.16H321.921V46.16H322.921V45.16ZM340.521 54H311.561V56H340.521V54ZM312.561 55V1.64H310.561V55H312.561ZM311.561 2.64H339.641V0.639996H311.561V2.64ZM339.641 2.64C344.309 2.64 347.785 3.91762 350.214 6.3471L351.628 4.93289C348.725 2.02904 344.68 0.639996 339.641 0.639996V2.64ZM350.228 6.3611C352.751 8.78505 354.001 11.7243 354.001 15.24H356.001C356.001 11.1824 354.531 7.72161 351.614 4.91889L350.228 6.3611ZM354.001 15.24C354.001 18.3033 353.177 20.7915 351.582 22.773L353.14 24.027C355.065 21.6351 356.001 18.6834 356.001 15.24H354.001ZM351.582 22.773C349.96 24.7885 347.974 26.016 345.601 26.5002L346.001 28.4598C348.855 27.8773 351.242 26.3848 353.14 24.027L351.582 22.773ZM345.655 28.4692C348.257 28.8547 350.464 30.1716 352.296 32.4986L353.867 31.2614C351.752 28.5751 349.106 26.9586 345.948 26.4908L345.655 28.4692ZM352.296 32.4986C354.125 34.8221 355.041 37.5089 355.041 40.6H357.041C357.041 37.0778 355.984 33.9512 353.867 31.2614L352.296 32.4986ZM355.041 40.6C355.041 44.5186 353.77 47.6966 351.254 50.2129L352.668 51.6271C355.592 48.7034 357.041 45.0014 357.041 40.6H355.041ZM351.254 50.2129C348.77 52.6973 345.239 54 340.521 54V56C345.616 56 349.713 54.5827 352.668 51.6271L351.254 50.2129ZM337.161 24C339.273 24 341.063 23.4082 342.411 22.1241L341.032 20.6759C340.14 21.5251 338.89 22 337.161 22V24ZM342.411 22.1241C343.751 20.8482 344.401 19.189 344.401 17.24H342.401C342.401 18.7043 341.932 19.8185 341.032 20.6759L342.411 22.1241ZM344.401 17.24C344.401 15.2757 343.713 13.6119 342.314 12.3401L340.969 13.8199C341.916 14.6814 342.401 15.791 342.401 17.24H344.401ZM342.348 12.3729C341.008 11.0322 339.242 10.4 337.161 10.4V12.4C338.814 12.4 340.035 12.8878 340.934 13.7871L342.348 12.3729ZM337.161 10.4H322.921V12.4H337.161V10.4ZM321.921 11.4V23H323.921V11.4H321.921ZM322.921 24H337.161V22H322.921V24ZM337.561 46.16C339.859 46.16 341.798 45.5835 343.257 44.3146L341.945 42.8054C340.951 43.6699 339.53 44.16 337.561 44.16V46.16ZM343.276 44.2985C344.743 42.9588 345.441 41.1529 345.441 39H343.441C343.441 40.6871 342.913 41.9212 341.927 42.8215L343.276 44.2985ZM345.441 39C345.441 36.9784 344.724 35.247 343.292 33.8774L341.91 35.3226C342.931 36.2996 343.441 37.5016 343.441 39H345.441ZM343.308 33.8929C341.853 32.4374 339.895 31.76 337.561 31.76V33.76C339.494 33.76 340.896 34.3092 341.894 35.3071L343.308 33.8929ZM337.561 31.76H322.921V33.76H337.561V31.76ZM321.921 32.76V45.16H323.921V32.76H321.921ZM322.921 46.16H337.561V44.16H322.921V46.16ZM388.426 55V56H389.426V55H388.426ZM377.066 55H376.066V56H377.066V55ZM377.066 33.16H378.066V32.8627L377.904 32.6137L377.066 33.16ZM356.506 1.64V0.639996H354.66L355.669 2.18633L356.506 1.64ZM369.466 1.64L370.316 1.11342L370.023 0.639996H369.466V1.64ZM382.746 23.08L381.896 23.6066L382.751 24.9874L383.599 23.602L382.746 23.08ZM395.866 1.64V0.639996H395.306L395.013 1.11803L395.866 1.64ZM408.826 1.64L409.666 2.18333L410.665 0.639996H408.826V1.64ZM388.426 33.16L387.587 32.6167L387.426 32.8646V33.16H388.426ZM388.426 54H377.066V56H388.426V54ZM378.066 55V33.16H376.066V55H378.066ZM377.904 32.6137L357.344 1.09366L355.669 2.18633L376.229 33.7063L377.904 32.6137ZM356.506 2.64H369.466V0.639996H356.506V2.64ZM368.616 2.16657L381.896 23.6066L383.596 22.5534L370.316 1.11342L368.616 2.16657ZM383.599 23.602L396.719 2.16196L395.013 1.11803L381.893 22.558L383.599 23.602ZM395.866 2.64H408.826V0.639996H395.866V2.64ZM407.987 1.09666L387.587 32.6167L389.266 33.7033L409.666 2.18333L407.987 1.09666ZM387.426 33.16V55H389.426V33.16H387.426ZM460.457 55V56H461.457V55H460.457ZM449.098 55H448.098V56H449.098V55ZM449.098 33.16H450.098V32.8627L449.935 32.6137L449.098 33.16ZM428.538 1.64V0.639996H426.691L427.7 2.18633L428.538 1.64ZM441.497 1.64L442.348 1.11342L442.054 0.639996H441.497V1.64ZM454.777 23.08L453.927 23.6066L454.783 24.9874L455.63 23.602L454.777 23.08ZM467.897 1.64V0.639996H467.337L467.045 1.11803L467.897 1.64ZM480.858 1.64L481.697 2.18333L482.696 0.639996H480.858V1.64ZM460.457 33.16L459.618 32.6167L459.457 32.8646V33.16H460.457ZM460.457 54H449.098V56H460.457V54ZM450.098 55V33.16H448.098V55H450.098ZM449.935 32.6137L429.375 1.09366L427.7 2.18633L448.26 33.7063L449.935 32.6137ZM428.538 2.64H441.497V0.639996H428.538V2.64ZM440.647 2.16657L453.927 23.6066L455.628 22.5534L442.348 1.11342L440.647 2.16657ZM455.63 23.602L468.75 2.16196L467.045 1.11803L453.925 22.558L455.63 23.602ZM467.897 2.64H480.858V0.639996H467.897V2.64ZM480.018 1.09666L459.618 32.6167L461.297 33.7033L481.697 2.18333L480.018 1.09666ZM459.457 33.16V55H461.457V33.16H459.457ZM487.857 48.2L487.15 48.9071L487.157 48.9143L487.857 48.2ZM487.857 8.6L488.56 9.31072L488.56 9.31068L487.857 8.6ZM527.857 8.52L527.153 9.23073L527.157 9.23428L527.857 8.52ZM527.857 48.2L527.157 47.4857L527.153 47.4893L527.857 48.2ZM496.097 40.92L495.349 41.5836L495.355 41.5903L496.097 40.92ZM519.617 40.92L520.359 41.5903L519.617 40.92ZM519.617 15.8L518.875 16.4703L519.617 15.8ZM496.097 15.8L495.355 15.1297L495.349 15.1364L496.097 15.8ZM507.857 54.96C500.04 54.96 493.632 52.4587 488.557 47.4857L487.157 48.9143C492.642 54.288 499.568 56.96 507.857 56.96V54.96ZM488.564 47.4929C483.541 42.4701 481.017 36.1189 481.017 28.36H479.017C479.017 36.6011 481.719 43.4765 487.15 48.9071L488.564 47.4929ZM481.017 28.36C481.017 20.6011 483.541 14.2788 488.56 9.31072L487.153 7.88927C481.719 13.2679 479.017 20.1189 479.017 28.36H481.017ZM488.56 9.31068C493.637 4.28583 500.043 1.76 507.857 1.76V-0.240002C499.564 -0.240002 492.637 2.46083 487.153 7.88931L488.56 9.31068ZM507.857 1.76C515.73 1.76 522.134 4.26251 527.153 9.23072L528.56 7.80927C523.126 2.43081 516.197 -0.240002 507.857 -0.240002V1.76ZM527.157 9.23428C532.227 14.2017 534.777 20.5488 534.777 28.36H536.777C536.777 20.0645 534.047 13.185 528.557 7.80571L527.157 9.23428ZM534.777 28.36C534.777 36.1712 532.227 42.5183 527.157 47.4857L528.557 48.9143C534.047 43.535 536.777 36.6555 536.777 28.36H534.777ZM527.153 47.4893C522.134 52.4575 515.73 54.96 507.857 54.96V56.96C516.197 56.96 523.126 54.2892 528.56 48.9107L527.153 47.4893ZM495.355 41.5903C498.549 45.127 502.749 46.88 507.857 46.88V44.88C503.258 44.88 499.618 43.3264 496.839 40.2497L495.355 41.5903ZM507.857 46.88C512.965 46.88 517.165 45.127 520.359 41.5903L518.875 40.2497C516.096 43.3264 512.456 44.88 507.857 44.88V46.88ZM520.359 41.5903C523.535 38.0745 525.097 33.6379 525.097 28.36H523.097C523.097 33.2154 521.673 37.1522 518.875 40.2497L520.359 41.5903ZM525.097 28.36C525.097 23.0821 523.535 18.6455 520.359 15.1297L518.875 16.4703C521.673 19.5678 523.097 23.5046 523.097 28.36H525.097ZM520.359 15.1297C517.165 11.593 512.965 9.84 507.857 9.84V11.84C512.456 11.84 516.096 13.3936 518.875 16.4703L520.359 15.1297ZM507.857 9.84C502.749 9.84 498.549 11.593 495.355 15.1297L496.839 16.4703C499.618 13.3936 503.258 11.84 507.857 11.84V9.84ZM495.349 15.1364C492.23 18.6527 490.697 23.0869 490.697 28.36H492.697C492.697 23.4998 494.098 19.5607 496.845 16.4636L495.349 15.1364ZM490.697 28.36C490.697 33.6331 492.23 38.0673 495.349 41.5836L496.845 40.2564C494.098 37.1593 492.697 33.2202 492.697 28.36H490.697ZM585.749 49.96L585.051 49.2436L585.046 49.2482L585.749 49.96ZM549.829 49.96L549.122 50.6672L549.131 50.6763L549.829 49.96ZM543.749 1.64V0.639996H542.749V1.64H543.749ZM555.269 1.64H556.269V0.639996H555.269V1.64ZM558.549 42.52L557.825 43.2101L557.833 43.2185L558.549 42.52ZM577.029 42.52L576.305 41.8299L576.305 41.8303L577.029 42.52ZM580.309 1.64V0.639996H579.309V1.64H580.309ZM591.909 1.64H592.909V0.639996H591.909V1.64ZM585.046 49.2482C581.243 53.0019 575.562 54.96 567.829 54.96V56.96C575.882 56.96 582.148 54.9181 586.451 50.6718L585.046 49.2482ZM567.829 54.96C560.096 54.96 554.385 53.0023 550.526 49.2437L549.131 50.6763C553.485 54.9177 559.775 56.96 567.829 56.96V54.96ZM550.536 49.2529C546.704 45.4208 544.749 40.2799 544.749 33.72H542.749C542.749 40.7067 544.847 46.3925 549.122 50.6671L550.536 49.2529ZM544.749 33.72V1.64H542.749V33.72H544.749ZM543.749 2.64H555.269V0.639996H543.749V2.64ZM554.269 1.64V33.32H556.269V1.64H554.269ZM554.269 33.32C554.269 37.3593 555.425 40.6928 557.825 43.2101L559.272 41.8299C557.299 39.7605 556.269 36.9607 556.269 33.32H554.269ZM557.833 43.2185C560.257 45.7012 563.638 46.88 567.829 46.88V44.88C564.019 44.88 561.214 43.8188 559.264 41.8215L557.833 43.2185ZM567.829 46.88C572.018 46.88 575.38 45.7016 577.753 43.2097L576.305 41.8303C574.411 43.8184 571.639 44.88 567.829 44.88V46.88ZM577.753 43.2101C580.153 40.6928 581.309 37.3593 581.309 33.32H579.309C579.309 36.9607 578.278 39.7605 576.305 41.8299L577.753 43.2101ZM581.309 33.32V1.64H579.309V33.32H581.309ZM580.309 2.64H591.909V0.639996H580.309V2.64ZM590.909 1.64V33.64H592.909V1.64H590.909ZM590.909 33.64C590.909 40.3082 588.926 45.4688 585.051 49.2437L586.446 50.6763C590.784 46.4511 592.909 40.7318 592.909 33.64H590.909ZM645.621 55V56H647.373L646.482 54.4915L645.621 55ZM632.581 55L631.705 55.4838L631.991 56H632.581V55ZM622.101 36.04L622.976 35.5562L622.69 35.04H622.101V36.04ZM613.781 36.04V35.04H612.781V36.04H613.781ZM613.781 55V56H614.781V55H613.781ZM602.421 55H601.421V56H602.421V55ZM602.421 1.64V0.639996H601.421V1.64H602.421ZM640.421 6.43999L639.714 7.14713L639.719 7.15292L640.421 6.43999ZM641.861 29.48L641.096 28.8354L641.089 28.8443L641.861 29.48ZM633.621 34.68L633.397 33.7053L632.064 34.0112L632.76 35.1885L633.621 34.68ZM631.461 24.12L632.111 24.8793L632.119 24.8727L632.127 24.8659L631.461 24.12ZM631.461 13.64L630.795 14.3859L630.802 14.3927L630.81 14.3993L631.461 13.64ZM613.781 11.64V10.64H612.781V11.64H613.781ZM613.781 26.04H612.781V27.04H613.781V26.04ZM645.621 54H632.581V56H645.621V54ZM633.456 54.5162L622.976 35.5562L621.225 36.5238L631.705 55.4838L633.456 54.5162ZM622.101 35.04H613.781V37.04H622.101V35.04ZM612.781 36.04V55H614.781V36.04H612.781ZM613.781 54H602.421V56H613.781V54ZM603.421 55V1.64H601.421V55H603.421ZM602.421 2.64H627.381V0.639996H602.421V2.64ZM627.381 2.64C632.669 2.64 636.74 4.17347 639.714 7.1471L641.128 5.73289C637.701 2.30652 633.079 0.639996 627.381 0.639996V2.64ZM639.719 7.15292C642.76 10.1433 644.301 14.0089 644.301 18.84H646.301C646.301 13.5377 644.588 9.13668 641.122 5.72707L639.719 7.15292ZM644.301 18.84C644.301 23.0334 643.205 26.3344 641.096 28.8354L642.625 30.1246C645.103 27.1856 646.301 23.3932 646.301 18.84H644.301ZM641.089 28.8443C638.981 31.404 636.423 33.0109 633.397 33.7053L633.844 35.6547C637.325 34.8558 640.261 32.9959 642.633 30.1157L641.089 28.8443ZM632.76 35.1885L644.76 55.5085L646.482 54.4915L634.482 34.1715L632.76 35.1885ZM625.701 27.04C628.238 27.04 630.403 26.3434 632.111 24.8793L630.81 23.3607C629.531 24.4566 627.857 25.04 625.701 25.04V27.04ZM632.127 24.8659C633.854 23.3241 634.701 21.2821 634.701 18.84H632.701C632.701 20.7713 632.054 22.2492 630.795 23.3741L632.127 24.8659ZM634.701 18.84C634.701 16.3981 633.853 14.3734 632.111 12.8807L630.81 14.3993C632.055 15.4666 632.701 16.9086 632.701 18.84H634.701ZM632.127 12.8941C630.419 11.3695 628.248 10.64 625.701 10.64V12.64C627.846 12.64 629.515 13.2438 630.795 14.3859L632.127 12.8941ZM625.701 10.64H613.781V12.64H625.701V10.64ZM612.781 11.64V26.04H614.781V11.64H612.781ZM613.781 27.04H625.701V25.04H613.781V27.04ZM679.576 48.2L678.868 48.9071L678.876 48.9143L679.576 48.2ZM679.576 8.6L680.279 9.31072V9.31068L679.576 8.6ZM719.576 8.52L718.872 9.23073L718.876 9.23428L719.576 8.52ZM719.576 48.2L718.876 47.4857L718.872 47.4893L719.576 48.2ZM687.816 40.92L687.068 41.5836L687.074 41.5903L687.816 40.92ZM711.336 40.92L712.078 41.5903L711.336 40.92ZM711.336 15.8L710.594 16.4703L711.336 15.8ZM687.816 15.8L687.073 15.1297L687.068 15.1364L687.816 15.8ZM699.576 54.96C691.758 54.96 685.351 52.4587 680.275 47.4857L678.876 48.9143C684.36 54.288 691.286 56.96 699.576 56.96V54.96ZM680.283 47.4929C675.26 42.4701 672.736 36.1189 672.736 28.36H670.736C670.736 36.6011 673.438 43.4765 678.869 48.9071L680.283 47.4929ZM672.736 28.36C672.736 20.6011 675.26 14.2788 680.279 9.31072L678.872 7.88927C673.438 13.2679 670.736 20.1189 670.736 28.36H672.736ZM680.279 9.31068C685.355 4.28583 691.761 1.76 699.576 1.76V-0.240002C691.283 -0.240002 684.356 2.46083 678.872 7.88931L680.279 9.31068ZM699.576 1.76C707.448 1.76 713.853 4.26251 718.872 9.23072L720.279 7.80927C714.845 2.43081 707.916 -0.240002 699.576 -0.240002V1.76ZM718.876 9.23428C723.946 14.2017 726.496 20.5488 726.496 28.36H728.496C728.496 20.0645 725.766 13.185 720.276 7.80571L718.876 9.23428ZM726.496 28.36C726.496 36.1712 723.946 42.5183 718.876 47.4857L720.276 48.9143C725.766 43.535 728.496 36.6555 728.496 28.36H726.496ZM718.872 47.4893C713.853 52.4575 707.448 54.96 699.576 54.96V56.96C707.916 56.96 714.845 54.2892 720.279 48.9107L718.872 47.4893ZM687.074 41.5903C690.268 45.127 694.468 46.88 699.576 46.88V44.88C694.977 44.88 691.337 43.3264 688.558 40.2497L687.074 41.5903ZM699.576 46.88C704.684 46.88 708.883 45.127 712.078 41.5903L710.594 40.2497C707.815 43.3264 704.174 44.88 699.576 44.88V46.88ZM712.078 41.5903C715.253 38.0745 716.816 33.6379 716.816 28.36H714.816C714.816 33.2154 713.391 37.1522 710.594 40.2497L712.078 41.5903ZM716.816 28.36C716.816 23.0821 715.253 18.6455 712.078 15.1297L710.594 16.4703C713.391 19.5678 714.816 23.5046 714.816 28.36H716.816ZM712.078 15.1297C708.883 11.593 704.684 9.84 699.576 9.84V11.84C704.174 11.84 707.815 13.3936 710.594 16.4703L712.078 15.1297ZM699.576 9.84C694.468 9.84 690.268 11.593 687.074 15.1297L688.558 16.4703C691.337 13.3936 694.977 11.84 699.576 11.84V9.84ZM687.068 15.1364C683.948 18.6527 682.416 23.0869 682.416 28.36H684.416C684.416 23.4998 685.816 19.5607 688.564 16.4636L687.068 15.1364ZM682.416 28.36C682.416 33.6331 683.948 38.0673 687.068 41.5836L688.564 40.2564C685.816 37.1593 684.416 33.2202 684.416 28.36H682.416ZM786.785 55V56H787.54L787.747 55.274L786.785 55ZM774.705 55L773.736 55.2475L773.928 56H774.705V55ZM765.345 18.36L766.314 18.1125L764.376 18.1145L765.345 18.36ZM756.065 55V56H756.843L757.034 55.2455L756.065 55ZM743.985 55L743.024 55.2753L743.231 56H743.985V55ZM728.705 1.64V0.639996H727.378L727.744 1.91529L728.705 1.64ZM741.425 1.64L742.397 1.40411L742.211 0.639996H741.425V1.64ZM750.785 40.2L749.813 40.4359L751.752 40.4548L750.785 40.2ZM760.945 1.64V0.639996H760.174L759.978 1.38521L760.945 1.64ZM769.825 1.64L770.792 1.38708L770.597 0.639996H769.825V1.64ZM779.905 40.2L778.938 40.4529L780.877 40.434L779.905 40.2ZM789.185 1.64V0.639996H788.397L788.213 1.40601L789.185 1.64ZM801.985 1.64L802.947 1.91396L803.31 0.639996H801.985V1.64ZM786.785 54H774.705V56H786.785V54ZM775.674 54.7525L766.314 18.1125L764.376 18.6075L773.736 55.2475L775.674 54.7525ZM764.376 18.1145L755.096 54.7545L757.034 55.2455L766.314 18.6055L764.376 18.1145ZM756.065 54H743.985V56H756.065V54ZM744.946 54.7247L729.666 1.3647L727.744 1.91529L743.024 55.2753L744.946 54.7247ZM728.705 2.64H741.425V0.639996H728.705V2.64ZM740.453 1.87589L749.813 40.4359L751.757 39.9641L742.397 1.40411L740.453 1.87589ZM751.752 40.4548L761.912 1.89478L759.978 1.38521L749.818 39.9452L751.752 40.4548ZM760.945 2.64H769.825V0.639996H760.945V2.64ZM768.858 1.89291L778.938 40.4529L780.872 39.9471L770.792 1.38708L768.858 1.89291ZM780.877 40.434L790.157 1.87398L788.213 1.40601L778.933 39.966L780.877 40.434ZM789.185 2.64H801.985V0.639996H789.185V2.64ZM801.023 1.36604L785.823 54.726L787.747 55.274L802.947 1.91396L801.023 1.36604ZM855.102 55V56H856.102V55H855.102ZM844.143 55L843.335 55.5902L843.635 56H844.143V55ZM818.703 20.2L819.51 19.6098L817.703 17.1376V20.2H818.703ZM818.703 55V56H819.703V55H818.703ZM807.343 55H806.343V56H807.343V55ZM807.343 1.64V0.639996H806.343V1.64H807.343ZM819.023 1.64L819.827 1.04647L819.528 0.639996H819.023V1.64ZM843.742 35.16L842.938 35.7535L844.742 38.2008V35.16H843.742ZM843.742 1.64V0.639996H842.742V1.64H843.742ZM855.102 1.64H856.102V0.639996H855.102V1.64ZM855.102 54H844.143V56H855.102V54ZM844.95 54.4098L819.51 19.6098L817.895 20.7902L843.335 55.5902L844.95 54.4098ZM817.703 20.2V55H819.703V20.2H817.703ZM818.703 54H807.343V56H818.703V54ZM808.343 55V1.64H806.343V55H808.343ZM807.343 2.64H819.023V0.639996H807.343V2.64ZM818.218 2.23352L842.938 35.7535L844.547 34.5665L819.827 1.04647L818.218 2.23352ZM844.742 35.16V1.64H842.742V35.16H844.742ZM843.742 2.64H855.102V0.639996H843.742V2.64ZM854.102 1.64V55H856.102V1.64H854.102Z" fill="#FCFFFF"/>
</svg>
