<svg width="755" height="56" viewBox="0 0 755 56" fill="none" xmlns="http://www.w3.org/2000/svg">
<path opacity="0.2" d="M-92.2 48.28L-92.8927 49.0013L-92.8854 49.0082L-92.2 48.28ZM-92.2 8.52L-91.5111 9.24482L-91.5109 9.24464L-92.2 8.52ZM-49.56 13.8L-49.1187 14.6973L-48.1689 14.2302L-48.6891 13.3085L-49.56 13.8ZM-59.32 18.6L-60.2058 19.064L-59.7535 19.9276L-58.8787 19.4973L-59.32 18.6ZM-64.52 13.08L-65.0747 13.912L-65.0633 13.9196L-65.0518 13.9269L-64.52 13.08ZM-83.88 15.8L-83.1556 16.4894V16.4894L-83.88 15.8ZM-83.88 40.92L-83.1556 40.2306L-83.88 40.92ZM-64.52 43.72L-65.0518 42.8731L-65.0608 42.8788L-64.52 43.72ZM-59.32 38.12L-58.8846 37.2197L-59.7649 36.794L-60.2102 37.6645L-59.32 38.12ZM-49.56 42.84L-48.6947 43.3412L-48.1546 42.4089L-49.1246 41.9397L-49.56 42.84ZM-71.88 54.96C-79.7556 54.96 -86.2767 52.4816 -91.5146 47.5518L-92.8854 49.0082C-87.2433 54.3184 -80.2177 56.96 -71.88 56.96V54.96ZM-91.5073 47.5588C-96.6798 42.5911 -99.28 36.2203 -99.28 28.36H-101.28C-101.28 36.7131 -98.4936 43.6222 -92.8927 49.0012L-91.5073 47.5588ZM-99.28 28.36C-99.28 20.4997 -96.6799 14.1578 -91.5111 9.24482L-92.8889 7.79518C-98.4934 13.1222 -101.28 20.0069 -101.28 28.36H-99.28ZM-91.5109 9.24464C-86.2724 4.26297 -79.7526 1.76 -71.88 1.76V-0.240002C-80.2207 -0.240002 -87.2476 2.43036 -92.8891 7.79535L-91.5109 9.24464ZM-71.88 1.76C-62.2678 1.76 -55.1604 5.912 -50.4309 14.2915L-48.6891 13.3085C-53.7729 4.30133 -61.5455 -0.240002 -71.88 -0.240002V1.76ZM-50.0013 12.9026L-59.7613 17.7026L-58.8787 19.4973L-49.1187 14.6973L-50.0013 12.9026ZM-58.4342 18.136C-59.6954 15.7282 -61.5561 13.7603 -63.9882 12.2331L-65.0518 13.9269C-62.8972 15.2797 -61.2913 16.9918 -60.2058 19.064L-58.4342 18.136ZM-63.9653 12.2479C-66.3679 10.6462 -69.0139 9.84 -71.88 9.84V11.84C-69.4128 11.84 -67.1521 12.5271 -65.0747 13.912L-63.9653 12.2479ZM-71.88 9.84C-76.9878 9.84 -81.256 11.592 -84.6044 15.1106L-83.1556 16.4894C-80.2106 13.3947 -76.4789 11.84 -71.88 11.84V9.84ZM-84.6044 15.1106C-87.9481 18.6243 -89.6 23.0674 -89.6 28.36H-87.6C-87.6 23.5193 -86.1052 19.589 -83.1556 16.4894L-84.6044 15.1106ZM-89.6 28.36C-89.6 33.6526 -87.9481 38.0957 -84.6044 41.6094L-83.1556 40.2306C-86.1052 37.131 -87.6 33.2007 -87.6 28.36H-89.6ZM-84.6044 41.6094C-81.256 45.128 -76.9878 46.88 -71.88 46.88V44.88C-76.4789 44.88 -80.2106 43.3253 -83.1556 40.2306L-84.6044 41.6094ZM-71.88 46.88C-69.0219 46.88 -66.3808 46.105 -63.9792 44.5612L-65.0608 42.8788C-67.1392 44.215 -69.4048 44.88 -71.88 44.88V46.88ZM-63.9882 44.5669C-61.5505 43.0362 -59.6894 41.0375 -58.4298 38.5755L-60.2102 37.6645C-61.2973 39.7891 -62.9029 41.5238 -65.0518 42.8731L-63.9882 44.5669ZM-59.7554 39.0203L-49.9954 43.7403L-49.1246 41.9397L-58.8846 37.2197L-59.7554 39.0203ZM-50.4253 42.3388C-55.3198 50.7882 -62.4364 54.96 -71.88 54.96V56.96C-61.6969 56.96 -53.9335 52.3852 -48.6947 43.3412L-50.4253 42.3388ZM-0.798126 49.96L-1.49588 49.2436L-1.50053 49.2482L-0.798126 49.96ZM-36.7181 49.96L-37.4253 50.6672L-37.4159 50.6763L-36.7181 49.96ZM-42.7981 1.64V0.639996H-43.7981V1.64H-42.7981ZM-31.2781 1.64H-30.2781V0.639996H-31.2781V1.64ZM-27.9981 42.52L-28.7219 43.2101L-28.7137 43.2185L-27.9981 42.52ZM-9.51812 42.52L-10.2419 41.8299L-10.2423 41.8303L-9.51812 42.52ZM-6.23813 1.64V0.639996H-7.23813V1.64H-6.23813ZM5.36188 1.64H6.36188V0.639996H5.36188V1.64ZM-1.50053 49.2482C-5.30425 53.0019 -10.9845 54.96 -18.7181 54.96V56.96C-10.6651 56.96 -4.39866 54.9181 -0.0957184 50.6718L-1.50053 49.2482ZM-18.7181 54.96C-26.4507 54.96 -32.1615 53.0023 -36.0204 49.2437L-37.4159 50.6763C-33.0614 54.9177 -26.7722 56.96 -18.7181 56.96V54.96ZM-36.011 49.2529C-39.8431 45.4208 -41.7981 40.2799 -41.7981 33.72H-43.7981C-43.7981 40.7067 -41.6998 46.3925 -37.4252 50.6671L-36.011 49.2529ZM-41.7981 33.72V1.64H-43.7981V33.72H-41.7981ZM-42.7981 2.64H-31.2781V0.639996H-42.7981V2.64ZM-32.2781 1.64V33.32H-30.2781V1.64H-32.2781ZM-32.2781 33.32C-32.2781 37.3593 -31.122 40.6928 -28.7219 43.2101L-27.2744 41.8299C-29.2476 39.7605 -30.2781 36.9607 -30.2781 33.32H-32.2781ZM-28.7137 43.2185C-26.2901 45.7012 -22.9088 46.88 -18.7181 46.88V44.88C-22.5275 44.88 -25.3328 43.8188 -27.2825 41.8215L-28.7137 43.2185ZM-18.7181 46.88C-14.5289 46.88 -11.1673 45.7016 -8.79398 43.2097L-10.2423 41.8303C-12.1356 43.8184 -14.9074 44.88 -18.7181 44.88V46.88ZM-8.79439 43.2101C-6.39423 40.6928 -5.23813 37.3593 -5.23813 33.32H-7.23813C-7.23813 36.9607 -8.26868 39.7605 -10.2419 41.8299L-8.79439 43.2101ZM-5.23813 33.32V1.64H-7.23813V33.32H-5.23813ZM-6.23813 2.64H5.36188V0.639996H-6.23813V2.64ZM4.36188 1.64V33.64H6.36188V1.64H4.36188ZM4.36188 33.64C4.36188 40.3082 2.3796 45.4688 -1.49586 49.2437L-0.10038 50.6763C4.2375 46.4511 6.36188 40.7318 6.36188 33.64H4.36188ZM39.6337 55V56H40.6337V55H39.6337ZM28.1938 55H27.1938V56H28.1938V55ZM28.1938 11.64H29.1938V10.64H28.1938V11.64ZM12.5938 11.64H11.5938V12.64H12.5938V11.64ZM12.5938 1.64V0.639996H11.5938V1.64H12.5938ZM55.1537 1.64H56.1537V0.639996H55.1537V1.64ZM55.1537 11.64V12.64H56.1537V11.64H55.1537ZM39.6337 11.64V10.64H38.6337V11.64H39.6337ZM39.6337 54H28.1938V56H39.6337V54ZM29.1938 55V11.64H27.1938V55H29.1938ZM28.1938 10.64H12.5938V12.64H28.1938V10.64ZM13.5938 11.64V1.64H11.5938V11.64H13.5938ZM12.5938 2.64H55.1537V0.639996H12.5938V2.64ZM54.1537 1.64V11.64H56.1537V1.64H54.1537ZM55.1537 10.64H39.6337V12.64H55.1537V10.64ZM38.6337 11.64V55H40.6337V11.64H38.6337ZM65.7631 48.2L65.056 48.9071L65.0633 48.9143L65.7631 48.2ZM65.7631 8.6L66.4666 9.31072L66.4666 9.31068L65.7631 8.6ZM105.763 8.52L105.06 9.23073L105.063 9.23428L105.763 8.52ZM105.763 48.2L105.063 47.4857L105.06 47.4893L105.763 48.2ZM74.0031 40.92L73.255 41.5836L73.261 41.5903L74.0031 40.92ZM97.5231 40.92L98.2652 41.5903L97.5231 40.92ZM97.5231 15.8L96.781 16.4703L97.5231 15.8ZM74.0031 15.8L73.261 15.1297L73.2551 15.1364L74.0031 15.8ZM85.7631 54.96C77.9458 54.96 71.5385 52.4587 66.463 47.4857L65.0633 48.9143C70.5478 54.288 77.4738 56.96 85.7631 56.96V54.96ZM66.4702 47.4929C61.4475 42.4701 58.9231 36.1189 58.9231 28.36H56.9231C56.9231 36.6011 59.6254 43.4765 65.056 48.9071L66.4702 47.4929ZM58.9231 28.36C58.9231 20.6011 61.4473 14.2788 66.4666 9.31072L65.0596 7.88927C59.6256 13.2679 56.9231 20.1189 56.9231 28.36H58.9231ZM66.4666 9.31068C71.5428 4.28583 77.9489 1.76 85.7631 1.76V-0.240002C77.4707 -0.240002 70.5435 2.46083 65.0596 7.88931L66.4666 9.31068ZM85.7631 1.76C93.6359 1.76 100.04 4.26251 105.06 9.23072L106.467 7.80927C101.033 2.43081 94.1037 -0.240002 85.7631 -0.240002V1.76ZM105.063 9.23428C110.133 14.2017 112.683 20.5488 112.683 28.36H114.683C114.683 20.0645 111.953 13.185 106.463 7.80571L105.063 9.23428ZM112.683 28.36C112.683 36.1712 110.133 42.5183 105.063 47.4857L106.463 48.9143C111.953 43.535 114.683 36.6555 114.683 28.36H112.683ZM105.06 47.4893C100.04 52.4575 93.6359 54.96 85.7631 54.96V56.96C94.1037 56.96 101.033 54.2892 106.467 48.9107L105.06 47.4893ZM73.261 41.5903C76.4554 45.127 80.6552 46.88 85.7631 46.88V44.88C81.1644 44.88 77.5241 43.3264 74.7452 40.2497L73.261 41.5903ZM85.7631 46.88C90.8711 46.88 95.0708 45.127 98.2652 41.5903L96.781 40.2497C94.0021 43.3264 90.3619 44.88 85.7631 44.88V46.88ZM98.2652 41.5903C101.441 38.0745 103.003 33.6379 103.003 28.36H101.003C101.003 33.2154 99.5788 37.1522 96.781 40.2497L98.2652 41.5903ZM103.003 28.36C103.003 23.0821 101.441 18.6455 98.2652 15.1297L96.781 16.4703C99.5788 19.5678 101.003 23.5046 101.003 28.36H103.003ZM98.2652 15.1297C95.0708 11.593 90.8711 9.84 85.7631 9.84V11.84C90.3619 11.84 94.0021 13.3936 96.781 16.4703L98.2652 15.1297ZM85.7631 9.84C80.6552 9.84 76.4554 11.593 73.261 15.1297L74.7452 16.4703C77.5241 13.3936 81.1644 11.84 85.7631 11.84V9.84ZM73.2551 15.1364C70.1358 18.6527 68.6031 23.0869 68.6031 28.36H70.6031C70.6031 23.4998 72.0038 19.5607 74.7512 16.4636L73.2551 15.1364ZM68.6031 28.36C68.6031 33.6331 70.1358 38.0673 73.2551 41.5836L74.7512 40.2564C72.0038 37.1593 70.6031 33.2202 70.6031 28.36H68.6031ZM179.495 55V56H180.495V55H179.495ZM168.055 55H167.055V56H168.055V55ZM168.055 17.64H169.055L167.127 17.2666L168.055 17.64ZM153.015 55V56H153.69L153.943 55.3734L153.015 55ZM148.055 55L147.127 55.3734L147.38 56H148.055V55ZM133.015 17.64L133.943 17.2666L132.015 17.64H133.015ZM133.015 55V56H134.015V55H133.015ZM121.655 55H120.655V56H121.655V55ZM121.655 1.64V0.639996H120.655V1.64H121.655ZM137.575 1.64L138.503 1.26702L138.251 0.639996H137.575V1.64ZM150.535 33.88L149.607 34.253L150.535 36.5611L151.463 34.253L150.535 33.88ZM163.495 1.64V0.639996H162.819L162.567 1.26702L163.495 1.64ZM179.495 1.64H180.495V0.639996H179.495V1.64ZM179.495 54H168.055V56H179.495V54ZM169.055 55V17.64H167.055V55H169.055ZM167.127 17.2666L152.087 54.6266L153.943 55.3734L168.983 18.0134L167.127 17.2666ZM153.015 54H148.055V56H153.015V54ZM148.983 54.6266L133.943 17.2666L132.087 18.0134L147.127 55.3734L148.983 54.6266ZM132.015 17.64V55H134.015V17.64H132.015ZM133.015 54H121.655V56H133.015V54ZM122.655 55V1.64H120.655V55H122.655ZM121.655 2.64H137.575V0.639996H121.655V2.64ZM136.647 2.01297L149.607 34.253L151.463 33.507L138.503 1.26702L136.647 2.01297ZM151.463 34.253L164.423 2.01297L162.567 1.26702L149.607 33.507L151.463 34.253ZM163.495 2.64H179.495V0.639996H163.495V2.64ZM178.495 1.64V55H180.495V1.64H178.495ZM210.561 55H209.561V56H210.561V55ZM210.561 1.64V0.639996H209.561V1.64H210.561ZM249.921 5.64L249.214 6.3471L249.221 6.35417L249.228 6.3611L249.921 5.64ZM244.801 27.48L244.601 26.5002L244.655 28.4692L244.801 27.48ZM252.081 31.88L251.296 32.4986L252.081 31.88ZM240.641 13.08L239.934 13.7871L239.951 13.8039L239.969 13.8199L240.641 13.08ZM221.921 11.4V10.4H220.921V11.4H221.921ZM221.921 23H220.921V24H221.921V23ZM241.601 43.56L242.257 44.3146L242.267 44.3067L242.276 44.2985L241.601 43.56ZM241.601 34.6L240.894 35.3071L240.902 35.315L240.91 35.3226L241.601 34.6ZM221.921 32.76V31.76H220.921V32.76H221.921ZM221.921 45.16H220.921V46.16H221.921V45.16ZM239.521 54H210.561V56H239.521V54ZM211.561 55V1.64H209.561V55H211.561ZM210.561 2.64H238.641V0.639996H210.561V2.64ZM238.641 2.64C243.309 2.64 246.785 3.91762 249.214 6.3471L250.628 4.93289C247.725 2.02904 243.68 0.639996 238.641 0.639996V2.64ZM249.228 6.3611C251.751 8.78505 253.001 11.7243 253.001 15.24H255.001C255.001 11.1824 253.531 7.72161 250.614 4.91889L249.228 6.3611ZM253.001 15.24C253.001 18.3033 252.177 20.7915 250.582 22.773L252.14 24.027C254.065 21.6351 255.001 18.6834 255.001 15.24H253.001ZM250.582 22.773C248.96 24.7885 246.974 26.016 244.601 26.5002L245.001 28.4598C247.855 27.8773 250.242 26.3848 252.14 24.027L250.582 22.773ZM244.655 28.4692C247.257 28.8547 249.464 30.1716 251.296 32.4986L252.867 31.2614C250.752 28.5751 248.106 26.9586 244.948 26.4908L244.655 28.4692ZM251.296 32.4986C253.125 34.8221 254.041 37.5089 254.041 40.6H256.041C256.041 37.0778 254.984 33.9512 252.867 31.2614L251.296 32.4986ZM254.041 40.6C254.041 44.5186 252.77 47.6966 250.254 50.2129L251.668 51.6271C254.592 48.7034 256.041 45.0014 256.041 40.6H254.041ZM250.254 50.2129C247.77 52.6973 244.239 54 239.521 54V56C244.616 56 248.713 54.5827 251.668 51.6271L250.254 50.2129ZM236.161 24C238.273 24 240.063 23.4082 241.411 22.1241L240.032 20.6759C239.14 21.5251 237.89 22 236.161 22V24ZM241.411 22.1241C242.751 20.8482 243.401 19.189 243.401 17.24H241.401C241.401 18.7043 240.932 19.8185 240.032 20.6759L241.411 22.1241ZM243.401 17.24C243.401 15.2757 242.713 13.6119 241.314 12.3401L239.969 13.8199C240.916 14.6814 241.401 15.791 241.401 17.24H243.401ZM241.348 12.3729C240.008 11.0322 238.242 10.4 236.161 10.4V12.4C237.814 12.4 239.035 12.8878 239.934 13.7871L241.348 12.3729ZM236.161 10.4H221.921V12.4H236.161V10.4ZM220.921 11.4V23H222.921V11.4H220.921ZM221.921 24H236.161V22H221.921V24ZM236.561 46.16C238.859 46.16 240.798 45.5835 242.257 44.3146L240.945 42.8054C239.951 43.6699 238.53 44.16 236.561 44.16V46.16ZM242.276 44.2985C243.743 42.9588 244.441 41.1529 244.441 39H242.441C242.441 40.6871 241.913 41.9212 240.927 42.8215L242.276 44.2985ZM244.441 39C244.441 36.9784 243.724 35.247 242.292 33.8774L240.91 35.3226C241.931 36.2996 242.441 37.5016 242.441 39H244.441ZM242.308 33.8929C240.853 32.4374 238.895 31.76 236.561 31.76V33.76C238.494 33.76 239.896 34.3092 240.894 35.3071L242.308 33.8929ZM236.561 31.76H221.921V33.76H236.561V31.76ZM220.921 32.76V45.16H222.921V32.76H220.921ZM221.921 46.16H236.561V44.16H221.921V46.16ZM287.426 55V56H288.426V55H287.426ZM276.066 55H275.066V56H276.066V55ZM276.066 33.16H277.066V32.8627L276.904 32.6137L276.066 33.16ZM255.506 1.64V0.639996H253.66L254.669 2.18633L255.506 1.64ZM268.466 1.64L269.316 1.11342L269.023 0.639996H268.466V1.64ZM281.746 23.08L280.896 23.6066L281.751 24.9874L282.599 23.602L281.746 23.08ZM294.866 1.64V0.639996H294.306L294.013 1.11803L294.866 1.64ZM307.826 1.64L308.666 2.18333L309.665 0.639996H307.826V1.64ZM287.426 33.16L286.587 32.6167L286.426 32.8646V33.16H287.426ZM287.426 54H276.066V56H287.426V54ZM277.066 55V33.16H275.066V55H277.066ZM276.904 32.6137L256.344 1.09366L254.669 2.18633L275.229 33.7063L276.904 32.6137ZM255.506 2.64H268.466V0.639996H255.506V2.64ZM267.616 2.16657L280.896 23.6066L282.596 22.5534L269.316 1.11342L267.616 2.16657ZM282.599 23.602L295.719 2.16196L294.013 1.11803L280.893 22.558L282.599 23.602ZM294.866 2.64H307.826V0.639996H294.866V2.64ZM306.987 1.09666L286.587 32.6167L288.266 33.7033L308.666 2.18333L306.987 1.09666ZM286.426 33.16V55H288.426V33.16H286.426ZM359.457 55V56H360.457V55H359.457ZM348.098 55H347.098V56H348.098V55ZM348.098 33.16H349.098V32.8627L348.935 32.6137L348.098 33.16ZM327.538 1.64V0.639996H325.691L326.7 2.18633L327.538 1.64ZM340.497 1.64L341.348 1.11342L341.054 0.639996H340.497V1.64ZM353.777 23.08L352.927 23.6066L353.783 24.9874L354.63 23.602L353.777 23.08ZM366.897 1.64V0.639996H366.337L366.045 1.11803L366.897 1.64ZM379.858 1.64L380.697 2.18333L381.696 0.639996H379.858V1.64ZM359.457 33.16L358.618 32.6167L358.457 32.8646V33.16H359.457ZM359.457 54H348.098V56H359.457V54ZM349.098 55V33.16H347.098V55H349.098ZM348.935 32.6137L328.375 1.09366L326.7 2.18633L347.26 33.7063L348.935 32.6137ZM327.538 2.64H340.497V0.639996H327.538V2.64ZM339.647 2.16657L352.927 23.6066L354.628 22.5534L341.348 1.11342L339.647 2.16657ZM354.63 23.602L367.75 2.16196L366.045 1.11803L352.925 22.558L354.63 23.602ZM366.897 2.64H379.858V0.639996H366.897V2.64ZM379.018 1.09666L358.618 32.6167L360.297 33.7033L380.697 2.18333L379.018 1.09666ZM358.457 33.16V55H360.457V33.16H358.457ZM386.857 48.2L386.15 48.9071L386.157 48.9143L386.857 48.2ZM386.857 8.6L387.56 9.31072L387.56 9.31068L386.857 8.6ZM426.857 8.52L426.153 9.23073L426.157 9.23428L426.857 8.52ZM426.857 48.2L426.157 47.4857L426.153 47.4893L426.857 48.2ZM395.097 40.92L394.349 41.5836L394.355 41.5903L395.097 40.92ZM418.617 40.92L419.359 41.5903L418.617 40.92ZM418.617 15.8L417.875 16.4703L418.617 15.8ZM395.097 15.8L394.355 15.1297L394.349 15.1364L395.097 15.8ZM406.857 54.96C399.04 54.96 392.632 52.4587 387.557 47.4857L386.157 48.9143C391.642 54.288 398.568 56.96 406.857 56.96V54.96ZM387.564 47.4929C382.541 42.4701 380.017 36.1189 380.017 28.36H378.017C378.017 36.6011 380.719 43.4765 386.15 48.9071L387.564 47.4929ZM380.017 28.36C380.017 20.6011 382.541 14.2788 387.56 9.31072L386.153 7.88927C380.719 13.2679 378.017 20.1189 378.017 28.36H380.017ZM387.56 9.31068C392.637 4.28583 399.043 1.76 406.857 1.76V-0.240002C398.564 -0.240002 391.637 2.46083 386.153 7.88931L387.56 9.31068ZM406.857 1.76C414.73 1.76 421.134 4.26251 426.153 9.23072L427.56 7.80927C422.126 2.43081 415.197 -0.240002 406.857 -0.240002V1.76ZM426.157 9.23428C431.227 14.2017 433.777 20.5488 433.777 28.36H435.777C435.777 20.0645 433.047 13.185 427.557 7.80571L426.157 9.23428ZM433.777 28.36C433.777 36.1712 431.227 42.5183 426.157 47.4857L427.557 48.9143C433.047 43.535 435.777 36.6555 435.777 28.36H433.777ZM426.153 47.4893C421.134 52.4575 414.73 54.96 406.857 54.96V56.96C415.197 56.96 422.126 54.2892 427.56 48.9107L426.153 47.4893ZM394.355 41.5903C397.549 45.127 401.749 46.88 406.857 46.88V44.88C402.258 44.88 398.618 43.3264 395.839 40.2497L394.355 41.5903ZM406.857 46.88C411.965 46.88 416.165 45.127 419.359 41.5903L417.875 40.2497C415.096 43.3264 411.456 44.88 406.857 44.88V46.88ZM419.359 41.5903C422.535 38.0745 424.097 33.6379 424.097 28.36H422.097C422.097 33.2154 420.673 37.1522 417.875 40.2497L419.359 41.5903ZM424.097 28.36C424.097 23.0821 422.535 18.6455 419.359 15.1297L417.875 16.4703C420.673 19.5678 422.097 23.5046 422.097 28.36H424.097ZM419.359 15.1297C416.165 11.593 411.965 9.84 406.857 9.84V11.84C411.456 11.84 415.096 13.3936 417.875 16.4703L419.359 15.1297ZM406.857 9.84C401.749 9.84 397.549 11.593 394.355 15.1297L395.839 16.4703C398.618 13.3936 402.258 11.84 406.857 11.84V9.84ZM394.349 15.1364C391.23 18.6527 389.697 23.0869 389.697 28.36H391.697C391.697 23.4998 393.098 19.5607 395.845 16.4636L394.349 15.1364ZM389.697 28.36C389.697 33.6331 391.23 38.0673 394.349 41.5836L395.845 40.2564C393.098 37.1593 391.697 33.2202 391.697 28.36H389.697ZM484.749 49.96L484.051 49.2436L484.046 49.2482L484.749 49.96ZM448.829 49.96L448.122 50.6672L448.131 50.6763L448.829 49.96ZM442.749 1.64V0.639996H441.749V1.64H442.749ZM454.269 1.64H455.269V0.639996H454.269V1.64ZM457.549 42.52L456.825 43.2101L456.833 43.2185L457.549 42.52ZM476.029 42.52L475.305 41.8299L475.305 41.8303L476.029 42.52ZM479.309 1.64V0.639996H478.309V1.64H479.309ZM490.909 1.64H491.909V0.639996H490.909V1.64ZM484.046 49.2482C480.243 53.0019 474.562 54.96 466.829 54.96V56.96C474.882 56.96 481.148 54.9181 485.451 50.6718L484.046 49.2482ZM466.829 54.96C459.096 54.96 453.385 53.0023 449.526 49.2437L448.131 50.6763C452.485 54.9177 458.775 56.96 466.829 56.96V54.96ZM449.536 49.2529C445.704 45.4208 443.749 40.2799 443.749 33.72H441.749C441.749 40.7067 443.847 46.3925 448.122 50.6671L449.536 49.2529ZM443.749 33.72V1.64H441.749V33.72H443.749ZM442.749 2.64H454.269V0.639996H442.749V2.64ZM453.269 1.64V33.32H455.269V1.64H453.269ZM453.269 33.32C453.269 37.3593 454.425 40.6928 456.825 43.2101L458.272 41.8299C456.299 39.7605 455.269 36.9607 455.269 33.32H453.269ZM456.833 43.2185C459.257 45.7012 462.638 46.88 466.829 46.88V44.88C463.019 44.88 460.214 43.8188 458.264 41.8215L456.833 43.2185ZM466.829 46.88C471.018 46.88 474.38 45.7016 476.753 43.2097L475.305 41.8303C473.411 43.8184 470.639 44.88 466.829 44.88V46.88ZM476.753 43.2101C479.153 40.6928 480.309 37.3593 480.309 33.32H478.309C478.309 36.9607 477.278 39.7605 475.305 41.8299L476.753 43.2101ZM480.309 33.32V1.64H478.309V33.32H480.309ZM479.309 2.64H490.909V0.639996H479.309V2.64ZM489.909 1.64V33.64H491.909V1.64H489.909ZM489.909 33.64C489.909 40.3082 487.926 45.4688 484.051 49.2437L485.446 50.6763C489.784 46.4511 491.909 40.7318 491.909 33.64H489.909ZM544.621 55V56H546.373L545.482 54.4915L544.621 55ZM531.581 55L530.705 55.4838L530.991 56H531.581V55ZM521.101 36.04L521.976 35.5562L521.69 35.04H521.101V36.04ZM512.781 36.04V35.04H511.781V36.04H512.781ZM512.781 55V56H513.781V55H512.781ZM501.421 55H500.421V56H501.421V55ZM501.421 1.64V0.639996H500.421V1.64H501.421ZM539.421 6.43999L538.714 7.14713L538.719 7.15292L539.421 6.43999ZM540.861 29.48L540.096 28.8354L540.089 28.8443L540.861 29.48ZM532.621 34.68L532.397 33.7053L531.064 34.0112L531.76 35.1885L532.621 34.68ZM530.461 24.12L531.111 24.8793L531.119 24.8727L531.127 24.8659L530.461 24.12ZM530.461 13.64L529.795 14.3859L529.802 14.3927L529.81 14.3993L530.461 13.64ZM512.781 11.64V10.64H511.781V11.64H512.781ZM512.781 26.04H511.781V27.04H512.781V26.04ZM544.621 54H531.581V56H544.621V54ZM532.456 54.5162L521.976 35.5562L520.225 36.5238L530.705 55.4838L532.456 54.5162ZM521.101 35.04H512.781V37.04H521.101V35.04ZM511.781 36.04V55H513.781V36.04H511.781ZM512.781 54H501.421V56H512.781V54ZM502.421 55V1.64H500.421V55H502.421ZM501.421 2.64H526.381V0.639996H501.421V2.64ZM526.381 2.64C531.669 2.64 535.74 4.17347 538.714 7.1471L540.128 5.73289C536.701 2.30652 532.079 0.639996 526.381 0.639996V2.64ZM538.719 7.15292C541.76 10.1433 543.301 14.0089 543.301 18.84H545.301C545.301 13.5377 543.588 9.13668 540.122 5.72707L538.719 7.15292ZM543.301 18.84C543.301 23.0334 542.205 26.3344 540.096 28.8354L541.625 30.1246C544.103 27.1856 545.301 23.3932 545.301 18.84H543.301ZM540.089 28.8443C537.981 31.404 535.423 33.0109 532.397 33.7053L532.844 35.6547C536.325 34.8558 539.261 32.9959 541.633 30.1157L540.089 28.8443ZM531.76 35.1885L543.76 55.5085L545.482 54.4915L533.482 34.1715L531.76 35.1885ZM524.701 27.04C527.238 27.04 529.403 26.3434 531.111 24.8793L529.81 23.3607C528.531 24.4566 526.857 25.04 524.701 25.04V27.04ZM531.127 24.8659C532.854 23.3241 533.701 21.2821 533.701 18.84H531.701C531.701 20.7713 531.054 22.2492 529.795 23.3741L531.127 24.8659ZM533.701 18.84C533.701 16.3981 532.853 14.3734 531.111 12.8807L529.81 14.3993C531.055 15.4666 531.701 16.9086 531.701 18.84H533.701ZM531.127 12.8941C529.419 11.3695 527.248 10.64 524.701 10.64V12.64C526.846 12.64 528.515 13.2438 529.795 14.3859L531.127 12.8941ZM524.701 10.64H512.781V12.64H524.701V10.64ZM511.781 11.64V26.04H513.781V11.64H511.781ZM512.781 27.04H524.701V25.04H512.781V27.04ZM578.576 48.2L577.868 48.9071L577.876 48.9143L578.576 48.2ZM578.576 8.6L579.279 9.31072V9.31068L578.576 8.6ZM618.576 8.52L617.872 9.23073L617.876 9.23428L618.576 8.52ZM618.576 48.2L617.876 47.4857L617.872 47.4893L618.576 48.2ZM586.816 40.92L586.068 41.5836L586.074 41.5903L586.816 40.92ZM610.336 40.92L611.078 41.5903L610.336 40.92ZM610.336 15.8L609.594 16.4703L610.336 15.8ZM586.816 15.8L586.073 15.1297L586.068 15.1364L586.816 15.8ZM598.576 54.96C590.758 54.96 584.351 52.4587 579.275 47.4857L577.876 48.9143C583.36 54.288 590.286 56.96 598.576 56.96V54.96ZM579.283 47.4929C574.26 42.4701 571.736 36.1189 571.736 28.36H569.736C569.736 36.6011 572.438 43.4765 577.869 48.9071L579.283 47.4929ZM571.736 28.36C571.736 20.6011 574.26 14.2788 579.279 9.31072L577.872 7.88927C572.438 13.2679 569.736 20.1189 569.736 28.36H571.736ZM579.279 9.31068C584.355 4.28583 590.761 1.76 598.576 1.76V-0.240002C590.283 -0.240002 583.356 2.46083 577.872 7.88931L579.279 9.31068ZM598.576 1.76C606.448 1.76 612.853 4.26251 617.872 9.23072L619.279 7.80927C613.845 2.43081 606.916 -0.240002 598.576 -0.240002V1.76ZM617.876 9.23428C622.946 14.2017 625.496 20.5488 625.496 28.36H627.496C627.496 20.0645 624.766 13.185 619.276 7.80571L617.876 9.23428ZM625.496 28.36C625.496 36.1712 622.946 42.5183 617.876 47.4857L619.276 48.9143C624.766 43.535 627.496 36.6555 627.496 28.36H625.496ZM617.872 47.4893C612.853 52.4575 606.448 54.96 598.576 54.96V56.96C606.916 56.96 613.845 54.2892 619.279 48.9107L617.872 47.4893ZM586.074 41.5903C589.268 45.127 593.468 46.88 598.576 46.88V44.88C593.977 44.88 590.337 43.3264 587.558 40.2497L586.074 41.5903ZM598.576 46.88C603.684 46.88 607.883 45.127 611.078 41.5903L609.594 40.2497C606.815 43.3264 603.174 44.88 598.576 44.88V46.88ZM611.078 41.5903C614.253 38.0745 615.816 33.6379 615.816 28.36H613.816C613.816 33.2154 612.391 37.1522 609.594 40.2497L611.078 41.5903ZM615.816 28.36C615.816 23.0821 614.253 18.6455 611.078 15.1297L609.594 16.4703C612.391 19.5678 613.816 23.5046 613.816 28.36H615.816ZM611.078 15.1297C607.883 11.593 603.684 9.84 598.576 9.84V11.84C603.174 11.84 606.815 13.3936 609.594 16.4703L611.078 15.1297ZM598.576 9.84C593.468 9.84 589.268 11.593 586.074 15.1297L587.558 16.4703C590.337 13.3936 593.977 11.84 598.576 11.84V9.84ZM586.068 15.1364C582.948 18.6527 581.416 23.0869 581.416 28.36H583.416C583.416 23.4998 584.816 19.5607 587.564 16.4636L586.068 15.1364ZM581.416 28.36C581.416 33.6331 582.948 38.0673 586.068 41.5836L587.564 40.2564C584.816 37.1593 583.416 33.2202 583.416 28.36H581.416ZM685.785 55V56H686.54L686.747 55.274L685.785 55ZM673.705 55L672.736 55.2475L672.928 56H673.705V55ZM664.345 18.36L665.314 18.1125L663.376 18.1145L664.345 18.36ZM655.065 55V56H655.843L656.034 55.2455L655.065 55ZM642.985 55L642.024 55.2753L642.231 56H642.985V55ZM627.705 1.64V0.639996H626.378L626.744 1.91529L627.705 1.64ZM640.425 1.64L641.397 1.40411L641.211 0.639996H640.425V1.64ZM649.785 40.2L648.813 40.4359L650.752 40.4548L649.785 40.2ZM659.945 1.64V0.639996H659.174L658.978 1.38521L659.945 1.64ZM668.825 1.64L669.792 1.38708L669.597 0.639996H668.825V1.64ZM678.905 40.2L677.938 40.4529L679.877 40.434L678.905 40.2ZM688.185 1.64V0.639996H687.397L687.213 1.40601L688.185 1.64ZM700.985 1.64L701.947 1.91396L702.31 0.639996H700.985V1.64ZM685.785 54H673.705V56H685.785V54ZM674.674 54.7525L665.314 18.1125L663.376 18.6075L672.736 55.2475L674.674 54.7525ZM663.376 18.1145L654.096 54.7545L656.034 55.2455L665.314 18.6055L663.376 18.1145ZM655.065 54H642.985V56H655.065V54ZM643.946 54.7247L628.666 1.3647L626.744 1.91529L642.024 55.2753L643.946 54.7247ZM627.705 2.64H640.425V0.639996H627.705V2.64ZM639.453 1.87589L648.813 40.4359L650.757 39.9641L641.397 1.40411L639.453 1.87589ZM650.752 40.4548L660.912 1.89478L658.978 1.38521L648.818 39.9452L650.752 40.4548ZM659.945 2.64H668.825V0.639996H659.945V2.64ZM667.858 1.89291L677.938 40.4529L679.872 39.9471L669.792 1.38708L667.858 1.89291ZM679.877 40.434L689.157 1.87398L687.213 1.40601L677.933 39.966L679.877 40.434ZM688.185 2.64H700.985V0.639996H688.185V2.64ZM700.023 1.36604L684.823 54.726L686.747 55.274L701.947 1.91396L700.023 1.36604ZM754.102 55V56H755.102V55H754.102ZM743.143 55L742.335 55.5902L742.635 56H743.143V55ZM717.703 20.2L718.51 19.6098L716.703 17.1376V20.2H717.703ZM717.703 55V56H718.703V55H717.703ZM706.343 55H705.343V56H706.343V55ZM706.343 1.64V0.639996H705.343V1.64H706.343ZM718.023 1.64L718.827 1.04647L718.528 0.639996H718.023V1.64ZM742.742 35.16L741.938 35.7535L743.742 38.2008V35.16H742.742ZM742.742 1.64V0.639996H741.742V1.64H742.742ZM754.102 1.64H755.102V0.639996H754.102V1.64ZM754.102 54H743.143V56H754.102V54ZM743.95 54.4098L718.51 19.6098L716.895 20.7902L742.335 55.5902L743.95 54.4098ZM716.703 20.2V55H718.703V20.2H716.703ZM717.703 54H706.343V56H717.703V54ZM707.343 55V1.64H705.343V55H707.343ZM706.343 2.64H718.023V0.639996H706.343V2.64ZM717.218 2.23352L741.938 35.7535L743.547 34.5665L718.827 1.04647L717.218 2.23352ZM743.742 35.16V1.64H741.742V35.16H743.742ZM742.742 2.64H754.102V0.639996H742.742V2.64ZM753.102 1.64V55H755.102V1.64H753.102Z" fill="#FCFFFF"/>
</svg>
