<svg width="77" height="20" viewBox="0 0 77 20" fill="none" xmlns="http://www.w3.org/2000/svg">
<path d="M7.5 17.5H4.16667C3.72464 17.5 3.30072 17.3244 2.98816 17.0118C2.67559 16.6993 2.5 16.2754 2.5 15.8333V4.16667C2.5 3.72464 2.67559 3.30072 2.98816 2.98816C3.30072 2.67559 3.72464 2.5 4.16667 2.5H7.5" stroke="#525960" stroke-width="2" stroke-linecap="round" stroke-linejoin="round"/>
<path d="M13.3334 14.1663L17.5 9.99967L13.3334 5.83301" stroke="#525960" stroke-width="2" stroke-linecap="round" stroke-linejoin="round"/>
<path d="M17.5 10H7.5" stroke="#525960" stroke-width="2" stroke-linecap="round" stroke-linejoin="round"/>
<path d="M29.12 15.5V5.42H30.149V14.513H34.937V15.5H29.12ZM39.2874 15.71C38.5361 15.71 37.8944 15.5397 37.3624 15.199C36.8304 14.8583 36.4221 14.387 36.1374 13.785C35.8527 13.183 35.7104 12.4923 35.7104 11.713C35.7104 10.9197 35.8551 10.2243 36.1444 9.627C36.4337 9.02967 36.8444 8.56533 37.3764 8.234C37.9131 7.898 38.5501 7.73 39.2874 7.73C40.0434 7.73 40.6874 7.90033 41.2194 8.241C41.7561 8.577 42.1644 9.046 42.4444 9.648C42.7291 10.2453 42.8714 10.9337 42.8714 11.713C42.8714 12.5063 42.7291 13.204 42.4444 13.806C42.1597 14.4033 41.7491 14.87 41.2124 15.206C40.6757 15.542 40.0341 15.71 39.2874 15.71ZM39.2874 14.723C40.1274 14.723 40.7527 14.4453 41.1634 13.89C41.5741 13.33 41.7794 12.6043 41.7794 11.713C41.7794 10.7983 41.5717 10.0703 41.1564 9.529C40.7457 8.98767 40.1227 8.717 39.2874 8.717C38.7227 8.717 38.2561 8.84533 37.8874 9.102C37.5234 9.354 37.2504 9.70633 37.0684 10.159C36.8911 10.607 36.8024 11.125 36.8024 11.713C36.8024 12.623 37.0124 13.3533 37.4324 13.904C37.8524 14.45 38.4707 14.723 39.2874 14.723ZM47.4185 19.07C47.0312 19.07 46.6485 19.0117 46.2705 18.895C45.8972 18.783 45.5519 18.6033 45.2345 18.356C44.9172 18.1133 44.6512 17.796 44.4365 17.404L45.3675 16.886C45.5775 17.306 45.8715 17.607 46.2495 17.789C46.6322 17.9757 47.0219 18.069 47.4185 18.069C47.9645 18.069 48.4055 17.9663 48.7415 17.761C49.0822 17.5603 49.3295 17.2617 49.4835 16.865C49.6375 16.4683 49.7122 15.9737 49.7075 15.381V13.365H49.8265V7.94H50.7435V15.395C50.7435 15.6097 50.7365 15.815 50.7225 16.011C50.7132 16.2117 50.6922 16.4077 50.6595 16.599C50.5709 17.1637 50.3865 17.628 50.1065 17.992C49.8312 18.356 49.4672 18.6267 49.0145 18.804C48.5665 18.9813 48.0345 19.07 47.4185 19.07ZM47.3485 15.71C46.6439 15.71 46.0419 15.535 45.5425 15.185C45.0432 14.8303 44.6605 14.352 44.3945 13.75C44.1285 13.148 43.9955 12.469 43.9955 11.713C43.9955 10.9617 44.1262 10.285 44.3875 9.683C44.6535 9.081 45.0339 8.605 45.5285 8.255C46.0232 7.905 46.6159 7.73 47.3065 7.73C48.0159 7.73 48.6132 7.90267 49.0985 8.248C49.5839 8.59333 49.9502 9.067 50.1975 9.669C50.4495 10.2663 50.5755 10.9477 50.5755 11.713C50.5755 12.4643 50.4519 13.1433 50.2045 13.75C49.9572 14.352 49.5932 14.8303 49.1125 15.185C48.6319 15.535 48.0439 15.71 47.3485 15.71ZM47.4535 14.751C47.9902 14.751 48.4335 14.6203 48.7835 14.359C49.1335 14.0977 49.3949 13.7383 49.5675 13.281C49.7402 12.819 49.8265 12.2963 49.8265 11.713C49.8265 11.1203 49.7402 10.5977 49.5675 10.145C49.3949 9.68767 49.1335 9.33067 48.7835 9.074C48.4382 8.81733 48.0019 8.689 47.4745 8.689C46.9332 8.689 46.4852 8.822 46.1305 9.088C45.7759 9.354 45.5122 9.71567 45.3395 10.173C45.1715 10.6303 45.0875 11.1437 45.0875 11.713C45.0875 12.287 45.1739 12.805 45.3465 13.267C45.5239 13.7243 45.7875 14.086 46.1375 14.352C46.4875 14.618 46.9262 14.751 47.4535 14.751ZM58.6604 15.71C57.9091 15.71 57.2674 15.5397 56.7354 15.199C56.2034 14.8583 55.7951 14.387 55.5104 13.785C55.2258 13.183 55.0834 12.4923 55.0834 11.713C55.0834 10.9197 55.2281 10.2243 55.5174 9.627C55.8068 9.02967 56.2174 8.56533 56.7494 8.234C57.2861 7.898 57.9231 7.73 58.6604 7.73C59.4164 7.73 60.0604 7.90033 60.5924 8.241C61.1291 8.577 61.5374 9.046 61.8174 9.648C62.1021 10.2453 62.2444 10.9337 62.2444 11.713C62.2444 12.5063 62.1021 13.204 61.8174 13.806C61.5328 14.4033 61.1221 14.87 60.5854 15.206C60.0488 15.542 59.4071 15.71 58.6604 15.71ZM58.6604 14.723C59.5004 14.723 60.1258 14.4453 60.5364 13.89C60.9471 13.33 61.1524 12.6043 61.1524 11.713C61.1524 10.7983 60.9448 10.0703 60.5294 9.529C60.1188 8.98767 59.4958 8.717 58.6604 8.717C58.0958 8.717 57.6291 8.84533 57.2604 9.102C56.8964 9.354 56.6234 9.70633 56.4414 10.159C56.2641 10.607 56.1754 11.125 56.1754 11.713C56.1754 12.623 56.3854 13.3533 56.8054 13.904C57.2254 14.45 57.8438 14.723 58.6604 14.723ZM66.6796 15.689C66.2269 15.689 65.8303 15.619 65.4896 15.479C65.1536 15.339 64.8666 15.15 64.6286 14.912C64.3953 14.674 64.2063 14.4033 64.0616 14.1C63.9169 13.792 63.8119 13.4677 63.7466 13.127C63.6813 12.7817 63.6486 12.4387 63.6486 12.098V7.94H64.6846V11.797C64.6846 12.2123 64.7243 12.5973 64.8036 12.952C64.8829 13.3067 65.0089 13.617 65.1816 13.883C65.3589 14.1443 65.5853 14.3473 65.8606 14.492C66.1406 14.6367 66.4789 14.709 66.8756 14.709C67.2396 14.709 67.5593 14.646 67.8346 14.52C68.1146 14.394 68.3479 14.2143 68.5346 13.981C68.7259 13.743 68.8706 13.456 68.9686 13.12C69.0666 12.7793 69.1156 12.3967 69.1156 11.972L69.8436 12.133C69.8436 12.9077 69.7083 13.5587 69.4376 14.086C69.1669 14.6133 68.7936 15.0123 68.3176 15.283C67.8416 15.5537 67.2956 15.689 66.6796 15.689ZM69.2206 15.5V13.638H69.1156V7.94H70.1446V15.5H69.2206ZM76.2171 15.5C75.7924 15.5887 75.3724 15.6237 74.9571 15.605C74.5464 15.5863 74.1778 15.4977 73.8511 15.339C73.5291 15.1803 73.2841 14.933 73.1161 14.597C72.9808 14.317 72.9061 14.0347 72.8921 13.75C72.8828 13.4607 72.8781 13.1317 72.8781 12.763V5.84H73.9001V12.721C73.9001 13.0383 73.9024 13.3043 73.9071 13.519C73.9164 13.729 73.9654 13.9157 74.0541 14.079C74.2221 14.3917 74.4881 14.5783 74.8521 14.639C75.2208 14.6997 75.6758 14.6857 76.2171 14.597V15.5ZM71.2611 8.822V7.94H76.2171V8.822H71.2611Z" fill="#C8D2DC"/>
</svg>
