<svg width="14" height="15" viewBox="0 0 14 15" fill="none" xmlns="http://www.w3.org/2000/svg">
<path d="M7.00016 1.6665C5.39191 1.6665 4.0835 2.97492 4.0835 4.58317V5.74984H3.50016C2.85675 5.74984 2.3335 6.27309 2.3335 6.9165V12.1665C2.3335 12.8099 2.85675 13.3332 3.50016 13.3332H10.5002C11.1436 13.3332 11.6668 12.8099 11.6668 12.1665V6.9165C11.6668 6.27309 11.1436 5.74984 10.5002 5.74984H9.91683V4.58317C9.91683 2.97492 8.60841 1.6665 7.00016 1.6665ZM5.25016 4.58317C5.25016 3.61834 6.03533 2.83317 7.00016 2.83317C7.965 2.83317 8.75016 3.61834 8.75016 4.58317V5.74984H5.25016V4.58317ZM10.5013 12.1665H7.5835V10.8377C7.93058 10.6353 8.16683 10.2631 8.16683 9.83317C8.16683 9.18975 7.64358 8.6665 7.00016 8.6665C6.35675 8.6665 5.8335 9.18975 5.8335 9.83317C5.8335 10.2625 6.06975 10.6353 6.41683 10.8377V12.1665H3.50016V6.9165H10.5002L10.5013 12.1665Z" fill="#C8D2DC"/>
</svg>
