<svg width="161" height="46" viewBox="0 0 161 46" fill="none" xmlns="http://www.w3.org/2000/svg">
<path d="M20.6831 11.6895C14.9244 13.6289 15.3855 20.984 15.4131 21.1289C14.2363 14.1456 14.1933 10.4364 18.5445 8.37226C21.7122 6.86949 24.7754 10.3114 20.6831 11.6895Z" fill="url(#paint0_linear_1_95)"/>
<path d="M10.0627 13.0171C10.6057 11.5915 11.5654 11.3017 12.4698 11.4625C13.5732 11.6586 13.798 12.9906 13.4602 14.0592C11.993 18.6999 13.993 22.9244 15.5204 24.6699C11.5378 23.4899 8.88263 16.1147 10.0627 13.0171Z" fill="url(#paint1_linear_1_95)"/>
<path fill-rule="evenodd" clip-rule="evenodd" d="M22.0636 37.7979H16.7752V30.0376C15.3758 29.8162 13.9931 29.5103 12.7178 29.0951C8.98578 27.88 8.00398 26.3245 8.00001 25.2149C7.99754 24.5236 8.32296 23.7279 8.97205 23.4899C9.73616 23.2098 11.2022 23.477 13.7503 25.4075C15.4388 26.6866 17.7427 27.217 20.0155 27.3113C23.0863 27.4239 25.6785 27.1913 26.9856 26.6606C26.9927 26.6584 26.9998 26.6562 27.0068 26.6539C27.0187 26.6485 27.0304 26.643 27.042 26.6375C27.0432 26.637 27.0445 26.6378 27.0445 26.6391V26.6391C27.0445 26.6403 27.0457 26.6412 27.0468 26.6408C27.335 26.5434 27.5906 26.3984 27.8136 26.2058C28.2851 25.8164 28.7971 24.7921 28.7971 24.1157C28.7971 23.4187 28.5613 22.8755 28.0899 22.4861C27.639 22.0966 27.0548 21.9019 26.3373 21.9019H22.0636V26.1445C19.7715 26.0043 17.8062 25.7103 16.7752 25.4284V17.2899H27.0445C29.2583 17.2899 31.0006 17.9459 32.2714 19.2577C33.5423 20.5491 34.1777 22.1684 34.1777 24.1157C34.1777 26.0424 33.5423 27.6618 32.2714 28.9736C31.0006 30.265 29.2583 30.9106 27.0445 30.9106H22.0636V37.7979Z" fill="url(#paint2_linear_1_95)"/>
<path d="M47.0784 32.0524C45.7823 32.0524 44.7211 31.5254 43.895 30.4714V35.7272H41.1816V21.4766H43.895V22.7799C44.7069 21.7401 45.768 21.2202 47.0784 21.2202C48.4316 21.2202 49.5283 21.7045 50.3687 22.6731C51.2233 23.6274 51.6506 24.9449 51.6506 26.6256C51.6506 28.3064 51.2233 29.631 50.3687 30.5996C49.5283 31.5681 48.4316 32.0524 47.0784 32.0524ZM46.2238 29.6381C47.0072 29.6381 47.6339 29.3604 48.104 28.8049C48.5883 28.2494 48.8304 27.523 48.8304 26.6256C48.8304 25.7425 48.5883 25.0232 48.104 24.4677C47.6339 23.9123 47.0072 23.6345 46.2238 23.6345C45.7823 23.6345 45.3407 23.7485 44.8992 23.9763C44.4576 24.2042 44.1229 24.482 43.895 24.8096V28.463C44.1229 28.7906 44.4576 29.0684 44.8992 29.2963C45.355 29.5242 45.7965 29.6381 46.2238 29.6381Z" fill="white"/>
<path d="M58.4877 32.0524C56.8924 32.0524 55.5749 31.5539 54.5351 30.5568C53.4953 29.5598 52.9754 28.2494 52.9754 26.6256C52.9754 25.1016 53.4739 23.8197 54.471 22.7799C55.4823 21.7401 56.7642 21.2202 58.3167 21.2202C59.855 21.2202 61.1013 21.7472 62.0556 22.8013C63.01 23.841 63.4871 25.2084 63.4871 26.9034V27.5016H55.817C55.9025 28.1853 56.2087 28.755 56.7357 29.2108C57.2627 29.6666 57.9464 29.8945 58.7868 29.8945C59.2426 29.8945 59.734 29.8019 60.261 29.6168C60.8022 29.4316 61.2295 29.1823 61.5429 28.869L62.7393 30.6209C61.6996 31.5753 60.2823 32.0524 58.4877 32.0524ZM60.8592 25.6642C60.8165 25.0802 60.5814 24.5532 60.1541 24.0832C59.7411 23.6131 59.1286 23.3781 58.3167 23.3781C57.5476 23.3781 56.9494 23.6131 56.522 24.0832C56.0947 24.539 55.8455 25.066 55.7743 25.6642H60.8592Z" fill="white"/>
<path d="M70.2542 32.0524C68.6589 32.0524 67.3485 31.5468 66.323 30.5355C65.2975 29.5242 64.7847 28.2209 64.7847 26.6256C64.7847 25.0446 65.2975 23.7485 66.323 22.7372C67.3485 21.7259 68.6589 21.2202 70.2542 21.2202C72.0774 21.2202 73.4376 21.8398 74.335 23.079L72.5617 24.7455C72.0631 24.0048 71.3367 23.6345 70.3824 23.6345C69.5563 23.6345 68.8797 23.9123 68.3527 24.4677C67.8399 25.009 67.5836 25.7283 67.5836 26.6256C67.5836 27.523 67.8399 28.2494 68.3527 28.8049C68.8797 29.3604 69.5563 29.6381 70.3824 29.6381C71.3082 29.6381 72.0347 29.2678 72.5617 28.5271L74.335 30.1723C73.4376 31.4257 72.0774 32.0524 70.2542 32.0524Z" fill="white"/>
<path d="M85.8086 31.796H83.0952V25.5146C83.0952 24.831 82.9314 24.3467 82.6038 24.0618C82.2762 23.7769 81.7991 23.6345 81.1724 23.6345C80.218 23.6345 79.4347 24.0404 78.8222 24.8523V31.796H76.1088V17.5454H78.8222V22.8226C79.1925 22.3811 79.691 22.0036 80.3177 21.6903C80.9587 21.3769 81.6709 21.2202 82.4543 21.2202C83.5653 21.2202 84.3985 21.5051 84.954 22.0748C85.5237 22.6446 85.8086 23.4422 85.8086 24.4677V31.796Z" fill="white"/>
<path d="M93.3522 32.0524C91.7569 32.0524 90.4394 31.5539 89.3996 30.5568C88.3599 29.5598 87.84 28.2494 87.84 26.6256C87.84 25.1016 88.3385 23.8197 89.3355 22.7799C90.3468 21.7401 91.6287 21.2202 93.1813 21.2202C94.7196 21.2202 95.9659 21.7472 96.9202 22.8013C97.8745 23.841 98.3517 25.2084 98.3517 26.9034V27.5016H90.6816C90.767 28.1853 91.0732 28.755 91.6003 29.2108C92.1273 29.6666 92.811 29.8945 93.6513 29.8945C94.1071 29.8945 94.5985 29.8019 95.1255 29.6168C95.6668 29.4316 96.0941 29.1823 96.4074 28.869L97.6039 30.6209C96.5641 31.5753 95.1469 32.0524 93.3522 32.0524ZM95.7238 25.6642C95.681 25.0802 95.446 24.5532 95.0187 24.0832C94.6056 23.6131 93.9932 23.3781 93.1813 23.3781C92.4121 23.3781 91.8139 23.6131 91.3866 24.0832C90.9593 24.539 90.71 25.066 90.6388 25.6642H95.7238Z" fill="white"/>
<path d="M109.99 31.796H107.277V25.5574C107.277 24.2755 106.643 23.6345 105.375 23.6345C104.392 23.6345 103.609 24.0404 103.025 24.8523V31.796H100.312V21.4766H103.025V22.8226C103.922 21.7544 105.126 21.2202 106.636 21.2202C107.747 21.2202 108.58 21.5122 109.135 22.0962C109.705 22.6802 109.99 23.4849 109.99 24.5105V31.796Z" fill="white"/>
<path d="M115.291 31.5183C114.949 31.8601 114.543 32.031 114.073 32.031C113.603 32.031 113.197 31.8601 112.855 31.5183C112.513 31.1764 112.342 30.7705 112.342 30.3005C112.342 29.8304 112.513 29.4245 112.855 29.0826C113.197 28.7408 113.603 28.5699 114.073 28.5699C114.543 28.5699 114.949 28.7408 115.291 29.0826C115.633 29.4245 115.804 29.8304 115.804 30.3005C115.804 30.7705 115.633 31.1764 115.291 31.5183Z" fill="white"/>
<path d="M127.06 31.796H124.347V30.7278C123.606 31.6109 122.516 32.0524 121.078 32.0524C120.152 32.0524 119.319 31.7533 118.578 31.1551C117.852 30.5426 117.488 29.7022 117.488 28.634C117.488 27.523 117.845 26.6897 118.557 26.1342C119.283 25.5787 120.123 25.301 121.078 25.301C122.545 25.301 123.634 25.7212 124.347 26.5615V25.1728C124.347 24.6458 124.14 24.2256 123.727 23.9123C123.314 23.5989 122.766 23.4422 122.082 23.4422C120.957 23.4422 119.953 23.8482 119.069 24.66L118.044 22.844C119.269 21.7615 120.772 21.2202 122.552 21.2202C123.877 21.2202 124.959 21.5265 125.799 22.1389C126.64 22.7514 127.06 23.7485 127.06 25.1301V31.796ZM122.167 30.215C123.179 30.215 123.905 29.9159 124.347 29.3177V28.0357C123.905 27.4375 123.179 27.1384 122.167 27.1384C121.612 27.1384 121.149 27.2808 120.779 27.5657C120.408 27.8363 120.223 28.2138 120.223 28.6981C120.223 29.1681 120.408 29.5384 120.779 29.8091C121.149 30.0797 121.612 30.215 122.167 30.215Z" fill="white"/>
<path d="M132.465 31.796H129.751V21.4766H132.465V22.8867C132.849 22.4024 133.341 22.0036 133.939 21.6903C134.537 21.3769 135.143 21.2202 135.755 21.2202V23.8695C135.57 23.8268 135.321 23.8054 135.007 23.8054C134.551 23.8054 134.067 23.9194 133.554 24.1473C133.042 24.3752 132.678 24.6529 132.465 24.9805V31.796Z" fill="white"/>
<path d="M140.912 32.0524C139.957 32.0524 139.231 31.8103 138.732 31.326C138.234 30.8417 137.985 30.1438 137.985 29.2322V23.8482H136.275V21.4766H137.985V18.6564H140.719V21.4766H142.813V23.8482H140.719V28.5058C140.719 28.8334 140.805 29.104 140.976 29.3177C141.147 29.5313 141.374 29.6381 141.659 29.6381C142.087 29.6381 142.4 29.5384 142.599 29.339L143.176 31.3901C142.678 31.8316 141.923 32.0524 140.912 32.0524Z" fill="white"/>
<path d="M148.387 32.0524C147.49 32.0524 146.628 31.91 145.802 31.6251C144.99 31.3402 144.313 30.9485 143.772 30.45L144.947 28.5485C145.346 28.9188 145.887 29.2464 146.571 29.5313C147.255 29.8162 147.903 29.9586 148.515 29.9586C149.085 29.9586 149.512 29.8589 149.797 29.6595C150.096 29.4601 150.246 29.1895 150.246 28.8476C150.246 28.5912 150.089 28.3847 149.776 28.228C149.477 28.0571 149.099 27.936 148.643 27.8648C148.202 27.7936 147.71 27.6868 147.169 27.5443C146.642 27.4019 146.151 27.231 145.695 27.0316C145.253 26.8322 144.876 26.5188 144.563 26.0915C144.264 25.65 144.114 25.1087 144.114 24.4677C144.114 23.5562 144.491 22.787 145.246 22.1603C146.001 21.5336 147.034 21.2202 148.344 21.2202C149.94 21.2202 151.328 21.6903 152.511 22.6303L151.421 24.4891C151.093 24.1473 150.652 23.8624 150.096 23.6345C149.555 23.4066 148.978 23.2927 148.366 23.2927C147.881 23.2927 147.49 23.3924 147.191 23.5918C146.891 23.7769 146.742 24.0191 146.742 24.3182C146.742 24.5461 146.891 24.7384 147.191 24.8951C147.49 25.0375 147.867 25.1443 148.323 25.2155C148.779 25.2867 149.27 25.4007 149.797 25.5574C150.324 25.6998 150.816 25.8779 151.271 26.0915C151.727 26.2909 152.105 26.6185 152.404 27.0743C152.703 27.5301 152.852 28.0856 152.852 28.7408C152.852 29.7094 152.454 30.507 151.656 31.1337C150.873 31.7462 149.783 32.0524 148.387 32.0524Z" fill="white"/>
<defs>
<linearGradient id="paint0_linear_1_95" x1="12" y1="20.5" x2="32.995" y2="27.1491" gradientUnits="userSpaceOnUse">
<stop stop-color="#51EAFF"/>
<stop offset="1" stop-color="#2B59FF"/>
</linearGradient>
<linearGradient id="paint1_linear_1_95" x1="12" y1="20.5" x2="32.995" y2="27.1491" gradientUnits="userSpaceOnUse">
<stop stop-color="#51EAFF"/>
<stop offset="1" stop-color="#2B59FF"/>
</linearGradient>
<linearGradient id="paint2_linear_1_95" x1="12" y1="20.5" x2="32.995" y2="27.1491" gradientUnits="userSpaceOnUse">
<stop stop-color="#51EAFF"/>
<stop offset="1" stop-color="#2B59FF"/>
</linearGradient>
</defs>
</svg>
