<svg width="40" height="40" viewBox="0 0 40 40" fill="none" xmlns="http://www.w3.org/2000/svg">
<path d="M28.3332 15.0002V11.6668C28.3332 7.00016 24.6665 3.3335 19.9998 3.3335C15.3332 3.3335 11.6665 7.00016 11.6665 11.6668V15.0002C8.83317 15.0002 6.6665 17.1668 6.6665 20.0002V31.6668C6.6665 34.5002 8.83317 36.6668 11.6665 36.6668H28.3332C31.1665 36.6668 33.3332 34.5002 33.3332 31.6668V20.0002C33.3332 17.1668 31.1665 15.0002 28.3332 15.0002ZM14.9998 11.6668C14.9998 8.8335 17.1665 6.66683 19.9998 6.66683C22.8332 6.66683 24.9998 8.8335 24.9998 11.6668V15.0002H14.9998V11.6668ZM21.8332 25.8335L21.6665 26.0002V28.3335C21.6665 29.3335 20.9998 30.0002 19.9998 30.0002C18.9998 30.0002 18.3332 29.3335 18.3332 28.3335V26.0002C17.3332 25.0002 17.1665 23.5002 18.1665 22.5002C19.1665 21.5002 20.6665 21.3335 21.6665 22.3335C22.6665 23.1668 22.8332 24.8335 21.8332 25.8335Z" fill="#C8D2DC"/>
</svg>
