<svg width="16" height="17" viewBox="0 0 16 17" fill="none" xmlns="http://www.w3.org/2000/svg">
<path d="M8.47345 8.49987L6.11345 10.8599C5.98928 10.9848 5.91959 11.1537 5.91959 11.3299C5.91959 11.506 5.98928 11.675 6.11345 11.7999C6.17543 11.8624 6.24916 11.912 6.3304 11.9458C6.41164 11.9796 6.49878 11.9971 6.58679 11.9971C6.67479 11.9971 6.76193 11.9796 6.84317 11.9458C6.92441 11.912 6.99814 11.8624 7.06012 11.7999L9.88679 8.97321C9.94927 8.91123 9.99887 8.8375 10.0327 8.75626C10.0666 8.67502 10.084 8.58788 10.084 8.49987C10.084 8.41186 10.0666 8.32473 10.0327 8.24349C9.99887 8.16225 9.94927 8.08851 9.88679 8.02654L7.06012 5.16654C6.99783 5.10475 6.92395 5.05587 6.84272 5.02269C6.7615 4.98952 6.67452 4.9727 6.58679 4.9732C6.49905 4.9727 6.41207 4.98951 6.33085 5.02269C6.24962 5.05587 6.17575 5.10475 6.11345 5.16654C5.98929 5.29145 5.91959 5.46041 5.91959 5.63654C5.91959 5.81266 5.98929 5.98163 6.11345 6.10654L8.47345 8.49987Z" fill="#C8D2DC"/>
</svg>
