<svg width="24" height="24" viewBox="0 0 24 24" fill="none" xmlns="http://www.w3.org/2000/svg">
<path d="M12.2402 2.3999C6.9602 2.3999 4.2002 5.7599 4.2002 9.4799C4.2002 11.2799 5.1602 13.0799 6.7202 14.0399C7.2002 14.2799 7.0802 14.0399 7.4402 12.5999C7.4402 12.4799 7.4402 12.3599 7.3202 12.2399C5.1602 9.5999 6.9602 4.4399 12.0002 4.4399C19.3202 4.4399 17.8802 14.5199 13.3202 14.5199C12.3602 14.6399 11.5202 13.9199 11.5202 12.9599V12.4799C12.0002 11.1599 12.3602 9.9599 12.4802 8.6399C12.4802 6.1199 8.7602 6.4799 8.7602 9.8399C8.7602 10.4399 8.8802 11.0399 9.1202 11.5199C9.1202 11.5199 7.9202 16.4399 7.6802 17.2799C7.4402 18.7199 7.5602 20.1599 7.8002 21.4799C7.6802 21.5999 7.8002 21.5999 7.8002 21.5999H7.9202C8.7602 20.3999 9.4802 19.1999 9.9602 17.8799C10.0802 17.2799 10.6802 15.1199 10.6802 15.1199C11.2802 15.9599 12.3602 16.4399 13.4402 16.4399C17.1602 16.4399 19.8002 13.1999 19.8002 9.2399C19.8002 5.2799 16.4402 2.3999 12.2402 2.3999Z" fill="url(#paint0_linear_1_208)"/>
<defs>
<linearGradient id="paint0_linear_1_208" x1="5.23763" y1="10.1999" x2="17.8882" y2="11.0598" gradientUnits="userSpaceOnUse">
<stop stop-color="#68C9FF"/>
<stop offset="0.994746" stop-color="#D1B5FF"/>
</linearGradient>
</defs>
</svg>
