<svg width="25" height="25" viewBox="0 0 25 25" fill="none" xmlns="http://www.w3.org/2000/svg">
<path d="M12.9166 12.3958C12.4999 11.1458 11.2499 10.3125 9.99992 10.3125C8.85409 10.3125 7.81242 10.9375 7.29159 11.875C6.97909 12.3958 7.18742 13.0208 7.70825 13.3333C8.22909 13.6458 8.85409 13.4375 9.16659 12.9167C9.47909 12.3958 10.1041 12.2917 10.6249 12.5C11.1458 12.7083 11.2499 13.4375 11.0416 13.9583C10.8333 14.2708 10.5208 14.4792 10.1041 14.4792C9.47909 14.4792 9.06242 14.8958 9.06242 15.5208V16.5625C9.06242 17.1875 9.47909 17.6042 10.1041 17.6042C10.7291 17.6042 11.1458 17.1875 11.1458 16.5625V16.3542C12.6041 15.8333 13.5416 14.0625 12.9166 12.3958ZM9.89575 18.75C9.27075 18.75 8.85409 19.1667 8.85409 19.7917C8.85409 20.4167 9.27075 20.8333 9.89575 20.8333C10.5208 20.8333 10.9374 20.4167 10.9374 19.7917C10.9374 19.1667 10.5208 18.75 9.89575 18.75ZM22.3958 7.39583C22.0833 7.1875 21.6666 7.1875 21.3541 7.39583L17.7083 9.27083C17.6041 7.60417 16.2499 6.25 14.5833 6.25H5.20825C3.43742 6.25 2.08325 7.60417 2.08325 9.375V15.625C2.08325 17.3958 3.43742 18.75 5.20825 18.75H7.49992C7.60409 18.5417 7.70825 18.3333 7.81242 18.125C7.49992 17.7083 7.29159 17.1875 7.29159 16.5625V15.5208C7.29159 15.3125 7.29159 15.1042 7.39575 14.8958C7.18742 14.7917 6.97909 14.7917 6.77075 14.6875C5.52075 13.9583 5.10409 12.3958 5.83325 11.1458C6.77075 9.6875 8.33325 8.75 9.99992 8.75C11.9791 8.75 13.7499 10 14.3749 11.875C14.7916 13.0208 14.6874 14.375 14.1666 15.4167C13.7499 16.25 13.1249 16.875 12.3958 17.3958C12.2916 17.7083 12.1874 17.9167 11.9791 18.2292C12.0833 18.3333 12.1874 18.5417 12.2916 18.75H14.5833C16.2499 18.75 17.6041 17.3958 17.7083 15.7292L21.4583 17.6042C21.9791 17.8125 22.6041 17.6042 22.8124 17.1875C22.9166 16.9792 22.9166 16.875 22.9166 16.6667V8.33333C22.9166 8.02083 22.7083 7.60417 22.3958 7.39583Z" fill="url(#paint0_linear_1_1797)"/>
<defs>
<linearGradient id="paint0_linear_1_1797" x1="3.46872" y1="12.1745" x2="20.2022" y2="14.1745" gradientUnits="userSpaceOnUse">
<stop stop-color="#68C9FF"/>
<stop offset="0.994746" stop-color="#D1B5FF"/>
</linearGradient>
</defs>
</svg>
